<?xml version="1.0" encoding="UTF-8" standalone="no"?>
<!-- Created with Inkscape (http://www.inkscape.org/) -->

<svg
   version="1.1"
   id="svg1"
   width="587"
   height="941"
   viewBox="0 0 587 941"
   sodipodi:docname="AR-11 133m2.svg"
   inkscape:version="1.3 (0e150ed6c4, 2023-07-21)"
   xmlns:inkscape="http://www.inkscape.org/namespaces/inkscape"
   xmlns:sodipodi="http://sodipodi.sourceforge.net/DTD/sodipodi-0.dtd"
   xmlns="http://www.w3.org/2000/svg"
   xmlns:svg="http://www.w3.org/2000/svg">
  <defs
     id="defs1" />
  <sodipodi:namedview
     id="namedview1"
     pagecolor="#ffffff"
     bordercolor="#000000"
     borderopacity="0.25"
     inkscape:showpageshadow="2"
     inkscape:pageopacity="0.0"
     inkscape:pagecheckerboard="0"
     inkscape:deskcolor="#d1d1d1"
     showgrid="false"
     inkscape:zoom="1.2218444"
     inkscape:cx="285.63374"
     inkscape:cy="408.80818"
     inkscape:window-width="1920"
     inkscape:window-height="1009"
     inkscape:window-x="-8"
     inkscape:window-y="-8"
     inkscape:window-maximized="1"
     inkscape:current-layer="g1" />
  <g
     inkscape:groupmode="layer"
     inkscape:label="Image"
     id="g1">
    <path
       style="fill:#ff0000;fill-rule:evenodd;stroke:#000000;stroke-width:3.2;stroke-linecap:round;stroke-miterlimit:4.4"
       d="M 63.659287,762.754 C 51.582868,700.66437 29.386134,666.84888 33.086377,550.94219 l 22.470819,3.47232 c -11.902824,63.05746 4.524297,138.50926 8.102091,208.33949 z"
       id="path1"
       sodipodi:nodetypes="cccc" />
    <path
       style="fill:#ff0000;fill-rule:evenodd;stroke:#000000;stroke-width:3.2;stroke-linecap:round;stroke-miterlimit:4.4"
       d="M 64.247131,759.50748 C 59.714012,691.1794 45.156805,619.76698 53.198261,555.308 l 20.870087,7.36592 C 65.044859,561.03329 62.62406,759.95641 64.247131,759.50748 Z"
       id="path2"
       sodipodi:nodetypes="cccc" />
    <path
       style="fill:#ff0000;fill-rule:evenodd;stroke:#000000;stroke-width:3.2;stroke-linecap:round;stroke-miterlimit:4.4"
       d="M 63.428696,762.372 C 65.780495,695.04312 60.978508,626.41356 74.068348,561.03705 l 25.371479,8.18434 C 80.653425,630.21358 74.319933,697.43223 63.428696,762.372 Z"
       id="path3"
       sodipodi:nodetypes="cccc" />
    <path
       style="fill:#ff0000;fill-rule:evenodd;stroke:#000000;stroke-width:3.2;stroke-linecap:round;stroke-miterlimit:4.4"
       d="m 65.884,760.32592 c 9.207831,-64.81107 14.376989,-132.19221 34.78348,-189.87687 l 24.96226,8.18434 z"
       id="path4"
       sodipodi:nodetypes="cccc" />
    <path
       style="fill:#ff0000;fill-rule:evenodd;stroke:#000000;stroke-width:3.2;stroke-linecap:round;stroke-miterlimit:4.4"
       d="m 65.884,759.50748 c 0,0 56.472,-184.55704 60.15496,-182.92017 3.68295,1.63687 28.64521,6.13826 28.64521,6.13826 z"
       id="path5" />
    <path
       style="fill:#ff0000;fill-rule:evenodd;stroke:#000000;stroke-width:3.2;stroke-linecap:round;stroke-miterlimit:4.4"
       d="m 65.065566,759.09826 89.618604,-176.78191 33.96505,6.9567 L 62.610261,759.9167"
       id="path6" />
    <path
       style="fill:#ff0000;fill-rule:evenodd;stroke:#000000;stroke-width:3.2;stroke-linecap:round;stroke-miterlimit:4.4"
       d="M 64.247131,761.55357 C 63.490563,759.54607 181.47721,590.61556 189.87687,589.68226 l 34.78348,4.5014 z"
       id="path7"
       sodipodi:nodetypes="cccc" />
    <path
       style="fill:#ff0000;fill-rule:evenodd;stroke:#000000;stroke-width:3.2;stroke-linecap:round;stroke-miterlimit:4.4"
       d="m 64.656348,761.96279 c 0,0 156.730262,-169.00679 162.868522,-168.18835 6.13826,0.81843 39.69409,4.09217 39.69409,4.09217 z"
       id="path8" />
    <path
       style="fill:#ff0000;fill-rule:evenodd;stroke:#000000;stroke-width:3.2;stroke-linecap:round;stroke-miterlimit:4.4"
       d="M 65.884,764.00887 C 133.68013,708.47458 202.5318,645.55145 269.26504,597.45739 l 40.10331,2.45531 0.40922,11.45809 z"
       id="path9"
       sodipodi:nodetypes="ccccc" />
    <path
       style="fill:#ff0000;fill-rule:evenodd;stroke:#000000;stroke-width:3.2;stroke-linecap:round;stroke-miterlimit:4.4"
       d="M 66.293218,765.23653 C 148.65958,714.3117 230.109,656.05127 313.46052,613.00766 l -3.68295,41.33095 z"
       id="path10"
       sodipodi:nodetypes="cccc" />
    <path
       style="fill:#ff0000;fill-rule:evenodd;stroke:#000000;stroke-width:3.2;stroke-linecap:round;stroke-miterlimit:4.4"
       d="m 68.339305,766.8734 241.438265,-113.35322 0.40921,44.60469 z"
       id="path11" />
    <path
       style="fill:#ff0000;fill-rule:evenodd;stroke:#000000;stroke-width:3.2;stroke-linecap:round;stroke-miterlimit:4.4"
       d="m 69.157739,764.82731 c 0,0 243.484351,-68.33931 243.484351,-65.884 0,2.4553 -2.04609,38.05722 -2.04609,38.05722 z"
       id="path12" />
    <path
       style="fill:#ff0000;fill-rule:evenodd;stroke:#000000;stroke-width:3.2;stroke-linecap:round;stroke-miterlimit:4.4"
       d="m 69.157739,765.64574 242.256701,-28.236 c 0,0 -2.45531,37.648 0,38.05722 2.4553,0.40922 -242.256701,-9.82122 -242.256701,-9.82122 z"
       id="path13" />
    <path
       style="fill:#ff0000;fill-rule:evenodd;stroke:#000000;stroke-width:3.2;stroke-linecap:round;stroke-miterlimit:4.4"
       d="m 72.840696,769.3287 c 2.046087,0 236.936874,6.13826 236.936874,6.13826 l 0.81843,35.1927 C 306.83718,820.68317 68.448153,775.85872 72.840696,769.3287 Z"
       id="path14"
       sodipodi:nodetypes="cccc" />
    <path
       style="fill:#ff0000;fill-rule:evenodd;stroke:#000000;stroke-width:3.2;stroke-linecap:round;stroke-miterlimit:4.4"
       d="m 74.068348,771.37479 c 7.168616,9.63227 238.197672,47.1895 234.890782,40.1033 0,0 1.24977,29.49372 -0.40922,30.69131 -8.78735,6.34344 -245.687897,-58.92908 -234.481562,-70.79461 z"
       id="path15"
       sodipodi:nodetypes="ccsc" />
    <path
       style="fill:#ff0000;fill-rule:evenodd;stroke:#000000;stroke-width:3.2;stroke-linecap:round;stroke-miterlimit:4.4"
       d="m 80.615826,772.60244 c 19.029596,28.88066 233.718254,74.74218 228.752524,68.74852 -1.30537,-1.57559 2.04609,33.14661 2.04609,33.14661 C 228.51586,859.70802 148.38341,836.02732 80.615826,772.60244 Z"
       id="path16"
       sodipodi:nodetypes="cscc" />
    <path
       style="fill:#ff0000;fill-rule:evenodd;stroke:#000000;stroke-width:3.2;stroke-linecap:round;stroke-miterlimit:4.4"
       d="m 33.555826,547.12365 c -2.267081,-3.52978 -2.671093,-124.66036 2.455305,-126.85739 l 25.371478,2.04609 c -7.232947,35.14201 -9.812637,78.89886 -9.412,129.3127 z"
       id="path17"
       sodipodi:nodetypes="ccccc" />
    <path
       style="fill:#ff0000;fill-rule:evenodd;stroke:#000000;stroke-width:3.2;stroke-linecap:round;stroke-miterlimit:4.4"
       d="m 52.789044,552.44348 c -5.367235,-6.35874 1.984233,-134.5287 8.593565,-129.72191 l 25.780696,-0.40922 c -11.097,48.45733 -14.510448,94.92669 -14.731826,137.90626 z"
       id="path18"
       sodipodi:nodetypes="ccccc" />
    <path
       style="fill:#ff0000;fill-rule:evenodd;stroke:#000000;stroke-width:3.2;stroke-linecap:round;stroke-miterlimit:4.4"
       d="m 73.659131,561.44626 c -4.070583,1.64351 6.394172,-134.41969 14.731826,-137.49704 1.582873,-0.58422 32.328173,0.81843 32.328173,0.81843 L 98.621392,566.76609 Z"
       id="path19"
       sodipodi:nodetypes="csccc" />
    <path
       style="fill:#ff0000;fill-rule:evenodd;stroke:#000000;stroke-width:3.2;stroke-linecap:round;stroke-miterlimit:4.4"
       d="m 99.439827,567.17531 c 0,0 17.596343,-143.63531 20.870083,-143.63531 3.27374,0 37.648,-0.40922 37.648,-0.40922 L 124.8113,576.17809 Z"
       id="path20" />
    <path
       style="fill:#ff0000;fill-rule:evenodd;stroke:#000000;stroke-width:3.2;stroke-linecap:round;stroke-miterlimit:4.4"
       d="M 125.22052,577.40574 157.95791,424.35844 197.24278,423.54 154.68417,580.27026 Z"
       id="path21" />
    <path
       style="fill:#ff0000;fill-rule:evenodd;stroke:#000000;stroke-width:3.2;stroke-linecap:round;stroke-miterlimit:4.4"
       d="m 154.68417,581.49792 c 0,0 41.33096,-159.18557 42.96783,-159.18557 1.63687,0 37.648,0.40922 37.648,0.40922 l -46.24156,165.32382 z"
       id="path22" />
    <path
       style="fill:#ff0000;fill-rule:evenodd;stroke:#000000;stroke-width:3.2;stroke-linecap:round;stroke-miterlimit:4.4"
       d="M 189.46765,588.04539 C 188.64922,586.40852 235.3,423.13078 235.3,423.13078 l 40.51252,3.27374 -51.15217,167.77914 z"
       id="path23" />
    <path
       style="fill:#ff0000;fill-rule:evenodd;stroke:#000000;stroke-width:3.2;stroke-linecap:round;stroke-miterlimit:4.4"
       d="m 224.66035,593.36522 c 0,-2.04609 50.33374,-168.18835 50.33374,-168.18835 l 29.87287,0.40922 0.81843,37.648 -34.78348,133.40487 z"
       id="path24" />
    <path
       style="fill:#ff0000;fill-rule:evenodd;stroke:#000000;stroke-width:3.2;stroke-linecap:round;stroke-miterlimit:4.4"
       d="m 270.08348,595.82052 c 0,-1.63686 38.46643,-135.04174 38.46643,-135.04174 l 1.22766,140.36157 z"
       id="path25" />
    <path
       style="fill:#ff0000;fill-rule:evenodd;stroke:#000000;stroke-width:3.2;stroke-linecap:round;stroke-miterlimit:4.4"
       d="M 35.601913,418.22018 C 32.271329,409.2033 51.565484,283.53328 61.382609,274.17566 l 24.553044,-5.72905 c -8.721178,-5.45074 -33.701021,149.22244 -24.553044,153.04731 1.55666,0.65086 -25.780696,-3.27374 -25.780696,-3.27374 z"
       id="path26"
       sodipodi:nodetypes="cccsc" />
    <path
       style="fill:#ff0000;fill-rule:evenodd;stroke:#000000;stroke-width:3.2;stroke-linecap:round;stroke-miterlimit:4.4"
       d="m 60.154957,423.13078 c -6.373103,2.04608 12.900814,-151.34167 25.780696,-155.5026 2.096993,-0.67745 32.737387,-4.91061 32.737387,-4.91061 C 97.974383,312.29716 92.267486,367.49866 88.800174,423.54 Z"
       id="path27"
       sodipodi:nodetypes="csccc" />
    <path
       style="fill:#ff0000;fill-rule:evenodd;stroke:#000000;stroke-width:3.2;stroke-linecap:round;stroke-miterlimit:4.4"
       d="m 89.209392,423.54 c 3.93433,-54.0167 6.209586,-108.03339 27.008348,-162.05009 l 33.55583,-4.9106 -27.82679,167.36991 z"
       id="path28"
       sodipodi:nodetypes="ccccc" />
    <path
       style="fill:#ff0000;fill-rule:evenodd;stroke:#000000;stroke-width:3.2;stroke-linecap:round;stroke-miterlimit:4.4"
       d="m 119.9007,424.35844 29.46365,-167.77913 34.37426,-5.31983 -24.96226,173.09896 z"
       id="path29" />
    <path
       style="fill:#ff0000;fill-rule:evenodd;stroke:#000000;stroke-width:3.2;stroke-linecap:round;stroke-miterlimit:4.4"
       d="M 159.59478,423.94922 182.51096,250.03183 218.93131,249.21339 196.83357,423.54 Z"
       id="path30" />
    <path
       style="fill:#ff0000;fill-rule:evenodd;stroke:#000000;stroke-width:3.2;stroke-linecap:round;stroke-miterlimit:4.4"
       d="m 198.06122,421.0847 19.64243,-172.28052 c 0,0 39.69409,-0.81844 36.42035,-1.22766 C 250.85026,247.16731 235.70922,423.54 235.70922,423.54 Z"
       id="path31" />
    <path
       style="fill:#ff0000;fill-rule:evenodd;stroke:#000000;stroke-width:3.2;stroke-linecap:round;stroke-miterlimit:4.4"
       d="m 235.70922,422.72157 c -0.81844,-1.63687 17.18713,-176.3727 17.18713,-176.3727 l 36.82956,2.45531 2.04609,24.55304 -17.18713,150.592 z"
       id="path32" />
    <path
       style="fill:#ff0000;fill-rule:evenodd;stroke:#000000;stroke-width:3.2;stroke-linecap:round;stroke-miterlimit:4.4"
       d="m 277.04018,425.58609 c -1.63687,-2.86452 16.77791,-153.45652 16.77791,-151.41044 0,2.04609 11.04887,151.41044 11.04887,151.41044 z"
       id="path33" />
    <path
       style="fill:#ff0000;fill-rule:evenodd;stroke:#000000;stroke-width:3.2;stroke-linecap:round;stroke-miterlimit:4.4"
       d="M 61.382609,272.948 C 70.355086,191.11989 174.92411,28.339784 217.29444,2.046087 157.69596,80.442437 123.57408,173.89314 87.163305,265.99131 Z"
       id="path34"
       sodipodi:nodetypes="cccc" />
    <path
       style="fill:#ff0000;fill-rule:evenodd;stroke:#000000;stroke-width:3.2;stroke-linecap:round;stroke-miterlimit:4.4"
       d="M 87.98174,268.03739 C 128.74159,155.11988 170.47287,51.592879 217.70365,1.2276522 178.8962,76.925283 143.58589,161.56007 114.58087,262.30835 Z"
       id="path35"
       sodipodi:nodetypes="cccc" />
    <path
       style="fill:#ff0000;fill-rule:evenodd;stroke:#000000;stroke-width:3.2;stroke-linecap:round;stroke-miterlimit:4.4"
       d="M 117.03617,262.30835 C 146.61675,162.25798 178.76335,70.760996 218.11287,3.2737391 L 148.54591,256.17009 Z"
       id="path36"
       sodipodi:nodetypes="cccc" />
    <path
       style="fill:#ff0000;fill-rule:evenodd;stroke:#000000;stroke-width:3.2;stroke-linecap:round;stroke-miterlimit:4.4"
       d="M 149.36435,255.35165 C 150.18278,252.48713 218.11287,2.8645218 218.11287,2.8645218 l -36.42035,248.3949582 -31.50974,2.04609"
       id="path37" />
    <path
       style="fill:#ff0000;fill-rule:evenodd;stroke:#000000;stroke-width:3.2;stroke-linecap:round;stroke-miterlimit:4.4"
       d="m 182.92017,250.85026 c 0,0 36.01114,-248.804173 37.23879,-246.3488687 1.22765,2.4553044 -2.86452,243.0751287 -2.86452,243.0751287 z"
       id="path38" />
    <path
       style="fill:#ff0000;fill-rule:evenodd;stroke:#000000;stroke-width:3.2;stroke-linecap:round;stroke-miterlimit:4.4"
       d="M 217.70365,250.03183 220.97739,4.0921739 254.94244,247.98574 Z"
       id="path39" />
    <path
       style="fill:#ff0000;fill-rule:evenodd;stroke:#000000;stroke-width:3.2;stroke-linecap:round;stroke-miterlimit:4.4"
       d="M 254.124,247.57652 221.79583,3.2737391 289.3167,248.39496 Z"
       id="path40" />
    <path
       style="fill:#ff0000;fill-rule:evenodd;stroke:#000000;stroke-width:3.2;stroke-linecap:round;stroke-miterlimit:4.4"
       d="M 290.54435,248.80418 222.20504,4.9106087 331.46609,252.48713 Z"
       id="path41" />
    <path
       style="fill:#ff0000;fill-rule:evenodd;stroke:#000000;stroke-width:3.2;stroke-linecap:round;stroke-miterlimit:4.4"
       d="M 330.64765,252.48713 222.61426,4.0921739 367.88644,257.39774 Z"
       id="path42" />
    <path
       style="fill:#ff0000;fill-rule:evenodd;stroke:#000000;stroke-width:3.2;stroke-linecap:round;stroke-miterlimit:4.4"
       d="M 366.65878,257.39774 226.29722,10.639652 C 295.98281,91.937921 357.49916,168.37774 397.35009,265.58209 Z"
       id="path43"
       sodipodi:nodetypes="cccc" />
    <path
       style="fill:#ff0000;fill-rule:evenodd;stroke:#000000;stroke-width:3.2;stroke-linecap:round;stroke-miterlimit:4.4"
       d="M 423.54,279.9047 C 381.64845,178.44132 309.51349,92.549632 231.20783,11.458087 313.07471,81.53985 389.99337,161.02322 439.49948,292.59044 Z"
       id="path45"
       sodipodi:nodetypes="cccc" />
    <path
       style="fill:#ff0000;fill-rule:evenodd;stroke:#000000;stroke-width:3.2;stroke-linecap:round;stroke-miterlimit:4.4"
       d="M 304.86696,424.35844 293.40887,278.26783 332.69374,424.35844 Z"
       id="path46" />
    <path
       style="fill:#ff0000;fill-rule:evenodd;stroke:#000000;stroke-width:3.2;stroke-linecap:round;stroke-miterlimit:4.4"
       d="M 334.33061,424.35844 291.772,274.58487 c 0,0 -4.09217,-24.55304 -1.63687,-24.96226 2.45531,-0.40922 40.92174,2.86452 40.92174,2.86452 l 47.06,173.91739 z"
       id="path47" />
    <path
       style="fill:#ff0000;fill-rule:evenodd;stroke:#000000;stroke-width:3.2;stroke-linecap:round;stroke-miterlimit:4.4"
       d="m 380.16296,428.04139 c 0,0 -52.78905,-175.96348 -47.87844,-175.96348 4.91061,0 33.55583,4.5014 33.55583,4.5014 21.30542,58.51083 36.06805,114.56811 48.69687,169.82521 z"
       id="path48"
       sodipodi:nodetypes="csccc" />
    <path
       style="fill:#ff0000;fill-rule:evenodd;stroke:#000000;stroke-width:3.2;stroke-linecap:round;stroke-miterlimit:4.4"
       d="m 414.53722,427.63218 c 2.4553,-0.40922 -47.06,-171.46209 -47.06,-171.46209 l 33.14661,12.27652 48.69687,165.32383 z"
       id="path49" />
    <path
       style="fill:#ff0000;fill-rule:evenodd;stroke:#000000;stroke-width:3.2;stroke-linecap:round;stroke-miterlimit:4.4"
       d="m 447.68383,430.90592 -49.10609,-162.86853 29.46365,13.91339 c 27.68956,63.51891 36.53059,110.28357 45.01392,156.73027 z"
       id="path50"
       sodipodi:nodetypes="ccccc" />
    <path
       style="fill:#ff0000;fill-rule:evenodd;stroke:#000000;stroke-width:3.2;stroke-linecap:round;stroke-miterlimit:4.4"
       d="m 472.64609,439.9087 c 2.99301,3.12625 -45.08946,-155.60837 -47.06,-158.36713 l 13.91339,11.04887 c 20.40885,52.69483 35.48505,101.70029 45.01392,148.95513 z"
       id="path51"
       sodipodi:nodetypes="ccccc" />
    <path
       style="fill:#ff0000;fill-rule:evenodd;stroke:#000000;stroke-width:3.2;stroke-linecap:round;stroke-miterlimit:4.4"
       d="m 308.95913,601.54957 c 3.27374,-2.04609 -1.63687,-138.31548 -1.63687,-138.31548 l 42.55861,138.31548 z"
       id="path52" />
    <path
       style="fill:#ff0000;fill-rule:evenodd;stroke:#000000;stroke-width:3.2;stroke-linecap:round;stroke-miterlimit:4.4"
       d="m 349.88087,601.14035 -45.01391,-136.67861 -0.40922,-38.46643 28.64522,-1.22766 59.74574,178.00957 z"
       id="path53" />
    <path
       style="fill:#ff0000;fill-rule:evenodd;stroke:#000000;stroke-width:3.2;stroke-linecap:round;stroke-miterlimit:4.4"
       d="M 393.25792,603.18644 334.33061,423.54 l 44.19548,4.09218 54.42591,171.05287 z"
       id="path54" />
    <path
       style="fill:#ff0000;fill-rule:evenodd;stroke:#000000;stroke-width:3.2;stroke-linecap:round;stroke-miterlimit:4.4"
       d="M 432.13357,598.68505 378.52609,427.22296 h 36.42035 c 29.0528,75.44604 35.47641,117.61387 47.06,167.36991 z"
       id="path55"
       sodipodi:nodetypes="ccccc" />
    <path
       style="fill:#ff0000;fill-rule:evenodd;stroke:#000000;stroke-width:3.2;stroke-linecap:round;stroke-miterlimit:4.4"
       d="m 461.188,594.18366 c -7.81387,-49.58382 -21.50039,-97.52323 -45.83235,-166.9607 l 33.14661,6.13826 c 19.04085,54.86194 24.78222,105.29073 31.10053,155.91183 z"
       id="path56"
       sodipodi:nodetypes="ccccc" />
    <path
       style="fill:#ff0000;fill-rule:evenodd;stroke:#000000;stroke-width:3.2;stroke-linecap:round;stroke-miterlimit:4.4"
       d="M 480.012,590.09148 C 474.88517,540.6943 467.48783,492.81258 449.3207,432.952 l 22.91617,5.72905 c 20.09515,53.41421 20.30287,99.80932 22.50696,146.90904 z"
       id="path57"
       sodipodi:nodetypes="ccccc" />
    <path
       style="fill:#ff0000;fill-rule:evenodd;stroke:#000000;stroke-width:3.2;stroke-linecap:round;stroke-miterlimit:4.4"
       d="m 494.33461,585.18087 c 7.91581,4.45264 -16.67652,-144.01307 -22.91617,-148.13669 -2.91692,-1.92772 13.09495,5.72904 13.09495,5.72904 15.62901,57.24046 16.52938,96.35336 18.41479,136.67861 z"
       id="path58"
       sodipodi:nodetypes="csccc" />
    <path
       style="fill:#ff0000;fill-rule:evenodd;stroke:#000000;stroke-width:3.2;stroke-linecap:round;stroke-miterlimit:4.4"
       d="m 502.10974,845.03392 c -39.97275,43.14734 -124.46997,29.64899 -191.92295,28.64521 0,0 -0.32821,-32.78582 -0.40922,-31.10052 -0.46767,9.72931 187.09476,25.64953 192.33217,2.45531 z"
       id="path59"
       sodipodi:nodetypes="ccsc" />
    <path
       style="fill:#ff0000;fill-rule:evenodd;stroke:#000000;stroke-width:3.2;stroke-linecap:round;stroke-miterlimit:4.4"
       d="m 500.88209,845.44313 c -34.10501,13.26092 -90.20173,15.70624 -190.69531,-3.68295 l -1.22765,-32.73739 c 63.41455,20.53666 127.41732,32.25009 191.92296,36.42034 z"
       id="path60"
       sodipodi:nodetypes="cccc" />
    <path
       style="fill:#ff0000;fill-rule:evenodd;stroke:#000000;stroke-width:3.2;stroke-linecap:round;stroke-miterlimit:4.4"
       d="M 500.88209,845.44313 C 433.41768,841.81456 370.4269,828.59965 310.596,808.61357 l 0.81844,-35.1927 c 63.15588,32.19813 126.31177,51.38065 189.46765,72.02226 z"
       id="path61"
       sodipodi:nodetypes="cccc" />
    <path
       style="fill:#ff0000;fill-rule:evenodd;stroke:#000000;stroke-width:3.2;stroke-linecap:round;stroke-miterlimit:4.4"
       d="M 502.92818,845.44313 C 436.79626,823.74366 369.19304,803.6994 311.41444,772.60244 l 0.81843,-35.1927 z"
       id="path62"
       sodipodi:nodetypes="cccc" />
    <path
       style="fill:#ff0000;fill-rule:evenodd;stroke:#000000;stroke-width:3.2;stroke-linecap:round;stroke-miterlimit:4.4"
       d="M 504.15583,844.6247 310.596,734.136 l 1.22765,-33.55582 z"
       id="path63" />
    <path
       style="fill:#ff0000;fill-rule:evenodd;stroke:#000000;stroke-width:3.2;stroke-linecap:round;stroke-miterlimit:4.4"
       d="M 503.33739,842.98783 309.77757,698.94331 c 0,0 -2.04609,-46.65078 0.40921,-46.24157 2.45531,0.40922 193.15061,190.28609 193.15061,190.28609 z"
       id="path64"
       sodipodi:nodetypes="ccsc" />
    <path
       style="fill:#ff0000;fill-rule:evenodd;stroke:#000000;stroke-width:3.2;stroke-linecap:round;stroke-miterlimit:4.4"
       d="m 503.74661,842.1694 c 0,0 -193.96904,-186.60314 -193.55983,-189.46766 0.40922,-2.86452 1.22766,-42.96782 1.22766,-42.96782 z"
       id="path65" />
    <path
       style="fill:#ff0000;fill-rule:evenodd;stroke:#000000;stroke-width:3.2;stroke-linecap:round;stroke-miterlimit:4.4"
       d="m 503.74661,842.1694 c 0,0 -191.51374,-227.93409 -192.33217,-230.79861 -0.81844,-2.86453 -1.22766,-12.68574 -1.22766,-12.68574 l 39.28487,3.27374 z"
       id="path66" />
    <path
       style="fill:#ff0000;fill-rule:evenodd;stroke:#000000;stroke-width:3.2;stroke-linecap:round;stroke-miterlimit:4.4"
       d="m 505.7927,842.57861 c 0,0 -159.18557,-243.48435 -155.50261,-242.66591 3.68296,0.81843 44.19548,1.22765 44.19548,1.22765 z"
       id="path67" />
    <path
       style="fill:#ff0000;fill-rule:evenodd;stroke:#000000;stroke-width:3.2;stroke-linecap:round;stroke-miterlimit:4.4"
       d="M 506.61113,840.12331 C 469.33598,760.50779 426.62706,684.77354 396.12244,600.32192 l 37.648,-2.04609 c 31.46795,80.61583 50.54983,161.23165 72.84069,241.84748 z"
       id="path68"
       sodipodi:nodetypes="cccc" />
    <path
       style="fill:#ff0000;fill-rule:evenodd;stroke:#000000;stroke-width:3.2;stroke-linecap:round;stroke-miterlimit:4.4"
       d="m 508.248,839.71409 c 0,0 -74.88678,-243.07513 -72.84069,-243.48435 2.04608,-0.40922 27.41756,-0.40922 27.41756,-0.40922 z"
       id="path69" />
    <path
       style="fill:#ff0000;fill-rule:evenodd;stroke:#000000;stroke-width:3.2;stroke-linecap:round;stroke-miterlimit:4.4"
       d="m 509.47565,838.07722 -47.46921,-243.89356 20.05165,-4.09218 z"
       id="path70" />
    <path
       style="fill:#ff0000;fill-rule:evenodd;stroke:#000000;stroke-width:3.2;stroke-linecap:round;stroke-miterlimit:4.4"
       d="m 507.83879,803.70296 c -0.81844,-4.91061 -27.41757,-216.06678 -27.41757,-216.06678 l 14.32261,-2.04609 c 14.12145,101.97367 8.90633,145.93766 13.09496,218.11287 z"
       id="path71"
       sodipodi:nodetypes="cccc" />
    <path
       style="fill:#ff0000;fill-rule:evenodd;stroke:#000000;stroke-width:3.2;stroke-linecap:round;stroke-miterlimit:4.4"
       d="M 510.29409,830.71131 C 505.5502,748.50408 504.80956,672.30174 495.97148,583.95322 l 6.9567,-5.72904 c 7.91037,90.77501 7.83885,183.71832 7.36591,252.48713 z"
       id="path72"
       sodipodi:nodetypes="cccc" />
    <path
       style="fill:#ff0000;fill-rule:evenodd;stroke:#000000;stroke-width:3.2;stroke-linecap:round;stroke-miterlimit:4.4"
       d="M 398.16852,265.99131 C 349.14756,178.53198 289.15473,94.06497 228.34331,9.8212174 316.14991,96.42707 384.66902,186.62129 425.58609,281.95078 Z"
       id="path73"
       sodipodi:nodetypes="cccc" />
  </g>
</svg>
