<?xml version="1.0" encoding="UTF-8" standalone="no"?>
<!-- Created with Inkscape (http://www.inkscape.org/) -->

<svg
   version="1.1"
   id="svg1"
   width="587"
   height="941"
   viewBox="0 0 587 941"
   sodipodi:docname="AR-12 148m2.svg"
   inkscape:version="1.3 (0e150ed6c4, 2023-07-21)"
   xmlns:inkscape="http://www.inkscape.org/namespaces/inkscape"
   xmlns:sodipodi="http://sodipodi.sourceforge.net/DTD/sodipodi-0.dtd"
   xmlns="http://www.w3.org/2000/svg"
   xmlns:svg="http://www.w3.org/2000/svg">
  <defs
     id="defs1" />
  <sodipodi:namedview
     id="namedview1"
     pagecolor="#ffffff"
     bordercolor="#000000"
     borderopacity="0.25"
     inkscape:showpageshadow="2"
     inkscape:pageopacity="0.0"
     inkscape:pagecheckerboard="0"
     inkscape:deskcolor="#d1d1d1"
     showgrid="false"
     inkscape:lockguides="true"
     inkscape:zoom="1.727949"
     inkscape:cx="131.36962"
     inkscape:cy="210.94373"
     inkscape:window-width="1920"
     inkscape:window-height="1009"
     inkscape:window-x="-8"
     inkscape:window-y="-8"
     inkscape:window-maximized="1"
     inkscape:current-layer="g1" />
  <g
     inkscape:groupmode="layer"
     inkscape:label="Image"
     id="g1">
    <path
       style="fill:#ff0000;fill-rule:evenodd;stroke:#000000;stroke-width:3.2;stroke-linecap:round;stroke-miterlimit:4.4"
       d="M 83.335793,771.43481 C 82.278597,770.70407 42.061107,566.53602 48.323186,547.18051 l 21.702029,10.70633 z"
       id="path1"
       sodipodi:nodetypes="cccc" />
    <path
       style="fill:#ff0000;fill-rule:evenodd;stroke:#000000;stroke-width:3.2;stroke-linecap:round;stroke-miterlimit:4.4"
       d="m 79.863469,767.38376 c -0.42618,-2.1309 -5.246213,-114.10811 -7.757555,-172.9905 -0.898873,-21.07549 -1.501978,-35.34898 -1.501978,-35.34898 l 20.833948,5.78721 z"
       id="path2"
       sodipodi:nodetypes="csccc" />
    <path
       style="fill:#ff0000;fill-rule:evenodd;stroke:#000000;stroke-width:3.2;stroke-linecap:round;stroke-miterlimit:4.4"
       d="m 83.914514,766.80504 6.944653,-203.99907 25.463713,8.97017 z"
       id="path3"
       sodipodi:nodetypes="cccc" />
    <path
       style="fill:#ff0000;fill-rule:evenodd;stroke:#000000;stroke-width:3.2;stroke-linecap:round;stroke-miterlimit:4.4"
       d="m 81.599631,769.11993 c 1.157442,-4.05105 32.697719,-197.05443 35.012609,-196.47571 2.31488,0.57872 23.14883,5.20849 23.14883,5.20849 z"
       id="path4"
       sodipodi:nodetypes="cscc" />
    <path
       style="fill:#ff0000;fill-rule:evenodd;stroke:#000000;stroke-width:3.2;stroke-linecap:round;stroke-miterlimit:4.4"
       d="m 80.442189,764.49016 57.872081,-187.79489 32.98708,9.25953 z"
       id="path5"
       sodipodi:nodetypes="cccc" />
    <path
       style="fill:#ff0000;fill-rule:evenodd;stroke:#000000;stroke-width:3.2;stroke-linecap:round;stroke-miterlimit:4.4"
       d="M 82.757073,766.22632 C 81.599631,763.33272 170.43327,585.9548 170.43327,585.9548 l 33.85517,5.49784 z"
       id="path6"
       sodipodi:nodetypes="cccc" />
    <path
       style="fill:#ff0000;fill-rule:evenodd;stroke:#000000;stroke-width:3.2;stroke-linecap:round;stroke-miterlimit:4.4"
       d="m 84.493235,762.17528 120.952645,-171.30136 35.88069,6.36593 z"
       id="path7" />
    <path
       style="fill:#ff0000;fill-rule:evenodd;stroke:#000000;stroke-width:3.2;stroke-linecap:round;stroke-miterlimit:4.4"
       d="M 84.493235,761.59656 244.22017,594.34625 286.75615,598.3973 Z"
       id="path8"
       sodipodi:nodetypes="cccc" />
    <path
       style="fill:#ff0000;fill-rule:evenodd;stroke:#000000;stroke-width:3.2;stroke-linecap:round;stroke-miterlimit:4.4"
       d="m 81.02091,766.80504 c -0.578721,-2.8936 203.70972,-166.09286 203.70972,-166.09286 l 40.51045,1.15744 1.15744,14.46801 z"
       id="path9"
       sodipodi:nodetypes="ccccc" />
    <path
       style="fill:#ff0000;fill-rule:evenodd;stroke:#000000;stroke-width:3.2;stroke-linecap:round;stroke-miterlimit:4.4"
       d="M 83.914514,766.80504 C 165.12833,716.84215 250.06504,655.7106 327.55597,616.91636 l 0.28935,37.90621 z"
       id="path10"
       sodipodi:nodetypes="cccc" />
    <path
       style="fill:#ff0000;fill-rule:evenodd;stroke:#000000;stroke-width:3.2;stroke-linecap:round;stroke-miterlimit:4.4"
       d="M 84.493235,768.54121 326.97724,656.84809 326.39852,700.83087 Z"
       id="path11" />
    <path
       style="fill:#ff0000;fill-rule:evenodd;stroke:#000000;stroke-width:3.2;stroke-linecap:round;stroke-miterlimit:4.4"
       d="M 85.071956,767.38376 328.13469,699.09471 c 0,0 1.73616,45.14022 0,42.24662 -1.73617,-2.89361 -243.062734,26.04243 -243.062734,26.04243 z"
       id="path12" />
    <path
       style="fill:#ff0000;fill-rule:evenodd;stroke:#000000;stroke-width:3.2;stroke-linecap:round;stroke-miterlimit:4.4"
       d="m 84.493235,768.54121 244.220175,-28.93604 -0.57872,38.19557 z"
       id="path13" />
    <path
       style="fill:#ff0000;fill-rule:evenodd;stroke:#000000;stroke-width:3.2;stroke-linecap:round;stroke-miterlimit:4.4"
       d="m 85.071956,770.85609 243.641454,5.78721 -0.57872,37.03813 C 241.77805,810.07778 161.62344,794.07006 85.071956,770.85609 Z"
       id="path14"
       sodipodi:nodetypes="cccc" />
    <path
       style="fill:#ff0000;fill-rule:evenodd;stroke:#000000;stroke-width:3.2;stroke-linecap:round;stroke-miterlimit:4.4"
       d="m 86.808118,771.43481 c 77.307352,20.99262 156.429752,38.09587 241.326572,42.82534 l 1.15744,31.25092 C 237.81847,838.56174 158.66947,811.07131 86.808118,771.43481 Z"
       id="path15"
       sodipodi:nodetypes="cccc" />
    <path
       style="fill:#ff0000;fill-rule:evenodd;stroke:#000000;stroke-width:3.2;stroke-linecap:round;stroke-miterlimit:4.4"
       d="m 90.859164,774.90713 c -4.574636,12.91988 229.665126,84.89868 239.011686,70.60394 l -1.15744,29.51476 C 234.71227,861.62518 154.31379,829.76376 90.859164,774.90713 Z"
       id="path16"
       sodipodi:nodetypes="cccc" />
    <path
       style="fill:#ff0000;fill-rule:evenodd;stroke:#000000;stroke-width:3.2;stroke-linecap:round;stroke-miterlimit:4.4"
       d="m 523.74231,848.9834 c -8.11747,33.68109 -197.58815,31.39273 -193.87146,26.62115 l -2.04609,-32.40836 c 54.8511,7.15644 101.54274,18.39262 195.91755,5.78721 z"
       id="path17"
       sodipodi:nodetypes="cccc" />
    <path
       style="fill:#ff0000;fill-rule:evenodd;stroke:#000000;stroke-width:3.2;stroke-linecap:round;stroke-miterlimit:4.4"
       d="m 522.58487,850.71956 c -0.37229,12.1937 -193.90009,0.49284 -194.45018,-10.41698 -0.1486,-2.94716 0.90257,-31.61933 2.31488,-27.77859 3.38703,9.21094 191.72059,43.58674 192.1353,38.19557 z"
       id="path18"
       sodipodi:nodetypes="cssc" />
    <path
       style="fill:#ff0000;fill-rule:evenodd;stroke:#000000;stroke-width:3.2;stroke-linecap:round;stroke-miterlimit:4.4"
       d="m 519.69127,849.56212 c -64.2053,-10.3267 -127.6567,-12.64352 -192.88353,-35.26085 1.47624,0.21089 -1.14195,-38.27947 1.32695,-37.92677 8.10209,1.15743 191.55658,73.18762 191.55658,73.18762 z"
       id="path19"
       sodipodi:nodetypes="ccsc" />
    <path
       style="fill:#ff0000;fill-rule:evenodd;stroke:#000000;stroke-width:3.2;stroke-linecap:round;stroke-miterlimit:4.4"
       d="M 518.53383,847.24723 327.99427,775.9362 328.13469,738.44772 Z"
       id="path20"
       sodipodi:nodetypes="cccc" />
    <path
       style="fill:#ff0000;fill-rule:evenodd;stroke:#000000;stroke-width:3.2;stroke-linecap:round;stroke-miterlimit:4.4"
       d="M 519.69127,846.66851 327.72547,738.41864 326.97724,695.04367 Z"
       id="path21"
       sodipodi:nodetypes="cccc" />
    <path
       style="fill:#ff0000;fill-rule:evenodd;stroke:#000000;stroke-width:3.2;stroke-linecap:round;stroke-miterlimit:4.4"
       d="m 515.64022,843.77491 c -6.36593,-6.94465 -188.80339,-145.627 -188.80339,-145.627 l 1.29786,-44.19342 z"
       id="path22"
       sodipodi:nodetypes="cccc" />
    <path
       style="fill:#ff0000;fill-rule:evenodd;stroke:#000000;stroke-width:3.2;stroke-linecap:round;stroke-miterlimit:4.4"
       d="M 517.9551,847.24723 329.29213,654.53321 326.68788,616.91635 Z"
       id="path23"
       sodipodi:nodetypes="cccc" />
    <path
       style="fill:#ff0000;fill-rule:evenodd;stroke:#000000;stroke-width:3.2;stroke-linecap:round;stroke-miterlimit:4.4"
       d="M 519.11255,845.51107 326.68788,618.0738 l -1.4468,-16.7829 41.08918,1.15744 z"
       id="path24"
       sodipodi:nodetypes="ccccc" />
    <path
       style="fill:#ff0000;fill-rule:evenodd;stroke:#000000;stroke-width:3.2;stroke-linecap:round;stroke-miterlimit:4.4"
       d="m 517.37638,846.08979 c 0,0 -153.361,-244.22017 -151.04612,-244.22017 2.31488,0 45.14022,0 45.14022,0 z"
       id="path25" />
    <path
       style="fill:#ff0000;fill-rule:evenodd;stroke:#000000;stroke-width:3.2;stroke-linecap:round;stroke-miterlimit:4.4"
       d="m 518.53383,843.77491 c 0,0 -112.27184,-243.64145 -108.79951,-243.64145 3.47232,0 38.19557,1.15744 38.19557,1.15744 z"
       id="path26"
       sodipodi:nodetypes="cscc" />
    <path
       style="fill:#ff0000;fill-rule:evenodd;stroke:#000000;stroke-width:3.2;stroke-linecap:round;stroke-miterlimit:4.4"
       d="m 519.11255,846.08979 -71.76138,-244.50953 30.6722,-7.23401 z"
       id="path27"
       sodipodi:nodetypes="cccc" />
    <path
       style="fill:#ff0000;fill-rule:evenodd;stroke:#000000;stroke-width:3.2;stroke-linecap:round;stroke-miterlimit:4.4"
       d="m 516.79766,846.08979 -38.77429,-251.45418 19.67651,-3.18297 z"
       id="path28"
       sodipodi:nodetypes="cccc" />
    <path
       style="fill:#ff0000;fill-rule:evenodd;stroke:#000000;stroke-width:3.2;stroke-linecap:round;stroke-miterlimit:4.4"
       d="M 520.26999,844.93235 495.38499,588.55904 512.1679,584.508 Z"
       id="path29"
       sodipodi:nodetypes="cccc" />
    <path
       style="fill:#ff0000;fill-rule:evenodd;stroke:#000000;stroke-width:3.2;stroke-linecap:round;stroke-miterlimit:4.4"
       d="M 523.74231,846.66851 510.43173,584.508 l 10.9957,-1.15745 c 7.84093,121.04424 4.92447,191.54047 2.31488,263.31796 z"
       id="path30"
       sodipodi:nodetypes="cccc" />
    <path
       style="fill:#ff0000;fill-rule:evenodd;stroke:#000000;stroke-width:3.2;stroke-linecap:round;stroke-miterlimit:4.4"
       d="m 48.033825,545.7337 c 0.67502,-1.17613 0.825825,-112.05338 3.472325,-122.11008 l 26.042436,2.31488 c -6.584231,45.65613 -5.58555,88.46866 -6.365929,131.94834 z"
       id="path31"
       sodipodi:nodetypes="ccccc" />
    <path
       style="fill:#ff0000;fill-rule:evenodd;stroke:#000000;stroke-width:3.2;stroke-linecap:round;stroke-miterlimit:4.4"
       d="m 72.918819,559.04428 c -1.904796,0.7143 -3.512878,-132.72887 3.472325,-134.26322 2.826226,-0.6208 27.199876,2.31488 27.199876,2.31488 C 90.142514,529.889 96.075526,536.34283 92.016605,565.12085 Z"
       id="path32"
       sodipodi:nodetypes="csccc" />
    <path
       style="fill:#ff0000;fill-rule:evenodd;stroke:#000000;stroke-width:3.2;stroke-linecap:round;stroke-miterlimit:4.4"
       d="m 91.727244,564.54213 c -2.468283,2.31976 7.201571,-137.27934 12.442496,-140.33979 1.99901,-1.16732 31.82965,2.8936 31.82965,2.8936 l -20.83395,145.83764 z"
       id="path33"
       sodipodi:nodetypes="csccc" />
    <path
       style="fill:#ff0000;fill-rule:evenodd;stroke:#000000;stroke-width:3.2;stroke-linecap:round;stroke-miterlimit:4.4"
       d="M 115.74416,574.09102 135.99939,425.9385 h 39.93173 l -35.30197,152.78229 z"
       id="path34"
       sodipodi:nodetypes="ccccc" />
    <path
       style="fill:#ff0000;fill-rule:evenodd;stroke:#000000;stroke-width:3.2;stroke-linecap:round;stroke-miterlimit:4.4"
       d="m 138.89299,578.72079 c 0,0 38.77429,-154.51845 41.08917,-154.51845 2.31489,0 35.88069,2.31488 35.88069,2.31488 l -44.5615,159.14822 z"
       id="path35"
       sodipodi:nodetypes="csccc" />
    <path
       style="fill:#ff0000;fill-rule:evenodd;stroke:#000000;stroke-width:3.2;stroke-linecap:round;stroke-miterlimit:4.4"
       d="m 171.88007,586.24416 c -0.57872,-2.31489 42.24662,-160.88438 44.5615,-160.30566 2.31489,0.57872 38.19558,-1.73616 37.03813,1.15744 -1.15744,2.89361 -47.4551,163.77798 -47.4551,163.77798 z"
       id="path36" />
    <path
       style="fill:#ff0000;fill-rule:evenodd;stroke:#000000;stroke-width:3.2;stroke-linecap:round;stroke-miterlimit:4.4"
       d="m 207.18204,591.45264 c -1.15744,-2.8936 47.45511,-164.93542 47.45511,-164.93542 l 38.77429,2.31488 -52.08487,166.67159 c -9.34085,0.0101 -22.71439,-2.66828 -34.14453,-4.05105 z"
       id="path37"
       sodipodi:nodetypes="ccccc" />
    <path
       style="fill:#ff0000;fill-rule:evenodd;stroke:#000000;stroke-width:3.2;stroke-linecap:round;stroke-miterlimit:4.4"
       d="M 241.90529,595.50369 292.254,425.9385 l 28.93604,1.15744 0.57872,34.72325 c 0,0 -35.79268,135.48937 -37.61685,137.73555 -1.12042,1.37962 -42.17311,-3.61002 -42.24662,-4.05105 z"
       id="path38"
       sodipodi:nodetypes="ccccsc" />
    <path
       style="fill:#ff0000;fill-rule:evenodd;stroke:#000000;stroke-width:3.2;stroke-linecap:round;stroke-miterlimit:4.4"
       d="m 282.99447,600.71218 c -0.57873,-2.89361 38.77429,-145.25892 39.35301,-138.89299 0.57872,6.36593 4.62976,138.89299 4.62976,138.89299 z"
       id="path39" />
    <path
       style="fill:#ff0000;fill-rule:evenodd;stroke:#000000;stroke-width:3.2;stroke-linecap:round;stroke-miterlimit:4.4"
       d="m 324.66236,600.71218 c -1.73616,-4.62977 -3.47232,-138.89299 -3.47232,-138.89299 l 45.14022,138.31427 z"
       id="path40" />
    <path
       style="fill:#ff0000;fill-rule:evenodd;stroke:#000000;stroke-width:3.2;stroke-linecap:round;stroke-miterlimit:4.4"
       d="M 366.90898,600.71218 C 364.5941,596.08241 321.19004,464.13407 321.19004,464.13407 V 425.9385 l 29.51476,1.15744 57.87208,173.61624 z"
       id="path41" />
    <path
       style="fill:#ff0000;fill-rule:evenodd;stroke:#000000;stroke-width:3.2;stroke-linecap:round;stroke-miterlimit:4.4"
       d="m 409.1556,602.44834 -58.4508,-176.50984 41.08917,2.31488 56.42528,172.4588 z"
       id="path42"
       sodipodi:nodetypes="ccccc" />
    <path
       style="fill:#ff0000;fill-rule:evenodd;stroke:#000000;stroke-width:3.2;stroke-linecap:round;stroke-miterlimit:4.4"
       d="m 446.77246,600.13346 -52.6636,-171.30136 38.77429,2.31489 45.71894,164.64606 z"
       id="path43"
       sodipodi:nodetypes="ccccc" />
    <path
       style="fill:#ff0000;fill-rule:evenodd;stroke:#000000;stroke-width:3.2;stroke-linecap:round;stroke-miterlimit:4.4"
       d="m 478.89145,595.21433 c 0.21793,11.43879 -44.27214,-164.06734 -44.27214,-164.06734 l 31.25092,2.8936 29.80412,157.70142 z"
       id="path44"
       sodipodi:nodetypes="ccccc" />
    <path
       style="fill:#ff0000;fill-rule:evenodd;stroke:#000000;stroke-width:3.2;stroke-linecap:round;stroke-miterlimit:4.4"
       d="m 495.09563,592.03136 -27.48923,-158.56949 19.09778,4.62977 23.72755,147.5738 z"
       id="path45"
       sodipodi:nodetypes="ccccc" />
    <path
       style="fill:#ff0000;fill-rule:evenodd;stroke:#000000;stroke-width:3.2;stroke-linecap:round;stroke-miterlimit:4.4"
       d="m 510.43173,585.95479 -21.99139,-148.44187 13.31058,6.94464 c 15.49346,58.46221 15.07955,95.05177 19.09779,137.73555 z"
       id="path46"
       sodipodi:nodetypes="ccccc" />
    <path
       style="fill:#ff0000;fill-rule:evenodd;stroke:#000000;stroke-width:3.2;stroke-linecap:round;stroke-miterlimit:4.4"
       d="M 50.927429,421.30873 C 55.995002,370.54457 61.653251,320.17419 75.812423,275.4711 L 100.1187,271.99877 C 85.149932,321.26186 80.182112,372.66802 75.812423,424.20234 Z"
       id="path47"
       sodipodi:nodetypes="ccccc" />
    <path
       style="fill:#ff0000;fill-rule:evenodd;stroke:#000000;stroke-width:3.2;stroke-linecap:round;stroke-miterlimit:4.4"
       d="m 76.391144,424.78106 c 3.651759,-54.42082 9.749437,-107.17668 24.884996,-153.93973 l 28.93604,-6.94465 C 119.35507,319.42101 111.182,373.67869 104.16974,427.67466 Z"
       id="path48"
       sodipodi:nodetypes="ccccc" />
    <path
       style="fill:#ff0000;fill-rule:evenodd;stroke:#000000;stroke-width:3.2;stroke-linecap:round;stroke-miterlimit:4.4"
       d="m 105.32718,424.78106 c 5.11592,-53.19177 9.64955,-109.08286 26.04244,-163.19926 l 32.40836,-4.05105 c -15.74649,56.85333 -21.53688,112.87698 -28.35732,168.98647 z"
       id="path49"
       sodipodi:nodetypes="ccccc" />
    <path
       style="fill:#ff0000;fill-rule:evenodd;stroke:#000000;stroke-width:3.2;stroke-linecap:round;stroke-miterlimit:4.4"
       d="m 137.15683,425.9385 c 4.88493,-58.86244 11.78921,-116.63755 26.62115,-170.14391 l 31.25092,-2.60424 -20.83394,173.32687 z"
       id="path50"
       sodipodi:nodetypes="ccccc" />
    <path
       style="fill:#ff0000;fill-rule:evenodd;stroke:#000000;stroke-width:3.2;stroke-linecap:round;stroke-miterlimit:4.4"
       d="M 172.45879,425.35978 195.0289,253.4797 232.06704,250.5861 212.96925,425.35978 Z"
       id="path51"
       sodipodi:nodetypes="ccccc" />
    <path
       style="fill:#ff0000;fill-rule:evenodd;stroke:#000000;stroke-width:3.2;stroke-linecap:round;stroke-miterlimit:4.4"
       d="m 213.54797,424.78106 17.94035,-174.77368 39.35301,-1.73616 -20.25523,176.50984 z"
       id="path52" />
    <path
       style="fill:#ff0000;fill-rule:evenodd;stroke:#000000;stroke-width:3.2;stroke-linecap:round;stroke-miterlimit:4.4"
       d="m 251.16482,423.62362 17.36163,-174.19496 36.45941,-0.57872 2.31488,23.72755 -15.62546,154.51845 z"
       id="path53"
       sodipodi:nodetypes="cccccc" />
    <path
       style="fill:#ff0000;fill-rule:evenodd;stroke:#000000;stroke-width:3.2;stroke-linecap:round;stroke-miterlimit:4.4"
       d="m 291.67528,424.78106 16.20418,-151.62485 12.73186,153.36101 z"
       id="path54" />
    <path
       style="fill:#ff0000;fill-rule:evenodd;stroke:#000000;stroke-width:3.2;stroke-linecap:round;stroke-miterlimit:4.4"
       d="M 320.0326,425.9385 309.61562,273.73493 349.54736,425.35978 Z"
       id="path55" />
    <path
       style="fill:#ff0000;fill-rule:evenodd;stroke:#000000;stroke-width:3.2;stroke-linecap:round;stroke-miterlimit:4.4"
       d="m 348.96863,426.51722 -41.66789,-152.20357 -1.15744,-25.46371 41.66789,2.8936 47.45511,176.50984 z"
       id="path56" />
    <path
       style="fill:#ff0000;fill-rule:evenodd;stroke:#000000;stroke-width:3.2;stroke-linecap:round;stroke-miterlimit:4.4"
       d="m 395.84502,427.09594 -49.76999,-176.50984 38.77429,6.36593 46.87639,173.61624 z"
       id="path57" />
    <path
       style="fill:#ff0000;fill-rule:evenodd;stroke:#000000;stroke-width:3.2;stroke-linecap:round;stroke-miterlimit:4.4"
       d="m 429.98955,428.8321 -45.14023,-173.61623 31.25093,12.73185 49.19126,163.77799 z"
       id="path58" />
    <path
       style="fill:#ff0000;fill-rule:evenodd;stroke:#000000;stroke-width:3.2;stroke-linecap:round;stroke-miterlimit:4.4"
       d="m 466.44895,432.30443 -52.08487,-166.09287 28.93604,17.36163 45.71895,153.361 -27.19988,-5.20848"
       id="path59" />
    <path
       style="fill:#ff0000;fill-rule:evenodd;stroke:#000000;stroke-width:3.2;stroke-linecap:round;stroke-miterlimit:4.4"
       d="m 490.75523,437.51292 c -4.05105,-2.89361 -45.71894,-153.93973 -45.71894,-153.93973 l 13.31057,13.31057 c 24.95913,54.71958 31.91325,99.43639 43.98278,146.99508 z"
       id="path60"
       sodipodi:nodetypes="ccccc" />
    <path
       style="fill:#ff0000;fill-rule:evenodd;stroke:#000000;stroke-width:3.2;stroke-linecap:round;stroke-miterlimit:4.4"
       d="M 76.391144,274.31365 C 103.80118,164.68718 160.51503,77.589072 230.9096,1.7361623 181.93546,88.489215 126.69999,165.2156 101.27614,270.84133 Z"
       id="path61"
       sodipodi:nodetypes="cccc" />
    <path
       style="fill:#ff0000;fill-rule:evenodd;stroke:#000000;stroke-width:3.2;stroke-linecap:round;stroke-miterlimit:4.4"
       d="M 101.85486,270.26261 C 101.03061,204.66957 234.45407,-16.734946 233.8032,4.0510455 233.67513,8.1412194 131.08026,263.60732 131.08026,263.60732 Z"
       id="path62"
       sodipodi:nodetypes="cscc" />
    <path
       style="fill:#ff0000;fill-rule:evenodd;stroke:#000000;stroke-width:3.2;stroke-linecap:round;stroke-miterlimit:4.4"
       d="M 130.50154,263.31795 C 143.27416,152.27661 198.26439,87.990718 234.38192,5.7872079 211.86786,88.738716 188.01083,166.42438 163.77798,257.82011 Z"
       id="path63"
       sodipodi:nodetypes="cccc" />
    <path
       style="fill:#ff0000;fill-rule:evenodd;stroke:#000000;stroke-width:3.2;stroke-linecap:round;stroke-miterlimit:4.4"
       d="M 163.77798,256.95203 C 163.26527,238.08474 234.69207,-3.8262818 234.96064,5.2084871 235.04662,8.1008096 195.60763,253.4797 195.60763,253.4797 Z"
       id="path64"
       sodipodi:nodetypes="cscc" />
    <path
       style="fill:#ff0000;fill-rule:evenodd;stroke:#000000;stroke-width:3.2;stroke-linecap:round;stroke-miterlimit:4.4"
       d="M 195.60763,252.32226 234.96064,3.4723247 232.06704,251.16482 Z"
       id="path65" />
    <path
       style="fill:#ff0000;fill-rule:evenodd;stroke:#000000;stroke-width:3.2;stroke-linecap:round;stroke-miterlimit:4.4"
       d="m 231.48832,250.29674 c 0,0 5.20848,-246.2456945 2.8936,-246.2456945 -2.31488,0 35.30197,245.3776145 35.30197,245.3776145 z"
       id="path66"
       sodipodi:nodetypes="cscc" />
    <path
       style="fill:#ff0000;fill-rule:evenodd;stroke:#000000;stroke-width:3.2;stroke-linecap:round;stroke-miterlimit:4.4"
       d="M 268.52645,248.27122 233.22448,2.8936039 C 261.79906,83.133145 293.43239,162.14919 307.30074,248.27122 Z"
       id="path67"
       sodipodi:nodetypes="cccc" />
    <path
       style="fill:#ff0000;fill-rule:evenodd;stroke:#000000;stroke-width:3.2;stroke-linecap:round;stroke-miterlimit:4.4"
       d="M 306.1433,247.6925 C 291.20283,161.18191 260.141,83.883526 235.53936,2.8936039 276.10852,83.687758 325.93504,159.36343 346.65375,250.00738 Z"
       id="path68"
       sodipodi:nodetypes="cccc" />
    <path
       style="fill:#ff0000;fill-rule:evenodd;stroke:#000000;stroke-width:3.2;stroke-linecap:round;stroke-miterlimit:4.4"
       d="M 347.81119,249.42866 C 324.94605,167.73483 235.28064,7.8138768 237.27552,2.3148832 238.99748,-2.4317911 400.05029,233.88051 382.53444,253.4797 c -3.49212,3.90748 -34.72325,-4.05104 -34.72325,-4.05104 z"
       id="path69"
       sodipodi:nodetypes="cssc" />
    <path
       style="fill:#ff0000;fill-rule:evenodd;stroke:#000000;stroke-width:3.2;stroke-linecap:round;stroke-miterlimit:4.4"
       d="M 384.2706,252.90098 C 349.11777,151.69049 289.58497,87.049974 240.74785,6.3659287 302.4118,89.910338 377.41686,163.81949 413.78536,265.63284 Z"
       id="path70"
       sodipodi:nodetypes="cccc" />
    <path
       style="fill:#ff0000;fill-rule:evenodd;stroke:#000000;stroke-width:3.2;stroke-linecap:round;stroke-miterlimit:4.4"
       d="M 414.36408,265.05412 C 376.85787,168.70664 301.98594,89.779512 240.74785,4.6297663 323.18645,91.368779 413.30488,175.25528 443.87884,281.2583 l -32.98708,-18.51906"
       id="path71"
       sodipodi:nodetypes="cccc" />
    <path
       style="fill:#ff0000;fill-rule:evenodd;stroke:#000000;stroke-width:3.2;stroke-linecap:round;stroke-miterlimit:4.4"
       d="M 445.03629,281.83702 C 403.07186,173.04229 321.31429,90.77633 243.64145,5.7872079 342.9207,91.185445 418.24496,186.0396 458.92558,294.56888 Z"
       id="path72"
       sodipodi:nodetypes="cccc" />
  </g>
</svg>
