<?xml version="1.0" encoding="UTF-8" standalone="no"?>
<!-- Created with Inkscape (http://www.inkscape.org/) -->

<svg
   version="1.1"
   id="svg1"
   width="597"
   height="941"
   viewBox="0 0 597 941"
   sodipodi:docname="AR-10 118m2.svg"
   inkscape:version="1.3 (0e150ed6c4, 2023-07-21)"
   xmlns:inkscape="http://www.inkscape.org/namespaces/inkscape"
   xmlns:sodipodi="http://sodipodi.sourceforge.net/DTD/sodipodi-0.dtd"
   xmlns="http://www.w3.org/2000/svg"
   xmlns:svg="http://www.w3.org/2000/svg">
  <defs
     id="defs1" />
  <sodipodi:namedview
     id="namedview1"
     pagecolor="#ffffff"
     bordercolor="#000000"
     borderopacity="0.25"
     inkscape:showpageshadow="2"
     inkscape:pageopacity="0.0"
     inkscape:pagecheckerboard="0"
     inkscape:deskcolor="#d1d1d1"
     showgrid="false"
     inkscape:zoom="1.727949"
     inkscape:cx="347.23247"
     inkscape:cy="143.23339"
     inkscape:window-width="1920"
     inkscape:window-height="1009"
     inkscape:window-x="-8"
     inkscape:window-y="-8"
     inkscape:window-maximized="1"
     inkscape:current-layer="g1" />
  <g
     inkscape:groupmode="layer"
     inkscape:label="Image"
     id="g1">
    <path
       style="fill:#ff0000;fill-rule:evenodd;stroke:#000000;stroke-width:3.2;stroke-linecap:round;stroke-miterlimit:4.4"
       d="M 79.388174,767.28261 C 67.899971,709.14185 52.719321,680.54068 50.33374,549.57895 l 18.005565,5.72905 c -3.50079,73.85098 5.369973,142.20349 11.048869,211.97461 z"
       id="path1"
       sodipodi:nodetypes="cccc" />
    <path
       style="fill:#ff0000;fill-rule:evenodd;stroke:#000000;stroke-width:3.2;stroke-linecap:round;stroke-miterlimit:4.4"
       d="M 79.797392,768.51026 C 73.921956,697.64216 63.503246,627.18708 68.748522,555.308 l 18.824,6.54748 c -9.079852,62.39678 -6.786539,136.16673 -7.77513,206.65478 z"
       id="path2"
       sodipodi:nodetypes="cccc" />
    <path
       style="fill:#ff0000;fill-rule:evenodd;stroke:#000000;stroke-width:3.2;stroke-linecap:round;stroke-miterlimit:4.4"
       d="m 81.434261,768.51026 c 0.414127,-69.74719 -2.955105,-140.7555 6.547479,-207.47321 l 22.91617,6.95669 z"
       id="path3"
       sodipodi:nodetypes="cccc" />
    <path
       style="fill:#ff0000;fill-rule:evenodd;stroke:#000000;stroke-width:3.2;stroke-linecap:round;stroke-miterlimit:4.4"
       d="m 81.434261,768.10105 c 0,-5.31983 30.691309,-201.74418 30.691309,-201.74418 L 141.18,576.99652 Z"
       id="path4" />
    <path
       style="fill:#ff0000;fill-rule:evenodd;stroke:#000000;stroke-width:3.2;stroke-linecap:round;stroke-miterlimit:4.4"
       d="m 79.388174,766.05496 c 0,-2.4553 62.201046,-189.05844 62.201046,-189.05844 0,0 30.28209,6.54748 27.82678,6.54748 -2.4553,0 -90.027826,182.51096 -90.027826,182.51096 z"
       id="path5" />
    <path
       style="fill:#ff0000;fill-rule:evenodd;stroke:#000000;stroke-width:3.2;stroke-linecap:round;stroke-miterlimit:4.4"
       d="M 80.615826,765.64574 171.05287,583.544 l 31.50974,6.9567 z"
       id="path6" />
    <path
       style="fill:#ff0000;fill-rule:evenodd;stroke:#000000;stroke-width:3.2;stroke-linecap:round;stroke-miterlimit:4.4"
       d="m 80.615826,766.46418 122.356004,-178.00957 38.05721,5.72905 z"
       id="path7" />
    <path
       style="fill:#ff0000;fill-rule:evenodd;stroke:#000000;stroke-width:3.2;stroke-linecap:round;stroke-miterlimit:4.4"
       d="m 82.252696,767.28261 157.548694,-173.91739 42.96783,3.68296 z"
       id="path8" />
    <path
       style="fill:#ff0000;fill-rule:evenodd;stroke:#000000;stroke-width:3.2;stroke-linecap:round;stroke-miterlimit:4.4"
       d="m 82.661913,766.8734 201.334957,-169.41601 40.92174,4.09218 0,15.55026 z"
       id="path9"
       sodipodi:nodetypes="ccccc" />
    <path
       style="fill:#ff0000;fill-rule:evenodd;stroke:#000000;stroke-width:3.2;stroke-linecap:round;stroke-miterlimit:4.4"
       d="M 81.434261,768.10105 C 104.75965,753.77844 324.91861,616.2814 324.91861,616.2814 c 0,0 0,36.82956 -1.63687,36.01113 -1.63687,-0.81844 -241.847479,115.80852 -241.847479,115.80852 z"
       id="path10"
       sodipodi:nodetypes="ccsc" />
    <path
       style="fill:#ff0000;fill-rule:evenodd;stroke:#000000;stroke-width:3.2;stroke-linecap:round;stroke-miterlimit:4.4"
       d="m 83.480348,770.96557 4.501391,-3.27374 236.936871,-114.17165 0.40922,42.55861"
       id="path11"
       sodipodi:nodetypes="cccc" />
    <path
       style="fill:#ff0000;fill-rule:evenodd;stroke:#000000;stroke-width:3.2;stroke-linecap:round;stroke-miterlimit:4.4"
       d="m 86.754087,770.55635 c 9.821218,-1.63687 238.573743,-77.34209 237.755303,-75.296 -0.81843,2.04609 0.40922,43.78626 0.40922,43.78626 z"
       id="path12" />
    <path
       style="fill:#ff0000;fill-rule:evenodd;stroke:#000000;stroke-width:3.2;stroke-linecap:round;stroke-miterlimit:4.4"
       d="m 86.754087,771.37479 c 0,0 234.072353,-31.91896 236.527653,-31.10053 2.45531,0.81844 -0.40922,35.1927 -0.40922,35.1927 -85.38839,9.03055 -160.19453,1.59981 -236.118433,-4.09217 z"
       id="path13"
       sodipodi:nodetypes="cscc" />
    <path
       style="fill:#ff0000;fill-rule:evenodd;stroke:#000000;stroke-width:3.2;stroke-linecap:round;stroke-miterlimit:4.4"
       d="m 90.846261,773.83009 c 4.30371,5.87536 237.159129,13.93247 233.663129,2.04609 l -1.63687,34.37426 c -77.34209,5.39641 -154.68417,-9.11528 -232.026259,-36.42035 z"
       id="path14"
       sodipodi:nodetypes="cccc" />
    <path
       style="fill:#ff0000;fill-rule:evenodd;stroke:#000000;stroke-width:3.2;stroke-linecap:round;stroke-miterlimit:4.4"
       d="m 91.255479,776.2854 c 76.753541,20.02872 154.746471,32.99515 233.663131,33.55582 l -0.81843,33.96505 C 236.79019,840.43936 160.7001,816.20078 94.12,774.64853"
       id="path15"
       sodipodi:nodetypes="cccc" />
    <path
       style="fill:#ff0000;fill-rule:evenodd;stroke:#000000;stroke-width:3.2;stroke-linecap:round;stroke-miterlimit:4.4"
       d="m 96.166087,775.87618 c 83.767453,47.27804 157.241173,60.18794 229.161743,68.74852 v 30.28209 C 248.94058,858.841 172.55333,855.20097 96.166087,775.87618 Z"
       id="path16"
       sodipodi:nodetypes="cccc" />
    <path
       style="fill:#ff0000;fill-rule:evenodd;stroke:#000000;stroke-width:3.2;stroke-linecap:round;stroke-miterlimit:4.4"
       d="m 518.06922,843.80627 c -15.03671,42.62871 -195.10515,40.62419 -191.92296,30.28208 v -31.50974 c 66.34493,11.07695 132.02664,19.16944 191.92296,1.22766 z"
       id="path17"
       sodipodi:nodetypes="cccc" />
    <path
       style="fill:#ff0000;fill-rule:evenodd;stroke:#000000;stroke-width:3.2;stroke-linecap:round;stroke-miterlimit:4.4"
       d="m 516.43235,843.39705 c 6.005,11.50959 -183.21436,14.37259 -190.28609,-1.63687 -0.99209,-2.24595 -3.68295,-32.73739 -3.68295,-32.73739 65.95916,21.22921 130.17278,29.36684 193.96904,34.37426 z"
       id="path18"
       sodipodi:nodetypes="cscc" />
    <path
       style="fill:#ff0000;fill-rule:evenodd;stroke:#000000;stroke-width:3.2;stroke-linecap:round;stroke-miterlimit:4.4"
       d="m 516.84157,843.80627 c -65.73413,-4.00202 -130.81832,-13.52848 -194.37826,-36.01114 75.57244,26.1556 131.34824,26.85838 192.74139,34.78348 -64.08941,-3.7001 -128.0883,-9.21045 -191.10452,-34.37426 0,0 -0.3624,-38.27201 0.81843,-34.78348 4.34718,12.84295 193.68476,73.71599 191.92296,70.3854 z"
       id="path19"
       sodipodi:nodetypes="ccccsc" />
    <path
       style="fill:#ff0000;fill-rule:evenodd;stroke:#000000;stroke-width:3.2;stroke-linecap:round;stroke-miterlimit:4.4"
       d="M 518.06922,843.80627 Z"
       id="path20" />
    <path
       style="fill:#ff0000;fill-rule:evenodd;stroke:#000000;stroke-width:3.2;stroke-linecap:round;stroke-miterlimit:4.4"
       d="M 516.84157,842.98783 C 452.59444,822.41751 388.34731,809.58164 324.10018,773.01166 l -0.40922,-33.14661 z"
       id="path21"
       sodipodi:nodetypes="cccc" />
    <path
       style="fill:#ff0000;fill-rule:evenodd;stroke:#000000;stroke-width:3.2;stroke-linecap:round;stroke-miterlimit:4.4"
       d="M 516.84157,843.39705 323.69096,738.6374 l 1.22765,-41.74018 z"
       id="path22" />
    <path
       style="fill:#ff0000;fill-rule:evenodd;stroke:#000000;stroke-width:3.2;stroke-linecap:round;stroke-miterlimit:4.4"
       d="m 516.02313,842.57861 c 0,0 -193.15061,-141.18 -192.33217,-147.31826 0.81843,-6.13826 1.22765,-40.51252 1.22765,-40.51252 z"
       id="path23" />
    <path
       style="fill:#ff0000;fill-rule:evenodd;stroke:#000000;stroke-width:3.2;stroke-linecap:round;stroke-miterlimit:4.4"
       d="M 518.47844,843.80627 324.91861,653.52018 323.28174,613.82609 Z"
       id="path24"
       sodipodi:nodetypes="cccc" />
    <path
       style="fill:#ff0000;fill-rule:evenodd;stroke:#000000;stroke-width:3.2;stroke-linecap:round;stroke-miterlimit:4.4"
       d="m 519.70609,843.80627 c 0,0 -196.42435,-226.29722 -196.42435,-228.75253 0,-2.4553 -2.4553,-20.05165 -0.81843,-18.00556 1.63687,2.04608 43.78626,4.50139 43.78626,4.50139 z"
       id="path25" />
    <path
       style="fill:#ff0000;fill-rule:evenodd;stroke:#000000;stroke-width:3.2;stroke-linecap:round;stroke-miterlimit:4.4"
       d="M 518.47844,840.53253 366.65878,599.9127 l 42.55861,1.22765 z"
       id="path26" />
    <path
       style="fill:#ff0000;fill-rule:evenodd;stroke:#000000;stroke-width:3.2;stroke-linecap:round;stroke-miterlimit:4.4"
       d="m 518.06922,838.89566 c 0,0 -111.71635,-240.21061 -109.67026,-239.8014 2.04609,0.40922 38.46643,-8.59356 38.46643,-6.13826 0,2.45531 71.20383,245.93966 71.20383,245.93966 z"
       id="path27" />
    <path
       style="fill:#ff0000;fill-rule:evenodd;stroke:#000000;stroke-width:3.2;stroke-linecap:round;stroke-miterlimit:4.4"
       d="m 519.70609,841.35096 c 0,-2.4553 -72.43148,-244.30278 -72.43148,-244.30278 l 29.05444,-4.50139 z"
       id="path28" />
    <path
       style="fill:#ff0000;fill-rule:evenodd;stroke:#000000;stroke-width:3.2;stroke-linecap:round;stroke-miterlimit:4.4"
       d="m 518.47844,840.53253 -40.92174,-248.39496 17.18713,-4.09218 c 15.51654,97.47114 16.04947,168.72095 23.73461,252.48714 z"
       id="path29"
       sodipodi:nodetypes="cccc" />
    <path
       style="fill:#ff0000;fill-rule:evenodd;stroke:#000000;stroke-width:3.2;stroke-linecap:round;stroke-miterlimit:4.4"
       d="m 518.88765,841.76018 c -6.08469,-84.26164 -8.76008,-167.2448 -22.91617,-254.53322 l 13.91339,-4.50139 c 9.30083,95.00723 7.91654,175.32244 9.00278,259.03461 z"
       id="path30"
       sodipodi:nodetypes="cccc" />
    <path
       style="fill:#ff0000;fill-rule:evenodd;stroke:#000000;stroke-width:3.2;stroke-linecap:round;stroke-miterlimit:4.4"
       d="M 520.52452,840.94174 C 520.8596,759.21273 518.5057,675.35137 509.06644,580.67948 l 8.59356,-0.40922 c 8.05666,90.76421 6.7162,176.40272 2.86452,260.67148 z"
       id="path31"
       sodipodi:nodetypes="cccc" />
    <path
       style="fill:#ff0000;fill-rule:evenodd;stroke:#000000;stroke-width:3.2;stroke-linecap:round;stroke-miterlimit:4.4"
       d="m 516.43235,578.22418 c 5.32436,4.28888 -8.17201,-121.14002 -17.59635,-135.86018 -0.93612,-1.46216 -14.73182,-6.13826 -14.73182,-6.13826 l 24.96226,142.40765 z"
       id="path32"
       sodipodi:nodetypes="csccc" />
    <path
       style="fill:#ff0000;fill-rule:evenodd;stroke:#000000;stroke-width:3.2;stroke-linecap:round;stroke-miterlimit:4.4"
       d="m 509.88487,580.27026 -26.18991,-144.45374 -21.27931,-4.9106 31.10053,156.32104 z"
       id="path33" />
    <path
       style="fill:#ff0000;fill-rule:evenodd;stroke:#000000;stroke-width:3.2;stroke-linecap:round;stroke-miterlimit:4.4"
       d="M 493.92539,586.81774 463.23409,429.67826 429.67826,427.63218 475.10139,592.956 Z"
       id="path34" />
    <path
       style="fill:#ff0000;fill-rule:evenodd;stroke:#000000;stroke-width:3.2;stroke-linecap:round;stroke-miterlimit:4.4"
       d="m 473.87374,591.31913 c 1.22765,-4.50139 -45.83235,-166.55148 -45.83235,-164.50539 0,2.04609 -35.60191,-1.22765 -35.60191,-1.22765 l 53.19826,169.00678 z"
       id="path35" />
    <path
       style="fill:#ff0000;fill-rule:evenodd;stroke:#000000;stroke-width:3.2;stroke-linecap:round;stroke-miterlimit:4.4"
       d="m 446.04696,594.18366 c 0,-1.63687 -55.65357,-167.77914 -55.65357,-167.77914 l -43.37704,-0.40921 60.15496,174.32661 z"
       id="path36" />
    <path
       style="fill:#ff0000;fill-rule:evenodd;stroke:#000000;stroke-width:3.2;stroke-linecap:round;stroke-miterlimit:4.4"
       d="m 406.35287,599.09426 -60.15496,-174.73582 -27.41756,0.40921 3.27374,33.96505 42.55861,139.95235 z"
       id="path37" />
    <path
       style="fill:#ff0000;fill-rule:evenodd;stroke:#000000;stroke-width:3.2;stroke-linecap:round;stroke-miterlimit:4.4"
       d="m 364.6127,599.50348 c 0,-1.63687 -44.19548,-139.54313 -44.19548,-139.54313 l 3.27374,137.49704 z"
       id="path38" />
    <path
       style="fill:#ff0000;fill-rule:evenodd;stroke:#000000;stroke-width:3.2;stroke-linecap:round;stroke-miterlimit:4.4"
       d="M 322.87252,599.09426 319.18957,464.05252 283.58765,594.59287 Z"
       id="path39" />
    <path
       style="fill:#ff0000;fill-rule:evenodd;stroke:#000000;stroke-width:3.2;stroke-linecap:round;stroke-miterlimit:4.4"
       d="m 283.58765,595.00209 37.648,-133.81409 c 0,0 -4.50139,-38.05722 -2.04608,-37.23878 2.4553,0.81843 -29.46366,-1.63687 -29.46366,-1.63687 l -48.28765,171.46209 z"
       id="path40" />
    <path
       style="fill:#ff0000;fill-rule:evenodd;stroke:#000000;stroke-width:3.2;stroke-linecap:round;stroke-miterlimit:4.4"
       d="m 238.57374,592.54679 51.15217,-168.18835 -39.69408,-1.22766 -47.87844,162.86853 z"
       id="path41" />
    <path
       style="fill:#ff0000;fill-rule:evenodd;stroke:#000000;stroke-width:3.2;stroke-linecap:round;stroke-miterlimit:4.4"
       d="m 200.10731,586.40852 c 1.63686,0 49.5153,-162.86852 49.5153,-162.86852 h -40.1033 l -37.648,161.64087 z"
       id="path42" />
    <path
       style="fill:#ff0000;fill-rule:evenodd;stroke:#000000;stroke-width:3.2;stroke-linecap:round;stroke-miterlimit:4.4"
       d="m 169.00678,583.544 c 0.81844,-1.63687 42.55861,-159.59478 42.55861,-159.59478 h -37.648 L 141.18,577.40574 Z"
       id="path43" />
    <path
       style="fill:#ff0000;fill-rule:evenodd;stroke:#000000;stroke-width:3.2;stroke-linecap:round;stroke-miterlimit:4.4"
       d="m 112.53478,565.53844 c 0.40922,-1.63687 24.96226,-142.40766 24.96226,-142.40766 l 36.82957,1.63687 -32.73739,151.00122 z"
       id="path44" />
    <path
       style="fill:#ff0000;fill-rule:evenodd;stroke:#000000;stroke-width:3.2;stroke-linecap:round;stroke-miterlimit:4.4"
       d="m 111.71635,566.35687 -21.688523,-6.13826 13.094953,-137.08783 32.32818,0.81844 z"
       id="path45" />
    <path
       style="fill:#ff0000;fill-rule:evenodd;stroke:#000000;stroke-width:3.2;stroke-linecap:round;stroke-miterlimit:4.4"
       d="m 89.618609,560.62783 c 0,0 -24.553043,-2.04609 -22.916174,-7.77513 1.63687,-5.72905 9.002783,-129.3127 9.002783,-129.3127 l 29.054432,1.63687 z"
       id="path46" />
    <path
       style="fill:#ff0000;fill-rule:evenodd;stroke:#000000;stroke-width:3.2;stroke-linecap:round;stroke-miterlimit:4.4"
       d="m 67.930087,554.48957 -18.414782,-6.9567 c -1.195859,-41.6382 -4.115056,-84.22411 2.046086,-124.8113 4.671688,-5.79767 15.823073,0.54562 23.325392,0.40921 z"
       id="path47"
       sodipodi:nodetypes="ccccc" />
    <path
       style="fill:#ff0000;fill-rule:evenodd;stroke:#000000;stroke-width:3.2;stroke-linecap:round;stroke-miterlimit:4.4"
       d="M 51.970609,421.49392 C 49.869602,408.49567 73.175483,262.24128 76.114435,274.58487 L 100.25826,270.4927 C 87.677563,316.89461 77.605379,365.34894 76.93287,421.49392 Z"
       id="path48"
       sodipodi:nodetypes="ccccc" />
    <path
       style="fill:#ff0000;fill-rule:evenodd;stroke:#000000;stroke-width:3.2;stroke-linecap:round;stroke-miterlimit:4.4"
       d="M 77.342087,421.90313 C 79.771441,370.00305 83.611295,318.50597 101.0767,270.90191 l 27.41756,-6.95669 C 113.72277,316.08583 108.44715,369.0897 105.57809,422.31235 L 75.296,421.49392"
       id="path49"
       sodipodi:nodetypes="ccccc" />
    <path
       style="fill:#ff0000;fill-rule:evenodd;stroke:#000000;stroke-width:3.2;stroke-linecap:round;stroke-miterlimit:4.4"
       d="m 105.16887,422.72157 c 4.69655,-54.42229 8.26118,-109.15329 24.55304,-160.41322 l 31.50974,-4.91061 c -17.63936,54.09657 -25.18211,109.45522 -25.37148,165.73304 z"
       id="path50"
       sodipodi:nodetypes="ccccc" />
    <path
       style="fill:#ff0000;fill-rule:evenodd;stroke:#000000;stroke-width:3.2;stroke-linecap:round;stroke-miterlimit:4.4"
       d="m 138.7247,424.76765 c -0.7771,-53.48288 1.47962,-107.83257 23.32539,-167.77913 l 34.37426,-4.91061 -21.68852,171.87131 z"
       id="path51"
       sodipodi:nodetypes="ccccc" />
    <path
       style="fill:#ff0000;fill-rule:evenodd;stroke:#000000;stroke-width:3.2;stroke-linecap:round;stroke-miterlimit:4.4"
       d="m 175.96348,424.35844 20.46087,-175.14505 33.96504,-0.40921 -18.41478,173.50817 z"
       id="path52" />
    <path
       style="fill:#ff0000;fill-rule:evenodd;stroke:#000000;stroke-width:3.2;stroke-linecap:round;stroke-miterlimit:4.4"
       d="m 210.74696,422.31235 19.64243,-173.91739 38.87565,1.22765 -19.23321,173.09896 z"
       id="path53" />
    <path
       style="fill:#ff0000;fill-rule:evenodd;stroke:#000000;stroke-width:3.2;stroke-linecap:round;stroke-miterlimit:4.4"
       d="m 252.07791,423.13078 c 0,0 15.14105,-173.91739 18.41479,-173.91739 3.27374,0 31.10052,-1.63687 31.10052,-1.63687 l 4.09217,25.37148 -15.55026,149.36435 z"
       id="path54" />
    <path
       style="fill:#ff0000;fill-rule:evenodd;stroke:#000000;stroke-width:3.2;stroke-linecap:round;stroke-miterlimit:4.4"
       d="M 290.13513,421.0847 307.32226,274.58487 320.008,422.31235 Z"
       id="path55" />
    <path
       style="fill:#ff0000;fill-rule:evenodd;stroke:#000000;stroke-width:3.2;stroke-linecap:round;stroke-miterlimit:4.4"
       d="M 320.82644,424.76765 307.32226,271.31113 347.01635,424.76765 Z"
       id="path56"
       sodipodi:nodetypes="cccc" />
    <path
       style="fill:#ff0000;fill-rule:evenodd;stroke:#000000;stroke-width:3.2;stroke-linecap:round;stroke-miterlimit:4.4"
       d="m 347.83478,424.76765 c -0.40921,-1.63687 -39.28487,-147.31826 -39.28487,-147.31826 l -4.9106,-29.46365 42.5586,2.4553 46.65079,174.32661 z"
       id="path57" />
    <path
       style="fill:#ff0000;fill-rule:evenodd;stroke:#000000;stroke-width:3.2;stroke-linecap:round;stroke-miterlimit:4.4"
       d="m 391.62105,423.94922 c 0,-2.86452 -48.28766,-173.91739 -48.28766,-173.91739 l 38.05722,5.72904 48.69687,171.05287 z"
       id="path58" />
    <path
       style="fill:#ff0000;fill-rule:evenodd;stroke:#000000;stroke-width:3.2;stroke-linecap:round;stroke-miterlimit:4.4"
       d="m 431.31513,427.63218 -48.28765,-171.46209 31.91896,11.45809 c 0,0 48.28765,162.05008 48.69687,160.41321 0.40921,-1.63687 -32.32818,-0.40921 -32.32818,-0.40921 z"
       id="path59" />
    <path
       style="fill:#ff0000;fill-rule:evenodd;stroke:#000000;stroke-width:3.2;stroke-linecap:round;stroke-miterlimit:4.4"
       d="m 462.82487,428.04139 c 0,0 -52.37982,-160.004 -49.10609,-160.82243 3.27374,-0.81844 27.41757,17.18713 27.82679,15.55026 0.40921,-1.63687 44.60469,151.41043 44.60469,151.41043 z"
       id="path60" />
    <path
       style="fill:#ff0000;fill-rule:evenodd;stroke:#000000;stroke-width:3.2;stroke-linecap:round;stroke-miterlimit:4.4"
       d="m 485.74105,431.31513 c 0,-3.27374 -45.42313,-147.31826 -45.42313,-147.31826 l 13.50417,9.00278 c 35.57174,92.67478 32.99979,104.29421 45.01391,146.90905 z"
       id="path61"
       sodipodi:nodetypes="ccccc" />
    <path
       style="fill:#ff0000;fill-rule:evenodd;stroke:#000000;stroke-width:3.2;stroke-linecap:round;stroke-miterlimit:4.4"
       d="M 78.330026,274.17565 C 61.423163,265.77199 172.11509,21.386964 232.19576,3.2737391 231.42842,-7.9124622 93.410369,269.65746 101.65542,268.44661 c 1.81066,-0.26591 -23.325394,5.72904 -23.325394,5.72904 z"
       id="path62"
       sodipodi:nodetypes="ccsc" />
    <path
       style="fill:#ff0000;fill-rule:evenodd;stroke:#000000;stroke-width:3.2;stroke-linecap:round;stroke-miterlimit:4.4"
       d="M 101.89513,270.08348 C 132.16367,171.03196 173.0182,80.123508 231.61704,2.8645218 192.82786,87.646814 156.36298,173.20387 130.54035,262.30835 Z"
       id="path63"
       sodipodi:nodetypes="cccc" />
    <path
       style="fill:#ff0000;fill-rule:evenodd;stroke:#000000;stroke-width:3.2;stroke-linecap:round;stroke-miterlimit:4.4"
       d="M 129.72191,263.94522 C 164.65959,146.47083 199.43825,77.034352 233.25391,0.81843479 207.60085,84.838925 180.20426,167.76971 162.86852,256.98852 Z"
       id="path64"
       sodipodi:nodetypes="cccc" />
    <path
       style="fill:#ff0000;fill-rule:evenodd;stroke:#000000;stroke-width:3.2;stroke-linecap:round;stroke-miterlimit:4.4"
       d="M 163.68696,255.76087 C 180.94725,165.5334 208.05256,85.150937 233.66313,3.2737391 L 198.47044,251.25948 Z"
       id="path65"
       sodipodi:nodetypes="cccc" />
    <path
       style="fill:#ff0000;fill-rule:evenodd;stroke:#000000;stroke-width:3.2;stroke-linecap:round;stroke-miterlimit:4.4"
       d="m 198.06122,250.03183 c 0,0 33.14661,-248.3949604 34.78348,-247.5765256 1.63687,0.8184347 -3.27374,244.3027856 -3.27374,244.3027856 z"
       id="path66" />
    <path
       style="fill:#ff0000;fill-rule:evenodd;stroke:#000000;stroke-width:3.2;stroke-linecap:round;stroke-miterlimit:4.4"
       d="M 230.38939,247.57652 232.43548,2.4553044 c 0,0 37.23878,247.9857356 37.23878,245.9396556 0,-2.04609 -39.28487,-0.81844 -39.28487,-0.81844 z"
       id="path67" />
    <path
       style="fill:#ff0000;fill-rule:evenodd;stroke:#000000;stroke-width:3.2;stroke-linecap:round;stroke-miterlimit:4.4"
       d="m 270.08348,247.57652 c 0,0 -38.05722,-247.98573739 -38.46644,-246.3488678 -0.40921,1.6368696 71.20383,245.5304378 71.20383,245.5304378 z"
       id="path68" />
    <path
       style="fill:#ff0000;fill-rule:evenodd;stroke:#000000;stroke-width:3.2;stroke-linecap:round;stroke-miterlimit:4.4"
       d="M 302.41165,247.98574 233.66313,3.2737391 C 271.5518,84.024848 312.4406,164.87385 343.33339,249.62261 Z"
       id="path69"
       sodipodi:nodetypes="cccc" />
    <path
       style="fill:#ff0000;fill-rule:evenodd;stroke:#000000;stroke-width:3.2;stroke-linecap:round;stroke-miterlimit:4.4"
       d="M 343.74261,249.21339 C 352.53905,248.41371 229.26208,-12.162989 234.07235,2.8645218 239.02823,18.346909 387.89758,252.45966 381.39061,255.35165 Z"
       id="path70"
       sodipodi:nodetypes="cscc" />
    <path
       style="fill:#ff0000;fill-rule:evenodd;stroke:#000000;stroke-width:3.2;stroke-linecap:round;stroke-miterlimit:4.4"
       d="M 382.61826,256.17009 C 386.37934,252.40901 228.17394,-7.5526957 235.3,3.2737391 238.5704,8.2423738 413.47065,249.77278 412.08192,264.35444 Z"
       id="path71"
       sodipodi:nodetypes="cscc" />
    <path
       style="fill:#ff0000;fill-rule:evenodd;stroke:#000000;stroke-width:3.2;stroke-linecap:round;stroke-miterlimit:4.4"
       d="M 411.6727,265.58209 C 355.72727,167.32244 295.50514,89.02067 236.52765,4.9106087 313.5317,84.734884 382.61742,175.36048 439.49948,279.49548 Z"
       id="path72"
       sodipodi:nodetypes="cccc" />
    <path
       style="fill:#ff0000;fill-rule:evenodd;stroke:#000000;stroke-width:3.2;stroke-linecap:round;stroke-miterlimit:4.4"
       d="M 440.72713,282.76922 C 382.07143,179.03953 312.54387,90.363175 239.80139,6.1382609 349.79505,93.870127 407.58883,191.33417 453.82209,290.95357 Z"
       id="path73"
       sodipodi:nodetypes="cccc" />
  </g>
</svg>
