<?xml version="1.0" encoding="UTF-8" standalone="no"?>
<!-- Created with Inkscape (http://www.inkscape.org/) -->

<svg
   width="587"
   height="941"
   viewBox="0 0 210 297"
   version="1.1"
   id="svg1"
   xml:space="preserve"
   inkscape:version="1.3 (0e150ed6c4, 2023-07-21)"
   sodipodi:docname="Asym B 32m2.svg"
   xmlns:inkscape="http://www.inkscape.org/namespaces/inkscape"
   xmlns:sodipodi="http://sodipodi.sourceforge.net/DTD/sodipodi-0.dtd"
   xmlns="http://www.w3.org/2000/svg"
   xmlns:svg="http://www.w3.org/2000/svg"><sodipodi:namedview
     id="namedview1"
     pagecolor="#ffffff"
     bordercolor="#000000"
     borderopacity="0.25"
     inkscape:showpageshadow="2"
     inkscape:pageopacity="0.0"
     inkscape:pagecheckerboard="0"
     inkscape:deskcolor="#d1d1d1"
     inkscape:document-units="mm"
     showgrid="false"
     inkscape:zoom="1.3736953"
     inkscape:cx="283.90576"
     inkscape:cy="290.82141"
     inkscape:window-width="1920"
     inkscape:window-height="1009"
     inkscape:window-x="-8"
     inkscape:window-y="-8"
     inkscape:window-maximized="1"
     inkscape:current-layer="layer1" /><defs
     id="defs1" /><g
     inkscape:label="Layer 1"
     inkscape:groupmode="layer"
     id="layer1"><path
       style="fill:#ffb380;fill-rule:evenodd;stroke:#000000;stroke-width:0.846667;stroke-linecap:round;stroke-miterlimit:4.4"
       d="m 41.811471,222.67672 c -4.341567,-20.53171 -6.371676,-43.75233 -5.992525,-68.64163 l 7.354463,2.45149 z"
       id="path1"
       sodipodi:nodetypes="cccc" /><path
       style="fill:#ffb380;fill-rule:evenodd;stroke:#000000;stroke-width:0.846667;stroke-linecap:round;stroke-miterlimit:4.4"
       d="m 42.08386,221.99576 1.225743,-65.91776 8.85259,2.45149 z"
       id="path2" /><path
       style="fill:#ffb380;fill-rule:evenodd;stroke:#000000;stroke-width:0.846667;stroke-linecap:round;stroke-miterlimit:4.4"
       d="m 41.539083,222.26814 10.759305,-63.73865 9.261172,1.90671 z"
       id="path3"
       sodipodi:nodetypes="cccc" /><path
       style="fill:#ffb380;fill-rule:evenodd;stroke:#000000;stroke-width:0.846667;stroke-linecap:round;stroke-miterlimit:4.4"
       d="m 41.402891,222.13195 19.884282,-62.24053 14.436534,2.72388 z"
       id="path4"
       sodipodi:nodetypes="cccc" /><path
       style="fill:#ffb380;fill-rule:evenodd;stroke:#000000;stroke-width:0.846667;stroke-linecap:round;stroke-miterlimit:4.4"
       d="m 42.628634,221.1786 c 10.315977,-20.37301 21.373165,-40.0048 33.503653,-58.5633 l 16.343246,1.90671 z"
       id="path5"
       sodipodi:nodetypes="cccc" /><path
       style="fill:#ffb380;fill-rule:evenodd;stroke:#000000;stroke-width:0.846667;stroke-linecap:round;stroke-miterlimit:4.4"
       d="m 42.628634,221.0424 49.16593,-57.06516 15.389896,1.63432 0.27238,4.3582 z"
       id="path6" /><path
       style="fill:#ffb380;fill-rule:evenodd;stroke:#000000;stroke-width:0.846667;stroke-linecap:round;stroke-miterlimit:4.4"
       d="m 42.356246,221.45098 65.236794,-51.75361 0.27238,18.38615 z"
       id="path7" /><path
       style="fill:#ffb380;fill-rule:evenodd;stroke:#000000;stroke-width:0.846667;stroke-linecap:round;stroke-miterlimit:4.4"
       d="m 42.220051,221.58718 65.917759,-33.36746 -0.13619,16.61563 c -23.823516,11.50996 -44.791827,14.09741 -65.781569,16.75183 z"
       id="path8"
       sodipodi:nodetypes="cccc" /><path
       style="fill:#ffb380;fill-rule:evenodd;stroke:#000000;stroke-width:0.846667;stroke-linecap:round;stroke-miterlimit:4.4"
       d="m 42.628634,221.99576 c 0,2.26281 66.326336,-13.87065 65.781566,-17.02422 -0.0927,-0.53683 0,13.61938 0,13.61938 -22.322778,6.4754 -44.183891,6.71832 -65.781566,3.40484 z"
       id="path9"
       sodipodi:nodetypes="cscc" /><path
       style="fill:#ffb380;fill-rule:evenodd;stroke:#000000;stroke-width:0.846667;stroke-linecap:round;stroke-miterlimit:4.4"
       d="m 42.08386,221.72337 c 21.500297,2.26331 43.301652,3.14176 66.59872,-2.86007 l -0.13619,12.80221 c -25.34353,1.57629 -46.52952,-3.2223 -66.46253,-9.94214 z"
       id="path10"
       sodipodi:nodetypes="cccc" /><path
       style="fill:#ffb380;fill-rule:evenodd;stroke:#000000;stroke-width:0.846667;stroke-linecap:round;stroke-miterlimit:4.4"
       d="m 43.718183,222.54053 c 20.454124,5.48005 40.911055,10.95356 64.555817,8.98879 V 242.8334 C 81.519313,241.7605 62.255142,232.54574 43.718183,222.54053 Z"
       id="path11"
       sodipodi:nodetypes="cccc" /><path
       style="fill:#ffb380;fill-rule:evenodd;stroke:#000000;stroke-width:0.846667;stroke-linecap:round;stroke-miterlimit:4.4"
       d="m 42.764829,221.85956 c 20.359208,10.61484 42.412212,20.33097 65.645371,21.24622 0,0 0.77025,10.33442 0,10.35073 -19.869092,0.42067 -74.270609,-29.73959 -65.645371,-31.59695 z"
       id="path12"
       sodipodi:nodetypes="ccsc" /><path
       style="fill:#ffb380;fill-rule:evenodd;stroke:#000000;stroke-width:0.846667;stroke-linecap:round;stroke-miterlimit:4.4"
       d="m 35.682753,153.21793 4.902975,-46.98683 11.576465,-1.90671 -9.124979,51.8898 z"
       id="path13" /><path
       style="fill:#ffb380;fill-rule:evenodd;stroke:#000000;stroke-width:0.846667;stroke-linecap:round;stroke-miterlimit:4.4"
       d="m 42.90102,156.2142 c -0.272388,-1.63433 9.805948,-52.02601 9.805948,-52.02601 l 11.576465,-0.81716 -12.121238,55.29465 z"
       id="path14"
       sodipodi:nodetypes="ccccc" /><path
       style="fill:#ffb380;fill-rule:evenodd;stroke:#000000;stroke-width:0.846667;stroke-linecap:round;stroke-miterlimit:4.4"
       d="M 52.162194,158.39329 64.419627,103.09864 78.175193,101.8729 61.695755,160.84478 51.34503,157.84852"
       id="path15"
       sodipodi:nodetypes="ccccc" /><path
       style="fill:#ffb380;fill-rule:evenodd;stroke:#000000;stroke-width:0.846667;stroke-linecap:round;stroke-miterlimit:4.4"
       d="m 61.423367,160.16381 16.070857,-58.4271 13.210791,-0.27239 -15.117503,61.01478 z"
       id="path16" /><path
       style="fill:#ffb380;fill-rule:evenodd;stroke:#000000;stroke-width:0.846667;stroke-linecap:round;stroke-miterlimit:4.4"
       d="m 75.587512,162.4791 15.253698,-60.74239 13.34698,0.40858 0.1362,6.67349 -12.393631,55.56703 z"
       id="path17"
       sodipodi:nodetypes="cccccc" /><path
       style="fill:#ffb380;fill-rule:evenodd;stroke:#000000;stroke-width:0.846667;stroke-linecap:round;stroke-miterlimit:4.4"
       d="m 91.794564,163.97724 12.938406,-55.15846 2.99626,56.92897 z"
       id="path18" /><path
       style="fill:#ffb380;fill-rule:evenodd;stroke:#000000;stroke-width:0.846667;stroke-linecap:round;stroke-miterlimit:4.4"
       d="M 40.585728,105.82252 C 50.322327,74.778027 58.65964,42.297425 81.716231,24.92345 66.204129,49.282082 57.637182,76.212993 51.889805,104.18819 Z"
       id="path19"
       sodipodi:nodetypes="cccc" /><path
       style="fill:#ffb380;fill-rule:evenodd;stroke:#000000;stroke-width:0.846667;stroke-linecap:round;stroke-miterlimit:4.4"
       d="M 64.692016,102.41767 C 68.886279,75.755429 70.923144,47.844169 81.580036,24.92345 L 77.35803,101.73671 Z"
       id="path21"
       sodipodi:nodetypes="cccc" /><path
       style="fill:#ffb380;fill-rule:evenodd;stroke:#000000;stroke-width:0.846667;stroke-linecap:round;stroke-miterlimit:4.4"
       d="m 77.630419,101.32813 4.222006,-76.268486 8.85259,76.404676 z"
       id="path22" /><path
       style="fill:#ffb380;fill-rule:evenodd;stroke:#000000;stroke-width:0.846667;stroke-linecap:round;stroke-miterlimit:4.4"
       d="M 90.296435,101.19193 82.397199,25.740613 103.77961,101.73671 91.113596,101.46432"
       id="path23" /><path
       style="fill:#ffb380;fill-rule:evenodd;stroke:#000000;stroke-width:0.846667;stroke-linecap:round;stroke-miterlimit:4.4"
       d="M 103.91581,102.00909 83.078168,26.557774 c 14.843387,23.798055 26.953942,49.027591 34.184622,76.813256 z"
       id="path24"
       sodipodi:nodetypes="cccc" /><path
       style="fill:#ffb380;fill-rule:evenodd;stroke:#000000;stroke-width:0.846667;stroke-linecap:round;stroke-miterlimit:4.4"
       d="M 117.1266,102.82626 C 119.42146,99.175492 82.09297,23.715158 83.759137,26.693968 103.64241,47.35875 119.3024,75.855249 129.38403,105.27774 Z"
       id="path25"
       sodipodi:nodetypes="cccc" /><path
       style="fill:#ffb380;fill-rule:evenodd;stroke:#000000;stroke-width:0.846667;stroke-linecap:round;stroke-miterlimit:4.4"
       d="M 129.11164,105.14155 C 131.13806,96.414785 85.843855,23.074678 84.576297,27.511131 113.67983,52.07271 132.90955,78.948464 138.7814,108.95497 l -10.07834,-4.76678"
       id="path26"
       sodipodi:nodetypes="cccc" /><path
       style="fill:#ffb380;fill-rule:evenodd;stroke:#000000;stroke-width:0.846667;stroke-linecap:round;stroke-miterlimit:4.4"
       d="M 138.64521,108.95497 C 130.70423,74.464181 108.96291,50.637294 85.257266,28.328294 124.48924,54.201765 133.92484,83.93226 145.44804,113.31317 Z"
       id="path27"
       sodipodi:nodetypes="cccc" /><path
       style="fill:#ffb380;fill-rule:evenodd;stroke:#000000;stroke-width:0.846667;stroke-linecap:round;stroke-miterlimit:4.4"
       d="m 106.77587,165.74775 -2.0429,-56.52039 15.79847,57.06517 z"
       id="path28" /><path
       style="fill:#ffb380;fill-rule:evenodd;stroke:#000000;stroke-width:0.846667;stroke-linecap:round;stroke-miterlimit:4.4"
       d="m 120.39525,165.88395 -16.07086,-55.83943 v -8.30781 l 13.21079,1.08955 15.79847,64.28343 z"
       id="path29" /><path
       style="fill:#ffb380;fill-rule:evenodd;stroke:#000000;stroke-width:0.846667;stroke-linecap:round;stroke-miterlimit:4.4"
       d="m 133.19746,166.9735 -15.93467,-64.41963 12.39363,2.45149 15.79847,61.55956 z"
       id="path30" /><path
       style="fill:#ffb380;fill-rule:evenodd;stroke:#000000;stroke-width:0.846667;stroke-linecap:round;stroke-miterlimit:4.4"
       d="m 145.04631,165.88395 -15.79847,-61.28717 10.21453,4.90297 c 5.48132,18.88553 9.63371,37.77105 12.9384,56.65658 z"
       id="path31"
       sodipodi:nodetypes="ccccc" /><path
       style="fill:#ffb380;fill-rule:evenodd;stroke:#000000;stroke-width:0.846667;stroke-linecap:round;stroke-miterlimit:4.4"
       d="m 151.7198,165.88395 c 1.2449,-0.73444 -11.82382,-56.69377 -13.21079,-56.5204 l 6.67349,3.81343 c 5.60548,18.46502 8.09146,35.37028 10.8955,52.43458 z"
       id="path32"
       sodipodi:nodetypes="ccccc" /><path
       style="fill:#ffb380;fill-rule:evenodd;stroke:#000000;stroke-width:0.846667;stroke-linecap:round;stroke-miterlimit:4.4"
       d="m 158.12091,250.18786 c 1.84467,1.98157 1.24228,-77.93197 -2.04291,-84.44011 l -4.08581,0.27239 c 4.72999,28.59332 4.77302,56.24925 6.12872,84.16772 z"
       id="path33"
       sodipodi:nodetypes="cccc" /><path
       style="fill:#ffb380;fill-rule:evenodd;stroke:#000000;stroke-width:0.846667;stroke-linecap:round;stroke-miterlimit:4.4"
       d="m 158.2571,249.77928 c -1.5204,-27.79705 -1.53632,-55.29321 -6.40111,-83.75914 l -6.80968,0.27239 z"
       id="path34"
       sodipodi:nodetypes="cccc" /><path
       style="fill:#ffb380;fill-rule:evenodd;stroke:#000000;stroke-width:0.846667;stroke-linecap:round;stroke-miterlimit:4.4"
       d="m 158.12091,249.64308 -13.61938,-83.89533 -11.16788,0.95336 z"
       id="path35" /><path
       style="fill:#ffb380;fill-rule:evenodd;stroke:#000000;stroke-width:0.846667;stroke-linecap:round;stroke-miterlimit:4.4"
       d="m 158.2571,249.09831 c -0.13619,-0.54478 -24.92345,-82.12481 -24.92345,-82.12481 l -13.34699,-0.68097 z"
       id="path36" /><path
       style="fill:#ffb380;fill-rule:evenodd;stroke:#000000;stroke-width:0.846667;stroke-linecap:round;stroke-miterlimit:4.4"
       d="m 157.98471,248.96212 -38.27043,-83.07817 -13.2108,-0.54478 0.68098,4.4944 c 14.68498,28.62462 33.8165,52.8027 50.80025,79.12855 z"
       id="path37"
       sodipodi:nodetypes="ccccc" /><path
       style="fill:#ffb380;fill-rule:evenodd;stroke:#000000;stroke-width:0.846667;stroke-linecap:round;stroke-miterlimit:4.4"
       d="m 157.98471,249.3707 -51.20884,-78.44759 0.54478,17.02422 z"
       id="path38"
       sodipodi:nodetypes="cccc" /><path
       style="fill:#ffb380;fill-rule:evenodd;stroke:#000000;stroke-width:0.846667;stroke-linecap:round;stroke-miterlimit:4.4"
       d="m 157.71232,249.3707 -50.39167,-61.28718 0.54477,16.20706 c 15.88093,17.96552 33.23091,30.05484 49.8469,45.08012 z"
       id="path39"
       sodipodi:nodetypes="cccc" /><path
       style="fill:#ffb380;fill-rule:evenodd;stroke:#000000;stroke-width:0.846667;stroke-linecap:round;stroke-miterlimit:4.4"
       d="M 157.57613,249.3707 C 140.8697,234.52558 125.26948,219.68047 107.45684,204.83535 l 0.54477,14.16415 z"
       id="path40"
       sodipodi:nodetypes="cccc" /><path
       style="fill:#ffb380;fill-rule:evenodd;stroke:#000000;stroke-width:0.846667;stroke-linecap:round;stroke-miterlimit:4.4"
       d="m 157.84852,249.77928 -49.71071,-30.77978 0,12.66601 c 15.87634,8.29309 32.38223,14.54015 49.71071,18.11377 z"
       id="path41"
       sodipodi:nodetypes="cccc" /><path
       style="fill:#ffb380;fill-rule:evenodd;stroke:#000000;stroke-width:0.846667;stroke-linecap:round;stroke-miterlimit:4.4"
       d="m 157.84852,249.77928 c -16.31401,-3.60878 -32.94301,-9.42248 -49.9831,-18.11377 l 0.81716,11.44027 c 20.9627,6.98914 36.91511,8.75922 49.16594,6.6735 z"
       id="path42"
       sodipodi:nodetypes="cccc" /><path
       style="fill:#ffb380;fill-rule:evenodd;stroke:#000000;stroke-width:0.846667;stroke-linecap:round;stroke-miterlimit:4.4"
       d="m 157.30374,250.18786 c -18.20429,2.12003 -33.1415,-2.76016 -48.89355,-6.94588 l 0.27239,10.48691 c -2.06023,-0.41864 31.22789,5.53766 48.62116,-3.54103 z"
       id="path43"
       sodipodi:nodetypes="cccc" /><path
       style="fill:#ffb380;fill-rule:evenodd;stroke:#000000;stroke-width:0.846667;stroke-linecap:round;stroke-miterlimit:4.4"
       d="M 51.889805,103.77961 C 58.34072,77.282661 63.78478,50.718588 80.762874,24.92345 72.493717,52.728575 68.303557,78.023549 64.692016,102.96245 Z"
       id="path44"
       sodipodi:nodetypes="cccc" /></g></svg>
