<?xml version="1.0" encoding="UTF-8" standalone="no"?>
<!-- Created with Inkscape (http://www.inkscape.org/) -->

<svg
   width="210mm"
   height="297mm"
   viewBox="0 0 210 297"
   version="1.1"
   id="svg1"
   xml:space="preserve"
   inkscape:version="1.3 (0e150ed6c4, 2023-07-21)"
   sodipodi:docname="Asym A 28m2.svg"
   xmlns:inkscape="http://www.inkscape.org/namespaces/inkscape"
   xmlns:sodipodi="http://sodipodi.sourceforge.net/DTD/sodipodi-0.dtd"
   xmlns="http://www.w3.org/2000/svg"
   xmlns:svg="http://www.w3.org/2000/svg"><sodipodi:namedview
     id="namedview1"
     pagecolor="#ffffff"
     bordercolor="#000000"
     borderopacity="0.25"
     inkscape:showpageshadow="2"
     inkscape:pageopacity="0.0"
     inkscape:pagecheckerboard="0"
     inkscape:deskcolor="#d1d1d1"
     inkscape:document-units="mm"
     showgrid="false"
     inkscape:zoom="1.9426985"
     inkscape:cx="469.96484"
     inkscape:cy="323.00432"
     inkscape:window-width="1920"
     inkscape:window-height="1009"
     inkscape:window-x="-8"
     inkscape:window-y="-8"
     inkscape:window-maximized="1"
     inkscape:current-layer="layer1" /><defs
     id="defs1" /><g
     inkscape:label="Layer 1"
     inkscape:groupmode="layer"
     id="layer1"><g
       inkscape:label="Layer 1"
       id="layer1-3"
       transform="translate(9.4479476,11.662487)"><path
         style="fill:#ffb380;fill-rule:evenodd;stroke:#000000;stroke-width:0.846667;stroke-linecap:round;stroke-miterlimit:4.4"
         d="m 47.531607,222.67673 c -2.237917,0.57418 -8.264862,-67.18977 -6.145241,-68.24958 l 7.643372,2.6042 c -2.801531,22.90497 -1.806015,44.12237 -1.498131,65.64538 z"
         id="path1"
         sodipodi:nodetypes="cccc" /><path
         style="fill:#ffb380;fill-rule:evenodd;stroke:#000000;stroke-width:0.846667;stroke-linecap:round;stroke-miterlimit:4.4"
         d="m 47.123027,222.67673 c -0.08096,-21.72256 -1.087872,-43.23936 1.906711,-65.64538 l 8.852591,2.04291 c -6.266326,21.20082 -7.872093,42.40165 -10.759302,63.60247 z"
         id="path2"
         sodipodi:nodetypes="cccc" /><path
         style="fill:#ffb380;fill-rule:evenodd;stroke:#000000;stroke-width:0.846667;stroke-linecap:round;stroke-miterlimit:4.4"
         d="m 46.850638,222.40434 c 2.997983,-21.15542 5.091243,-42.31085 11.167885,-63.46627 l 9.669754,2.0429 z"
         id="path3"
         sodipodi:nodetypes="cccc" /><path
         style="fill:#ffb380;fill-rule:evenodd;stroke:#000000;stroke-width:0.846667;stroke-linecap:round;stroke-miterlimit:4.4"
         d="m 46.714444,223.08531 21.246221,-62.51292 13.210791,2.31529 z"
         id="path4" /><path
         style="fill:#ffb380;fill-rule:evenodd;stroke:#000000;stroke-width:0.846667;stroke-linecap:round;stroke-miterlimit:4.4"
         d="m 46.714444,223.63008 34.04843,-60.87859 c 0,0 17.160409,2.31529 16.615634,2.31529 -0.544774,0 -50.664064,58.5633 -50.664064,58.5633 z"
         id="path5" /><path
         style="fill:#ffb380;fill-rule:evenodd;stroke:#000000;stroke-width:0.846667;stroke-linecap:round;stroke-miterlimit:4.4"
         d="m 46.578252,223.63008 50.93645,-58.73938 14.981308,0.99325 0.13619,4.3582 z"
         id="path6"
         sodipodi:nodetypes="ccccc" /><path
         style="fill:#ffb380;fill-rule:evenodd;stroke:#000000;stroke-width:0.846667;stroke-linecap:round;stroke-miterlimit:4.4"
         d="m 46.442058,224.03867 66.053952,-53.79652 0.40858,18.38615 z"
         id="path7" /><path
         style="fill:#ffb380;fill-rule:evenodd;stroke:#000000;stroke-width:0.846667;stroke-linecap:round;stroke-miterlimit:4.4"
         d="m 46.714444,223.90247 66.462536,-35.00178 v 15.79847 z"
         id="path8" /><path
         style="fill:#ffb380;fill-rule:evenodd;stroke:#000000;stroke-width:0.846667;stroke-linecap:round;stroke-miterlimit:4.4"
         d="m 46.986832,224.17486 66.326338,-19.33951 -0.40858,14.02795 c -22.977189,4.53318 -44.332554,4.60634 -65.917758,5.31156 z"
         id="path9"
         sodipodi:nodetypes="cccc" /><path
         style="fill:#ffb380;fill-rule:evenodd;stroke:#000000;stroke-width:0.846667;stroke-linecap:round;stroke-miterlimit:4.4"
         d="m 49.165933,224.31105 c 20.889398,-0.78449 41.834666,-1.68072 64.147237,-5.31155 l 0.1362,12.80221 c -24.398857,1.32303 -44.935367,-2.31982 -64.283437,-7.49066 z"
         id="path10"
         sodipodi:nodetypes="cccc" /><path
         style="fill:#ffb380;fill-rule:evenodd;stroke:#000000;stroke-width:0.846667;stroke-linecap:round;stroke-miterlimit:4.4"
         d="m 49.710707,224.58344 c 20.10323,4.69207 40.756381,8.2843 63.738663,7.21827 l 0.13619,12.39362 C 90.860546,240.84336 69.177047,235.17691 49.710707,224.58344 Z"
         id="path11"
         sodipodi:nodetypes="cccc" /><path
         style="fill:#ffb380;fill-rule:evenodd;stroke:#000000;stroke-width:0.846667;stroke-linecap:round;stroke-miterlimit:4.4"
         d="m 48.233108,223.37138 c 19.381149,10.88739 43.236858,17.2991 65.488642,21.36873 0,0 0.64978,9.51347 -0.40858,9.80595 -8.68035,2.39884 -72.606216,-28.30757 -65.080062,-31.17468 z"
         id="path12"
         sodipodi:nodetypes="ccsc" /><path
         style="fill:#ffb380;fill-rule:evenodd;stroke:#000000;stroke-width:0.846667;stroke-linecap:round;stroke-miterlimit:4.4"
         d="m 41.266697,154.03509 c 0.824208,-14.66673 1.400199,-29.21451 5.696769,-47.70084 l 10.646477,-1.32889 -8.988787,51.61741 z"
         id="path13"
         sodipodi:nodetypes="ccccc" /><path
         style="fill:#ffb380;fill-rule:evenodd;stroke:#000000;stroke-width:0.846667;stroke-linecap:round;stroke-miterlimit:4.4"
         d="m 48.34877,156.62277 9.397367,-51.48122 12.12124,-1.49813 -11.71266,55.43084 z"
         id="path14" /><path
         style="fill:#ffb380;fill-rule:evenodd;stroke:#000000;stroke-width:0.846667;stroke-linecap:round;stroke-miterlimit:4.4"
         d="m 58.290912,158.80187 11.712659,-55.29465 12.938403,-0.95335 -14.845115,58.01852 z"
         id="path15" /><path
         style="fill:#ffb380;fill-rule:evenodd;stroke:#000000;stroke-width:0.846667;stroke-linecap:round;stroke-miterlimit:4.4"
         d="M 68.369245,160.4362 82.80578,102.55387 96.561345,102.41767 81.307648,162.6153 Z"
         id="path16" /><path
         style="fill:#ffb380;fill-rule:evenodd;stroke:#000000;stroke-width:0.846667;stroke-linecap:round;stroke-miterlimit:4.4"
         d="m 80.713304,162.88768 15.575653,-61.01478 12.938403,0.95336 0.73739,7.03534 -12.450048,54.9328 z"
         id="path17"
         sodipodi:nodetypes="cccccc" /><path
         style="fill:#ffb380;fill-rule:evenodd;stroke:#000000;stroke-width:0.846667;stroke-linecap:round;stroke-miterlimit:4.4"
         d="m 97.787088,164.52201 12.529822,-55.56704 2.58768,56.79278 -15.35,-0.87358"
         id="path18"
         sodipodi:nodetypes="cccc" /><path
         style="fill:#ffb380;fill-rule:evenodd;stroke:#000000;stroke-width:0.846667;stroke-linecap:round;stroke-miterlimit:4.4"
         d="M 46.850638,106.2311 C 52.775237,75.126572 64.121827,47.15475 86.346817,25.468225 73.696013,50.285787 62.741417,75.951453 58.018523,104.73297 Z"
         id="path19"
         sodipodi:nodetypes="cccc" /><path
         style="fill:#ffb380;fill-rule:evenodd;stroke:#000000;stroke-width:0.846667;stroke-linecap:round;stroke-miterlimit:4.4"
         d="M 58.018523,104.59678 C 53.318987,101.72088 83.387132,23.465045 86.619203,24.787256 80.167038,50.608454 72.922581,76.887535 69.947158,103.40408 Z"
         id="path20"
         sodipodi:nodetypes="cccc" /><path
         style="fill:#ffb380;fill-rule:evenodd;stroke:#000000;stroke-width:0.846667;stroke-linecap:round;stroke-miterlimit:4.4"
         d="M 70.275957,103.23484 C 67.125882,102.0902 85.277188,24.67508 86.891592,24.92345 l -4.085812,77.49422 z"
         id="path21"
         sodipodi:nodetypes="cccc" /><path
         style="fill:#ffb380;fill-rule:evenodd;stroke:#000000;stroke-width:0.846667;stroke-linecap:round;stroke-miterlimit:4.4"
         d="m 82.261005,102.69006 4.766781,-77.085641 9.10161,76.942601 z"
         id="path22"
         sodipodi:nodetypes="cccc" /><path
         style="fill:#ffb380;fill-rule:evenodd;stroke:#000000;stroke-width:0.846667;stroke-linecap:round;stroke-miterlimit:4.4"
         d="M 95.664403,102.64333 87.300172,25.059644 109.22736,102.69006 Z"
         id="path23"
         sodipodi:nodetypes="cccc" /><path
         style="fill:#ffb380;fill-rule:evenodd;stroke:#000000;stroke-width:0.846667;stroke-linecap:round;stroke-miterlimit:4.4"
         d="m 108.81878,102.55387 c 0,0 -21.56452,-76.528526 -20.973834,-76.677064 3.617846,-0.909772 39.398504,75.345744 34.457014,77.494224 z"
         id="path24"
         sodipodi:nodetypes="cscc" /><path
         style="fill:#ffb380;fill-rule:evenodd;stroke:#000000;stroke-width:0.846667;stroke-linecap:round;stroke-miterlimit:4.4"
         d="M 122.71054,103.23484 C 115.38403,74.983571 101.70484,50.46917 88.389723,25.740613 109.00856,49.802402 127.19645,75.015692 134.15081,105.55013 l -12.25743,-1.90671"
         id="path25"
         sodipodi:nodetypes="cccc" /><path
         style="fill:#ffb380;fill-rule:evenodd;stroke:#000000;stroke-width:0.846667;stroke-linecap:round;stroke-miterlimit:4.4"
         d="M 134.01462,105.14155 C 126.41523,75.428087 109.08286,51.023523 89.615467,27.783517 114.39507,47.944157 132.90817,75.356375 143.52481,109.31682 Z"
         id="path26"
         sodipodi:nodetypes="cccc" /><path
         style="fill:#ffb380;fill-rule:evenodd;stroke:#000000;stroke-width:0.846667;stroke-linecap:round;stroke-miterlimit:4.4"
         d="M 143.27579,108.68258 C 133.67552,78.222523 116.23932,51.070971 90.296435,27.511131 128.01704,54.937648 137.56995,84.744535 150.49406,114.26653 Z"
         id="path27"
         sodipodi:nodetypes="cccc" /><path
         style="fill:#ffb380;fill-rule:evenodd;stroke:#000000;stroke-width:0.846667;stroke-linecap:round;stroke-miterlimit:4.4"
         d="m 112.35982,165.80417 -2.45149,-55.62345 15.52608,56.65658 z"
         id="path28"
         sodipodi:nodetypes="cccc" /><path
         style="fill:#ffb380;fill-rule:evenodd;stroke:#000000;stroke-width:0.846667;stroke-linecap:round;stroke-miterlimit:4.4"
         d="m 125.31474,166.71763 -15.5426,-56.8093 -1.04282,-7.33794 13.57264,0.93683 16.34325,63.73867 z"
         id="path29"
         sodipodi:nodetypes="cccccc" /><path
         style="fill:#ffb380;fill-rule:evenodd;stroke:#000000;stroke-width:0.846667;stroke-linecap:round;stroke-miterlimit:4.4"
         d="m 138.50901,167.38208 -16.47944,-63.73866 12.66602,2.0429 16.07085,60.8786 z"
         id="path30" /><path
         style="fill:#ffb380;fill-rule:evenodd;stroke:#000000;stroke-width:0.846667;stroke-linecap:round;stroke-miterlimit:4.4"
         d="m 150.76644,166.8373 -16.34324,-61.55956 10.07833,4.4944 12.66602,56.65658 z"
         id="path31" /><path
         style="fill:#ffb380;fill-rule:evenodd;stroke:#000000;stroke-width:0.846667;stroke-linecap:round;stroke-miterlimit:4.4"
         d="m 157.16755,166.70111 -13.83818,-58.04473 7.16469,5.61015 c 6.33849,18.63421 8.34058,35.38399 10.89549,52.29839 z"
         id="path32"
         sodipodi:nodetypes="ccccc" /><path
         style="fill:#ffb380;fill-rule:evenodd;stroke:#000000;stroke-width:0.846667;stroke-linecap:round;stroke-miterlimit:4.4"
         d="m 162.07052,251.2774 c 5.49482,4.75172 -40.72466,7.11182 -48.75735,3.67724 l 0.54478,-11.44027 c 16.15544,5.67517 31.69733,10.0035 48.21257,7.76303 z"
         id="path33"
         sodipodi:nodetypes="cccc" /><path
         style="fill:#ffb380;fill-rule:evenodd;stroke:#000000;stroke-width:0.846667;stroke-linecap:round;stroke-miterlimit:4.4"
         d="m 162.34291,251.00502 c -15.93877,1.87407 -32.18763,-2.14344 -48.48496,-7.08207 l -0.1362,-12.39363 c 14.16443,7.65911 29.41152,14.69956 48.62116,19.4757 z"
         id="path34"
         sodipodi:nodetypes="cccc" /><path
         style="fill:#ffb380;fill-rule:evenodd;stroke:#000000;stroke-width:0.846667;stroke-linecap:round;stroke-miterlimit:4.4"
         d="m 162.34291,251.5498 c -17.32471,-5.4084 -33.65677,-12.20651 -49.16593,-20.15668 l 0.13619,-12.9384 z"
         id="path35"
         sodipodi:nodetypes="cccc" /><path
         style="fill:#ffb380;fill-rule:evenodd;stroke:#000000;stroke-width:0.846667;stroke-linecap:round;stroke-miterlimit:4.4"
         d="m 162.34291,251.68599 -49.30213,-33.23127 -0.13619,-14.02795 z"
         id="path36"
         sodipodi:nodetypes="cccc" /><path
         style="fill:#ffb380;fill-rule:evenodd;stroke:#000000;stroke-width:0.846667;stroke-linecap:round;stroke-miterlimit:4.4"
         d="M 162.07052,251.27741 112.90459,204.42677 112.7684,189.30926 Z"
         id="path37"
         sodipodi:nodetypes="cccc" /><path
         style="fill:#ffb380;fill-rule:evenodd;stroke:#000000;stroke-width:0.846667;stroke-linecap:round;stroke-miterlimit:4.4"
         d="m 161.79814,250.73263 c -16.43404,-20.83764 -34.1519,-39.53559 -49.30213,-62.51291 l 0.40858,-18.24996 z"
         id="path38"
         sodipodi:nodetypes="cccc" /><path
         style="fill:#ffb380;fill-rule:evenodd;stroke:#000000;stroke-width:0.846667;stroke-linecap:round;stroke-miterlimit:4.4"
         d="m 161.66194,250.86883 -48.89354,-80.62668 -0.36869,-4.42146 13.57948,0.88042 z"
         id="path39"
         sodipodi:nodetypes="ccccc" /><path
         style="fill:#ffb380;fill-rule:evenodd;stroke:#000000;stroke-width:0.846667;stroke-linecap:round;stroke-miterlimit:4.4"
         d="m 161.79814,251.27741 -36.61959,-84.79912 13.60285,0.7676 z"
         id="path40"
         sodipodi:nodetypes="cccc" /><path
         style="fill:#ffb380;fill-rule:evenodd;stroke:#000000;stroke-width:0.846667;stroke-linecap:round;stroke-miterlimit:4.4"
         d="M 162.07052,250.73263 138.50901,166.8373 c 0,0 10.94118,-0.57464 12.12124,-0.27238 2.12685,0.54477 12.00608,84.71249 11.16789,84.71249 0.0609,-0.9834 -9.18808,-84.07096 -11.30408,-85.39346 l 6.4011,0.13619 c 3.67707,28.2375 3.81226,56.47499 5.17536,84.71249 z"
         id="path41"
         sodipodi:nodetypes="ccscccc" /><path
         style="fill:#ffb380;fill-rule:evenodd;stroke:#000000;stroke-width:0.846667;stroke-linecap:round;stroke-miterlimit:4.4"
         d="m 162.07053,252.09456 c -1.13458,-27.96485 -1.60762,-56.33269 -5.03918,-85.93823 l 4.35821,0.54478 c 4.8202,41.26606 5.36104,70.40443 0.68097,85.39345 z"
         id="path42"
         sodipodi:nodetypes="cccc" /></g></g></svg>
