<?xml version="1.0" encoding="UTF-8" standalone="no"?>
<!-- Created with Inkscape (http://www.inkscape.org/) -->

<svg
   version="1.1"
   id="svg1"
   width="587"
   height="941"
   viewBox="0 0 587 941"
   sodipodi:docname="AR-18 265m2.svg"
   inkscape:version="1.3 (0e150ed6c4, 2023-07-21)"
   xmlns:inkscape="http://www.inkscape.org/namespaces/inkscape"
   xmlns:sodipodi="http://sodipodi.sourceforge.net/DTD/sodipodi-0.dtd"
   xmlns="http://www.w3.org/2000/svg"
   xmlns:svg="http://www.w3.org/2000/svg">
  <defs
     id="defs1" />
  <sodipodi:namedview
     id="namedview1"
     pagecolor="#ffffff"
     bordercolor="#000000"
     borderopacity="0.25"
     inkscape:showpageshadow="2"
     inkscape:pageopacity="0.0"
     inkscape:pagecheckerboard="0"
     inkscape:deskcolor="#d1d1d1"
     showgrid="false"
     inkscape:zoom="1.2218444"
     inkscape:cx="345.37948"
     inkscape:cy="565.12922"
     inkscape:window-width="1920"
     inkscape:window-height="1009"
     inkscape:window-x="-8"
     inkscape:window-y="-8"
     inkscape:window-maximized="1"
     inkscape:current-layer="g1" />
  <g
     inkscape:groupmode="layer"
     inkscape:label="Image"
     id="g1">
    <path
       style="fill:#ffaaaa;fill-rule:evenodd;stroke:#000000;stroke-width:3.2;stroke-linecap:round;stroke-miterlimit:4.4"
       d="M 70.385392,766.8734 42.558609,585.59009 56.472,590.90992 Z"
       id="path1"
       sodipodi:nodetypes="cccc" />
    <path
       style="fill:#ffaaaa;fill-rule:evenodd;stroke:#000000;stroke-width:3.2;stroke-linecap:round;stroke-miterlimit:4.4"
       d="M 69.566957,768.10105 56.062783,590.90992 68.339305,596.63896 Z"
       id="path2" />
    <path
       style="fill:#ffaaaa;fill-rule:evenodd;stroke:#000000;stroke-width:3.2;stroke-linecap:round;stroke-miterlimit:4.4"
       d="M 69.976174,768.10105 V 596.22974 l 12.276522,5.72905 z"
       id="path3" />
    <path
       style="fill:#ffaaaa;fill-rule:evenodd;stroke:#000000;stroke-width:3.2;stroke-linecap:round;stroke-miterlimit:4.4"
       d="M 70.794609,768.51026 C 69.976174,766.8734 83.480348,601.54957 83.480348,601.54957 l 14.322609,4.91061 z"
       id="path4" />
    <path
       style="fill:#ffaaaa;fill-rule:evenodd;stroke:#000000;stroke-width:3.2;stroke-linecap:round;stroke-miterlimit:4.4"
       d="m 71.613044,768.91948 c 0,0 26.189913,-162.05009 27.826783,-162.05009 1.636873,0 13.913393,6.54748 13.913393,6.54748 z"
       id="path5" />
    <path
       style="fill:#ffaaaa;fill-rule:evenodd;stroke:#000000;stroke-width:3.2;stroke-linecap:round;stroke-miterlimit:4.4"
       d="m 73.249913,768.91948 40.512527,-155.91182 18.41478,4.9106 z"
       id="path6" />
    <path
       style="fill:#ffaaaa;fill-rule:evenodd;stroke:#000000;stroke-width:3.2;stroke-linecap:round;stroke-miterlimit:4.4"
       d="m 74.477566,769.3287 58.927304,-151.00122 19.23322,6.13826 z"
       id="path7" />
    <path
       style="fill:#ffaaaa;fill-rule:evenodd;stroke:#000000;stroke-width:3.2;stroke-linecap:round;stroke-miterlimit:4.4"
       d="M 74.886783,770.55635 153.45652,624.46574 178.41878,630.604 Z"
       id="path8" />
    <path
       style="fill:#ffaaaa;fill-rule:evenodd;stroke:#000000;stroke-width:3.2;stroke-linecap:round;stroke-miterlimit:4.4"
       d="M 74.886783,771.37479 C 78.56974,770.96557 179.23722,629.37635 179.23722,629.37635 l 27.41756,6.13826 z"
       id="path9" />
    <path
       style="fill:#ffaaaa;fill-rule:evenodd;stroke:#000000;stroke-width:3.2;stroke-linecap:round;stroke-miterlimit:4.4"
       d="M 74.886783,768.91948 C 75.705218,766.8734 207.064,636.33305 207.064,636.33305 l 31.91896,4.91061 z"
       id="path10" />
    <path
       style="fill:#ffaaaa;fill-rule:evenodd;stroke:#000000;stroke-width:3.2;stroke-linecap:round;stroke-miterlimit:4.4"
       d="M 74.886783,770.14713 241.02904,640.016 l 35.60192,6.9567 C 210.18021,701.58504 142.35808,732.88407 74.886783,770.14713 Z"
       id="path11"
       sodipodi:nodetypes="cccc" />
    <path
       style="fill:#ffaaaa;fill-rule:evenodd;stroke:#000000;stroke-width:3.2;stroke-linecap:round;stroke-miterlimit:4.4"
       d="M 73.659131,770.55635 C 141.38956,732.58819 209.50641,701.57575 276.22174,645.33583 l 43.78626,3.27374 1.22765,17.59635 c -84.13879,53.8123 -166.66642,78.52015 -247.576519,104.35043 z"
       id="path12"
       sodipodi:nodetypes="ccccc" />
    <path
       style="fill:#ffaaaa;fill-rule:evenodd;stroke:#000000;stroke-width:3.2;stroke-linecap:round;stroke-miterlimit:4.4"
       d="M 74.477566,770.55635 C 73.851151,781.65558 318.04317,674.06525 320.82644,662.93218 l -0.81844,31.91895 c -110.55366,53.2091 -176.10303,62.56786 -245.530434,75.70522 z"
       id="path13"
       sodipodi:nodetypes="cccc" />
    <path
       style="fill:#ffaaaa;fill-rule:evenodd;stroke:#000000;stroke-width:3.2;stroke-linecap:round;stroke-miterlimit:4.4"
       d="M 77.342087,771.37479 C 154.12743,759.34179 233.30655,738.93059 318.78035,696.488 v 37.23879 c 0,21.10972 -243.893567,51.84322 -241.438263,37.648 z"
       id="path14"
       sodipodi:nodetypes="cccc" />
    <path
       style="fill:#ffaaaa;fill-rule:evenodd;stroke:#000000;stroke-width:3.2;stroke-linecap:round;stroke-miterlimit:4.4"
       d="M 79.797392,773.01166 C 157.72494,772.32357 236.5248,765.5293 318.78035,734.54522 l -1.22765,36.42035 C 227.91876,795.00749 152.12011,787.92 79.797392,773.01166 Z"
       id="path15"
       sodipodi:nodetypes="cccc" />
    <path
       style="fill:#ffaaaa;fill-rule:evenodd;stroke:#000000;stroke-width:3.2;stroke-linecap:round;stroke-miterlimit:4.4"
       d="M 79.388174,774.23931 C 155.62327,790.55034 235.59155,788.19542 318.37113,771.784 l -1.63687,33.14661 c -89.68365,5.62199 -167.28029,-6.88652 -237.346086,-30.6913 z"
       id="path16"
       sodipodi:nodetypes="cccc" />
    <path
       style="fill:#ffaaaa;fill-rule:evenodd;stroke:#000000;stroke-width:3.2;stroke-linecap:round;stroke-miterlimit:4.4"
       d="M 81.434261,775.87618 C 157.21904,800.452 235.90296,809.95229 317.14348,806.15826 l -1.63687,28.23601 c -99.7905,-5.8243 -172.30539,-28.79328 -234.072349,-58.51809 z"
       id="path17"
       sodipodi:nodetypes="cccc" />
    <path
       style="fill:#ffaaaa;fill-rule:evenodd;stroke:#000000;stroke-width:3.2;stroke-linecap:round;stroke-miterlimit:4.4"
       d="M 81.025044,776.69461 C 150.64402,804.71319 218.7586,834.46763 315.91583,830.7113 l 1.63687,29.87288 C 227.07229,859.30686 151.07186,818.83913 81.025044,776.69461 Z"
       id="path18"
       sodipodi:nodetypes="cccc" />
    <path
       style="fill:#ffaaaa;fill-rule:evenodd;stroke:#000000;stroke-width:3.2;stroke-linecap:round;stroke-miterlimit:4.4"
       d="m 84.708,777.51305 c -13.825141,10.70016 208.17416,94.73968 231.61705,81.43426 v 20.05165 C 227.98198,858.10406 139.99799,836.79217 84.708,777.51305 Z"
       id="path19"
       sodipodi:nodetypes="cccc" />
    <path
       style="fill:#ffaaaa;fill-rule:evenodd;stroke:#000000;stroke-width:3.2;stroke-linecap:round;stroke-miterlimit:4.4"
       d="m 42.558609,584.77166 c -1.362557,-37.50949 -1.9794,-73.97499 2.046087,-103.94122 l 16.368696,3.68295 C 56.406805,534.03282 54.339885,559.49394 56.472,590.5007 Z"
       id="path20"
       sodipodi:nodetypes="ccccc" />
    <path
       style="fill:#ffaaaa;fill-rule:evenodd;stroke:#000000;stroke-width:3.2;stroke-linecap:round;stroke-miterlimit:4.4"
       d="m 54.425913,590.90992 c 0.112537,-38.88179 1.819085,-75.53196 7.365913,-106.80574 l 16.777914,4.91061 -10.230435,106.80573 z"
       id="path21"
       sodipodi:nodetypes="ccccc" />
    <path
       style="fill:#ffaaaa;fill-rule:evenodd;stroke:#000000;stroke-width:3.2;stroke-linecap:round;stroke-miterlimit:4.4"
       d="m 69.157739,596.63896 9.821218,-107.62417 18.824,1.63686 -15.959478,110.07948 z"
       id="path22" />
    <path
       style="fill:#ffaaaa;fill-rule:evenodd;stroke:#000000;stroke-width:3.2;stroke-linecap:round;stroke-miterlimit:4.4"
       d="M 83.071131,599.9127 98.621392,492.69774 119.9007,494.74383 96.575305,606.05096 Z"
       id="path23" />
    <path
       style="fill:#ffaaaa;fill-rule:evenodd;stroke:#000000;stroke-width:3.2;stroke-linecap:round;stroke-miterlimit:4.4"
       d="m 97.39374,605.23252 22.09774,-109.67026 25.37148,3.68296 -31.50974,112.12557 z"
       id="path24" />
    <path
       style="fill:#ffaaaa;fill-rule:evenodd;stroke:#000000;stroke-width:3.2;stroke-linecap:round;stroke-miterlimit:4.4"
       d="m 113.35322,611.37079 32.32817,-112.12557 27.82678,2.4553 -42.96782,115.80853 z"
       id="path25" />
    <path
       style="fill:#ffaaaa;fill-rule:evenodd;stroke:#000000;stroke-width:3.2;stroke-linecap:round;stroke-miterlimit:4.4"
       d="m 131.35878,616.69061 41.33096,-114.99009 30.28209,3.27374 -51.15218,118.67305 z"
       id="path26" />
    <path
       style="fill:#ffaaaa;fill-rule:evenodd;stroke:#000000;stroke-width:3.2;stroke-linecap:round;stroke-miterlimit:4.4"
       d="m 151.81965,623.64731 51.97061,-119.9007 29.87287,3.27374 -56.472,121.94678 z"
       id="path27" />
    <path
       style="fill:#ffaaaa;fill-rule:evenodd;stroke:#000000;stroke-width:3.2;stroke-linecap:round;stroke-miterlimit:4.4"
       d="m 177.60035,628.55792 55.24435,-122.76522 29.05443,2.86452 -55.65356,127.26661 z"
       id="path28" />
    <path
       style="fill:#ffaaaa;fill-rule:evenodd;stroke:#000000;stroke-width:3.2;stroke-linecap:round;stroke-miterlimit:4.4"
       d="m 206.24557,636.74226 55.65356,-129.72191 31.50974,3.68296 -53.60748,129.72191 z"
       id="path29" />
    <path
       style="fill:#ffaaaa;fill-rule:evenodd;stroke:#000000;stroke-width:3.2;stroke-linecap:round;stroke-miterlimit:4.4"
       d="m 239.80139,639.60679 52.37983,-128.90348 28.64522,0.81843 -0.40922,22.09774 -43.37704,112.12557 z"
       id="path30" />
    <path
       style="fill:#ffaaaa;fill-rule:evenodd;stroke:#000000;stroke-width:3.2;stroke-linecap:round;stroke-miterlimit:4.4"
       d="m 274.99409,645.33583 47.87843,-112.944 -2.04608,115.80852 z"
       id="path31" />
    <path
       style="fill:#ffaaaa;fill-rule:evenodd;stroke:#000000;stroke-width:3.2;stroke-linecap:round;stroke-miterlimit:4.4"
       d="m 43.786261,479.19357 c 3.050428,-38.68733 5.591744,-78.18923 13.913391,-108.44261 l 20.051653,-0.40922 c -8.054907,33.61184 -13.071804,72.5402 -16.777913,113.76244 z"
       id="path32"
       sodipodi:nodetypes="ccccc" />
    <path
       style="fill:#ffaaaa;fill-rule:evenodd;stroke:#000000;stroke-width:3.2;stroke-linecap:round;stroke-miterlimit:4.4"
       d="m 60.564174,483.69496 c 3.41836,-36.10892 6.957345,-72.31835 16.777913,-113.76244 l 20.46087,-1.63687 -19.642435,119.9007 z"
       id="path33"
       sodipodi:nodetypes="ccccc" />
    <path
       style="fill:#ffaaaa;fill-rule:evenodd;stroke:#000000;stroke-width:3.2;stroke-linecap:round;stroke-miterlimit:4.4"
       d="m 78.56974,488.19635 c 4.68316,-41.64932 10.761148,-82.18278 20.870087,-119.49148 0,0 19.642433,-4.09217 20.460873,-2.4553 0.81843,1.63687 -21.688526,125.22052 -21.688526,125.22052 z"
       id="path34"
       sodipodi:nodetypes="ccscc" />
    <path
       style="fill:#ffaaaa;fill-rule:evenodd;stroke:#000000;stroke-width:3.2;stroke-linecap:round;stroke-miterlimit:4.4"
       d="M 98.212174,491.47009 120.30991,367.068 l 23.3254,-1.22765 -23.73461,129.3127 z"
       id="path35" />
    <path
       style="fill:#ffaaaa;fill-rule:evenodd;stroke:#000000;stroke-width:3.2;stroke-linecap:round;stroke-miterlimit:4.4"
       d="m 120.30991,495.15305 23.73461,-130.13114 h 26.18992 l -24.55305,135.04174 z"
       id="path36" />
    <path
       style="fill:#ffaaaa;fill-rule:evenodd;stroke:#000000;stroke-width:3.2;stroke-linecap:round;stroke-miterlimit:4.4"
       d="m 145.27217,498.836 c 0.40922,1.63687 24.96227,-135.45095 24.96227,-135.45095 0,0 28.64521,-2.04609 29.05443,0 0.40922,2.04608 -26.18991,137.49704 -26.18991,137.49704 z"
       id="path37" />
    <path
       style="fill:#ffaaaa;fill-rule:evenodd;stroke:#000000;stroke-width:3.2;stroke-linecap:round;stroke-miterlimit:4.4"
       d="m 172.28052,501.29131 28.64522,-137.49705 30.28209,-0.40921 -27.00835,140.77078 z"
       id="path38" />
    <path
       style="fill:#ffaaaa;fill-rule:evenodd;stroke:#000000;stroke-width:3.2;stroke-linecap:round;stroke-miterlimit:4.4"
       d="m 205.01791,503.74661 27.00835,-140.77078 32.32818,0.81843 -30.28209,141.99844 z"
       id="path39" />
    <path
       style="fill:#ffaaaa;fill-rule:evenodd;stroke:#000000;stroke-width:3.2;stroke-linecap:round;stroke-miterlimit:4.4"
       d="m 233.25391,505.7927 31.10053,-142.81687 c 0,0 29.05443,-1.63687 29.46365,0 0.40922,1.63687 -32.32818,144.86296 -32.32818,144.86296 z"
       id="path40" />
    <path
       style="fill:#ffaaaa;fill-rule:evenodd;stroke:#000000;stroke-width:3.2;stroke-linecap:round;stroke-miterlimit:4.4"
       d="m 261.89913,506.61113 32.73739,-142.81687 24.14383,0.40922 0.81843,29.87287 -26.18991,116.21774 z"
       id="path41" />
    <path
       style="fill:#ffaaaa;fill-rule:evenodd;stroke:#000000;stroke-width:3.2;stroke-linecap:round;stroke-miterlimit:4.4"
       d="m 292.99965,511.11252 27.00835,-117.8546 2.45531,117.44539 z"
       id="path42" />
    <path
       style="fill:#ffaaaa;fill-rule:evenodd;stroke:#000000;stroke-width:3.2;stroke-linecap:round;stroke-miterlimit:4.4"
       d="m 322.46331,510.70331 -3.27374,-118.26383 31.10052,119.9007 z"
       id="path43" />
    <path
       style="fill:#ffaaaa;fill-rule:evenodd;stroke:#000000;stroke-width:3.2;stroke-linecap:round;stroke-miterlimit:4.4"
       d="m 351.10852,512.34018 c 0,0 -32.73739,-117.85461 -31.10052,-116.62696 1.63687,1.22765 -3.27374,-34.78348 -2.4553,-32.32817 0.81843,2.4553 24.96226,1.63686 24.96226,1.63686 l 38.87565,148.1367 z"
       id="path44" />
    <path
       style="fill:#ffaaaa;fill-rule:evenodd;stroke:#000000;stroke-width:3.2;stroke-linecap:round;stroke-miterlimit:4.4"
       d="m 382.20905,511.93096 -39.69409,-146.90905 30.6913,3.27374 c 0,0 36.01113,142.40766 36.42035,144.04453 0.40922,1.63687 -27.41756,-0.40922 -27.41756,-0.40922 z"
       id="path45" />
    <path
       style="fill:#ffaaaa;fill-rule:evenodd;stroke:#000000;stroke-width:3.2;stroke-linecap:round;stroke-miterlimit:4.4"
       d="m 57.699652,369.52331 c 6.987532,-37.0664 12.568626,-75.77365 25.780696,-105.57809 l 20.870092,-5.72904 c -12.233064,35.7557 -19.748299,73.39854 -26.599135,111.30713 z"
       id="path46"
       sodipodi:nodetypes="ccccc" />
    <path
       style="fill:#ffaaaa;fill-rule:evenodd;stroke:#000000;stroke-width:3.2;stroke-linecap:round;stroke-miterlimit:4.4"
       d="m 77.751305,369.52331 c 7.403807,-37.77683 13.603425,-75.7945 26.189915,-112.53479 l 23.73461,-5.72904 -29.872873,117.03617 z"
       id="path47"
       sodipodi:nodetypes="ccccc" />
    <path
       style="fill:#ffaaaa;fill-rule:evenodd;stroke:#000000;stroke-width:3.2;stroke-linecap:round;stroke-miterlimit:4.4"
       d="m 97.802957,367.88644 29.463653,-115.39931 25.7807,-6.54748 -31.91896,120.30992 z"
       id="path48" />
    <path
       style="fill:#ffaaaa;fill-rule:evenodd;stroke:#000000;stroke-width:3.2;stroke-linecap:round;stroke-miterlimit:4.4"
       d="m 119.49148,366.24957 34.37426,-119.9007 20.87009,-4.09217 -30.69131,122.356 z"
       id="path49" />
    <path
       style="fill:#ffaaaa;fill-rule:evenodd;stroke:#000000;stroke-width:3.2;stroke-linecap:round;stroke-miterlimit:4.4"
       d="m 144.04452,364.6127 30.69131,-121.94679 c 0,0 22.91617,-6.13826 24.96226,-3.68295 2.04608,2.4553 -28.64522,125.22052 -28.64522,125.22052 z"
       id="path50" />
    <path
       style="fill:#ffaaaa;fill-rule:evenodd;stroke:#000000;stroke-width:3.2;stroke-linecap:round;stroke-miterlimit:4.4"
       d="M 170.64365,362.15739 200.51652,238.57374 225.888,237.34609 198.87965,362.97583 Z"
       id="path51" />
    <path
       style="fill:#ffaaaa;fill-rule:evenodd;stroke:#000000;stroke-width:3.2;stroke-linecap:round;stroke-miterlimit:4.4"
       d="m 197.652,362.15739 29.46365,-125.22052 25.37148,-1.22765 -19.64243,127.67583 z"
       id="path52" />
    <path
       style="fill:#ffaaaa;fill-rule:evenodd;stroke:#000000;stroke-width:3.2;stroke-linecap:round;stroke-miterlimit:4.4"
       d="m 232.8447,361.74818 18.41478,-127.26661 c 0,0 26.18991,-1.63687 27.41756,1.22765 1.22766,2.86452 -15.55026,128.49426 -15.55026,128.49426 z"
       id="path53" />
    <path
       style="fill:#ffaaaa;fill-rule:evenodd;stroke:#000000;stroke-width:3.2;stroke-linecap:round;stroke-miterlimit:4.4"
       d="m 264.4754,364.01538 14.46802,-128.47602 25.46371,1.15744 1.15745,10.9957 -11.57442,114.58671 z"
       id="path54" />
    <path
       style="fill:#ffaaaa;fill-rule:evenodd;stroke:#000000;stroke-width:3.2;stroke-linecap:round;stroke-miterlimit:4.4"
       d="m 293.41144,362.85793 13.31058,-109.95695 9.83825,108.79951 z"
       id="path55" />
    <path
       style="fill:#ffaaaa;fill-rule:evenodd;stroke:#000000;stroke-width:3.2;stroke-linecap:round;stroke-miterlimit:4.4"
       d="M 315.40283,362.85793 307.30074,247.6925 342.60271,364.5941 Z"
       id="path56" />
    <path
       style="fill:#ffaaaa;fill-rule:evenodd;stroke:#000000;stroke-width:3.2;stroke-linecap:round;stroke-miterlimit:4.4"
       d="m 341.44526,362.85793 -34.14452,-111.11439 -1.73616,-15.04674 26.62115,0.57872 41.6679,130.7909 z"
       id="path57" />
    <path
       style="fill:#ffaaaa;fill-rule:evenodd;stroke:#000000;stroke-width:3.2;stroke-linecap:round;stroke-miterlimit:4.4"
       d="M 83.889565,261.48991 C 126.95551,137.26719 178.50035,44.74851 242.2567,9.8212174 197.47521,72.431027 154.26242,109.62793 104.35044,255.35165 Z"
       id="path58"
       sodipodi:nodetypes="cccc" />
    <path
       style="fill:#ffaaaa;fill-rule:evenodd;stroke:#000000;stroke-width:3.2;stroke-linecap:round;stroke-miterlimit:4.4"
       d="M 105.16887,255.76087 C 133.57894,156.68298 183.72768,79.611309 241.43826,9.8212174 198.47803,81.38391 152.82941,148.04425 127.67583,252.07791 Z"
       id="path59"
       sodipodi:nodetypes="cccc" />
    <path
       style="fill:#ffaaaa;fill-rule:evenodd;stroke:#000000;stroke-width:3.2;stroke-linecap:round;stroke-miterlimit:4.4"
       d="M 128.49426,251.25948 C 152.23446,168.81992 185.01399,87.510286 243.48435,9.412 205.50823,85.084495 172.80855,163.06543 152.22887,246.34887 Z"
       id="path60"
       sodipodi:nodetypes="cccc" />
    <path
       style="fill:#ffaaaa;fill-rule:evenodd;stroke:#000000;stroke-width:3.2;stroke-linecap:round;stroke-miterlimit:4.4"
       d="M 152.63809,246.34887 C 171.48219,162.42583 202.13498,83.378709 243.89357,8.1843479 218.22181,84.205137 194.06208,161.08995 175.96348,241.43826 Z"
       id="path61"
       sodipodi:nodetypes="cccc" />
    <path
       style="fill:#ffaaaa;fill-rule:evenodd;stroke:#000000;stroke-width:3.2;stroke-linecap:round;stroke-miterlimit:4.4"
       d="M 176.78191,241.02904 C 195.62509,156.90502 218.51142,80.867299 243.89357,9.8212174 L 201.74417,239.39218 Z"
       id="path62"
       sodipodi:nodetypes="cccc" />
    <path
       style="fill:#ffaaaa;fill-rule:evenodd;stroke:#000000;stroke-width:3.2;stroke-linecap:round;stroke-miterlimit:4.4"
       d="m 201.74417,238.57374 c 0,0 38.05722,-232.0262617 40.92174,-228.343305 2.86453,3.682956 -16.36869,226.706435 -16.36869,226.706435 z"
       id="path63" />
    <path
       style="fill:#ffaaaa;fill-rule:evenodd;stroke:#000000;stroke-width:3.2;stroke-linecap:round;stroke-miterlimit:4.4"
       d="M 225.888,237.34609 245.12122,9.0027827 252.48713,234.89078 Z"
       id="path64" />
    <path
       style="fill:#ffaaaa;fill-rule:evenodd;stroke:#000000;stroke-width:3.2;stroke-linecap:round;stroke-miterlimit:4.4"
       d="M 252.07791,234.89078 246.34887,11.04887 278.26783,234.07235 Z"
       id="path65" />
    <path
       style="fill:#ffaaaa;fill-rule:evenodd;stroke:#000000;stroke-width:3.2;stroke-linecap:round;stroke-miterlimit:4.4"
       d="M 278.67704,234.48157 245.53044,7.7751305 303.63931,235.3 Z"
       id="path66" />
    <path
       style="fill:#ffaaaa;fill-rule:evenodd;stroke:#000000;stroke-width:3.2;stroke-linecap:round;stroke-miterlimit:4.4"
       d="M 304.86696,235.3 247.16731,9.0027827 331.05687,236.93687 Z"
       id="path67" />
    <path
       style="fill:#ffaaaa;fill-rule:evenodd;stroke:#000000;stroke-width:3.2;stroke-linecap:round;stroke-miterlimit:4.4"
       d="M 331.87531,236.93687 250.85026,14.731826 356.83757,241.02904 Z"
       id="path68" />
    <path
       style="fill:#ffaaaa;fill-rule:evenodd;stroke:#000000;stroke-width:3.2;stroke-linecap:round;stroke-miterlimit:4.4"
       d="M 356.01913,240.21061 253.71478,15.141044 381.79983,245.53044 Z"
       id="path69" />
    <path
       style="fill:#ffaaaa;fill-rule:evenodd;stroke:#000000;stroke-width:3.2;stroke-linecap:round;stroke-miterlimit:4.4"
       d="M 381.39061,245.12122 257.80696,19.233217 C 307.93845,95.95912 360.67127,170.08369 405.12522,252.48713 Z"
       id="path70"
       sodipodi:nodetypes="cccc" />
    <path
       style="fill:#ffaaaa;fill-rule:evenodd;stroke:#000000;stroke-width:3.2;stroke-linecap:round;stroke-miterlimit:4.4"
       d="M 405.12522,252.48713 C 363.58433,173.61314 310.78717,100.36729 262.30835,24.962261 320.44666,101.05511 385.54588,174.26758 422.72157,259.03461 Z"
       id="path71"
       sodipodi:nodetypes="cccc" />
    <path
       style="fill:#ffaaaa;fill-rule:evenodd;stroke:#000000;stroke-width:3.2;stroke-linecap:round;stroke-miterlimit:4.4"
       d="M 422.72157,258.21618 C 379.38652,172.75793 319.44467,100.79269 264.76365,24.553044 327.54278,97.245348 392.00975,166.47758 439.9087,269.67426 Z"
       id="path72"
       sodipodi:nodetypes="cccc" />
    <path
       style="fill:#ffaaaa;fill-rule:evenodd;stroke:#000000;stroke-width:3.2;stroke-linecap:round;stroke-miterlimit:4.4"
       d="M 439.9087,270.4927 C 401.91335,184.24421 337.30696,106.18374 269.67426,29.054435 352.67295,95.660461 411.60612,185.46487 456.90576,285.9231 Z"
       id="path73"
       sodipodi:nodetypes="cccc" />
    <path
       style="fill:#ffaaaa;fill-rule:evenodd;stroke:#000000;stroke-width:3.2;stroke-linecap:round;stroke-miterlimit:4.4"
       d="m 373.61548,367.88644 c 0,0 -44.6047,-133.40487 -43.37704,-131.768 1.22765,1.63687 27.41756,4.50139 27.41756,4.50139 l 44.6047,130.13113 z"
       id="path74" />
    <path
       style="fill:#ffaaaa;fill-rule:evenodd;stroke:#000000;stroke-width:3.2;stroke-linecap:round;stroke-miterlimit:4.4"
       d="m 402.2607,369.93252 -45.83235,-130.94956 24.96226,5.72904 46.24157,130.94957 z"
       id="path75" />
    <path
       style="fill:#ffaaaa;fill-rule:evenodd;stroke:#000000;stroke-width:3.2;stroke-linecap:round;stroke-miterlimit:4.4"
       d="M 427.63218,374.84313 381.39061,244.712 l 24.14383,9.412 42.96782,124.81131 z"
       id="path76" />
    <path
       style="fill:#ffaaaa;fill-rule:evenodd;stroke:#000000;stroke-width:3.2;stroke-linecap:round;stroke-miterlimit:4.4"
       d="m 448.91148,377.70765 -44.19548,-124.8113 19.64244,6.54748 42.14939,126.85739 z"
       id="path77" />
    <path
       style="fill:#ffaaaa;fill-rule:evenodd;stroke:#000000;stroke-width:3.2;stroke-linecap:round;stroke-miterlimit:4.4"
       d="m 466.09861,385.07357 c 0,0 -44.19549,-123.55458 -44.19548,-126.44818 0,-0.61383 14.77638,9.73054 16.98253,10.63966 6.9284,2.85509 44.67926,125.04077 40.30791,123.58365 z"
       id="path78"
       sodipodi:nodetypes="csscc" />
    <path
       style="fill:#ffaaaa;fill-rule:evenodd;stroke:#000000;stroke-width:3.2;stroke-linecap:round;stroke-miterlimit:4.4"
       d="m 478.37513,392.8487 c -9.46957,-39.84489 -22.41691,-80.55922 -38.05721,-121.94679 l 14.73182,12.68574 c 18.0441,44.34211 27.61639,79.19382 37.79694,116.38725 z"
       id="path79"
       sodipodi:nodetypes="ccccc" />
    <path
       style="fill:#ffaaaa;fill-rule:evenodd;stroke:#000000;stroke-width:3.2;stroke-linecap:round;stroke-miterlimit:4.4"
       d="m 410.85426,512.34018 -36.82956,-146.09061 27.82678,4.09217 35.60191,142.40765 z"
       id="path80" />
    <path
       style="fill:#ffaaaa;fill-rule:evenodd;stroke:#000000;stroke-width:3.2;stroke-linecap:round;stroke-miterlimit:4.4"
       d="m 436.3456,512.72883 -34.49412,-144.02396 27.82678,8.59357 30.28209,135.04174 z"
       id="path81"
       sodipodi:nodetypes="ccccc" />
    <path
       style="fill:#ffaaaa;fill-rule:evenodd;stroke:#000000;stroke-width:3.2;stroke-linecap:round;stroke-miterlimit:4.4"
       d="m 459.96035,513.15861 -32.32817,-138.31548 23.32539,4.09218 27.00835,133.40487 z"
       id="path82" />
    <path
       style="fill:#ffaaaa;fill-rule:evenodd;stroke:#000000;stroke-width:3.2;stroke-linecap:round;stroke-miterlimit:4.4"
       d="m 477.14748,512.34018 -26.59913,-134.22331 16.77791,9.412 25.37148,124.40209 z"
       id="path83" />
    <path
       style="fill:#ffaaaa;fill-rule:evenodd;stroke:#000000;stroke-width:3.2;stroke-linecap:round;stroke-miterlimit:4.4"
       d="m 492.28852,510.70331 -24.96226,-125.22053 10.63966,8.59357 c 11.13718,39.14846 21.04739,78.29693 24.55304,117.44539 z"
       id="path84"
       sodipodi:nodetypes="ccccc" />
    <path
       style="fill:#ffaaaa;fill-rule:evenodd;stroke:#000000;stroke-width:3.2;stroke-linecap:round;stroke-miterlimit:4.4"
       d="m 503.74661,510.29409 c -5.17904,-34.76438 -14.85101,-75.41202 -25.37148,-117.03617 0,0 12.44663,3.59223 13.91339,6.54747 8.011,16.14055 23.56869,120.80027 20.32045,111.64614 z"
       id="path85"
       sodipodi:nodetypes="ccscc" />
    <path
       style="fill:#ffaaaa;fill-rule:evenodd;stroke:#000000;stroke-width:3.2;stroke-linecap:round;stroke-miterlimit:4.4"
       d="M 322.05409,648.60957 321.64487,532.80105 357.656,651.06487 Z"
       id="path86" />
    <path
       style="fill:#ffaaaa;fill-rule:evenodd;stroke:#000000;stroke-width:3.2;stroke-linecap:round;stroke-miterlimit:4.4"
       d="m 357.656,651.06487 -35.60191,-112.53478 -0.52908,-28.01685 28.25657,0.97942 43.47634,140.39065 z"
       id="path87"
       sodipodi:nodetypes="cccccc" />
    <path
       style="fill:#ffaaaa;fill-rule:evenodd;stroke:#000000;stroke-width:3.2;stroke-linecap:round;stroke-miterlimit:4.4"
       d="m 392.8487,651.47409 -43.78626,-139.54313 32.51824,0.14042 38.27637,136.94741 z"
       id="path88"
       sodipodi:nodetypes="ccccc" />
    <path
       style="fill:#ffaaaa;fill-rule:evenodd;stroke:#000000;stroke-width:3.2;stroke-linecap:round;stroke-miterlimit:4.4"
       d="m 419.44783,651.06487 -37.648,-139.54313 28.236,0.14043 31.10052,136.53818 z"
       id="path89"
       sodipodi:nodetypes="ccccc" />
    <path
       style="fill:#ffaaaa;fill-rule:evenodd;stroke:#000000;stroke-width:3.2;stroke-linecap:round;stroke-miterlimit:4.4"
       d="m 441.95478,647.79113 -31.67924,-136.36868 26.37999,0.28936 24.12325,133.62402 z"
       id="path90"
       sodipodi:nodetypes="ccccc" />
    <path
       style="fill:#ffaaaa;fill-rule:evenodd;stroke:#000000;stroke-width:3.2;stroke-linecap:round;stroke-miterlimit:4.4"
       d="m 459.55113,645.74505 -22.8956,-134.17366 23.71404,-0.6078 19.64243,131.50772 z"
       id="path91"
       sodipodi:nodetypes="ccccc" />
    <path
       style="fill:#ffaaaa;fill-rule:evenodd;stroke:#000000;stroke-width:3.2;stroke-linecap:round;stroke-miterlimit:4.4"
       d="m 480.42122,642.88052 -19.9318,-131.28857 c 0,0 15.43041,-0.47943 17.06728,1.15744 1.63687,1.63687 14.73182,125.62974 14.73182,125.62974 z"
       id="path92"
       sodipodi:nodetypes="ccscc" />
    <path
       style="fill:#ffaaaa;fill-rule:evenodd;stroke:#000000;stroke-width:3.2;stroke-linecap:round;stroke-miterlimit:4.4"
       d="m 491.87931,637.96992 c -0.40922,-2.04609 -13.50418,-126.44818 -13.50418,-126.44818 l 13.86375,-0.0993 12.32617,122.45529 z"
       id="path93"
       sodipodi:nodetypes="ccccc" />
    <path
       style="fill:#ffaaaa;fill-rule:evenodd;stroke:#000000;stroke-width:3.2;stroke-linecap:round;stroke-miterlimit:4.4"
       d="m 504.15583,633.87774 -11.04887,-123.99287 11.45809,1.63687 c 5.83328,42.21353 5.36434,79.1752 6.95669,117.85461 z"
       id="path94"
       sodipodi:nodetypes="ccccc" />
    <path
       style="fill:#ffaaaa;fill-rule:evenodd;stroke:#000000;stroke-width:3.2;stroke-linecap:round;stroke-miterlimit:4.4"
       d="m 512.34018,629.37635 c -2.21977,-38.91292 -2.16555,-75.55187 -8.59357,-118.67304 l 10.04037,-0.45887 c 4.86824,39.50466 6.63331,76.66848 7.94463,114.75038 z"
       id="path95"
       sodipodi:nodetypes="ccccc" />
    <path
       style="fill:#ffaaaa;fill-rule:evenodd;stroke:#000000;stroke-width:3.2;stroke-linecap:round;stroke-miterlimit:4.4"
       d="m 506.20192,861.40261 c -64.52696,40.2281 -167.93595,21.04782 -189.87687,18.824 l 1.22765,-21.68852 c 77.22754,19.94016 137.60669,17.58099 188.64922,2.86452 z"
       id="path96"
       sodipodi:nodetypes="cccc" />
    <path
       style="fill:#ffaaaa;fill-rule:evenodd;stroke:#000000;stroke-width:3.2;stroke-linecap:round;stroke-miterlimit:4.4"
       d="m 505.7927,861.40261 c -57.49643,17.0678 -120.04376,18.66722 -189.87687,-2.04608 l -0.81844,-28.236 c 78.44815,32.8837 136.68771,34.82298 190.69531,30.28208 z"
       id="path97"
       sodipodi:nodetypes="cccc" />
    <path
       style="fill:#ffaaaa;fill-rule:evenodd;stroke:#000000;stroke-width:3.2;stroke-linecap:round;stroke-miterlimit:4.4"
       d="m 506.61113,860.9934 c -60.42185,8.39778 -124.14761,-0.8253 -191.51374,-29.46366 l 1.63687,-28.64521 c 65.83896,31.37537 129.43573,52.18039 189.87687,58.10887 z"
       id="path98"
       sodipodi:nodetypes="cccc" />
    <path
       style="fill:#ffaaaa;fill-rule:evenodd;stroke:#000000;stroke-width:3.2;stroke-linecap:round;stroke-miterlimit:4.4"
       d="M 502.51896,859.76574 C 455.76772,855.67606 401.32942,844.05306 316.32505,802.47531 l 0.81843,-33.14661 c 66.07942,38.36356 128.54534,69.80125 185.37548,90.43704 z"
       id="path99"
       sodipodi:nodetypes="cccc" />
    <path
       style="fill:#ffaaaa;fill-rule:evenodd;stroke:#000000;stroke-width:3.2;stroke-linecap:round;stroke-miterlimit:4.4"
       d="M 503.74661,860.9934 C 442.40785,837.20037 380.02073,805.02044 317.14348,768.91948 l 0.81844,-38.87565 z"
       id="path100"
       sodipodi:nodetypes="cccc" />
    <path
       style="fill:#ffaaaa;fill-rule:evenodd;stroke:#000000;stroke-width:3.2;stroke-linecap:round;stroke-miterlimit:4.4"
       d="M 505.38348,859.76574 317.96191,731.6807 320.008,694.85113 Z"
       id="path101" />
    <path
       style="fill:#ffaaaa;fill-rule:evenodd;stroke:#000000;stroke-width:3.2;stroke-linecap:round;stroke-miterlimit:4.4"
       d="M 505.7927,861.40261 318.37113,695.66957 319.59878,659.24922 Z"
       id="path102" />
    <path
       style="fill:#ffaaaa;fill-rule:evenodd;stroke:#000000;stroke-width:3.2;stroke-linecap:round;stroke-miterlimit:4.4"
       d="m 505.7927,859.76574 -186.60313,-195.60591 0.40921,-16.77791 38.46644,3.68295 z"
       id="path103"
       sodipodi:nodetypes="ccccc" />
    <path
       style="fill:#ffaaaa;fill-rule:evenodd;stroke:#000000;stroke-width:3.2;stroke-linecap:round;stroke-miterlimit:4.4"
       d="M 505.7927,860.17496 358.88365,649.428 l 35.1927,3.27374 z"
       id="path104" />
    <path
       style="fill:#ffaaaa;fill-rule:evenodd;stroke:#000000;stroke-width:3.2;stroke-linecap:round;stroke-miterlimit:4.4"
       d="M 505.7927,860.58418 392.8487,650.24644 h 26.18991 z"
       id="path105" />
    <path
       style="fill:#ffaaaa;fill-rule:evenodd;stroke:#000000;stroke-width:3.2;stroke-linecap:round;stroke-miterlimit:4.4"
       d="M 505.38348,854.85513 419.03861,649.01879 443.18244,646.9727 Z"
       id="path106" />
    <path
       style="fill:#ffaaaa;fill-rule:evenodd;stroke:#000000;stroke-width:3.2;stroke-linecap:round;stroke-miterlimit:4.4"
       d="m 504.56505,855.67357 -61.79183,-209.51931 17.18713,-0.81843 z"
       id="path107" />
    <path
       style="fill:#ffaaaa;fill-rule:evenodd;stroke:#000000;stroke-width:3.2;stroke-linecap:round;stroke-miterlimit:4.4"
       d="m 506.20192,853.21827 -46.65079,-208.29166 19.64244,-2.86452 z"
       id="path108" />
    <path
       style="fill:#ffaaaa;fill-rule:evenodd;stroke:#000000;stroke-width:3.2;stroke-linecap:round;stroke-miterlimit:4.4"
       d="m 507.02035,849.94453 c 0,-2.45531 -28.236,-209.51931 -28.236,-209.51931 l 16.3687,-2.4553 z"
       id="path109" />
    <path
       style="fill:#ffaaaa;fill-rule:evenodd;stroke:#000000;stroke-width:3.2;stroke-linecap:round;stroke-miterlimit:4.4"
       d="m 507.83879,849.53531 -13.9134,-214.42992 11.04887,-2.04608 c 6.21179,80.92025 3.02407,146.17464 2.86453,216.476 z"
       id="path110"
       sodipodi:nodetypes="cccc" />
    <path
       style="fill:#ffaaaa;fill-rule:evenodd;stroke:#000000;stroke-width:3.2;stroke-linecap:round;stroke-miterlimit:4.4"
       d="m 509.47565,850.76296 c -0.79038,-72.21284 1.13087,-143.06987 -5.31982,-218.11287 l 9.82122,-3.27374 c 5.09734,92.98917 -1.92445,150.72267 -4.5014,221.38661 z"
       id="path111"
       sodipodi:nodetypes="cccc" />
    <path
       style="fill:#ffaaaa;fill-rule:evenodd;stroke:#000000;stroke-width:3.2;stroke-linecap:round;stroke-miterlimit:4.4"
       d="m 510.70331,849.53531 c 2.60172,-72.79641 7.75738,-144.57124 3.15388,-220.24974 l 7.48577,-4.00139 c 4.32841,92.18779 -4.8535,154.45987 -10.63965,224.25113 z"
       id="path112"
       sodipodi:nodetypes="cccc" />
  </g>
</svg>
