<?xml version="1.0" encoding="UTF-8" standalone="no"?>
<!-- Created with Inkscape (http://www.inkscape.org/) -->

<svg
   version="1.1"
   id="svg1"
   width="587"
   height="941"
   viewBox="0 0 587 941"
   sodipodi:docname="AR-5 65m2.svg"
   inkscape:version="1.3 (0e150ed6c4, 2023-07-21)"
   xmlns:inkscape="http://www.inkscape.org/namespaces/inkscape"
   xmlns:sodipodi="http://sodipodi.sourceforge.net/DTD/sodipodi-0.dtd"
   xmlns="http://www.w3.org/2000/svg"
   xmlns:svg="http://www.w3.org/2000/svg">
  <defs
     id="defs1" />
  <sodipodi:namedview
     id="namedview1"
     pagecolor="#ffffff"
     bordercolor="#000000"
     borderopacity="0.25"
     inkscape:showpageshadow="2"
     inkscape:pageopacity="0.0"
     inkscape:pagecheckerboard="0"
     inkscape:deskcolor="#d1d1d1"
     showgrid="false"
     inkscape:zoom="0.8639745"
     inkscape:cx="-109.95695"
     inkscape:cy="516.79766"
     inkscape:window-width="1920"
     inkscape:window-height="1009"
     inkscape:window-x="-8"
     inkscape:window-y="-8"
     inkscape:window-maximized="1"
     inkscape:current-layer="g1" />
  <g
     inkscape:groupmode="layer"
     inkscape:label="Image"
     id="g1">
    <path
       style="fill:#ff0000;fill-rule:evenodd;stroke:#000000;stroke-width:3.2;stroke-linecap:round;stroke-miterlimit:4.4"
       d="M 86.808118,753.49446 C 73.154186,667.02859 49.417952,532.96321 51.94445,489.66197 l 25.604135,12.66767 c -13.397723,89.21635 5.847615,167.55168 9.259533,251.16482 z"
       id="path1"
       sodipodi:nodetypes="cccc" />
    <path
       style="fill:#ff0000;fill-rule:evenodd;stroke:#000000;stroke-width:3.2;stroke-linecap:round;stroke-miterlimit:4.4"
       d="M 90.280443,755.80935 C 85.132291,670.84589 66.274081,590.45244 77.548585,500.01476 l 28.936035,8.10209 C 91.067162,590.68102 94.726096,673.24518 90.280443,755.80935 Z"
       id="path2"
       sodipodi:nodetypes="cccc" />
    <path
       style="fill:#ff0000;fill-rule:evenodd;stroke:#000000;stroke-width:3.2;stroke-linecap:round;stroke-miterlimit:4.4"
       d="M 92.595326,752.33702 C 97.470572,671.84226 87.350678,606.34264 108.79951,509.27429 l 31.25092,9.25954 z"
       id="path3"
       sodipodi:nodetypes="cccc" />
    <path
       style="fill:#ff0000;fill-rule:evenodd;stroke:#000000;stroke-width:3.2;stroke-linecap:round;stroke-miterlimit:4.4"
       d="M 89.123001,753.49446 138.89299,517.37638 178.246,525.47847 Z"
       id="path4" />
    <path
       style="fill:#ff0000;fill-rule:evenodd;stroke:#000000;stroke-width:3.2;stroke-linecap:round;stroke-miterlimit:4.4"
       d="M 91.437884,754.65191 Z"
       id="path5" />
    <path
       style="fill:#ff0000;fill-rule:evenodd;stroke:#000000;stroke-width:3.2;stroke-linecap:round;stroke-miterlimit:4.4"
       d="m 90.280443,753.49446 90.280447,-231.48831 42.82533,9.25953 z"
       id="path6" />
    <path
       style="fill:#ff0000;fill-rule:evenodd;stroke:#000000;stroke-width:3.2;stroke-linecap:round;stroke-miterlimit:4.4"
       d="m 89.123001,752.33702 133.105779,-222.22878 52.08487,5.78721 z"
       id="path7" />
    <path
       style="fill:#ff0000;fill-rule:evenodd;stroke:#000000;stroke-width:3.2;stroke-linecap:round;stroke-miterlimit:4.4"
       d="m 87.96556,753.49446 184.03321,-221.07134 57.87208,8.1021 -3.47233,17.36162 z"
       id="path8" />
    <path
       style="fill:#ff0000;fill-rule:evenodd;stroke:#000000;stroke-width:3.2;stroke-linecap:round;stroke-miterlimit:4.4"
       d="M 89.123001,753.49446 327.55597,556.7294 l 2.31488,69.44649 z"
       id="path9" />
    <path
       style="fill:#ff0000;fill-rule:evenodd;stroke:#000000;stroke-width:3.2;stroke-linecap:round;stroke-miterlimit:4.4"
       d="M 84.493235,756.96678 332.18573,625.01845 329.87085,690.99262 Z"
       id="path10"
       sodipodi:nodetypes="cccc" />
    <path
       style="fill:#ff0000;fill-rule:evenodd;stroke:#000000;stroke-width:3.2;stroke-linecap:round;stroke-miterlimit:4.4"
       d="m 90.280443,759.28167 240.747847,-69.44649 1.15744,50.92743 z"
       id="path11"
       sodipodi:nodetypes="cccc" />
    <path
       style="fill:#ff0000;fill-rule:evenodd;stroke:#000000;stroke-width:3.2;stroke-linecap:round;stroke-miterlimit:4.4"
       d="M 93.752768,762.754 333.34317,741.92005 v 49.76999 C 248.90711,793.47617 172.45715,775.29705 93.752768,762.754 Z"
       id="path12"
       sodipodi:nodetypes="cccc" />
    <path
       style="fill:#ff0000;fill-rule:evenodd;stroke:#000000;stroke-width:3.2;stroke-linecap:round;stroke-miterlimit:4.4"
       d="m 93.752768,761.59656 c 79.940672,13.8891 159.053632,31.91675 241.905292,31.25092 l -2.31489,43.98278 C 253.4797,822.37921 173.61624,790.85783 93.752768,761.59656 Z"
       id="path13"
       sodipodi:nodetypes="cccc" />
    <path
       style="fill:#ff0000;fill-rule:evenodd;stroke:#000000;stroke-width:3.2;stroke-linecap:round;stroke-miterlimit:4.4"
       d="m 91.437884,763.91144 c 79.444196,26.85589 154.457936,59.24985 245.377616,71.76138 l -2.31488,38.19557 C 210.88175,841.08861 148.26459,802.76323 91.437884,763.91144 Z"
       id="path14"
       sodipodi:nodetypes="cccc" />
    <path
       style="fill:#ff0000;fill-rule:evenodd;stroke:#000000;stroke-width:3.2;stroke-linecap:round;stroke-miterlimit:4.4"
       d="m 524.32103,856.50677 c -22.2806,18.47691 -68.24045,29.55406 -188.66297,17.36162 l 1.15744,-41.6679 c 60.57003,14.86346 120.93138,30.45726 187.50553,24.30628 z"
       id="path15"
       sodipodi:nodetypes="cccc" />
    <path
       style="fill:#ff0000;fill-rule:evenodd;stroke:#000000;stroke-width:3.2;stroke-linecap:round;stroke-miterlimit:4.4"
       d="m 525.47847,855.34932 c -48.55267,1.97052 -102.78815,0.007 -190.97785,-25.46371 l 1.15744,-42.82534 c 63.27347,34.33205 126.54694,52.18681 189.82041,68.28905 z"
       id="path16"
       sodipodi:nodetypes="cccc" />
    <path
       style="fill:#ff0000;fill-rule:evenodd;stroke:#000000;stroke-width:3.2;stroke-linecap:round;stroke-miterlimit:4.4"
       d="M 526.63592,857.66421 C 462.205,837.02031 397.77409,818.99613 333.34317,783.58795 v -43.98278 z"
       id="path17"
       sodipodi:nodetypes="cccc" />
    <path
       style="fill:#ff0000;fill-rule:evenodd;stroke:#000000;stroke-width:3.2;stroke-linecap:round;stroke-miterlimit:4.4"
       d="M 518.53383,851.877 332.18573,738.44772 329.87085,687.5203 Z"
       id="path18" />
    <path
       style="fill:#ff0000;fill-rule:evenodd;stroke:#000000;stroke-width:3.2;stroke-linecap:round;stroke-miterlimit:4.4"
       d="M 522.00615,851.877 332.18573,686.36285 327.55596,623.86101 Z"
       id="path19"
       sodipodi:nodetypes="cccc" />
    <path
       style="fill:#ff0000;fill-rule:evenodd;stroke:#000000;stroke-width:3.2;stroke-linecap:round;stroke-miterlimit:4.4"
       d="M 522.00615,848.40467 327.55597,629.64822 329.87085,554.41451 Z"
       id="path20"
       sodipodi:nodetypes="cccc" />
    <path
       style="fill:#ff0000;fill-rule:evenodd;stroke:#000000;stroke-width:3.2;stroke-linecap:round;stroke-miterlimit:4.4"
       d="m 524.32103,848.40467 -199.07995,-293.99016 3.47233,-18.51906 49.76998,5.78721 z"
       id="path21" />
    <path
       style="fill:#ff0000;fill-rule:evenodd;stroke:#000000;stroke-width:3.2;stroke-linecap:round;stroke-miterlimit:4.4"
       d="m 520.84871,853.03444 -143.52276,-314.82411 56.71464,3.47233 z"
       id="path22" />
    <path
       style="fill:#ff0000;fill-rule:evenodd;stroke:#000000;stroke-width:3.2;stroke-linecap:round;stroke-miterlimit:4.4"
       d="m 518.53383,849.56212 -85.65068,-310.19435 42.82534,2.31489 c 31.08811,125.04381 28.77158,205.54811 42.82534,307.87946 z"
       id="path23"
       sodipodi:nodetypes="cccc" />
    <path
       style="fill:#ff0000;fill-rule:evenodd;stroke:#000000;stroke-width:3.2;stroke-linecap:round;stroke-miterlimit:4.4"
       d="M 519.69127,851.877 C 505.30899,747.17447 509.91071,658.74394 475.70849,537.05289 l 24.30627,2.31488 c 19.20542,116.81632 14.16053,209.38235 19.67651,312.50923 z"
       id="path24"
       sodipodi:nodetypes="cccc" />
    <path
       style="fill:#ff0000;fill-rule:evenodd;stroke:#000000;stroke-width:3.2;stroke-linecap:round;stroke-miterlimit:4.4"
       d="M 520.84871,849.56212 C 517.28424,748.48234 518.09896,650.9059 500.01476,538.21033 l 20.83395,0 c 15.89323,135.85255 1.39478,215.83794 0,311.35179 z"
       id="path25"
       sodipodi:nodetypes="cccc" />
    <path
       style="fill:#ff0000;fill-rule:evenodd;stroke:#000000;stroke-width:3.2;stroke-linecap:round;stroke-miterlimit:4.4"
       d="M 52.01466,489.18857 C 45.611212,429.96776 48.896018,340.52012 62.501845,310.19434 L 103.0123,306.72202 77.548585,500.01476 Z"
       id="path26"
       sodipodi:nodetypes="ccccc" />
    <path
       style="fill:#ff0000;fill-rule:evenodd;stroke:#000000;stroke-width:3.2;stroke-linecap:round;stroke-miterlimit:4.4"
       d="m 81.02091,500.01476 20.83395,-195.60763 38.19557,-3.47232 -34.72325,203.70972 z"
       id="path27" />
    <path
       style="fill:#ff0000;fill-rule:evenodd;stroke:#000000;stroke-width:3.2;stroke-linecap:round;stroke-miterlimit:4.4"
       d="m 106.48462,504.64453 30.09349,-207.18205 41.66789,2.31489 -42.82534,217.59901 z"
       id="path28" />
    <path
       style="fill:#ff0000;fill-rule:evenodd;stroke:#000000;stroke-width:3.2;stroke-linecap:round;stroke-miterlimit:4.4"
       d="m 137.73555,516.21894 39.35301,-218.75646 38.19557,-2.31488 -40.51045,229.17343 z"
       id="path29" />
    <path
       style="fill:#ff0000;fill-rule:evenodd;stroke:#000000;stroke-width:3.2;stroke-linecap:round;stroke-miterlimit:4.4"
       d="m 174.77368,520.84871 c 0,-5.78721 40.51045,-225.70111 40.51045,-225.70111 l 50.92743,-1.15744 -46.29766,234.96064 z"
       id="path30" />
    <path
       style="fill:#ff0000;fill-rule:evenodd;stroke:#000000;stroke-width:3.2;stroke-linecap:round;stroke-miterlimit:4.4"
       d="m 221.07134,526.63592 41.6679,-232.64576 46.29766,3.47232 2.31488,28.93604 -40.51045,206.0246 z"
       id="path31" />
    <path
       style="fill:#ff0000;fill-rule:evenodd;stroke:#000000;stroke-width:3.2;stroke-linecap:round;stroke-miterlimit:4.4"
       d="m 269.68389,531.26568 43.98278,-206.0246 13.8893,216.44158 z"
       id="path32" />
    <path
       style="fill:#ff0000;fill-rule:evenodd;stroke:#000000;stroke-width:3.2;stroke-linecap:round;stroke-miterlimit:4.4"
       d="M 325.24108,535.89545 313.66667,327.55597 376.16851,538.21033 Z"
       id="path33" />
    <path
       style="fill:#ff0000;fill-rule:evenodd;stroke:#000000;stroke-width:3.2;stroke-linecap:round;stroke-miterlimit:4.4"
       d="m 378.48339,537.05289 -64.81672,-210.65437 -2.31489,-32.40836 57.87208,9.25953 62.50185,237.27553 z"
       id="path34" />
    <path
       style="fill:#ff0000;fill-rule:evenodd;stroke:#000000;stroke-width:3.2;stroke-linecap:round;stroke-miterlimit:4.4"
       d="m 429.41082,539.36777 -60.18696,-237.27552 50.92743,13.8893 c 22.75863,79.96779 42.1221,151.40103 55.5572,222.22878 z"
       id="path35"
       sodipodi:nodetypes="ccccc" />
    <path
       style="fill:#ff0000;fill-rule:evenodd;stroke:#000000;stroke-width:3.2;stroke-linecap:round;stroke-miterlimit:4.4"
       d="M 474.55105,537.05289 C 455.51612,456.40248 438.69446,379.82116 413.20664,314.82411 l 34.72325,13.8893 c 27.54178,71.17387 38.22605,138.97625 50.92743,207.18204 z"
       id="path36"
       sodipodi:nodetypes="ccccc" />
    <path
       style="fill:#ff0000;fill-rule:evenodd;stroke:#000000;stroke-width:3.2;stroke-linecap:round;stroke-miterlimit:4.4"
       d="m 496.54244,535.89545 c -7.71057,-68.67487 -23.54671,-137.34973 -49.76999,-206.0246 l 27.77859,18.51906 c 36.21446,80.3868 42.11867,134.73135 45.14023,190.97786 z"
       id="path37"
       sodipodi:nodetypes="ccccc" />
    <path
       style="fill:#ff0000;fill-rule:evenodd;stroke:#000000;stroke-width:3.2;stroke-linecap:round;stroke-miterlimit:4.4"
       d="M 62.501845,307.87946 C 91.175948,177.53044 151.20287,80.707203 234.96064,9.2595326 173.04432,97.456961 118.94246,190.3619 101.85486,305.56458 Z"
       id="path38"
       sodipodi:nodetypes="cccc" />
    <path
       style="fill:#ff0000;fill-rule:evenodd;stroke:#000000;stroke-width:3.2;stroke-linecap:round;stroke-miterlimit:4.4"
       d="M 101.85486,306.72202 C 120.87594,188.80363 171.89531,95.818973 232.64576,10.416974 191.98321,104.91623 149.79657,199.02034 137.73555,300.93481 Z"
       id="path39"
       sodipodi:nodetypes="cccc" />
    <path
       style="fill:#ff0000;fill-rule:evenodd;stroke:#000000;stroke-width:3.2;stroke-linecap:round;stroke-miterlimit:4.4"
       d="M 140.05043,299.77737 C 147.56701,189.14333 194.69399,98.628853 234.96064,4.6297663 211.93976,102.91827 183.64548,203.49192 175.93112,295.1476 Z"
       id="path40"
       sodipodi:nodetypes="cccc" />
    <path
       style="fill:#ff0000;fill-rule:evenodd;stroke:#000000;stroke-width:3.2;stroke-linecap:round;stroke-miterlimit:4.4"
       d="M 175.93112,295.1476 C 184.71336,191.04548 212.48763,99.604705 234.96064,4.6297663 L 216.44157,293.99016 Z"
       id="path41"
       sodipodi:nodetypes="cccc" />
    <path
       style="fill:#ff0000;fill-rule:evenodd;stroke:#000000;stroke-width:3.2;stroke-linecap:round;stroke-miterlimit:4.4"
       d="M 215.28413,295.1476 234.96064,5.7872079 262.73924,291.67528 Z"
       id="path42" />
    <path
       style="fill:#ff0000;fill-rule:evenodd;stroke:#000000;stroke-width:3.2;stroke-linecap:round;stroke-miterlimit:4.4"
       d="M 259.26692,295.1476 237.27552,3.4723247 310.19434,295.1476 Z"
       id="path43"
       sodipodi:nodetypes="cccc" />
    <path
       style="fill:#ff0000;fill-rule:evenodd;stroke:#000000;stroke-width:3.2;stroke-linecap:round;stroke-miterlimit:4.4"
       d="M 306.72202,291.67528 239.59041,3.4723247 C 284.79709,99.859335 336.97985,189.27025 368.06642,299.77737 Z"
       id="path44"
       sodipodi:nodetypes="cccc" />
    <path
       style="fill:#ff0000;fill-rule:evenodd;stroke:#000000;stroke-width:3.2;stroke-linecap:round;stroke-miterlimit:4.4"
       d="M 368.06642,299.77737 C 335.68358,181.28785 281.92827,100.20015 238.43296,1.1574416 298.18737,104.21648 368.30893,196.90837 414.36408,313.66667 Z"
       id="path45"
       sodipodi:nodetypes="cccc" />
    <path
       style="fill:#ff0000;fill-rule:evenodd;stroke:#000000;stroke-width:3.2;stroke-linecap:round;stroke-miterlimit:4.4"
       d="M 413.20664,310.19434 C 363.49691,191.62897 298.67107,103.29582 240.74785,1.1574416 315.85825,104.29305 399.94833,198.44896 449.08733,327.55597 Z"
       id="path46"
       sodipodi:nodetypes="cccc" />
    <path
       style="fill:#ff0000;fill-rule:evenodd;stroke:#000000;stroke-width:3.2;stroke-linecap:round;stroke-miterlimit:4.4"
       d="M 450.24477,327.55597 C 452.65785,285.48723 245.03877,-3.8916863 239.59041,0 334.88862,100.47862 426.61894,203.85615 473.3936,343.76015 Z"
       id="path47"
       sodipodi:nodetypes="cccc" />
  </g>
</svg>
