<?xml version="1.0" encoding="UTF-8" standalone="no"?>
<!-- Created with Inkscape (http://www.inkscape.org/) -->

<svg
   version="1.1"
   id="svg1"
   width="601"
   height="941"
   viewBox="0 0 601 941"
   sodipodi:docname="AR-3 50m2.svg"
   inkscape:version="1.3 (0e150ed6c4, 2023-07-21)"
   xmlns:inkscape="http://www.inkscape.org/namespaces/inkscape"
   xmlns:sodipodi="http://sodipodi.sourceforge.net/DTD/sodipodi-0.dtd"
   xmlns="http://www.w3.org/2000/svg"
   xmlns:svg="http://www.w3.org/2000/svg">
  <defs
     id="defs1" />
  <sodipodi:namedview
     id="namedview1"
     pagecolor="#ffffff"
     bordercolor="#000000"
     borderopacity="0.25"
     inkscape:showpageshadow="2"
     inkscape:pageopacity="0.0"
     inkscape:pagecheckerboard="0"
     inkscape:deskcolor="#d1d1d1"
     showgrid="false"
     inkscape:zoom="0.61092222"
     inkscape:cx="805.33984"
     inkscape:cy="272.53879"
     inkscape:window-width="1920"
     inkscape:window-height="1009"
     inkscape:window-x="-8"
     inkscape:window-y="-8"
     inkscape:window-maximized="1"
     inkscape:current-layer="g1" />
  <g
     inkscape:groupmode="layer"
     inkscape:label="Image"
     id="g1">
    <path
       style="fill:#ff0000;fill-rule:evenodd;stroke:#000000;stroke-width:3.2;stroke-linecap:round;stroke-miterlimit:4.4"
       d="M 86.808118,753.49446 C 41.565933,582.95336 50.462933,492.56275 50.927429,488.44034 l 30.093482,6.36594 z"
       id="path1"
       sodipodi:nodetypes="cccc" />
    <path
       style="fill:#ff0000;fill-rule:evenodd;stroke:#000000;stroke-width:3.2;stroke-linecap:round;stroke-miterlimit:4.4"
       d="M 86.808118,751.17958 C 83.785051,667.45797 73.306444,583.73637 79.863469,500.01476 l 35.880691,6.94465 C 96.391537,575.01863 95.062069,667.85969 86.808118,751.17958 Z"
       id="path2"
       sodipodi:nodetypes="cccc" />
    <path
       style="fill:#ff0000;fill-rule:evenodd;stroke:#000000;stroke-width:3.2;stroke-linecap:round;stroke-miterlimit:4.4"
       d="M 89.123001,752.33702 C 96.941023,669.48879 99.597835,581.47934 115.74416,506.95941 l 40.51045,5.78721 c -32.13331,78.64395 -46.07128,159.56232 -67.131609,239.5904 z"
       id="path3"
       sodipodi:nodetypes="cccc" />
    <path
       style="fill:#ff0000;fill-rule:evenodd;stroke:#000000;stroke-width:3.2;stroke-linecap:round;stroke-miterlimit:4.4"
       d="M 84.493235,751.17958 C 107.67761,670.18533 124.24431,584.22782 158.5695,511.58918 l 47.4551,8.10209 C 160.9089,590.4067 121.96172,669.75806 84.493235,751.17958 Z"
       id="path4"
       sodipodi:nodetypes="cccc" />
    <path
       style="fill:#ff0000;fill-rule:evenodd;stroke:#000000;stroke-width:3.2;stroke-linecap:round;stroke-miterlimit:4.4"
       d="m 87.96556,754.65191 c 33.83803,-83.7126 73.44097,-163.96626 122.68881,-238.43297 l 56.13592,8.68082 z"
       id="path5"
       sodipodi:nodetypes="cccc" />
    <path
       style="fill:#ff0000;fill-rule:evenodd;stroke:#000000;stroke-width:3.2;stroke-linecap:round;stroke-miterlimit:4.4"
       d="m 86.808118,751.17958 181.718332,-227.43726 57.29335,4.62975 -0.57872,21.41268 C 245.76343,616.91636 167.98202,695.92168 86.808118,751.17958 Z"
       id="path6"
       sodipodi:nodetypes="ccccc" />
    <path
       style="fill:#ff0000;fill-rule:evenodd;stroke:#000000;stroke-width:3.2;stroke-linecap:round;stroke-miterlimit:4.4"
       d="m 87.96556,755.80935 237.27552,-206.0246 1.15744,65.97417 z"
       id="path7"
       sodipodi:nodetypes="cccc" />
    <path
       style="fill:#ff0000;fill-rule:evenodd;stroke:#000000;stroke-width:3.2;stroke-linecap:round;stroke-miterlimit:4.4"
       d="m 92.595326,756.96679 232.067044,-139.47171 2.8936,63.08057 z"
       id="path8"
       sodipodi:nodetypes="cccc" />
    <path
       style="fill:#ff0000;fill-rule:evenodd;stroke:#000000;stroke-width:3.2;stroke-linecap:round;stroke-miterlimit:4.4"
       d="m 92.016605,758.12423 236.696805,-76.39114 2.8936,54.39975 z"
       id="path9"
       sodipodi:nodetypes="cccc" />
    <path
       style="fill:#ff0000;fill-rule:evenodd;stroke:#000000;stroke-width:3.2;stroke-linecap:round;stroke-miterlimit:4.4"
       d="M 98.382534,759.28167 333.34317,736.13284 v 49.76999 C 249.08566,787.07471 171.52343,770.39249 91.437884,760.43911 Z"
       id="path10"
       sodipodi:nodetypes="ccccc" />
    <path
       style="fill:#ff0000;fill-rule:evenodd;stroke:#000000;stroke-width:3.2;stroke-linecap:round;stroke-miterlimit:4.4"
       d="m 100.69742,762.754 c 77.54858,9.15397 155.09717,26.14611 232.64575,24.30627 l 1.15745,42.82534 C 251.8632,819.26596 177.69186,787.48109 100.69742,762.754 Z"
       id="path11"
       sodipodi:nodetypes="cccc" />
    <path
       style="fill:#ff0000;fill-rule:evenodd;stroke:#000000;stroke-width:3.2;stroke-linecap:round;stroke-miterlimit:4.4"
       d="m 95.488929,761.01784 c 80.542781,28.13778 162.756771,61.13937 239.011691,68.86777 v 46.29766 C 246.92054,848.08723 157.28278,811.86643 95.488929,761.01784 Z"
       id="path12"
       sodipodi:nodetypes="cccc" />
    <path
       style="fill:#ff0000;fill-rule:evenodd;stroke:#000000;stroke-width:3.2;stroke-linecap:round;stroke-miterlimit:4.4"
       d="M 50.927429,487.2829 C 47.474167,410.40319 57.233804,359.45747 68.867774,311.35179 l 50.348706,-10e-6 c -18.8077,56.25739 -32.263344,114.14105 -38.774291,185.76938 z"
       id="path13"
       sodipodi:nodetypes="ccccc" />
    <path
       style="fill:#ff0000;fill-rule:evenodd;stroke:#000000;stroke-width:3.2;stroke-linecap:round;stroke-miterlimit:4.4"
       d="M 79.863469,496.54244 C 85.267412,428.12676 100.01277,368.45558 119.21648,310.77306 l 46.29767,-0.57872 c -24.2198,49.17131 -38.20585,118.81012 -48.61255,195.60763 z"
       id="path14"
       sodipodi:nodetypes="ccccc" />
    <path
       style="fill:#ff0000;fill-rule:evenodd;stroke:#000000;stroke-width:3.2;stroke-linecap:round;stroke-miterlimit:4.4"
       d="M 115.74416,505.80197 C 127.25227,434.34352 140.64345,365.23891 164.3567,309.0369 l 48.61255,2.31488 -59.02952,197.92251 z"
       id="path15"
       sodipodi:nodetypes="ccccc" />
    <path
       style="fill:#ff0000;fill-rule:evenodd;stroke:#000000;stroke-width:3.2;stroke-linecap:round;stroke-miterlimit:4.4"
       d="m 154.51845,513.32534 57.29335,-202.55228 52.08488,2.89361 -60.18696,206.0246 z"
       id="path16"
       sodipodi:nodetypes="ccccc" />
    <path
       style="fill:#ff0000;fill-rule:evenodd;stroke:#000000;stroke-width:3.2;stroke-linecap:round;stroke-miterlimit:4.4"
       d="m 206.0246,517.37638 57.87208,-206.0246 49.76999,3.47233 2.31488,26.62115 -49.76999,180.56089 z"
       id="path17" />
    <path
       style="fill:#ff0000;fill-rule:evenodd;stroke:#000000;stroke-width:3.2;stroke-linecap:round;stroke-miterlimit:4.4"
       d="m 267.369,523.16359 48.61255,-180.56088 8.10209,186.34809 z"
       id="path18" />
    <path
       style="fill:#ff0000;fill-rule:evenodd;stroke:#000000;stroke-width:3.2;stroke-linecap:round;stroke-miterlimit:4.4"
       d="M 70.025215,310.77306 C 105.74531,173.7961 166.06148,72.161763 246.53506,9.2595326 199.68931,105.00875 146.17547,192.55109 118.05904,311.35178 Z"
       id="path19"
       sodipodi:nodetypes="cccc" />
    <path
       style="fill:#ff0000;fill-rule:evenodd;stroke:#000000;stroke-width:3.2;stroke-linecap:round;stroke-miterlimit:4.4"
       d="M 122.11008,310.77306 C 151.80053,178.13197 202.21699,108.6454 244.22017,11.574416 L 164.3567,311.35178 Z"
       id="path20"
       sodipodi:nodetypes="cccc" />
    <path
       style="fill:#ff0000;fill-rule:evenodd;stroke:#000000;stroke-width:3.2;stroke-linecap:round;stroke-miterlimit:4.4"
       d="M 164.93543,309.61562 C 184.2418,203.53249 217.76534,108.1942 245.37761,10.416974 l -33.5658,300.934806 z"
       id="path21"
       sodipodi:nodetypes="cccc" />
    <path
       style="fill:#ff0000;fill-rule:evenodd;stroke:#000000;stroke-width:3.2;stroke-linecap:round;stroke-miterlimit:4.4"
       d="M 211.81181,313.66667 245.37761,10.416974 261.5818,313.08794 Z"
       id="path22"
       sodipodi:nodetypes="cccc" />
    <path
       style="fill:#ff0000;fill-rule:evenodd;stroke:#000000;stroke-width:3.2;stroke-linecap:round;stroke-miterlimit:4.4"
       d="M 262.16052,314.24539 245.37761,11.574416 313.66667,313.66667 Z"
       id="path23"
       sodipodi:nodetypes="cccc" />
    <path
       style="fill:#ff0000;fill-rule:evenodd;stroke:#000000;stroke-width:3.2;stroke-linecap:round;stroke-miterlimit:4.4"
       d="M 313.08795,314.24539 250.00738,12.731857 361.12177,318.87516 Z"
       id="path24"
       sodipodi:nodetypes="cccc" />
    <path
       style="fill:#ff0000;fill-rule:evenodd;stroke:#000000;stroke-width:3.2;stroke-linecap:round;stroke-miterlimit:4.4"
       d="M 361.12177,318.29643 C 361.12177,306.72202 247.6925,9.2595326 247.6925,9.2595326 303.2575,111.66968 361.37478,206.42301 409.73431,330.44957 Z"
       id="path25"
       sodipodi:nodetypes="cccc" />
    <path
       style="fill:#ff0000;fill-rule:evenodd;stroke:#000000;stroke-width:3.2;stroke-linecap:round;stroke-miterlimit:4.4"
       d="M 406.26199,329.87085 C 360.62852,202.81318 301.04647,109.63065 245.37761,6.9446494 318.19615,105.34808 396.14909,206.28664 447.92989,343.76014 Z"
       id="path26"
       sodipodi:nodetypes="cccc" />
    <path
       style="fill:#ff0000;fill-rule:evenodd;stroke:#000000;stroke-width:3.2;stroke-linecap:round;stroke-miterlimit:4.4"
       d="M 444.45756,342.60271 C 397.13694,220.91226 323.8908,114.23132 247.6925,9.2595326 344.3354,97.938297 424.56049,212.4831 473.3936,353.59841 Z"
       id="path27"
       sodipodi:nodetypes="cccc" />
    <path
       style="fill:#ff0000;fill-rule:evenodd;stroke:#000000;stroke-width:3.2;stroke-linecap:round;stroke-miterlimit:4.4"
       d="M 444.45756,342.60271 Z"
       id="path28" />
    <path
       style="fill:#ff0000;fill-rule:evenodd;stroke:#000000;stroke-width:3.2;stroke-linecap:round;stroke-miterlimit:4.4"
       d="m 370.3813,535.89545 -45.14022,-3.47233 -8.68081,-189.82041 z"
       id="path29"
       sodipodi:nodetypes="cccc" />
    <path
       style="fill:#ff0000;fill-rule:evenodd;stroke:#000000;stroke-width:3.2;stroke-linecap:round;stroke-miterlimit:4.4"
       d="m 424.78106,541.68266 -55.5572,-3.47233 -50.92743,-196.76507 -4.05104,-26.62115 47.4551,4.05105 c 24.94798,74.26917 48.77435,148.53833 63.08057,222.8075 z"
       id="path30"
       sodipodi:nodetypes="cccccc" />
    <path
       style="fill:#ff0000;fill-rule:evenodd;stroke:#000000;stroke-width:3.2;stroke-linecap:round;stroke-miterlimit:4.4"
       d="M 424.78106,541.68266 C 414.35245,472.63422 390.09365,397.29934 362.85794,320.61131 l 42.24661,9.25954 c 24.92139,72.64038 51.06225,144.70841 60.59618,212.73255 z"
       id="path31"
       sodipodi:nodetypes="ccccc" />
    <path
       style="fill:#ff0000;fill-rule:evenodd;stroke:#000000;stroke-width:3.2;stroke-linecap:round;stroke-miterlimit:4.4"
       d="M 465.49612,541.61245 C 459.62862,475.1684 431.94788,403.5703 406.26199,331.02829 l 40.51046,13.8893 c 25.80622,67.13161 44.32423,134.46783 51.61147,201.59944 z"
       id="path32"
       sodipodi:nodetypes="ccccc" />
    <path
       style="fill:#ff0000;fill-rule:evenodd;stroke:#000000;stroke-width:3.2;stroke-linecap:round;stroke-miterlimit:4.4"
       d="M 497.69988,547.46986 C 488.56339,479.56662 472.11221,411.66339 449.08733,343.76015 l 23.14883,8.10209 c 42.33081,138.04248 40.57461,155.45048 45.07,198.90442 z"
       id="path33"
       sodipodi:nodetypes="ccccc" />
    <path
       style="fill:#ff0000;fill-rule:evenodd;stroke:#000000;stroke-width:3.2;stroke-linecap:round;stroke-miterlimit:4.4"
       d="m 525.47847,866.92374 c -89.96294,28.23273 -140.82363,17.3632 -193.29274,8.10209 l 1.15744,-48.61255 c 54.37231,27.04539 122.5805,34.72056 192.1353,40.51046 z"
       id="path34"
       sodipodi:nodetypes="cccc" />
    <path
       style="fill:#ff0000;fill-rule:evenodd;stroke:#000000;stroke-width:3.2;stroke-linecap:round;stroke-miterlimit:4.4"
       d="M 524.32103,865.7663 C 461.86918,860.0147 399.38906,854.07935 333.92189,828.72817 l -1.73616,-45.14022 c 64.98667,39.63318 128.67359,62.3696 192.1353,82.17835 z"
       id="path35"
       sodipodi:nodetypes="cccc" />
    <path
       style="fill:#ff0000;fill-rule:evenodd;stroke:#000000;stroke-width:3.2;stroke-linecap:round;stroke-miterlimit:4.4"
       d="M 527.79336,868.08118 Z"
       id="path36" />
    <path
       style="fill:#ff0000;fill-rule:evenodd;stroke:#000000;stroke-width:3.2;stroke-linecap:round;stroke-miterlimit:4.4"
       d="M 523.16359,864.60886 C 460.66175,845.51298 398.1599,821.12378 335.65806,783.58795 l -4.62977,-50.92743 c 64.0451,51.807 128.0902,93.98042 192.1353,131.94834 z"
       id="path37"
       sodipodi:nodetypes="cccc" />
    <path
       style="fill:#ff0000;fill-rule:evenodd;stroke:#000000;stroke-width:3.2;stroke-linecap:round;stroke-miterlimit:4.4"
       d="M 517.37638,863.45141 Z"
       id="path38" />
    <path
       style="fill:#ff0000;fill-rule:evenodd;stroke:#000000;stroke-width:3.2;stroke-linecap:round;stroke-miterlimit:4.4"
       d="M 525.47847,864.60886 C 461.72717,827.03644 397.47585,784.46373 332.18573,731.50308 l -3.47232,-56.71464 c 64.50032,71.97774 130.79729,129.58232 196.76506,189.82042 z"
       id="path41"
       sodipodi:nodetypes="cccc" />
    <path
       style="fill:#ff0000;fill-rule:evenodd;stroke:#000000;stroke-width:3.2;stroke-linecap:round;stroke-miterlimit:4.4"
       d="M 524.32103,859.97909 C 453.878,802.55294 385.76557,742.50487 327.55597,671.31611 v -56.71463 z"
       id="path42"
       sodipodi:nodetypes="cccc" />
    <path
       style="fill:#ff0000;fill-rule:evenodd;stroke:#000000;stroke-width:3.2;stroke-linecap:round;stroke-miterlimit:4.4"
       d="M 524.32103,856.50677 326.97724,615.75891 324.66237,553.25708 c 76.55499,107.92678 151.84148,214.98563 199.65866,303.24969 z"
       id="path43"
       sodipodi:nodetypes="cccc" />
    <path
       style="fill:#ff0000;fill-rule:evenodd;stroke:#000000;stroke-width:3.2;stroke-linecap:round;stroke-miterlimit:4.4"
       d="M 525.47847,853.03444 C 462.24174,751.1704 393.38584,650.71115 324.08364,550.36347 l -1.15744,-24.885 48.61255,10.41698 z"
       id="path44"
       sodipodi:nodetypes="ccccc" />
    <path
       style="fill:#ff0000;fill-rule:evenodd;stroke:#000000;stroke-width:3.2;stroke-linecap:round;stroke-miterlimit:4.4"
       d="M 526.63592,850.71956 370.3813,533.58057 l 53.54923,7.07905 c 48.90051,106.65307 70.45171,207.56858 102.70539,310.05994 z"
       id="path45"
       sodipodi:nodetypes="cccc" />
    <path
       style="fill:#ff0000;fill-rule:evenodd;stroke:#000000;stroke-width:3.2;stroke-linecap:round;stroke-miterlimit:4.4"
       d="m 527.79336,850.71956 -103.0123,-310.19434 42.17941,1.42623 c 31.43319,108.34348 41.85203,207.34259 60.83289,308.76811 z"
       id="path46"
       sodipodi:nodetypes="cccc" />
    <path
       style="fill:#ff0000;fill-rule:evenodd;stroke:#000000;stroke-width:3.2;stroke-linecap:round;stroke-miterlimit:4.4"
       d="m 525.47847,846.08979 c -3.4647,-15.30956 -57.58548,-302.32094 -59.02952,-304.40713 l 32.27397,5.20548 c 20.77673,102.60932 20.24988,200.87365 26.75555,299.20165 z"
       id="path47"
       sodipodi:nodetypes="cccc" />
    <path
       style="fill:#ff0000;fill-rule:evenodd;stroke:#000000;stroke-width:3.2;stroke-linecap:round;stroke-miterlimit:4.4"
       d="M 528.9508,848.40467 C 520.67036,751.20869 515.74014,660.71315 498.85732,546.31242 l 18.38466,4.39307 c 17.74775,127.77521 9.35804,203.51734 11.70882,297.69918 z"
       id="path48"
       sodipodi:nodetypes="cccc" />
  </g>
</svg>
