<?xml version="1.0" encoding="UTF-8" standalone="no"?>
<!-- Created with Inkscape (http://www.inkscape.org/) -->

<svg
   width="210mm"
   height="297mm"
   viewBox="0 0 210 297"
   version="1.1"
   id="svg1"
   xml:space="preserve"
   inkscape:version="1.3 (0e150ed6c4, 2023-07-21)"
   sodipodi:docname="Asym 7 82m2.svg"
   xmlns:inkscape="http://www.inkscape.org/namespaces/inkscape"
   xmlns:sodipodi="http://sodipodi.sourceforge.net/DTD/sodipodi-0.dtd"
   xmlns="http://www.w3.org/2000/svg"
   xmlns:svg="http://www.w3.org/2000/svg"><sodipodi:namedview
     id="namedview1"
     pagecolor="#ffffff"
     bordercolor="#000000"
     borderopacity="0.25"
     inkscape:showpageshadow="2"
     inkscape:pageopacity="0.0"
     inkscape:pagecheckerboard="0"
     inkscape:deskcolor="#d1d1d1"
     inkscape:document-units="mm"
     showgrid="false"
     inkscape:zoom="1.3736953"
     inkscape:cx="269.34649"
     inkscape:cy="309.0205"
     inkscape:window-width="1920"
     inkscape:window-height="1009"
     inkscape:window-x="-8"
     inkscape:window-y="-8"
     inkscape:window-maximized="1"
     inkscape:current-layer="layer1" /><defs
     id="defs1" /><g
     inkscape:label="Layer 1"
     inkscape:groupmode="layer"
     id="layer1"><g
       inkscape:label="Layer 1"
       id="layer1-4"
       transform="translate(2.4852659,8.0022354)"
       style="fill:#ffdd55"><path
         style="fill:#ffdd55;fill-rule:evenodd;stroke:#000000;stroke-width:0.846667;stroke-linecap:round;stroke-miterlimit:4.4"
         d="m 49.165933,223.49389 c -3.945234,-22.51736 -9.385812,-45.17091 -8.852592,-67.68827 l 4.902974,0.95335 c 0.398504,22.857 2.584186,44.52254 3.949618,66.73492 z"
         id="path1"
         sodipodi:nodetypes="cccc" /><path
         style="fill:#ffdd55;fill-rule:evenodd;stroke:#000000;stroke-width:0.846667;stroke-linecap:round;stroke-miterlimit:4.4"
         d="m 48.621156,223.63008 c -1.202509,-22.27122 -4.322543,-43.44671 -3.268647,-67.00731 l 5.85633,1.90672 z"
         id="path2"
         sodipodi:nodetypes="cccc" /><path
         style="fill:#ffdd55;fill-rule:evenodd;stroke:#000000;stroke-width:0.846667;stroke-linecap:round;stroke-miterlimit:4.4"
         d="m 48.75735,222.81292 c 0.136194,-0.54478 2.723875,-64.41963 2.723875,-64.41963 l 7.490655,1.77052 z"
         id="path3" /><path
         style="fill:#ffdd55;fill-rule:evenodd;stroke:#000000;stroke-width:0.846667;stroke-linecap:round;stroke-miterlimit:4.4"
         d="m 48.75735,223.3577 10.350722,-63.19389 7.763044,1.63433 -17.841378,61.01478 z"
         id="path4" /><path
         style="fill:#ffdd55;fill-rule:evenodd;stroke:#000000;stroke-width:0.846667;stroke-linecap:round;stroke-miterlimit:4.4"
         d="m 49.165933,223.63008 17.977569,-61.96814 9.397368,1.90671 z"
         id="path5" /><path
         style="fill:#ffdd55;fill-rule:evenodd;stroke:#000000;stroke-width:0.846667;stroke-linecap:round;stroke-miterlimit:4.4"
         d="m 49.574513,223.63008 27.102551,-60.19762 10.623108,1.22574 z"
         id="path6" /><path
         style="fill:#ffdd55;fill-rule:evenodd;stroke:#000000;stroke-width:0.846667;stroke-linecap:round;stroke-miterlimit:4.4"
         d="m 49.710707,223.90247 37.861854,-59.38046 11.848853,0.81716 z"
         id="path7" /><path
         style="fill:#ffdd55;fill-rule:evenodd;stroke:#000000;stroke-width:0.846667;stroke-linecap:round;stroke-miterlimit:4.4"
         d="m 50.119287,223.76628 49.574513,-58.15472 12.9384,0.68097 0.0331,4.222 z"
         id="path8"
         sodipodi:nodetypes="ccccc" /><path
         style="fill:#ffdd55;fill-rule:evenodd;stroke:#000000;stroke-width:0.846667;stroke-linecap:round;stroke-miterlimit:4.4"
         d="m 50.255482,223.76628 62.376718,-53.52413 0.54478,17.56899 z"
         id="path9" /><path
         style="fill:#ffdd55;fill-rule:evenodd;stroke:#000000;stroke-width:0.846667;stroke-linecap:round;stroke-miterlimit:4.4"
         d="M 50.255482,223.63008 113.58556,188.21972 V 203.882 Z"
         id="path10" /><path
         style="fill:#ffdd55;fill-rule:evenodd;stroke:#000000;stroke-width:0.846667;stroke-linecap:round;stroke-miterlimit:4.4"
         d="m 49.710707,224.03867 64.011043,-20.02048 0.1362,14.43653 z"
         id="path11" /><path
         style="fill:#ffdd55;fill-rule:evenodd;stroke:#000000;stroke-width:0.846667;stroke-linecap:round;stroke-miterlimit:4.4"
         d="m 49.574513,224.44725 64.419627,-5.99253 0.82685,14.35676 z"
         id="path12"
         sodipodi:nodetypes="cccc" /><path
         style="fill:#ffdd55;fill-rule:evenodd;stroke:#000000;stroke-width:0.846667;stroke-linecap:round;stroke-miterlimit:4.4"
         d="m 50.664062,224.85583 63.466268,8.03543 0.40858,12.25743 z"
         id="path13" /><path
         style="fill:#ffdd55;fill-rule:evenodd;stroke:#000000;stroke-width:0.846667;stroke-linecap:round;stroke-miterlimit:4.4"
         d="m 50.391676,224.99202 64.011044,20.29286 0.68097,10.21453 C 89.735396,246.27635 69.655412,235.73622 50.391676,224.99202 Z"
         id="path14"
         sodipodi:nodetypes="cccc" /><path
         style="fill:#ffdd55;fill-rule:evenodd;stroke:#000000;stroke-width:0.846667;stroke-linecap:round;stroke-miterlimit:4.4"
         d="m 40.177145,155.39703 c 0.105163,-19.26775 0.825478,-36.92072 3.813427,-48.62116 l 8.035427,-1.22574 c -3.300032,14.00364 -5.318108,31.59675 -6.809684,50.66406 z"
         id="path15"
         sodipodi:nodetypes="ccccc" /><path
         style="fill:#ffdd55;fill-rule:evenodd;stroke:#000000;stroke-width:0.846667;stroke-linecap:round;stroke-miterlimit:4.4"
         d="m 45.352509,156.21419 c 1.747148,-18.00745 3.507159,-35.98596 6.67349,-50.80025 l 8.44401,-1.36194 -8.298135,54.45412 z"
         id="path16"
         sodipodi:nodetypes="ccccc" /><path
         style="fill:#ffdd55;fill-rule:evenodd;stroke:#000000;stroke-width:0.846667;stroke-linecap:round;stroke-miterlimit:4.4"
         d="m 51.594053,157.84852 8.739765,-54.06891 8.716396,-0.54477 -10.214528,56.11181 z"
         id="path17"
         sodipodi:nodetypes="ccccc" /><path
         style="fill:#ffdd55;fill-rule:evenodd;stroke:#000000;stroke-width:0.846667;stroke-linecap:round;stroke-miterlimit:4.4"
         d="m 59.380461,159.48284 c 2.651158,-18.33162 5.163937,-36.55945 9.805947,-56.3842 l 9.669754,-0.40858 -11.848854,58.97188 z"
         id="path18"
         sodipodi:nodetypes="ccccc" /><path
         style="fill:#ffdd55;fill-rule:evenodd;stroke:#000000;stroke-width:0.846667;stroke-linecap:round;stroke-miterlimit:4.4"
         d="m 66.871116,161.52575 11.576466,-59.24427 10.214527,-0.27239 -12.393628,61.01479 z"
         id="path19" /><path
         style="fill:#ffdd55;fill-rule:evenodd;stroke:#000000;stroke-width:0.846667;stroke-linecap:round;stroke-miterlimit:4.4"
         d="m 75.996095,163.02388 12.257434,-60.87859 9.397365,-0.27239 -10.078333,62.51292 z"
         id="path20" /><path
         style="fill:#ffdd55;fill-rule:evenodd;stroke:#000000;stroke-width:0.846667;stroke-linecap:round;stroke-miterlimit:4.4"
         d="m 87.300172,164.38582 11.031691,-62.9215 10.078337,0.81716 0.54477,8.58021 -9.533556,54.20509 z"
         id="path21" /><path
         style="fill:#ffdd55;fill-rule:evenodd;stroke:#000000;stroke-width:0.846667;stroke-linecap:round;stroke-miterlimit:4.4"
         d="m 99.28522,165.06678 10.21453,-54.34129 3.40484,55.43084 z"
         id="path22" /><path
         style="fill:#ffdd55;fill-rule:evenodd;stroke:#000000;stroke-width:0.846667;stroke-linecap:round;stroke-miterlimit:4.4"
         d="M 43.718183,106.0949 C 54.064453,68.893067 67.047651,37.377108 88.934498,25.059644 L 52.025999,105.27774 Z"
         id="path23"
         sodipodi:nodetypes="cccc" /><path
         style="fill:#ffdd55;fill-rule:evenodd;stroke:#000000;stroke-width:0.846667;stroke-linecap:round;stroke-miterlimit:4.4"
         d="M 52.298388,105.00536 C 58.977687,74.219438 70.951315,47.492502 88.525915,25.059644 76.709912,49.669703 64.402114,73.966802 60.333818,103.50722 Z"
         id="path24"
         sodipodi:nodetypes="cccc" /><path
         style="fill:#ffdd55;fill-rule:evenodd;stroke:#000000;stroke-width:0.846667;stroke-linecap:round;stroke-miterlimit:4.4"
         d="M 60.470009,104.32439 C 65.615444,70.031258 76.856445,46.645979 88.798304,24.514869 81.021407,49.260991 72.835584,73.523836 68.91402,102.82626 Z"
         id="path25"
         sodipodi:nodetypes="cccc" /><path
         style="fill:#ffdd55;fill-rule:evenodd;stroke:#000000;stroke-width:0.846667;stroke-linecap:round;stroke-miterlimit:4.4"
         d="M 68.91402,103.09864 C 71.866008,73.920121 80.290099,49.529691 88.934498,25.332031 L 78.175193,102.14529 Z"
         id="path26"
         sodipodi:nodetypes="cccc" /><path
         style="fill:#ffdd55;fill-rule:evenodd;stroke:#000000;stroke-width:0.846667;stroke-linecap:round;stroke-miterlimit:4.4"
         d="M 78.175193,101.8729 89.343078,24.92345 87.844946,101.8729 Z"
         id="path27" /><path
         style="fill:#ffdd55;fill-rule:evenodd;stroke:#000000;stroke-width:0.846667;stroke-linecap:round;stroke-miterlimit:4.4"
         d="m 87.844946,101.60051 c 0,-0.95335 1.906712,-76.268479 1.906712,-76.268479 l 8.716399,76.540869 -11.576465,-0.27239"
         id="path28" /><path
         style="fill:#ffdd55;fill-rule:evenodd;stroke:#000000;stroke-width:0.846667;stroke-linecap:round;stroke-miterlimit:4.4"
         d="M 98.468057,101.46432 C 97.514702,98.604251 90.024047,25.740613 90.024047,25.740613 97.717864,50.984494 103.84869,76.402041 108.274,102.00909 Z"
         id="path29"
         sodipodi:nodetypes="cccc" /><path
         style="fill:#ffdd55;fill-rule:evenodd;stroke:#000000;stroke-width:0.846667;stroke-linecap:round;stroke-miterlimit:4.4"
         d="M 108.54639,102.28148 C 103.83911,76.677062 97.499572,51.072643 89.887852,25.468225 106.69094,55.222244 114.86428,80.181953 118.62473,102.69006 Z"
         id="path30"
         sodipodi:nodetypes="cccc" /><path
         style="fill:#ffdd55;fill-rule:evenodd;stroke:#000000;stroke-width:0.846667;stroke-linecap:round;stroke-miterlimit:4.4"
         d="M 118.76092,102.41767 C 119.46786,96.529032 92.518438,22.973833 89.887852,25.604419 107.9173,48.197424 120.82841,74.477476 128.70306,104.32439 Z"
         id="path31"
         sodipodi:nodetypes="cccc" /><path
         style="fill:#ffdd55;fill-rule:evenodd;stroke:#000000;stroke-width:0.846667;stroke-linecap:round;stroke-miterlimit:4.4"
         d="M 137.28327,106.50349 C 129.49357,73.126967 110.84083,49.934548 91.658373,27.238743 114.56364,47.844565 134.20435,72.902063 145.1825,109.77214 Z"
         id="path33"
         sodipodi:nodetypes="cccc" /><path
         style="fill:#ffdd55;fill-rule:evenodd;stroke:#000000;stroke-width:0.846667;stroke-linecap:round;stroke-miterlimit:4.4"
         d="M 145.1825,110.31691 C 135.16908,77.798681 117.65183,50.405018 92.747922,28.055906 121.30821,48.237115 137.00541,80.362608 150.49406,114.53891 Z"
         id="path34"
         sodipodi:nodetypes="cccc" /><path
         style="fill:#ffdd55;fill-rule:evenodd;stroke:#000000;stroke-width:0.846667;stroke-linecap:round;stroke-miterlimit:4.4"
         d="m 112.7684,166.15633 c 0,-0.54477 -3.67723,-54.74987 -3.67723,-54.74987 l 15.93466,55.29465 z"
         id="path35" /><path
         style="fill:#ffdd55;fill-rule:evenodd;stroke:#000000;stroke-width:0.846667;stroke-linecap:round;stroke-miterlimit:4.4"
         d="m 124.48106,166.56492 -15.52609,-55.83943 -0.68097,-8.85259 10.62312,0.95336 18.93092,63.73866 z"
         id="path36" /><path
         style="fill:#ffdd55;fill-rule:evenodd;stroke:#000000;stroke-width:0.846667;stroke-linecap:round;stroke-miterlimit:4.4"
         d="m 137.96424,166.70111 -19.20332,-64.01105 9.94214,1.77052 18.38616,62.10434 z"
         id="path37" /><path
         style="fill:#ffdd55;fill-rule:evenodd;stroke:#000000;stroke-width:0.846667;stroke-linecap:round;stroke-miterlimit:4.4"
         d="m 147.3616,166.15633 -18.65854,-62.37672 8.85259,2.99626 c 7.41657,20.23046 13.38527,40.0116 16.47944,59.51666 z"
         id="path38"
         sodipodi:nodetypes="ccccc" /><path
         style="fill:#ffdd55;fill-rule:evenodd;stroke:#000000;stroke-width:0.846667;stroke-linecap:round;stroke-miterlimit:4.4"
         d="m 153.76271,165.88395 c -2.34459,-18.8247 -9.55647,-39.14703 -16.47944,-59.38046 l 7.62684,3.26865 c 5.80295,19.24472 10.71191,38.04244 13.61938,55.83942 z"
         id="path39"
         sodipodi:nodetypes="ccccc" /><path
         style="fill:#ffdd55;fill-rule:evenodd;stroke:#000000;stroke-width:0.846667;stroke-linecap:round;stroke-miterlimit:4.4"
         d="m 158.52949,165.33917 c -3.38077,-18.57175 -8.06799,-37.23875 -13.62764,-55.44736 l 5.95263,5.12035 c 4.85885,19.04633 8.44496,35.77426 10.39888,50.4632 z"
         id="path40"
         sodipodi:nodetypes="ccccc" /><path
         style="fill:#ffdd55;fill-rule:evenodd;stroke:#000000;stroke-width:0.846667;stroke-linecap:round;stroke-miterlimit:4.4"
         d="m 164.24962,248.28115 c 1.07735,4.31267 1.2344,-61.12367 -2.99626,-82.80579 l -2.86007,0.40859 c 5.56052,27.72348 5.11701,55.01809 5.85633,82.3972 z"
         id="path41"
         sodipodi:nodetypes="cccc" /><path
         style="fill:#ffdd55;fill-rule:evenodd;stroke:#000000;stroke-width:0.846667;stroke-linecap:round;stroke-miterlimit:4.4"
         d="m 164.7944,248.28115 c -2.10585,-27.4512 -0.81023,-52.11938 -6.5373,-82.5334 l -3.94962,0.40858 c 7.61475,28.3255 7.11058,54.77741 10.48692,82.12482 z"
         id="path42"
         sodipodi:nodetypes="cccc" /><path
         style="fill:#ffdd55;fill-rule:evenodd;stroke:#000000;stroke-width:0.846667;stroke-linecap:round;stroke-miterlimit:4.4"
         d="m 164.7944,247.87256 c -3.38269,-27.17119 -2.85933,-50.43633 -10.48692,-81.85242 l -6.94588,0.40858 c 9.82809,27.76597 11.80346,54.32383 17.4328,81.44384 z"
         id="path43"
         sodipodi:nodetypes="cccc" /><path
         style="fill:#ffdd55;fill-rule:evenodd;stroke:#000000;stroke-width:0.846667;stroke-linecap:round;stroke-miterlimit:4.4"
         d="m 164.6582,248.00876 c -5.65321,-27.16754 -7.3594,-54.59822 -17.84137,-81.44384 l -9.26118,0.27238 c 12.57636,30.30415 18.39769,54.41618 27.10255,81.17146 z"
         id="path44"
         sodipodi:nodetypes="cccc" /><path
         style="fill:#ffdd55;fill-rule:evenodd;stroke:#000000;stroke-width:0.846667;stroke-linecap:round;stroke-miterlimit:4.4"
         d="m 165.20298,248.14495 c -9.04461,-27.05715 -16.47509,-54.1143 -27.78352,-81.17145 l -13.21079,-0.40858 z"
         id="path45"
         sodipodi:nodetypes="cccc" /><path
         style="fill:#ffdd55;fill-rule:evenodd;stroke:#000000;stroke-width:0.846667;stroke-linecap:round;stroke-miterlimit:4.4"
         d="m 164.93059,248.41734 -40.85811,-82.12481 -11.57647,-0.27239 0.13619,4.3582 z"
         id="path46" /><path
         style="fill:#ffdd55;fill-rule:evenodd;stroke:#000000;stroke-width:0.846667;stroke-linecap:round;stroke-miterlimit:4.4"
         d="m 164.38582,248.55353 -51.61742,-77.49422 0.95335,17.56899 z"
         id="path47" /><path
         style="fill:#ffdd55;fill-rule:evenodd;stroke:#000000;stroke-width:0.846667;stroke-linecap:round;stroke-miterlimit:4.4"
         d="m 164.93059,248.14495 -51.34503,-59.10807 0.40858,14.98131 z"
         id="path48" /><path
         style="fill:#ffdd55;fill-rule:evenodd;stroke:#000000;stroke-width:0.846667;stroke-linecap:round;stroke-miterlimit:4.4"
         d="m 164.24962,248.41734 -50.52787,-45.08012 0.54478,15.2537 c 16.15463,11.08154 32.40206,21.95427 49.98309,29.82642 z"
         id="path49"
         sodipodi:nodetypes="cccc" /><path
         style="fill:#ffdd55;fill-rule:evenodd;stroke:#000000;stroke-width:0.846667;stroke-linecap:round;stroke-miterlimit:4.4"
         d="m 164.11343,248.96212 c -16.52991,-8.1265 -33.36677,-19.01552 -50.25548,-30.3712 l 0.23934,13.72252 c 16.62347,7.94954 33.75274,15.18047 50.01614,16.64868 z"
         id="path50"
         sodipodi:nodetypes="cccc" /><path
         style="fill:#ffdd55;fill-rule:evenodd;stroke:#000000;stroke-width:0.846667;stroke-linecap:round;stroke-miterlimit:4.4"
         d="m 163.56865,248.55353 c -17.10504,-1.10397 -33.12156,-8.73907 -49.16593,-16.20705 l 0.13619,13.0746 c 17.3711,3.8993 34.83925,8.06819 49.02974,3.13245 z"
         id="path51"
         sodipodi:nodetypes="cccc" /><path
         style="fill:#ffdd55;fill-rule:evenodd;stroke:#000000;stroke-width:0.846667;stroke-linecap:round;stroke-miterlimit:4.4"
         d="m 163.70485,249.2345 c -19.14398,4.14873 -34.01191,-0.25463 -49.30213,-3.81342 l 0.54478,10.35072 c 14.36187,1.93915 37.12366,5.19733 48.75735,-6.5373 z"
         id="path52"
         sodipodi:nodetypes="cccc" /><path
         style="fill:#ffdd55;fill-rule:evenodd;stroke:#000000;stroke-width:0.846667;stroke-linecap:round;stroke-miterlimit:4.4"
         d="M 128.43067,103.77961 C 129.36582,91.71223 92.045437,21.411127 90.705015,26.285387 117.42886,56.594011 133.30239,83.458092 137.14707,106.50349 Z"
         id="path53"
         sodipodi:nodetypes="cccc" /></g></g></svg>
