<?xml version="1.0" encoding="UTF-8" standalone="no"?>
<!-- Created with Inkscape (http://www.inkscape.org/) -->

<svg
   version="1.1"
   id="svg1"
   width="587"
   height="941"
   viewBox="0 0 587 941"
   sodipodi:docname="AR-9 105m2.svg"
   inkscape:version="1.3 (0e150ed6c4, 2023-07-21)"
   xmlns:inkscape="http://www.inkscape.org/namespaces/inkscape"
   xmlns:sodipodi="http://sodipodi.sourceforge.net/DTD/sodipodi-0.dtd"
   xmlns="http://www.w3.org/2000/svg"
   xmlns:svg="http://www.w3.org/2000/svg">
  <defs
     id="defs1" />
  <sodipodi:namedview
     id="namedview1"
     pagecolor="#ffffff"
     bordercolor="#000000"
     borderopacity="0.25"
     inkscape:showpageshadow="2"
     inkscape:pageopacity="0.0"
     inkscape:pagecheckerboard="0"
     inkscape:deskcolor="#d1d1d1"
     showgrid="false"
     inkscape:zoom="0.8639745"
     inkscape:cx="452.55966"
     inkscape:cy="470.5"
     inkscape:window-width="1920"
     inkscape:window-height="1009"
     inkscape:window-x="-8"
     inkscape:window-y="-8"
     inkscape:window-maximized="1"
     inkscape:current-layer="g1" />
  <g
     inkscape:groupmode="layer"
     inkscape:label="Image"
     id="g1">
    <path
       style="fill:#ff0000;fill-rule:evenodd;stroke:#000000;stroke-width:3.2;stroke-linecap:round;stroke-miterlimit:4.4"
       d="M 78.706027,763.91144 C 67.044052,680.73042 43.456801,604.42914 47.65369,503.34666 l 20.635363,10.5574 c 0.02333,52.29487 6.478593,162.47708 10.416974,250.00738 z"
       id="path1"
       sodipodi:nodetypes="cccc" />
    <path
       style="fill:#ff0000;fill-rule:evenodd;stroke:#000000;stroke-width:3.2;stroke-linecap:round;stroke-miterlimit:4.4"
       d="M 79.863469,762.754 C 74.838266,678.39703 57.827978,583.5531 68.289053,512.74662 l 20.833948,3.47232 C 73.082487,579.89157 82.329124,679.68871 79.863469,762.754 Z"
       id="path2"
       sodipodi:nodetypes="cccc" />
    <path
       style="fill:#ff0000;fill-rule:evenodd;stroke:#000000;stroke-width:3.2;stroke-linecap:round;stroke-miterlimit:4.4"
       d="M 79.863469,765.06888 C 80.701182,681.07827 75.049463,593.19401 85.650677,515.0615 l 28.936043,5.78721 C 99.547543,560.67831 90.995333,678.35152 79.863469,765.06888 Z"
       id="path3"
       sodipodi:nodetypes="cccc" />
    <path
       style="fill:#ff0000;fill-rule:evenodd;stroke:#000000;stroke-width:3.2;stroke-linecap:round;stroke-miterlimit:4.4"
       d="m 81.02091,765.06888 c 9.836986,-81.89089 13.671207,-172.78593 31.25092,-243.06273 l 37.10834,2.03404 z"
       id="path4"
       sodipodi:nodetypes="cccc" />
    <path
       style="fill:#ff0000;fill-rule:evenodd;stroke:#000000;stroke-width:3.2;stroke-linecap:round;stroke-miterlimit:4.4"
       d="m 84.493235,765.06888 64.816725,-240.74785 40.51046,5.78721 z"
       id="path5" />
    <path
       style="fill:#ff0000;fill-rule:evenodd;stroke:#000000;stroke-width:3.2;stroke-linecap:round;stroke-miterlimit:4.4"
       d="m 85.650677,766.22632 98.382533,-234.96064 43.98278,3.47233 z"
       id="path6" />
    <path
       style="fill:#ff0000;fill-rule:evenodd;stroke:#000000;stroke-width:3.2;stroke-linecap:round;stroke-miterlimit:4.4"
       d="M 82.774109,772.97239 C 131.72013,694.02996 170.92779,622.39131 231.48831,534.73801 l 37.98494,4.55956 z"
       id="path7"
       sodipodi:nodetypes="cccc" />
    <path
       style="fill:#ff0000;fill-rule:evenodd;stroke:#000000;stroke-width:3.2;stroke-linecap:round;stroke-miterlimit:4.4"
       d="m 86.32869,773.45182 183.89279,-235.65071 53.86216,1.56666 1.15744,18.51907 z"
       id="path8"
       sodipodi:nodetypes="ccccc" />
    <path
       style="fill:#ff0000;fill-rule:evenodd;stroke:#000000;stroke-width:3.2;stroke-linecap:round;stroke-miterlimit:4.4"
       d="M 91.437884,770.85609 325.24108,559.04428 v 57.87208 z"
       id="path9" />
    <path
       style="fill:#ff0000;fill-rule:evenodd;stroke:#000000;stroke-width:3.2;stroke-linecap:round;stroke-miterlimit:4.4"
       d="m 101.37543,766.76392 c 66.81573,-52.9618 149.78939,-96.99106 223.86565,-147.53268 l 1.02907,52.28346 z"
       id="path10"
       sodipodi:nodetypes="cccc" />
    <path
       style="fill:#ff0000;fill-rule:evenodd;stroke:#000000;stroke-width:3.2;stroke-linecap:round;stroke-miterlimit:4.4"
       d="m 100.69742,767.38376 224.54366,-96.06765 0.0702,45.6076 c -72.99801,22.43985 -149.6698,33.85838 -224.61387,50.46005 z"
       id="path11"
       sodipodi:nodetypes="cccc" />
    <path
       style="fill:#ff0000;fill-rule:evenodd;stroke:#000000;stroke-width:3.2;stroke-linecap:round;stroke-miterlimit:4.4"
       d="M 99.539975,769.69865 C 174.46128,752.25041 254.22001,735.60841 323.33542,717.19252 l 3.0631,49.0338 c -79.82917,12.3832 -153.43783,8.17835 -226.858545,3.47233 z"
       id="path12"
       sodipodi:nodetypes="cccc" />
    <path
       style="fill:#ff0000;fill-rule:evenodd;stroke:#000000;stroke-width:3.2;stroke-linecap:round;stroke-miterlimit:4.4"
       d="M 101.85486,773.17097 H 85.650677 l 236.118083,-4.62976 -1.15744,35.88068 C 238.31356,814.61686 172.84837,792.77998 101.85486,773.17097 Z"
       id="path13"
       sodipodi:nodetypes="ccccc" />
    <path
       style="fill:#ff0000;fill-rule:evenodd;stroke:#000000;stroke-width:3.2;stroke-linecap:round;stroke-miterlimit:4.4"
       d="m 91.437884,772.01353 c 77.162776,19.53458 154.325546,41.57745 231.488316,31.25092 l -1.15744,38.19557 C 226.32496,831.37798 156.34481,803.47138 91.437884,772.01353 Z"
       id="path14"
       sodipodi:nodetypes="cccc" />
    <path
       style="fill:#ff0000;fill-rule:evenodd;stroke:#000000;stroke-width:3.2;stroke-linecap:round;stroke-miterlimit:4.4"
       d="m 92.595326,770.85609 c 64.385264,33.90646 138.171934,60.32002 230.132284,69.71529 l -0.95885,33.29701 C 182.81571,847.3512 134.57461,809.49501 92.595326,770.85609 Z"
       id="path15"
       sodipodi:nodetypes="cccc" />
    <path
       style="fill:#ff0000;fill-rule:evenodd;stroke:#000000;stroke-width:3.2;stroke-linecap:round;stroke-miterlimit:4.4"
       d="m 515.0615,844.93235 c -42.71043,18.15292 -87.79747,39.7082 -192.1353,30.09348 l 0.33901,-38.0672 c 68.91495,13.42067 132.10245,16.06899 191.79629,7.97372 z"
       id="path16"
       sodipodi:nodetypes="cccc" />
    <path
       style="fill:#ff0000;fill-rule:evenodd;stroke:#000000;stroke-width:3.2;stroke-linecap:round;stroke-miterlimit:4.4"
       d="m 515.0615,844.93235 c -72.38696,9.10389 -140.60511,5.62673 -193.29274,-6.94465 0,0 -1.01864,-42.08194 2.31488,-35.88069 4.24723,7.90099 189.37055,46.84362 190.97786,42.82534 z"
       id="path17"
       sodipodi:nodetypes="ccsc" />
    <path
       style="fill:#ff0000;fill-rule:evenodd;stroke:#000000;stroke-width:3.2;stroke-linecap:round;stroke-miterlimit:4.4"
       d="m 509.27429,841.46002 c -69.19143,-7.43513 -129.9074,-16.98316 -186.06725,-39.6218 l 0.8766,-41.39911 z"
       id="path18"
       sodipodi:nodetypes="cccc" />
    <path
       style="fill:#ff0000;fill-rule:evenodd;stroke:#000000;stroke-width:3.2;stroke-linecap:round;stroke-miterlimit:4.4"
       d="M 510.43173,841.46002 324.08364,760.43911 323.94322,715.29889 Z"
       id="path19"
       sodipodi:nodetypes="cccc" />
    <path
       style="fill:#ff0000;fill-rule:evenodd;stroke:#000000;stroke-width:3.2;stroke-linecap:round;stroke-miterlimit:4.4"
       d="M 513.90406,846.08979 322.9262,714.14145 l 2.38509,-43.77214 z"
       id="path20"
       sodipodi:nodetypes="cccc" />
    <path
       style="fill:#ff0000;fill-rule:evenodd;stroke:#000000;stroke-width:3.2;stroke-linecap:round;stroke-miterlimit:4.4"
       d="m 511.58918,844.93235 -186.3481,-175.93112 1.15744,-53.24231 z"
       id="path21" />
    <path
       style="fill:#ff0000;fill-rule:evenodd;stroke:#000000;stroke-width:3.2;stroke-linecap:round;stroke-miterlimit:4.4"
       d="M 513.90406,847.24723 326.39852,615.75892 324.55102,562.04923 Z"
       id="path22"
       sodipodi:nodetypes="cccc" />
    <path
       style="fill:#ff0000;fill-rule:evenodd;stroke:#000000;stroke-width:3.2;stroke-linecap:round;stroke-miterlimit:4.4"
       d="M 512.74662,844.93235 C 449.30745,751.75005 385.52226,659.49045 325.24108,557.88684 l -1.15744,-19.67651 48.61255,2.31489 z"
       id="path23"
       sodipodi:nodetypes="ccccc" />
    <path
       style="fill:#ff0000;fill-rule:evenodd;stroke:#000000;stroke-width:3.2;stroke-linecap:round;stroke-miterlimit:4.4"
       d="M 516.21894,846.08979 C 467.93911,745.16586 418.93792,646.40599 372.69619,539.36777 l 52.08487,1.15745 z"
       id="path24"
       sodipodi:nodetypes="cccc" />
    <path
       style="fill:#ff0000;fill-rule:evenodd;stroke:#000000;stroke-width:3.2;stroke-linecap:round;stroke-miterlimit:4.4"
       d="m 518.53383,850.71956 -97.29532,-310.12414 37.10835,-3.54253 z"
       id="path25"
       sodipodi:nodetypes="cccc" />
    <path
       style="fill:#ff0000;fill-rule:evenodd;stroke:#000000;stroke-width:3.2;stroke-linecap:round;stroke-miterlimit:4.4"
       d="m 518.53383,842.61747 -60.18697,-306.72202 27.7786,-3.47233 z"
       id="path26" />
    <path
       style="fill:#ff0000;fill-rule:evenodd;stroke:#000000;stroke-width:3.2;stroke-linecap:round;stroke-miterlimit:4.4"
       d="m 519.69127,841.46002 -35.88069,-312.50922 20.83395,1.15744 c 11.76407,108.8453 11.19915,208.44384 15.04674,311.35178 z"
       id="path27"
       sodipodi:nodetypes="cccc" />
    <path
       style="fill:#ff0000;fill-rule:evenodd;stroke:#000000;stroke-width:3.2;stroke-linecap:round;stroke-miterlimit:4.4"
       d="m 519.69127,841.46002 c -6.84632,-105.15511 0.40017,-186.56853 -17.96943,-311.88938 l 20.28431,0.53761 c 17.46802,183.12413 -2.70747,211.10931 -2.31488,311.35177 z"
       id="path28"
       sodipodi:nodetypes="cccc" />
    <path
       style="fill:#ff0000;fill-rule:evenodd;stroke:#000000;stroke-width:3.2;stroke-linecap:round;stroke-miterlimit:4.4"
       d="M 47.455105,502.32964 C 50.96264,444.97297 44.517731,404.75661 65.833749,316.72977 l 31.391343,-0.74822 -28.936039,195.60763 z"
       id="path29"
       sodipodi:nodetypes="ccccc" />
    <path
       style="fill:#ff0000;fill-rule:evenodd;stroke:#000000;stroke-width:3.2;stroke-linecap:round;stroke-miterlimit:4.4"
       d="M 68.289053,511.58918 97.225092,313.66667 130.7909,307.87946 89.123001,516.21894 Z"
       id="path30" />
    <path
       style="fill:#ff0000;fill-rule:evenodd;stroke:#000000;stroke-width:3.2;stroke-linecap:round;stroke-miterlimit:4.4"
       d="m 86.667697,515.61114 41.808313,-205.4168 34.72325,-6.94465 -50.24941,218.20682 z"
       id="path31"
       sodipodi:nodetypes="ccccc" />
    <path
       style="fill:#ff0000;fill-rule:evenodd;stroke:#000000;stroke-width:3.2;stroke-linecap:round;stroke-miterlimit:4.4"
       d="m 111.7222,523.98202 51.47706,-217.26 35.88069,-6.94465 -49.76999,225.7011 z"
       id="path32"
       sodipodi:nodetypes="ccccc" />
    <path
       style="fill:#ff0000;fill-rule:evenodd;stroke:#000000;stroke-width:3.2;stroke-linecap:round;stroke-miterlimit:4.4"
       d="m 149.30996,524.80046 48.61255,-223.86565 c 0,0 48.61255,-6.94465 38.19557,-2.31488 -10.41697,4.62976 -52.97352,232.9266 -52.97352,232.9266 z"
       id="path33"
       sodipodi:nodetypes="ccscc" />
    <path
       style="fill:#ff0000;fill-rule:evenodd;stroke:#000000;stroke-width:3.2;stroke-linecap:round;stroke-miterlimit:4.4"
       d="m 184.03321,531.26568 c 16.02353,-79.07713 29.86697,-160.77038 50.92743,-233.8032 l 41.6679,1.15745 -47.45511,236.11808 z"
       id="path34"
       sodipodi:nodetypes="ccccc" />
    <path
       style="fill:#ff0000;fill-rule:evenodd;stroke:#000000;stroke-width:3.2;stroke-linecap:round;stroke-miterlimit:4.4"
       d="m 228.01599,532.42312 46.29766,-237.27552 34.72325,-1.15744 8.10209,38.19557 -47.4551,207.18204 z"
       id="path35" />
    <path
       style="fill:#ff0000;fill-rule:evenodd;stroke:#000000;stroke-width:3.2;stroke-linecap:round;stroke-miterlimit:4.4"
       d="m 269.68389,537.05289 47.65369,-199.48917 6.40705,198.74095 z"
       id="path36"
       sodipodi:nodetypes="cccc" />
    <path
       style="fill:#ff0000;fill-rule:evenodd;stroke:#000000;stroke-width:3.2;stroke-linecap:round;stroke-miterlimit:4.4"
       d="M 325.24108,537.05289 317.817,333.1205 370.72032,541.14506 Z"
       id="path37"
       sodipodi:nodetypes="cccc" />
    <path
       style="fill:#ff0000;fill-rule:evenodd;stroke:#000000;stroke-width:3.2;stroke-linecap:round;stroke-miterlimit:4.4"
       d="m 371.87776,540.80606 -55.89621,-206.30544 -6.94465,-40.51046 43.98278,4.62977 68.28905,243.06273 z"
       id="path38"
       sodipodi:nodetypes="cccccc" />
    <path
       style="fill:#ff0000;fill-rule:evenodd;stroke:#000000;stroke-width:3.2;stroke-linecap:round;stroke-miterlimit:4.4"
       d="m 420.96972,540.59542 -66.7926,-244.29038 33.56581,4.62977 69.44649,237.27552 z"
       id="path39"
       sodipodi:nodetypes="ccccc" />
    <path
       style="fill:#ff0000;fill-rule:evenodd;stroke:#000000;stroke-width:3.2;stroke-linecap:round;stroke-miterlimit:4.4"
       d="m 420.01087,539.98762 38.95584,-1.22765 -73.53867,-240.14004 41.6679,9.25953 59.02952,222.22878 -28.93604,6.94465"
       id="path40"
       sodipodi:nodetypes="cccccc" />
    <path
       style="fill:#ff0000;fill-rule:evenodd;stroke:#000000;stroke-width:3.2;stroke-linecap:round;stroke-miterlimit:4.4"
       d="m 484.96802,533.58057 -55.5572,-225.70111 24.30628,12.73186 c 35.40309,80.71271 38.46612,143.45872 47.4551,209.49692 z"
       id="path41"
       sodipodi:nodetypes="ccccc" />
    <path
       style="fill:#ff0000;fill-rule:evenodd;stroke:#000000;stroke-width:3.2;stroke-linecap:round;stroke-miterlimit:4.4"
       d="M 502.61049,529.09122 C 493.47568,465.29994 487.13668,405.79646 454.87454,321.76876 l 27.10059,15.52616 c 43.98553,158.77483 32.49997,145.47793 38.87358,193.97076 z"
       id="path42"
       sodipodi:nodetypes="ccccc" />
    <path
       style="fill:#ff0000;fill-rule:evenodd;stroke:#000000;stroke-width:3.2;stroke-linecap:round;stroke-miterlimit:4.4"
       d="M 64.816728,315.98155 C 103.47705,188.56453 151.79836,74.524254 230.33087,2.3148831 170.81702,89.796114 121.9936,190.83229 99.271179,315.10495 Z"
       id="path43"
       sodipodi:nodetypes="cccc" />
    <path
       style="fill:#ff0000;fill-rule:evenodd;stroke:#000000;stroke-width:3.2;stroke-linecap:round;stroke-miterlimit:4.4"
       d="M 100.69742,314.82411 C 116.61849,170.68378 178.51228,95.502537 229.17343,3.4723247 197.15677,89.340529 159.17605,113.58982 129.69162,309.17732 Z"
       id="path44"
       sodipodi:nodetypes="cccc" />
    <path
       style="fill:#ff0000;fill-rule:evenodd;stroke:#000000;stroke-width:3.2;stroke-linecap:round;stroke-miterlimit:4.4"
       d="M 130.7909,310.19434 C 155.59422,139.57693 192.30448,73.145261 229.17343,8.102091 202.4784,101.1489 175.97074,194.42058 164.3567,305.56458 Z"
       id="path45"
       sodipodi:nodetypes="cccc" />
    <path
       style="fill:#ff0000;fill-rule:evenodd;stroke:#000000;stroke-width:3.2;stroke-linecap:round;stroke-miterlimit:4.4"
       d="M 165.51415,304.40713 C 178.09636,201.82788 203.655,101.84391 231.48831,2.3148831 L 201.39483,296.30504 Z"
       id="path46"
       sodipodi:nodetypes="cccc" />
    <path
       style="fill:#ff0000;fill-rule:evenodd;stroke:#000000;stroke-width:3.2;stroke-linecap:round;stroke-miterlimit:4.4"
       d="m 203.70972,303.24969 c 0,0 24.30627,-304.4071316 26.62115,-299.7773653 2.31489,4.6297663 5.78721,293.9901553 5.78721,293.9901553 z"
       id="path47" />
    <path
       style="fill:#ff0000;fill-rule:evenodd;stroke:#000000;stroke-width:3.2;stroke-linecap:round;stroke-miterlimit:4.4"
       d="M 236.11808,298.61993 233.8032,3.4723247 273.15621,299.77737 Z"
       id="path48" />
    <path
       style="fill:#ff0000;fill-rule:evenodd;stroke:#000000;stroke-width:3.2;stroke-linecap:round;stroke-miterlimit:4.4"
       d="M 270.84133,298.61993 233.8032,3.4723247 310.67377,293.38236 l -37.51756,2.7241"
       id="path49"
       sodipodi:nodetypes="cccc" />
    <path
       style="fill:#ff0000;fill-rule:evenodd;stroke:#000000;stroke-width:3.2;stroke-linecap:round;stroke-miterlimit:4.4"
       d="M 309.0369,294.00221 C 306.34231,298.91566 258.10947,99.539975 232.64576,5.7872079 L 353.01968,299.77737 Z"
       id="path50"
       sodipodi:nodetypes="cccc" />
    <path
       style="fill:#ff0000;fill-rule:evenodd;stroke:#000000;stroke-width:3.2;stroke-linecap:round;stroke-miterlimit:4.4"
       d="M 350.7048,298.61993 233.19539,0.33900681 C 287.23532,91.980758 341.01266,184.2331 392.1039,296.51568 Z"
       id="path51"
       sodipodi:nodetypes="cccc" />
    <path
       style="fill:#ff0000;fill-rule:evenodd;stroke:#000000;stroke-width:3.2;stroke-linecap:round;stroke-miterlimit:4.4"
       d="M 384.2706,298.61993 C 349.2623,192.87335 285.2432,96.797028 233.8032,-3.4723247 300.66013,95.293926 370.29894,188.93317 428.59239,307.68087 Z"
       id="path52"
       sodipodi:nodetypes="cccc" />
    <path
       style="fill:#ff0000;fill-rule:evenodd;stroke:#000000;stroke-width:3.2;stroke-linecap:round;stroke-miterlimit:4.4"
       d="M 427.09594,306.79223 C 371.07866,192.84371 301.63026,100.05274 237.27552,0 312.75758,95.165484 397.47618,185.62929 452.43128,318.91628 Z"
       id="path53"
       sodipodi:nodetypes="cccc" />
    <path
       style="fill:#ff0000;fill-rule:evenodd;stroke:#000000;stroke-width:3.2;stroke-linecap:round;stroke-miterlimit:4.4"
       d="M 451.40221,317.13899 C 392.59902,195.56942 320.3986,96.092307 240.06983,-0.87659918 311.88969,68.606161 377.09415,109.19082 481.49569,335.65806 Z"
       id="path54"
       sodipodi:nodetypes="cccc" />
  </g>
</svg>
