<?xml version="1.0" encoding="UTF-8" standalone="no"?>
<!-- Created with Inkscape (http://www.inkscape.org/) -->

<svg
   version="1.1"
   id="svg1"
   width="587"
   height="941"
   viewBox="0 0 587 941"
   sodipodi:docname="Asym 2 43m2 line2.svg"
   inkscape:version="1.3 (0e150ed6c4, 2023-07-21)"
   xmlns:inkscape="http://www.inkscape.org/namespaces/inkscape"
   xmlns:sodipodi="http://sodipodi.sourceforge.net/DTD/sodipodi-0.dtd"
   xmlns="http://www.w3.org/2000/svg"
   xmlns:svg="http://www.w3.org/2000/svg">
  <defs
     id="defs1" />
  <sodipodi:namedview
     id="namedview1"
     pagecolor="#ffffff"
     bordercolor="#000000"
     borderopacity="0.25"
     inkscape:showpageshadow="2"
     inkscape:pageopacity="0.0"
     inkscape:pagecheckerboard="0"
     inkscape:deskcolor="#d1d1d1"
     showgrid="false"
     inkscape:zoom="2.4436889"
     inkscape:cx="380.98139"
     inkscape:cy="277.654"
     inkscape:window-width="1920"
     inkscape:window-height="1009"
     inkscape:window-x="-8"
     inkscape:window-y="-8"
     inkscape:window-maximized="1"
     inkscape:current-layer="g1" />
  <g
     inkscape:groupmode="layer"
     inkscape:label="Image"
     id="g1">
    <path
       style="fill:#f4e3d7;fill-opacity:0.994302;fill-rule:evenodd;stroke:#000000;stroke-width:3.2;stroke-linecap:round;stroke-miterlimit:4.4"
       d="m 86.808118,762.754 c 65.652242,28.70908 139.519992,54.83615 243.074782,71.633 l -0.69006,32.94596 C 244.75431,851.60234 162.56462,824.0653 86.808118,762.754 Z"
       id="path12" />
    <path
       style="fill:#917c6f;fill-opacity:0.994302;fill-rule:evenodd;stroke:#000000;stroke-width:3.2;stroke-linecap:round;stroke-miterlimit:4.4"
       d="m 89.123001,762.754 c 80.377599,13.16414 161.241409,27.23846 240.619469,22.88004 l 0.19859,48.61254 C 260.40757,823.59563 182.61003,802.80246 89.123001,762.754 Z"
       id="path11" />
    <path
       style="fill:#c8beb7;fill-opacity:0.994302;fill-rule:evenodd;stroke:#000000;stroke-width:3.2;stroke-linecap:round;stroke-miterlimit:4.4"
       d="m 89.123001,759.28167 241.227279,-23.21904 -1.22765,47.1863 c -86.57048,6.82101 -162.49545,-6.53987 -239.999629,-23.96726 z"
       id="path10" />
    <path
       style="fill:#ac9d93;fill-opacity:0.994302;fill-rule:evenodd;stroke:#000000;stroke-width:3.2;stroke-linecap:round;stroke-miterlimit:4.4"
       d="m 87.96556,755.80935 241.6365,-72.91882 0.26879,50.92743 c -80.6351,14.02299 -161.27019,15.92113 -241.90529,21.99139 z"
       id="path9" />
    <path
       style="fill:#c8b7b7;fill-opacity:0.994302;fill-rule:evenodd;stroke:#000000;stroke-width:3.2;stroke-linecap:round;stroke-miterlimit:4.4"
       d="M 84.493235,753.49446 328.9822,621.47592 l 0.88865,61.41461 c -97.40144,30.10681 -167.05689,48.5311 -245.377615,70.60393 z"
       id="path8"
       sodipodi:nodetypes="cccc" />
    <path
       style="fill:#916f6f;fill-opacity:0.994302;fill-rule:evenodd;stroke:#000000;stroke-width:3.2;stroke-linecap:round;stroke-miterlimit:4.4"
       d="M 89.123001,748.8647 328.6432,551.56203 327.82476,623.522 Z"
       id="path7"
       sodipodi:nodetypes="cccc" />
    <path
       style="fill:#ffd5d5;fill-opacity:0.994302;fill-rule:evenodd;stroke:#000000;stroke-width:3.2;stroke-linecap:round;stroke-miterlimit:4.4"
       d="m 81.02091,751.17958 185.79846,-219.84369 61.82382,2.44326 -1.01702,16.68361 z"
       id="path6"
       sodipodi:nodetypes="ccccc" />
    <path
       style="fill:#6c5d53;fill-opacity:0.994302;fill-rule:evenodd;stroke:#000000;stroke-width:3.2;stroke-linecap:round;stroke-miterlimit:4.4"
       d="M 442.77322,315.91583 C 391.41501,191.12405 310.46414,102.35812 235.3,6.5474783 254.64085,34.338334 397.25708,126.28797 466.91705,335.14905 Z"
       id="path27" />
    <path
       style="fill:#ac9d93;fill-opacity:0.994302;fill-rule:evenodd;stroke:#000000;stroke-width:3.2;stroke-linecap:round;stroke-miterlimit:4.4"
       d="M 407.98974,302.82087 C 360.08381,195.32277 293.94442,101.85042 232.8447,4.5013913 305.517,102.89978 387.363,182.41115 443.18244,315.50661 Z"
       id="path26" />
    <path
       style="fill:#ffeeaa;fill-opacity:0.994302;fill-rule:evenodd;stroke:#000000;stroke-width:3.2;stroke-linecap:round;stroke-miterlimit:4.4"
       d="M 360.52052,294.63652 C 360.52052,291.772 232.02626,5.3198261 232.02626,5.3198261 292.7366,101.17736 359.94195,191.40589 405.53444,300.36557 Z"
       id="path25" />
    <path
       style="fill:#554400;fill-opacity:0.994302;fill-rule:evenodd;stroke:#000000;stroke-width:3.2;stroke-linecap:round;stroke-miterlimit:4.4"
       d="M 312.64209,291.772 232.02626,6.1382609 360.11131,293.81809 Z"
       id="path24" />
    <path
       style="fill:#aa8800;fill-opacity:0.994302;fill-rule:evenodd;stroke:#000000;stroke-width:3.2;stroke-linecap:round;stroke-miterlimit:4.4"
       d="M 261.0807,290.13513 229.98018,3.6829565 312.23287,291.772 Z"
       id="path23" />
    <path
       style="fill:#d4aa00;fill-opacity:0.994302;fill-rule:evenodd;stroke:#000000;stroke-width:3.2;stroke-linecap:round;stroke-miterlimit:4.4"
       d="M 212.38383,292.18122 228.75252,2.8645218 260.67148,289.3167 Z"
       id="path22" />
    <path
       style="fill:#ffd42a;fill-opacity:0.994302;fill-rule:evenodd;stroke:#000000;stroke-width:3.2;stroke-linecap:round;stroke-miterlimit:4.4"
       d="M 163.27774,295.45496 C 174.42676,185.48546 201.10123,95.818468 225.888,3.6829565 L 212.38383,293.40887 Z"
       id="path21" />
    <path
       style="fill:#ffdd55;fill-opacity:0.994302;fill-rule:evenodd;stroke:#000000;stroke-width:3.2;stroke-linecap:round;stroke-miterlimit:4.4"
       d="M 117.85461,302.00244 C 109.37998,279.22204 213.86865,-11.610833 225.47878,10.639652 199.35834,101.96847 172.06894,192.49363 162.86852,295.45496 Z"
       id="path20" />
    <path
       style="fill:#ffeeaa;fill-opacity:0.994302;fill-rule:evenodd;stroke:#000000;stroke-width:3.2;stroke-linecap:round;stroke-miterlimit:4.4"
       d="M 72.840696,311.00522 C 96.365277,209.42005 142.33779,79.66176 227.52487,1.2276522 186.7971,66.494476 138.97625,186.66975 117.03617,300.36557 Z"
       id="path19" />
    <path
       style="fill:#ffcc00;fill-opacity:0.994302;fill-rule:evenodd;stroke:#000000;stroke-width:3.2;stroke-linecap:round;stroke-miterlimit:4.4"
       d="m 268.03739,528.70887 c -0.40921,-6.95669 47.06,-212.79304 47.06,-212.79304 l 11.04887,220.15896 z"
       id="path18" />
    <path
       style="fill:#ff7f2a;fill-opacity:0.994302;fill-rule:evenodd;stroke:#000000;stroke-width:3.2;stroke-linecap:round;stroke-miterlimit:4.4"
       d="m 205.83635,524.20748 c 0,-1.63687 56.88122,-232.8447 56.88122,-232.8447 l 48.28765,0.81844 2.4553,22.50696 c -1.63687,-0.40922 -45.83234,216.476 -45.83234,216.476 z"
       id="path17" />
    <path
       style="fill:#ffd5d5;fill-opacity:0.994302;fill-rule:evenodd;stroke:#000000;stroke-width:3.2;stroke-linecap:round;stroke-miterlimit:4.4"
       d="M 156.32104,516.02313 214.42991,293.40887 261.89913,292.99965 204.6087,524.6167 Z"
       id="path16" />
    <path
       style="fill:#ffaaaa;fill-opacity:0.994302;fill-rule:evenodd;stroke:#000000;stroke-width:3.2;stroke-linecap:round;stroke-miterlimit:4.4"
       d="m 117.85461,507.42957 45.42313,-210.33774 49.5153,-2.45531 -58.51808,220.56818 z"
       id="path15" />
    <path
       style="fill:#ff5555;fill-opacity:0.994302;fill-rule:evenodd;stroke:#000000;stroke-width:3.2;stroke-linecap:round;stroke-miterlimit:4.4"
       d="m 81.025044,500.88209 36.829566,-196.83357 44.19548,-5.72904 -45.83235,209.51931 z"
       id="path14" />
    <path
       style="fill:#d40000;fill-opacity:0.994302;fill-rule:evenodd;stroke:#000000;stroke-width:3.2;stroke-linecap:round;stroke-miterlimit:4.4"
       d="M 50.742957,490.24244 C 55.653565,353.56383 72.431479,313.05131 72.431479,313.05131 l 44.195481,-8.59357 -36.829568,196.42435 z"
       id="path13" />
    <path
       style="fill:#ffffff;fill-opacity:0.994302;fill-rule:evenodd;stroke:#000000;stroke-width:3.2;stroke-linecap:round;stroke-miterlimit:4.4"
       d="M 81.02091,747.70726 206.77282,526.2969 c 19.12274,3.34098 39.24427,4.91322 59.43874,5.03899 z"
       id="path5" />
    <path
       style="fill:#ff5555;fill-opacity:0.994302;fill-rule:evenodd;stroke:#000000;stroke-width:3.2;stroke-linecap:round;stroke-miterlimit:4.4"
       d="m 79.863469,746.54982 76.391141,-229.17344 50.92743,9.25954 z"
       id="path4" />
    <path
       style="fill:#d40000;fill-opacity:0.994302;fill-rule:evenodd;stroke:#000000;stroke-width:3.2;stroke-linecap:round;stroke-miterlimit:4.4"
       d="m 81.02091,746.54982 c 5.929317,-79.74841 14.354462,-160.85007 36.5587,-236.2585 l 37.99699,7.35386 z"
       id="path3"
       sodipodi:nodetypes="cccc" />
    <path
       style="fill:#800000;fill-opacity:0.994302;fill-rule:evenodd;stroke:#000000;stroke-width:3.2;stroke-linecap:round;stroke-miterlimit:4.4"
       d="M 77.548585,751.17958 C 74.118634,666.08882 68.69273,580.06661 81.02091,502.32964 l 37.03813,8.10209 C 96.446131,589.32944 86.251781,670.13025 77.548585,751.17958 Z"
       id="path2" />
    <path
       style="fill:#ff00ff;fill-opacity:0.994302;fill-rule:evenodd;stroke:#000000;stroke-width:3.2;stroke-linecap:round;stroke-miterlimit:4.4"
       d="M 77.548585,752.33702 C 61.949312,666.20618 45.412102,580.16466 52.084871,491.91267 l 26.621156,9.25953 c -10.338812,81.42476 -4.335282,166.62083 -1.157442,251.16482 z"
       id="path1" />
    <path
       style="fill:#d45500;fill-opacity:0.994302;fill-rule:evenodd;stroke:#000000;stroke-width:3.2;stroke-linecap:round;stroke-miterlimit:4.4"
       d="m 497.60835,529.52731 c -8.67069,-69.02133 -28.16661,-138.04267 -47.46922,-207.064 l 19.64244,17.18713 c 20.59974,65.5777 40.50262,130.26506 43.78626,191.51374 z"
       id="path32"
       sodipodi:nodetypes="ccccc" />
    <path
       style="fill:#ff7f2a;fill-opacity:0.994302;fill-rule:evenodd;stroke:#000000;stroke-width:3.2;stroke-linecap:round;stroke-miterlimit:4.4"
       d="M 472.23687,533.61948 C 459.91908,455.09461 435.01446,378.36786 407.58052,302.00244 l 40.10331,17.18713 c 31.48342,98.85783 39.47685,153.08469 49.92452,211.97461 z"
       id="path31"
       sodipodi:nodetypes="ccccc" />
    <path
       style="fill:#ff9955;fill-opacity:0.994302;fill-rule:evenodd;stroke:#000000;stroke-width:3.2;stroke-linecap:round;stroke-miterlimit:4.4"
       d="m 428.04139,535.25635 c 1.63687,-4.91061 -67.93008,-243.89357 -67.93008,-243.89357 l 48.28765,10.63966 C 455.51709,431.97703 455.55243,467.78603 470.6,533.61948 Z"
       id="path30"
       sodipodi:nodetypes="ccccc" />
    <path
       style="fill:#ffb380;fill-opacity:0.994302;fill-rule:evenodd;stroke:#000000;stroke-width:3.2;stroke-linecap:round;stroke-miterlimit:4.4"
       d="m 377.29844,532.80105 -61.38261,-217.70366 -3.27374,-22.91617 48.28765,1.63687 65.47478,240.61983 z"
       id="path29" />
    <path
       style="fill:#ffccaa;fill-opacity:0.994302;fill-rule:evenodd;stroke:#000000;stroke-width:3.2;stroke-linecap:round;stroke-miterlimit:4.4"
       d="M 328.19235,534.43792 C 327.37391,531.16418 317.5527,323.28174 317.5527,323.28174 l 57.29043,211.97461 z"
       id="path28" />
    <path
       style="fill:#916f6f;fill-opacity:0.994302;fill-rule:evenodd;stroke:#000000;stroke-width:3.2;stroke-linecap:round;stroke-miterlimit:4.4"
       d="m 512.34018,836.44035 c 2.48693,-103.22774 -2.78416,-205.04493 -12.27653,-306.09461 l 14.73183,0 c 10.86019,138.29674 7.34337,231.94909 -2.4553,306.09461 z"
       id="path43"
       sodipodi:nodetypes="cccc" />
    <path
       style="fill:#c8b7b7;fill-opacity:0.994302;fill-rule:evenodd;stroke:#000000;stroke-width:3.2;stroke-linecap:round;stroke-miterlimit:4.4"
       d="m 512.34018,836.44035 c 6.041,-4.9886 -35.51095,-305.19661 -41.74018,-303.6393 l 28.64522,-1.63687 c 9.56556,102.27878 14.43699,204.08815 13.09496,305.27617 z"
       id="path42"
       sodipodi:nodetypes="cccc" />
    <path
       style="fill:#d45500;fill-opacity:0.994302;fill-rule:evenodd;stroke:#000000;stroke-width:3.2;stroke-linecap:round;stroke-miterlimit:4.4"
       d="m 512.34018,835.62192 -84.29879,-302.00244 41.74018,-1.63687 c 21.69913,102.94686 35.03507,203.96375 42.55861,303.63931 z"
       id="path41"
       sodipodi:nodetypes="cccc" />
    <path
       style="fill:#c87137;fill-opacity:0.994302;fill-rule:evenodd;stroke:#000000;stroke-width:3.2;stroke-linecap:round;stroke-miterlimit:4.4"
       d="M 512.34018,838.07722 374.43392,532.39183 428.04139,534.0287 Z"
       id="path40"
       sodipodi:nodetypes="cccc" />
    <path
       style="fill:#ffe6d5;fill-opacity:0.994302;fill-rule:evenodd;stroke:#000000;stroke-width:3.2;stroke-linecap:round;stroke-miterlimit:4.4"
       d="M 511.52174,840.94174 C 507.42957,833.57583 327.78313,550.3974 327.78313,550.3974 l -0.40921,-14.73183 47.46921,-1.22765 c 45.55954,102.16794 101.51402,207.30587 136.67861,306.50382 z"
       id="path39"
       sodipodi:nodetypes="ccccc" />
    <path
       style="fill:#ffb380;fill-opacity:0.994302;fill-rule:evenodd;stroke:#000000;stroke-width:3.2;stroke-linecap:round;stroke-miterlimit:4.4"
       d="M 510.70331,839.71409 326.55548,615.46296 328.19235,552.44348 Z"
       id="path38"
       sodipodi:nodetypes="cccc" />
    <path
       style="fill:#806600;fill-opacity:0.994302;fill-rule:evenodd;stroke:#000000;stroke-width:3.2;stroke-linecap:round;stroke-miterlimit:4.4"
       d="M 511.52174,840.53253 327.37391,681.34696 328.19235,617.09983 Z"
       id="path37"
       sodipodi:nodetypes="cccc" />
    <path
       style="fill:#aa8800;fill-opacity:0.994302;fill-rule:evenodd;stroke:#000000;stroke-width:3.2;stroke-linecap:round;stroke-miterlimit:4.4"
       d="M 509.47566,849.53531 329.82921,732.90835 329.42,684.21148 c 60.01855,55.10795 177.44324,143.0194 180.05566,165.32383 z"
       id="path36"
       sodipodi:nodetypes="cccc" />
    <path
       style="fill:#ffd42a;fill-opacity:0.994302;fill-rule:evenodd;stroke:#000000;stroke-width:3.2;stroke-linecap:round;stroke-miterlimit:4.4"
       d="M 506.61113,845.44313 C 447.06135,834.03837 389.43318,821.24068 329.01079,783.24209 l 1.63686,-47.46922 z"
       id="path35"
       sodipodi:nodetypes="cccc" />
    <path
       style="fill:#ffe680;fill-opacity:0.994302;fill-rule:evenodd;stroke:#000000;stroke-width:3.2;stroke-linecap:round;stroke-miterlimit:4.4"
       d="M 509.88487,848.71687 C 435.99563,851.43409 379.41595,844.70974 329.42,834.39426 l -0.40921,-50.33373 c 60.29136,27.03013 120.58272,44.83524 180.87408,64.65634 z"
       id="path34"
       sodipodi:nodetypes="cccc" />
    <path
       style="fill:#fff6d5;fill-opacity:0.994302;fill-rule:evenodd;stroke:#000000;stroke-width:3.2;stroke-linecap:round;stroke-miterlimit:4.4"
       d="M 514.38626,848.30766 C 482.22909,883.90673 405.10092,875.63165 329.42,868.76853 l 0,-34.37426 c 85.55422,16.20173 131.55133,13.26293 184.96626,13.91339 z"
       id="path33"
       sodipodi:nodetypes="cccc" />
  </g>
</svg>
