<?xml version="1.0" encoding="UTF-8" standalone="no"?>
<!-- Created with Inkscape (http://www.inkscape.org/) -->

<svg
   version="1.1"
   id="svg1"
   width="587"
   height="941"
   viewBox="0 0 587 941"
   sodipodi:docname="AR-16 223m2.svg"
   inkscape:version="1.3 (0e150ed6c4, 2023-07-21)"
   xmlns:inkscape="http://www.inkscape.org/namespaces/inkscape"
   xmlns:sodipodi="http://sodipodi.sourceforge.net/DTD/sodipodi-0.dtd"
   xmlns="http://www.w3.org/2000/svg"
   xmlns:svg="http://www.w3.org/2000/svg">
  <defs
     id="defs1" />
  <sodipodi:namedview
     id="namedview1"
     pagecolor="#ffffff"
     bordercolor="#000000"
     borderopacity="0.25"
     inkscape:showpageshadow="2"
     inkscape:pageopacity="0.0"
     inkscape:pagecheckerboard="0"
     inkscape:deskcolor="#d1d1d1"
     showgrid="false"
     inkscape:zoom="1.727949"
     inkscape:cx="269.68389"
     inkscape:cy="183.16513"
     inkscape:window-width="1920"
     inkscape:window-height="1009"
     inkscape:window-x="-8"
     inkscape:window-y="-8"
     inkscape:window-maximized="1"
     inkscape:current-layer="g1" />
  <g
     inkscape:groupmode="layer"
     inkscape:label="Image"
     id="g1">
    <path
       style="fill:#00ffff;fill-rule:evenodd;stroke:#000000;stroke-width:3.2;stroke-linecap:round;stroke-miterlimit:4.4"
       d="M 57.290435,769.3287 C 43.160406,714.19133 23.59142,660.03123 22.097739,588.0454 l 15.141044,6.95669 c -3.923042,60.7606 12.332903,116.47646 20.051652,174.32661 z"
       id="path1"
       sodipodi:nodetypes="cccc" />
    <path
       style="fill:#00ffff;fill-rule:evenodd;stroke:#000000;stroke-width:3.2;stroke-linecap:round;stroke-miterlimit:4.4"
       d="M 57.699652,771.784 C 49.726167,712.60453 32.778515,656.41646 36.420348,593.36522 l 11.867304,5.31983 c -5.839508,57.69965 5.57576,115.3993 9.412,173.09895 z"
       id="path2"
       sodipodi:nodetypes="cccc" />
    <path
       style="fill:#00ffff;fill-rule:evenodd;stroke:#000000;stroke-width:3.2;stroke-linecap:round;stroke-miterlimit:4.4"
       d="m 57.699652,771.37479 c -4.407136,-56.70735 -13.893886,-108.89948 -9.412,-173.50818 l 14.322609,6.54748 z"
       id="path3"
       sodipodi:nodetypes="cccc" />
    <path
       style="fill:#00ffff;fill-rule:evenodd;stroke:#000000;stroke-width:3.2;stroke-linecap:round;stroke-miterlimit:4.4"
       d="M 58.518087,770.14713 63.019479,602.368 78.160522,608.91548 Z"
       id="path4" />
    <path
       style="fill:#00ffff;fill-rule:evenodd;stroke:#000000;stroke-width:3.2;stroke-linecap:round;stroke-miterlimit:4.4"
       d="m 58.927305,770.55635 19.233217,-161.64087 15.550261,4.91061 z"
       id="path5" />
    <path
       style="fill:#00ffff;fill-rule:evenodd;stroke:#000000;stroke-width:3.2;stroke-linecap:round;stroke-miterlimit:4.4"
       d="m 58.927305,770.96557 36.420348,-157.5487 17.187127,5.72905 z"
       id="path6" />
    <path
       style="fill:#00ffff;fill-rule:evenodd;stroke:#000000;stroke-width:3.2;stroke-linecap:round;stroke-miterlimit:4.4"
       d="m 59.336522,771.37479 54.016698,-153.45653 20.05165,7.36592 z"
       id="path7" />
    <path
       style="fill:#00ffff;fill-rule:evenodd;stroke:#000000;stroke-width:3.2;stroke-linecap:round;stroke-miterlimit:4.4"
       d="m 60.154957,772.60244 75.705213,-148.95513 23.3254,5.72904 z"
       id="path8" />
    <path
       style="fill:#00ffff;fill-rule:evenodd;stroke:#000000;stroke-width:3.2;stroke-linecap:round;stroke-miterlimit:4.4"
       d="m 60.154957,770.96557 c 0,0 98.621393,-141.99844 100.258263,-141.99844 1.63687,0 29.87287,4.91061 27.41756,4.91061 -2.4553,0 -127.675823,137.08783 -127.675823,137.08783 z"
       id="path9" />
    <path
       style="fill:#00ffff;fill-rule:evenodd;stroke:#000000;stroke-width:3.2;stroke-linecap:round;stroke-miterlimit:4.4"
       d="m 61.791826,771.784 126.857394,-138.72469 31.91896,6.13826 C 168.22851,688.66512 115.22146,732.12618 61.791826,771.784 Z"
       id="path10"
       sodipodi:nodetypes="cccc" />
    <path
       style="fill:#00ffff;fill-rule:evenodd;stroke:#000000;stroke-width:3.2;stroke-linecap:round;stroke-miterlimit:4.4"
       d="M 63.019479,770.96557 C 115.95617,729.55753 169.48311,688.0887 221.38661,639.19757 l 36.01113,2.4553 c -64.79275,55.2833 -129.58551,95.78864 -194.378261,129.3127 z"
       id="path11"
       sodipodi:nodetypes="cccc" />
    <path
       style="fill:#00ffff;fill-rule:evenodd;stroke:#000000;stroke-width:3.2;stroke-linecap:round;stroke-miterlimit:4.4"
       d="m 63.019479,772.19322 c 2.71092,7.71065 197.605381,-124.57691 196.015131,-130.54035 l 42.96783,2.04609 -0.40922,11.45809 C 222.49193,696.9205 144.15264,743.63693 63.019479,772.19322 Z"
       id="path12"
       sodipodi:nodetypes="ccccc" />
    <path
       style="fill:#00ffff;fill-rule:evenodd;stroke:#000000;stroke-width:3.2;stroke-linecap:round;stroke-miterlimit:4.4"
       d="m 61.791826,771.784 c 6.0652,8.94448 240.106244,-111.74107 239.801394,-115.3993 l -0.40922,32.73739 c -84.87736,36.81424 -167.79456,70.75358 -236.527652,83.88957"
       id="path13"
       sodipodi:nodetypes="cccc" />
    <path
       style="fill:#00ffff;fill-rule:evenodd;stroke:#000000;stroke-width:3.2;stroke-linecap:round;stroke-miterlimit:4.4"
       d="M 65.065566,773.83009 C 149.47338,754.01019 226.19507,722.6611 302.00244,689.94053 v 38.05721 c -79.35079,24.20143 -158.65549,47.29679 -236.936874,45.83235 z"
       id="path14"
       sodipodi:nodetypes="cccc" />
    <path
       style="fill:#00ffff;fill-rule:evenodd;stroke:#000000;stroke-width:3.2;stroke-linecap:round;stroke-miterlimit:4.4"
       d="M 65.065566,773.42087 C 142.07535,772.60385 221.3202,754.65131 301.59322,728.81618 l 0.40922,41.33095 c -83.24395,15.0765 -163.87325,21.72801 -237.346092,5.31983 v 0 z"
       id="path15"
       sodipodi:nodetypes="cccccc" />
    <path
       style="fill:#00ffff;fill-rule:evenodd;stroke:#000000;stroke-width:3.2;stroke-linecap:round;stroke-miterlimit:4.4"
       d="m 65.474783,775.87618 c 74.613417,12.68739 154.419247,9.79758 237.755307,-3.68296 l -0.40922,31.10052 c -98.81283,7.3641 -178.90451,-0.95709 -237.346087,-27.41756 z"
       id="path16"
       sodipodi:nodetypes="cccc" />
    <path
       style="fill:#00ffff;fill-rule:evenodd;stroke:#000000;stroke-width:3.2;stroke-linecap:round;stroke-miterlimit:4.4"
       d="m 66.293218,777.92226 c 57.571822,15.53575 106.192472,34.0126 237.346092,25.37148 l 0.81843,27.82679 C 203.97792,834.47942 137.47644,803.85997 66.293218,777.92226 Z"
       id="path17"
       sodipodi:nodetypes="cccc" />
    <path
       style="fill:#00ffff;fill-rule:evenodd;stroke:#000000;stroke-width:3.2;stroke-linecap:round;stroke-miterlimit:4.4"
       d="m 65.474783,779.96835 c 74.516337,26.84233 150.113777,51.68878 238.573737,52.78905 l 0.81844,24.14382 c -93.61977,-7.67519 -167.20138,-41.4 -239.392177,-76.93287 z"
       id="path18"
       sodipodi:nodetypes="cccc" />
    <path
       style="fill:#00ffff;fill-rule:evenodd;stroke:#000000;stroke-width:3.2;stroke-linecap:round;stroke-miterlimit:4.4"
       d="M 69.157739,782.83287 C 215.91443,851.5066 253.98227,849.71173 305.27618,856.492 l 0.40921,22.09774 C 226.57002,857.31065 147.23383,844.64368 69.157739,782.83287 Z"
       id="path19"
       sodipodi:nodetypes="cccc" />
    <path
       style="fill:#00ffff;fill-rule:evenodd;stroke:#000000;stroke-width:3.2;stroke-linecap:round;stroke-miterlimit:4.4"
       d="M 22.097739,587.63618 C 18.658398,557.01721 15.897111,524.2203 20.051652,484.92261 l 19.642435,3.27374 c -5.265514,38.82813 -6.328703,73.97922 -2.864522,105.16887 z"
       id="path20"
       sodipodi:nodetypes="ccccc" />
    <path
       style="fill:#00ffff;fill-rule:evenodd;stroke:#000000;stroke-width:3.2;stroke-linecap:round;stroke-miterlimit:4.4"
       d="M 36.420348,592.54679 C 33.699042,561.57586 33.31995,528.26272 39.28487,488.60557 l 21.279304,2.04608 c -7.938697,34.50291 -11.976471,70.12036 -12.276522,106.80574 z"
       id="path21"
       sodipodi:nodetypes="ccccc" />
    <path
       style="fill:#00ffff;fill-rule:evenodd;stroke:#000000;stroke-width:3.2;stroke-linecap:round;stroke-miterlimit:4.4"
       d="m 47.469218,596.22974 c -0.148182,-33.66142 2.787933,-68.24813 13.504174,-105.16887 l 21.279304,3.27374 -20.46087,106.80574 z"
       id="path22"
       sodipodi:nodetypes="ccccc" />
    <path
       style="fill:#00ffff;fill-rule:evenodd;stroke:#000000;stroke-width:3.2;stroke-linecap:round;stroke-miterlimit:4.4"
       d="M 62.610261,600.32192 81.843479,494.74383 103.532,496.3807 77.342087,608.50626 Z"
       id="path23" />
    <path
       style="fill:#00ffff;fill-rule:evenodd;stroke:#000000;stroke-width:3.2;stroke-linecap:round;stroke-miterlimit:4.4"
       d="m 77.342087,607.27861 c 0,0 24.143823,-111.30713 25.780693,-111.30713 1.63687,0 24.96226,3.68296 24.96226,3.68296 L 94.12,613.41687 Z"
       id="path24" />
    <path
       style="fill:#00ffff;fill-rule:evenodd;stroke:#000000;stroke-width:3.2;stroke-linecap:round;stroke-miterlimit:4.4"
       d="m 94.938435,612.18922 33.555825,-113.76243 24.55305,2.86452 -41.33096,117.03617 z"
       id="path25" />
    <path
       style="fill:#00ffff;fill-rule:evenodd;stroke:#000000;stroke-width:3.2;stroke-linecap:round;stroke-miterlimit:4.4"
       d="m 112.53478,617.09983 40.92174,-116.21774 26.18992,2.04609 -45.01392,121.53756 z"
       id="path26" />
    <path
       style="fill:#00ffff;fill-rule:evenodd;stroke:#000000;stroke-width:3.2;stroke-linecap:round;stroke-miterlimit:4.4"
       d="m 136.26939,623.64731 43.78626,-120.71913 29.46366,1.22765 -50.33374,124.40209 z"
       id="path27" />
    <path
       style="fill:#00ffff;fill-rule:evenodd;stroke:#000000;stroke-width:3.2;stroke-linecap:round;stroke-miterlimit:4.4"
       d="m 159.18557,627.73948 50.33374,-123.99287 30.28208,2.86452 -51.97061,127.67583 z"
       id="path28" />
    <path
       style="fill:#00ffff;fill-rule:evenodd;stroke:#000000;stroke-width:3.2;stroke-linecap:round;stroke-miterlimit:4.4"
       d="m 187.42157,632.24087 51.56139,-126.44817 30.6913,0.81843 -49.92452,132.17722 z"
       id="path29" />
    <path
       style="fill:#00ffff;fill-rule:evenodd;stroke:#000000;stroke-width:3.2;stroke-linecap:round;stroke-miterlimit:4.4"
       d="m 218.93131,637.15148 50.33373,-131.35878 29.87287,0.40922 0.81844,22.09773 -42.96783,112.12557 z"
       id="path30" />
    <path
       style="fill:#00ffff;fill-rule:evenodd;stroke:#000000;stroke-width:3.2;stroke-linecap:round;stroke-miterlimit:4.4"
       d="m 256.57931,640.83444 42.96782,-111.30713 2.86452,114.99008 z"
       id="path31" />
    <path
       style="fill:#00ffff;fill-rule:evenodd;stroke:#000000;stroke-width:3.2;stroke-linecap:round;stroke-miterlimit:4.4"
       d="m 20.051652,484.10418 c 1.486151,-38.34148 1.716299,-76.46011 8.593566,-110.4887 l 27.417565,-2.04609 C 44.811971,412.01894 40.171685,450.06466 40.921739,486.15026 Z"
       id="path32"
       sodipodi:nodetypes="ccccc" />
    <path
       style="fill:#00ffff;fill-rule:evenodd;stroke:#000000;stroke-width:3.2;stroke-linecap:round;stroke-miterlimit:4.4"
       d="m 39.28487,488.19635 c 2.000621,-38.68872 3.226773,-77.2914 14.731826,-117.03617 l 25.780696,-2.45531 C 71.10594,410.828 63.836788,449.221 59.745739,489.424 Z"
       id="path33"
       sodipodi:nodetypes="ccccc" />
    <path
       style="fill:#00ffff;fill-rule:evenodd;stroke:#000000;stroke-width:3.2;stroke-linecap:round;stroke-miterlimit:4.4"
       d="m 58.927305,491.06087 c 4.043095,-38.44956 8.243676,-73.94509 20.870087,-124.8113 l 24.143828,-1.22766 C 91.187215,415.91826 86.428894,454.68823 82.252696,493.92539 Z"
       id="path34"
       sodipodi:nodetypes="ccccc" />
    <path
       style="fill:#00ffff;fill-rule:evenodd;stroke:#000000;stroke-width:3.2;stroke-linecap:round;stroke-miterlimit:4.4"
       d="m 83.071131,493.92539 c 5.504041,-44.28408 10.503523,-89.07271 21.279309,-128.08504 l 26.18991,-2.04609 -28.64522,132.17722 z"
       id="path35"
       sodipodi:nodetypes="ccccc" />
    <path
       style="fill:#00ffff;fill-rule:evenodd;stroke:#000000;stroke-width:3.2;stroke-linecap:round;stroke-miterlimit:4.4"
       d="m 101.89513,495.97148 29.46365,-132.58643 c 0,0 26.59913,-2.04609 24.55305,-2.04609 -2.04609,0 -27.82679,137.08783 -27.82679,137.08783 z"
       id="path36" />
    <path
       style="fill:#00ffff;fill-rule:evenodd;stroke:#000000;stroke-width:3.2;stroke-linecap:round;stroke-miterlimit:4.4"
       d="m 128.08504,499.24522 c -1.63687,0 28.236,-138.7247 28.236,-138.7247 0,0 29.05444,-1.22765 27.41757,-1.22765 -1.63687,0 -29.87287,142.81687 -29.87287,142.81687 z"
       id="path37" />
    <path
       style="fill:#00ffff;fill-rule:evenodd;stroke:#000000;stroke-width:3.2;stroke-linecap:round;stroke-miterlimit:4.4"
       d="m 152.63809,501.70052 30.6913,-142.81687 25.7807,-0.81843 -27.00835,145.27217 z"
       id="path38" />
    <path
       style="fill:#00ffff;fill-rule:evenodd;stroke:#000000;stroke-width:3.2;stroke-linecap:round;stroke-miterlimit:4.4"
       d="m 181.69252,503.74661 27.82679,-146.49983 29.46365,-1.63687 -28.64522,148.95514 z"
       id="path39" />
    <path
       style="fill:#00ffff;fill-rule:evenodd;stroke:#000000;stroke-width:3.2;stroke-linecap:round;stroke-miterlimit:4.4"
       d="m 209.51931,504.15583 29.05443,-146.90905 28.236,-1.63687 -27.41756,149.77357 z"
       id="path40" />
    <path
       style="fill:#00ffff;fill-rule:evenodd;stroke:#000000;stroke-width:3.2;stroke-linecap:round;stroke-miterlimit:4.4"
       d="M 240.21061,505.38348 267.62818,355.2007 h 22.50695 l 1.22765,29.87287 -20.87008,120.71913 z"
       id="path41" />
    <path
       style="fill:#00ffff;fill-rule:evenodd;stroke:#000000;stroke-width:3.2;stroke-linecap:round;stroke-miterlimit:4.4"
       d="m 270.08348,505.38348 22.50696,-120.30991 5.31982,121.12835 z"
       id="path42" />
    <path
       style="fill:#00ffff;fill-rule:evenodd;stroke:#000000;stroke-width:3.2;stroke-linecap:round;stroke-miterlimit:4.4"
       d="m 29.463652,372.79705 c 5.590269,-30.91444 1.875041,-45.28577 25.371479,-108.0334 l 21.279304,-6.95669 c -11.827127,40.67938 -20.719484,79.5979 -21.688522,113.76243 z"
       id="path43"
       sodipodi:nodetypes="ccccc" />
    <path
       style="fill:#00ffff;fill-rule:evenodd;stroke:#000000;stroke-width:3.2;stroke-linecap:round;stroke-miterlimit:4.4"
       d="m 53.198261,370.75096 c 2.275287,-32.12382 7.392907,-67.30861 23.734609,-114.58087 l 23.32539,-6.9567 C 84.051291,301.73653 83.155346,333.0598 80.615826,366.65878 l -25.371478,4.91061"
       id="path44"
       sodipodi:nodetypes="ccccc" />
    <path
       style="fill:#00ffff;fill-rule:evenodd;stroke:#000000;stroke-width:3.2;stroke-linecap:round;stroke-miterlimit:4.4"
       d="m 79.797392,365.43113 c 0.790151,-29.59416 3.993319,-63.27189 18.824,-116.62695 0,0 26.189908,-4.91061 24.553048,-4.91061 -1.63687,0 -14.73183,123.99287 -16.77792,122.76521 -2.04608,-1.22765 -26.599128,-1.22765 -26.599128,-1.22765 z"
       id="path45"
       sodipodi:nodetypes="ccssc" />
    <path
       style="fill:#00ffff;fill-rule:evenodd;stroke:#000000;stroke-width:3.2;stroke-linecap:round;stroke-miterlimit:4.4"
       d="m 103.12278,365.84035 18.824,-123.17444 27.00835,-4.9106 -19.23322,126.85739 z"
       id="path46" />
    <path
       style="fill:#00ffff;fill-rule:evenodd;stroke:#000000;stroke-width:3.2;stroke-linecap:round;stroke-miterlimit:4.4"
       d="m 147.31826,238.98296 26.18991,-4.91061 -17.18713,126.03896 -24.96226,2.86452 z"
       id="path47" />
    <path
       style="fill:#00ffff;fill-rule:evenodd;stroke:#000000;stroke-width:3.2;stroke-linecap:round;stroke-miterlimit:4.4"
       d="m 156.73026,360.52052 15.55026,-128.08504 27.00835,-2.04609 -16.3687,127.67583 z"
       id="path48" />
    <path
       style="fill:#00ffff;fill-rule:evenodd;stroke:#000000;stroke-width:3.2;stroke-linecap:round;stroke-miterlimit:4.4"
       d="m 182.10174,359.29287 16.3687,-129.31269 c 0,0 29.87287,-0.81844 27.41756,-1.22766 -2.4553,-0.40921 -15.14104,128.90348 -15.14104,128.90348 z"
       id="path49" />
    <path
       style="fill:#00ffff;fill-rule:evenodd;stroke:#000000;stroke-width:3.2;stroke-linecap:round;stroke-miterlimit:4.4"
       d="m 210.33774,357.656 15.55026,-130.13113 27.41757,-0.40922 -15.14105,129.3127 z"
       id="path50" />
    <path
       style="fill:#00ffff;fill-rule:evenodd;stroke:#000000;stroke-width:3.2;stroke-linecap:round;stroke-miterlimit:4.4"
       d="m 238.98296,356.83757 12.27652,-130.13113 27.41756,-1.22766 2.04609,17.18713 -13.91339,112.53479 z"
       id="path51" />
    <path
       style="fill:#00ffff;fill-rule:evenodd;stroke:#000000;stroke-width:3.2;stroke-linecap:round;stroke-miterlimit:4.4"
       d="m 267.21896,353.97305 c 0,0 17.59635,-112.12557 14.73182,-111.30714 -2.86452,0.81844 8.18435,111.71635 8.18435,111.71635 z"
       id="path52" />
    <path
       style="fill:#00ffff;fill-rule:evenodd;stroke:#000000;stroke-width:3.2;stroke-linecap:round;stroke-miterlimit:4.4"
       d="M 54.835131,264.35444 C 87.909708,166.27296 128.16874,73.089971 208.70087,7.3659131 153.55927,82.793121 98.626567,158.36184 76.523653,256.17009 Z"
       id="path53"
       sodipodi:nodetypes="cccc" />
    <path
       style="fill:#00ffff;fill-rule:evenodd;stroke:#000000;stroke-width:3.2;stroke-linecap:round;stroke-miterlimit:4.4"
       d="M 76.93287,256.17009 C 101.60314,152.20696 153.5516,79.418889 208.29165,9.8212174 169.88407,86.72581 119.28073,150.15087 99.439827,247.57652 Z"
       id="path54"
       sodipodi:nodetypes="cccc" />
    <path
       style="fill:#00ffff;fill-rule:evenodd;stroke:#000000;stroke-width:3.2;stroke-linecap:round;stroke-miterlimit:4.4"
       d="M 98.621392,247.98574 C 119.09282,151.72678 167.458,84.689854 209.51931,11.04887 178.39984,86.548141 138.23943,155.66557 123.99287,243.07513 Z"
       id="path55"
       sodipodi:nodetypes="cccc" />
    <path
       style="fill:#00ffff;fill-rule:evenodd;stroke:#000000;stroke-width:3.2;stroke-linecap:round;stroke-miterlimit:4.4"
       d="M 123.17444,242.2567 C 140.0477,162.03836 171.40451,85.958176 211.15617,12.276522 185.74325,87.935653 159.024,163.79576 147.31826,237.34609 Z"
       id="path56"
       sodipodi:nodetypes="cccc" />
    <path
       style="fill:#00ffff;fill-rule:evenodd;stroke:#000000;stroke-width:3.2;stroke-linecap:round;stroke-miterlimit:4.4"
       d="M 148.54591,236.93687 C 160.22754,152.65291 186.51619,84.193228 210.74696,13.504174 195.94076,87.044943 180.29255,161.34471 173.91739,232.8447 Z"
       id="path57"
       sodipodi:nodetypes="cccc" />
    <path
       style="fill:#00ffff;fill-rule:evenodd;stroke:#000000;stroke-width:3.2;stroke-linecap:round;stroke-miterlimit:4.4"
       d="M 175.14504,231.20783 C 180.36106,152.40579 196.5276,82.12082 211.15617,10.639652 L 198.47044,229.57096 Z"
       id="path58"
       sodipodi:nodetypes="cccc" />
    <path
       style="fill:#00ffff;fill-rule:evenodd;stroke:#000000;stroke-width:3.2;stroke-linecap:round;stroke-miterlimit:4.4"
       d="M 198.06122,230.38939 212.38383,8.1843479 225.888,228.34331 Z"
       id="path59" />
    <path
       style="fill:#00ffff;fill-rule:evenodd;stroke:#000000;stroke-width:3.2;stroke-linecap:round;stroke-miterlimit:4.4"
       d="M 227.11565,227.52487 212.79304,9.8212174 250.85026,226.70644 Z"
       id="path60" />
    <path
       style="fill:#00ffff;fill-rule:evenodd;stroke:#000000;stroke-width:3.2;stroke-linecap:round;stroke-miterlimit:4.4"
       d="m 251.6687,226.29722 c 0,-1.63687 -37.23879,-216.066785 -37.23879,-216.066785 l 64.24713,216.476005 z"
       id="path61" />
    <path
       style="fill:#00ffff;fill-rule:evenodd;stroke:#000000;stroke-width:3.2;stroke-linecap:round;stroke-miterlimit:4.4"
       d="M 278.26783,226.70644 216.476,12.276522 302.82087,227.11565 Z"
       id="path62" />
    <path
       style="fill:#00ffff;fill-rule:evenodd;stroke:#000000;stroke-width:3.2;stroke-linecap:round;stroke-miterlimit:4.4"
       d="M 304.45774,226.70644 217.70365,13.094957 C 256.96998,85.253625 302.36,157.41229 328.60157,229.57096 Z"
       id="path63"
       sodipodi:nodetypes="cccc" />
    <path
       style="fill:#00ffff;fill-rule:evenodd;stroke:#000000;stroke-width:3.2;stroke-linecap:round;stroke-miterlimit:4.4"
       d="M 328.19235,229.98018 C 301.48157,159.33663 258.23943,87.190221 220.56818,15.550261 266.21898,87.535229 316.55612,158.2421 351.10852,233.25391 Z"
       id="path64"
       sodipodi:nodetypes="cccc" />
    <path
       style="fill:#00ffff;fill-rule:evenodd;stroke:#000000;stroke-width:3.2;stroke-linecap:round;stroke-miterlimit:4.4"
       d="M 350.69931,233.25391 C 317.03709,162.18316 270.2238,92.573632 227.52487,22.506957 276.99427,92.290649 327.46809,160.31663 372.79705,237.34609 Z"
       id="path65"
       sodipodi:nodetypes="cccc" />
    <path
       style="fill:#00ffff;fill-rule:evenodd;stroke:#000000;stroke-width:3.2;stroke-linecap:round;stroke-miterlimit:4.4"
       d="M 373.61548,237.75531 C 330.4369,165.12291 281.26554,96.086175 232.8447,26.599131 290.22636,93.37694 347.81831,159.85684 392.43948,244.712 Z"
       id="path66"
       sodipodi:nodetypes="cccc" />
    <path
       style="fill:#00ffff;fill-rule:evenodd;stroke:#000000;stroke-width:3.2;stroke-linecap:round;stroke-miterlimit:4.4"
       d="M 392.43948,245.93965 C 346.76543,162.17856 291.86598,98.186175 238.98296,29.87287 301.33452,89.486519 360.29875,158.97988 409.62661,256.57931 Z"
       id="path67"
       sodipodi:nodetypes="cccc" />
    <path
       style="fill:#00ffff;fill-rule:evenodd;stroke:#000000;stroke-width:3.2;stroke-linecap:round;stroke-miterlimit:4.4"
       d="m 290.54435,353.97305 -9.82122,-110.4887 33.55583,112.12556 z"
       id="path69" />
    <path
       style="fill:#00ffff;fill-rule:evenodd;stroke:#000000;stroke-width:3.2;stroke-linecap:round;stroke-miterlimit:4.4"
       d="m 315.09739,354.38226 -33.55582,-108.44261 -3.68296,-20.05165 26.18991,2.04609 38.87566,129.31269 -30.28209,-2.86452"
       id="path70" />
    <path
       style="fill:#00ffff;fill-rule:evenodd;stroke:#000000;stroke-width:3.2;stroke-linecap:round;stroke-miterlimit:4.4"
       d="M 343.33339,356.01913 304.45774,227.11565 c 0,0 26.18991,3.27374 24.55304,3.27374 -1.63687,0 41.33096,127.26661 41.33096,127.26661 z"
       id="path71" />
    <path
       style="fill:#00ffff;fill-rule:evenodd;stroke:#000000;stroke-width:3.2;stroke-linecap:round;stroke-miterlimit:4.4"
       d="M 368.29565,356.42835 329.42,229.98018 l 23.73461,4.09217 40.51252,125.62974 z"
       id="path72" />
    <path
       style="fill:#00ffff;fill-rule:evenodd;stroke:#000000;stroke-width:3.2;stroke-linecap:round;stroke-miterlimit:4.4"
       d="m 394.89478,359.70209 -42.5586,-125.62974 20.46087,3.27374 43.78626,126.44817 z"
       id="path73" />
    <path
       style="fill:#00ffff;fill-rule:evenodd;stroke:#000000;stroke-width:3.2;stroke-linecap:round;stroke-miterlimit:4.4"
       d="M 417.40174,362.97583 373.20626,235.70922 c 0,0 17.31581,8.28863 19.23322,9.00278 3.33259,1.24123 50.79175,125.57804 42.14939,123.58365 z"
       id="path74"
       sodipodi:nodetypes="ccscc" />
    <path
       style="fill:#00ffff;fill-rule:evenodd;stroke:#000000;stroke-width:3.2;stroke-linecap:round;stroke-miterlimit:4.4"
       d="m 435.40731,367.88644 c -10.19502,-40.4236 -26.77068,-82.12332 -42.14939,-123.58366 l 17.18713,13.9134 c 17.93416,41.77267 29.63252,80.42745 38.87565,117.8546 z"
       id="path75"
       sodipodi:nodetypes="ccccc" />
    <path
       style="fill:#00ffff;fill-rule:evenodd;stroke:#000000;stroke-width:3.2;stroke-linecap:round;stroke-miterlimit:4.4"
       d="m 448.91148,375.25235 c -7.54331,-37.54402 -21.41789,-77.46226 -37.648,-118.26383 0,0 12.20676,11.60707 13.50417,12.68574 6.0128,4.99902 42.03621,117.05011 39.28487,115.39931 z"
       id="path76"
       sodipodi:nodetypes="ccscc" />
    <path
       style="fill:#00ffff;fill-rule:evenodd;stroke:#000000;stroke-width:3.2;stroke-linecap:round;stroke-miterlimit:4.4"
       d="m 298.31948,504.97426 -6.9567,-119.90069 35.60192,121.94678 z"
       id="path77" />
    <path
       style="fill:#00ffff;fill-rule:evenodd;stroke:#000000;stroke-width:3.2;stroke-linecap:round;stroke-miterlimit:4.4"
       d="M 326.14626,505.7927 290.54435,386.71044 v -33.14661 c 0,0 27.82678,2.86452 25.7807,2.86452 -2.04609,0 42.5586,149.77357 42.5586,149.77357 z"
       id="path78" />
    <path
       style="fill:#00ffff;fill-rule:evenodd;stroke:#000000;stroke-width:3.2;stroke-linecap:round;stroke-miterlimit:4.4"
       d="m 357.24678,505.7927 -41.74017,-151.00122 29.46365,2.04609 41.33096,148.95513 z"
       id="path79" />
    <path
       style="fill:#00ffff;fill-rule:evenodd;stroke:#000000;stroke-width:3.2;stroke-linecap:round;stroke-miterlimit:4.4"
       d="m 386.71044,505.7927 -42.55861,-151.00122 27.00835,2.4553 42.5586,146.90905 z"
       id="path80" />
    <path
       style="fill:#00ffff;fill-rule:evenodd;stroke:#000000;stroke-width:3.2;stroke-linecap:round;stroke-miterlimit:4.4"
       d="m 414.53722,503.33739 -45.42313,-148.54591 27.00835,5.31983 40.1033,142.81687 z"
       id="path81" />
    <path
       style="fill:#00ffff;fill-rule:evenodd;stroke:#000000;stroke-width:3.2;stroke-linecap:round;stroke-miterlimit:4.4"
       d="m 435.40731,503.33739 -41.33096,-144.45374 23.73461,5.72905 36.01113,137.49704 z"
       id="path82" />
    <path
       style="fill:#00ffff;fill-rule:evenodd;stroke:#000000;stroke-width:3.2;stroke-linecap:round;stroke-miterlimit:4.4"
       d="m 453.41287,502.10974 -36.42035,-139.13391 18.41479,6.54748 c 19.72239,45.51503 27.43786,88.25923 33.14661,130.54034 z"
       id="path83"
       sodipodi:nodetypes="ccccc" />
    <path
       style="fill:#00ffff;fill-rule:evenodd;stroke:#000000;stroke-width:3.2;stroke-linecap:round;stroke-miterlimit:4.4"
       d="m 469.37235,500.06365 c -8.14032,-43.92267 -19.01857,-87.84533 -34.78348,-131.768 l 17.59635,8.18435 c 14.02407,40.63312 20.87878,82.29043 27.41757,123.99287 z"
       id="path84"
       sodipodi:nodetypes="ccccc" />
    <path
       style="fill:#00ffff;fill-rule:evenodd;stroke:#000000;stroke-width:3.2;stroke-linecap:round;stroke-miterlimit:4.4"
       d="M 479.60279,499.65444 C 475.5595,459.80206 466.84337,418.78148 449.72991,375.66156 l 15.14105,8.59357 c 15.16972,44.35482 18.61963,79.82486 23.32539,115.80852 z"
       id="path85"
       sodipodi:nodetypes="ccccc" />
    <path
       style="fill:#00ffff;fill-rule:evenodd;stroke:#000000;stroke-width:3.2;stroke-linecap:round;stroke-miterlimit:4.4"
       d="M 302.00244,644.51739 299.95635,527.48122 338.832,644.92661 Z"
       id="path86" />
    <path
       style="fill:#00ffff;fill-rule:evenodd;stroke:#000000;stroke-width:3.2;stroke-linecap:round;stroke-miterlimit:4.4"
       d="m 338.42278,644.51739 -38.46643,-115.80852 -2.04609,-22.91617 30.28209,0.40922 45.42313,137.08782 z"
       id="path87" />
    <path
       style="fill:#00ffff;fill-rule:evenodd;stroke:#000000;stroke-width:3.2;stroke-linecap:round;stroke-miterlimit:4.4"
       d="m 374.43391,642.47131 -47.87843,-138.31548 31.91896,2.4553 42.14939,135.04174 z"
       id="path88" />
    <path
       style="fill:#00ffff;fill-rule:evenodd;stroke:#000000;stroke-width:3.2;stroke-linecap:round;stroke-miterlimit:4.4"
       d="M 399.80539,641.65287 357.656,506.61113 l 31.10052,-0.81843 34.37426,132.58643 z"
       id="path89" />
    <path
       style="fill:#00ffff;fill-rule:evenodd;stroke:#000000;stroke-width:3.2;stroke-linecap:round;stroke-miterlimit:4.4"
       d="m 421.0847,637.5607 -30.28209,-131.768 23.73461,-2.04609 27.41756,131.35878 z"
       id="path90" />
    <path
       style="fill:#00ffff;fill-rule:evenodd;stroke:#000000;stroke-width:3.2;stroke-linecap:round;stroke-miterlimit:4.4"
       d="M 440.72713,635.92383 414.128,502.10974 c 0,0 24.96226,2.04609 23.32539,2.04609 -1.63687,0 22.50696,128.49426 22.50696,128.49426 z"
       id="path91" />
    <path
       style="fill:#00ffff;fill-rule:evenodd;stroke:#000000;stroke-width:3.2;stroke-linecap:round;stroke-miterlimit:4.4"
       d="m 460.36957,631.42244 -24.55305,-129.3127 18.41479,0.40922 18.41478,126.85739 z"
       id="path92" />
    <path
       style="fill:#00ffff;fill-rule:evenodd;stroke:#000000;stroke-width:3.2;stroke-linecap:round;stroke-miterlimit:4.4"
       d="m 472.64609,627.73948 -19.64244,-127.26661 15.55027,1.22765 16.36869,121.53757 z"
       id="path93" />
    <path
       style="fill:#00ffff;fill-rule:evenodd;stroke:#000000;stroke-width:3.2;stroke-linecap:round;stroke-miterlimit:4.4"
       d="m 484.10418,622.82887 -15.55026,-122.76522 11.45808,1.22766 13.09496,117.03617 z"
       id="path94" />
    <path
       style="fill:#00ffff;fill-rule:evenodd;stroke:#000000;stroke-width:3.2;stroke-linecap:round;stroke-miterlimit:4.4"
       d="M 493.10696,617.91826 478.78435,499.24522 h 9.412 c 9.61092,49.68908 8.10516,77.7147 11.8673,115.3993 z"
       id="path95"
       sodipodi:nodetypes="ccccc" />
    <path
       style="fill:#00ffff;fill-rule:evenodd;stroke:#000000;stroke-width:3.2;stroke-linecap:round;stroke-miterlimit:4.4"
       d="m 495.56227,856.08279 c -40.72873,43.86744 -126.94032,25.82841 -190.28609,22.50695 l -0.40922,-22.50695 c 127.65444,28.63863 148.02312,10.74338 190.69531,0 z"
       id="path96"
       sodipodi:nodetypes="cccc" />
    <path
       style="fill:#00ffff;fill-rule:evenodd;stroke:#000000;stroke-width:3.2;stroke-linecap:round;stroke-miterlimit:4.4"
       d="m 496.78992,854.85513 c -52.09484,18.57068 -111.85068,24.88374 -191.10453,0 l -2.4553,-25.37147 c 71.79221,30.27395 133.64087,30.71726 193.55983,25.37147 z"
       id="path97"
       sodipodi:nodetypes="cccc" />
    <path
       style="fill:#00ffff;fill-rule:evenodd;stroke:#000000;stroke-width:3.2;stroke-linecap:round;stroke-miterlimit:4.4"
       d="m 497.19913,854.0367 c -66.43243,8.07179 -131.47889,4.3629 -193.55982,-24.55304 l 0.40921,-27.82679 c 60.5282,29.02594 123.91648,49.47166 193.15061,52.37983 z"
       id="path98"
       sodipodi:nodetypes="cccc" />
    <path
       style="fill:#00ffff;fill-rule:evenodd;stroke:#000000;stroke-width:3.2;stroke-linecap:round;stroke-miterlimit:4.4"
       d="m 497.19913,853.21827 c -50.45797,-0.10962 -108.2088,-8.83807 -194.37826,-51.15218 l 1.22765,-34.37426 c 67.43286,37.14857 132.25898,66.91137 193.15061,85.52644 z"
       id="path99"
       sodipodi:nodetypes="cccc" />
    <path
       style="fill:#00ffff;fill-rule:evenodd;stroke:#000000;stroke-width:3.2;stroke-linecap:round;stroke-miterlimit:4.4"
       d="M 496.3807,852.80905 C 435.45635,833.96308 371.88105,808.93155 301.184,767.28261 l -0.81843,-40.51252 z"
       id="path100"
       sodipodi:nodetypes="cccc" />
    <path
       style="fill:#00ffff;fill-rule:evenodd;stroke:#000000;stroke-width:3.2;stroke-linecap:round;stroke-miterlimit:4.4"
       d="m 497.19913,854.0367 c 0,0 -192.33217,-125.22052 -193.96904,-126.85739 -1.63687,-1.63687 -1.22765,-38.05722 -1.22765,-38.05722 z"
       id="path101" />
    <path
       style="fill:#00ffff;fill-rule:evenodd;stroke:#000000;stroke-width:3.2;stroke-linecap:round;stroke-miterlimit:4.4"
       d="M 496.3807,853.21827 302.00244,689.12209 301.59322,654.74783 Z"
       id="path102" />
    <path
       style="fill:#00ffff;fill-rule:evenodd;stroke:#000000;stroke-width:3.2;stroke-linecap:round;stroke-miterlimit:4.4"
       d="M 496.78992,851.17218 302.41165,655.15705 v -12.27653 l 36.82957,0.81844 z"
       id="path103" />
    <path
       style="fill:#00ffff;fill-rule:evenodd;stroke:#000000;stroke-width:3.2;stroke-linecap:round;stroke-miterlimit:4.4"
       d="m 496.3807,849.53531 -158.36713,-207.064 37.648,1.63687 z"
       id="path104" />
    <path
       style="fill:#00ffff;fill-rule:evenodd;stroke:#000000;stroke-width:3.2;stroke-linecap:round;stroke-miterlimit:4.4"
       d="M 495.56226,847.08 374.0247,642.06209 c 0,0 28.64522,-3.68296 27.00835,-2.4553 -1.63687,1.22765 95.75687,210.33774 95.75687,210.33774 z"
       id="path105" />
    <path
       style="fill:#00ffff;fill-rule:evenodd;stroke:#000000;stroke-width:3.2;stroke-linecap:round;stroke-miterlimit:4.4"
       d="M 495.56226,847.48922 401.85148,640.83444 422.72157,637.5607 Z"
       id="path106" />
    <path
       style="fill:#00ffff;fill-rule:evenodd;stroke:#000000;stroke-width:3.2;stroke-linecap:round;stroke-miterlimit:4.4"
       d="m 497.19913,846.26157 -74.47756,-209.92852 18.824,0.40921 z"
       id="path107" />
    <path
       style="fill:#00ffff;fill-rule:evenodd;stroke:#000000;stroke-width:3.2;stroke-linecap:round;stroke-miterlimit:4.4"
       d="m 498.01757,848.30766 -56.472,-214.0207 20.05165,-1.63687 z"
       id="path108" />
    <path
       style="fill:#00ffff;fill-rule:evenodd;stroke:#000000;stroke-width:3.2;stroke-linecap:round;stroke-miterlimit:4.4"
       d="m 497.19913,837.668 -37.648,-207.47321 14.73183,-1.22766 z"
       id="path109" />
    <path
       style="fill:#00ffff;fill-rule:evenodd;stroke:#000000;stroke-width:3.2;stroke-linecap:round;stroke-miterlimit:4.4"
       d="m 498.01757,839.30487 0.40922,-6.13826 -25.37148,-205.83635 11.8673,-4.50139 z"
       id="path110" />
    <path
       style="fill:#00ffff;fill-rule:evenodd;stroke:#000000;stroke-width:3.2;stroke-linecap:round;stroke-miterlimit:4.4"
       d="m 497.19913,828.66522 -13.09495,-206.24556 8.18434,-3.68296 c 9.51489,72.60218 4.15219,140.24516 4.91061,209.92852 z"
       id="path111"
       sodipodi:nodetypes="cccc" />
    <path
       style="fill:#00ffff;fill-rule:evenodd;stroke:#000000;stroke-width:3.2;stroke-linecap:round;stroke-miterlimit:4.4"
       d="m 498.836,823.3454 c -1.63687,-5.72905 -5.72904,-205.83635 -5.72904,-205.83635 l 7.77513,-2.86453 c 2.03137,77.70715 0.22305,143.89524 -2.04609,208.70088 z"
       id="path112"
       sodipodi:nodetypes="cccc" />
    <path
       style="fill:#00ffff;fill-rule:evenodd;stroke:#000000;stroke-width:3.2;stroke-linecap:round;stroke-miterlimit:4.4"
       d="M 410.03583,256.17009 C 362.17562,162.61008 284.14118,74.450156 219.06673,13.598478 302.55854,78.002892 381.49652,173.63673 423.54,266.40052 Z"
       id="path113"
       sodipodi:nodetypes="cccc" />
  </g>
</svg>
