<?xml version="1.0" encoding="UTF-8" standalone="no"?>
<!-- Created with Inkscape (http://www.inkscape.org/) -->

<svg
   version="1.1"
   id="svg1"
   width="587"
   height="941"
   viewBox="0 0 587 941"
   sodipodi:docname="AR-17 243m2.svg"
   inkscape:version="1.3 (0e150ed6c4, 2023-07-21)"
   xmlns:inkscape="http://www.inkscape.org/namespaces/inkscape"
   xmlns:sodipodi="http://sodipodi.sourceforge.net/DTD/sodipodi-0.dtd"
   xmlns="http://www.w3.org/2000/svg"
   xmlns:svg="http://www.w3.org/2000/svg">
  <defs
     id="defs1" />
  <sodipodi:namedview
     id="namedview1"
     pagecolor="#ffffff"
     bordercolor="#000000"
     borderopacity="0.25"
     inkscape:showpageshadow="2"
     inkscape:pageopacity="0.0"
     inkscape:pagecheckerboard="0"
     inkscape:deskcolor="#d1d1d1"
     showgrid="false"
     inkscape:zoom="1.2218444"
     inkscape:cx="196.42435"
     inkscape:cy="166.55148"
     inkscape:window-width="1920"
     inkscape:window-height="1009"
     inkscape:window-x="-8"
     inkscape:window-y="-8"
     inkscape:window-maximized="1"
     inkscape:current-layer="g1" />
  <g
     inkscape:groupmode="layer"
     inkscape:label="Image"
     id="g1">
    <path
       style="fill:#00ffff;fill-rule:evenodd;stroke:#000000;stroke-width:3.2;stroke-linecap:round;stroke-miterlimit:4.4"
       d="M 62.501845,764.49016 C 52.470603,714.528 41.502641,672.99632 35.880689,583.35055 l 14.46802,5.20849 c -4.864823,45.68478 7.571225,116.89204 12.153136,175.93112 z"
       id="path1"
       sodipodi:nodetypes="cccc" />
    <path
       style="fill:#00ffff;fill-rule:evenodd;stroke:#000000;stroke-width:3.2;stroke-linecap:round;stroke-miterlimit:4.4"
       d="M 62.501845,766.22632 C 56.81337,706.74871 45.957852,646.96716 48.612546,587.98032 l 12.731857,4.62977 z"
       id="path2"
       sodipodi:nodetypes="cccc" />
    <path
       style="fill:#00ffff;fill-rule:evenodd;stroke:#000000;stroke-width:3.2;stroke-linecap:round;stroke-miterlimit:4.4"
       d="m 62.501845,766.80504 -1.157442,-174.19495 15.046741,5.20848 z"
       id="path3" />
    <path
       style="fill:#00ffff;fill-rule:evenodd;stroke:#000000;stroke-width:3.2;stroke-linecap:round;stroke-miterlimit:4.4"
       d="m 63.080566,765.06888 12.153136,-166.67159 16.782903,6.36593 z"
       id="path4" />
    <path
       style="fill:#00ffff;fill-rule:evenodd;stroke:#000000;stroke-width:3.2;stroke-linecap:round;stroke-miterlimit:4.4"
       d="m 63.659287,764.49016 29.51476,-160.30566 15.046743,6.36593 z"
       id="path5" />
    <path
       style="fill:#00ffff;fill-rule:evenodd;stroke:#000000;stroke-width:3.2;stroke-linecap:round;stroke-miterlimit:4.4"
       d="m 63.080566,763.91144 46.876384,-154.51845 16.7829,6.94465 z"
       id="path6" />
    <path
       style="fill:#00ffff;fill-rule:evenodd;stroke:#000000;stroke-width:3.2;stroke-linecap:round;stroke-miterlimit:4.4"
       d="M 63.080566,765.06888 125.58241,615.75892 c 0,0 23.14883,2.8936 20.83395,3.47232 -2.31488,0.57872 -83.335794,145.83764 -83.335794,145.83764 z"
       id="path7" />
    <path
       style="fill:#00ffff;fill-rule:evenodd;stroke:#000000;stroke-width:3.2;stroke-linecap:round;stroke-miterlimit:4.4"
       d="m 64.816728,767.38376 82.178352,-148.73124 21.41267,5.78721 z"
       id="path8" />
    <path
       style="fill:#00ffff;fill-rule:evenodd;stroke:#000000;stroke-width:3.2;stroke-linecap:round;stroke-miterlimit:4.4"
       d="M 67.131611,765.6476 C 67.710332,763.33272 170.14391,624.43973 170.14391,624.43973 l 27.19988,5.20849 z"
       id="path9" />
    <path
       style="fill:#00ffff;fill-rule:evenodd;stroke:#000000;stroke-width:3.2;stroke-linecap:round;stroke-miterlimit:4.4"
       d="m 67.131611,766.22632 128.476019,-136.5781 32.98708,4.62976 z"
       id="path10" />
    <path
       style="fill:#00ffff;fill-rule:evenodd;stroke:#000000;stroke-width:3.2;stroke-linecap:round;stroke-miterlimit:4.4"
       d="M 67.131611,767.96249 229.75215,632.54182 267.369,638.32903 Z"
       id="path11" />
    <path
       style="fill:#00ffff;fill-rule:evenodd;stroke:#000000;stroke-width:3.2;stroke-linecap:round;stroke-miterlimit:4.4"
       d="M 68.867774,768.54121 267.369,637.17159 l 44.5615,4.05104 -2.31488,12.15314 z"
       id="path12" />
    <path
       style="fill:#00ffff;fill-rule:evenodd;stroke:#000000;stroke-width:3.2;stroke-linecap:round;stroke-miterlimit:4.4"
       d="M 70.025215,769.69865 310.77306,652.21833 311.35178,687.5203 Z"
       id="path13" />
    <path
       style="fill:#00ffff;fill-rule:evenodd;stroke:#000000;stroke-width:3.2;stroke-linecap:round;stroke-miterlimit:4.4"
       d="M 72.918819,770.85609 309.61562,688.09902 v 40.51045 c -79.8939,29.00666 -158.31246,35.8833 -236.696801,42.24662 z"
       id="path14"
       sodipodi:nodetypes="cccc" />
    <path
       style="fill:#00ffff;fill-rule:evenodd;stroke:#000000;stroke-width:3.2;stroke-linecap:round;stroke-miterlimit:4.4"
       d="M 71.761378,771.43481 C 153.79251,764.65668 235.17384,756.05908 309.61562,728.03075 l -0.57872,37.03813 c -84.59584,23.22065 -161.86073,18.33931 -237.275522,6.36593 z"
       id="path15"
       sodipodi:nodetypes="cccc" />
    <path
       style="fill:#00ffff;fill-rule:evenodd;stroke:#000000;stroke-width:3.2;stroke-linecap:round;stroke-miterlimit:4.4"
       d="m 75.812423,773.17097 c 86.117407,12.42559 161.471077,5.71565 233.803197,-6.36593 v 31.25093 c -71.1557,3.32563 -141.62816,7.82252 -233.803197,-24.885 z"
       id="path16"
       sodipodi:nodetypes="cccc" />
    <path
       style="fill:#00ffff;fill-rule:evenodd;stroke:#000000;stroke-width:3.2;stroke-linecap:round;stroke-miterlimit:4.4"
       d="m 76.969865,774.90713 c -26.915004,7.14653 187.830975,35.57659 231.488315,24.885 l 0.57872,28.35732 c -86.67056,-0.0492 -160.669,-24.17536 -232.067035,-53.24232 z"
       id="path17"
       sodipodi:nodetypes="cccc" />
    <path
       style="fill:#00ffff;fill-rule:evenodd;stroke:#000000;stroke-width:3.2;stroke-linecap:round;stroke-miterlimit:4.4"
       d="m 75.812423,776.06458 c 83.423487,32.24804 161.181917,49.9288 233.803197,54.39975 l -1.15744,22.57011 C 226.19618,842.19139 147.307,820.74808 75.812423,776.06458 Z"
       id="path18"
       sodipodi:nodetypes="cccc" />
    <path
       style="fill:#00ffff;fill-rule:evenodd;stroke:#000000;stroke-width:3.2;stroke-linecap:round;stroke-miterlimit:4.4"
       d="m 74.654982,777.22202 c 71.370638,36.4673 147.626918,65.11755 234.381918,76.96986 l -0.57872,19.09779 C 210.89601,859.25925 135.20738,825.17807 74.654982,777.22202 Z"
       id="path19"
       sodipodi:nodetypes="cccc" />
    <path
       style="fill:#00ffff;fill-rule:evenodd;stroke:#000000;stroke-width:3.2;stroke-linecap:round;stroke-miterlimit:4.4"
       d="m 34.723247,580.45695 c -2.414671,-33.1301 -3.69989,-66.82492 0,-103.0123 l 17.361624,4.05105 -3.472325,105.9059 z"
       id="path20"
       sodipodi:nodetypes="ccccc" />
    <path
       style="fill:#00ffff;fill-rule:evenodd;stroke:#000000;stroke-width:3.2;stroke-linecap:round;stroke-miterlimit:4.4"
       d="M 48.612546,587.4016 51.50615,480.91697 c 0,0 23.148832,3.47233 20.833948,3.47233 -2.314883,0 -10.995695,108.22079 -10.995695,108.22079 z"
       id="path21" />
    <path
       style="fill:#00ffff;fill-rule:evenodd;stroke:#000000;stroke-width:3.2;stroke-linecap:round;stroke-miterlimit:4.4"
       d="M 59.608241,593.18881 70.603936,484.3893 93.752768,488.44034 75.812423,597.23985 Z"
       id="path22" />
    <path
       style="fill:#00ffff;fill-rule:evenodd;stroke:#000000;stroke-width:3.2;stroke-linecap:round;stroke-miterlimit:4.4"
       d="M 76.969865,597.23985 92.595326,486.70418 115.16544,490.17651 91.437884,603.02706 Z"
       id="path23" />
    <path
       style="fill:#00ffff;fill-rule:evenodd;stroke:#000000;stroke-width:3.2;stroke-linecap:round;stroke-miterlimit:4.4"
       d="M 92.016605,603.02706 114.008,491.33395 l 27.19987,2.8936 -32.98708,115.16544 z"
       id="path24" />
    <path
       style="fill:#00ffff;fill-rule:evenodd;stroke:#000000;stroke-width:3.2;stroke-linecap:round;stroke-miterlimit:4.4"
       d="m 108.79951,607.65683 30.6722,-113.42928 25.46371,1.73616 -38.77429,118.05905 z"
       id="path25" />
    <path
       style="fill:#00ffff;fill-rule:evenodd;stroke:#000000;stroke-width:3.2;stroke-linecap:round;stroke-miterlimit:4.4"
       d="m 125.58241,614.02276 41.08918,-118.05905 c 0,0 28.35732,1.73617 26.04243,1.73617 -2.31488,0 -48.61254,121.53136 -48.61254,121.53136 z"
       id="path26" />
    <path
       style="fill:#00ffff;fill-rule:evenodd;stroke:#000000;stroke-width:3.2;stroke-linecap:round;stroke-miterlimit:4.4"
       d="m 144.10148,617.49508 47.4551,-118.63776 29.51476,1.15744 -52.08487,124.42497 z"
       id="path27" />
    <path
       style="fill:#00ffff;fill-rule:evenodd;stroke:#000000;stroke-width:3.2;stroke-linecap:round;stroke-miterlimit:4.4"
       d="m 169.56519,623.86101 51.50615,-124.42497 30.09348,1.73616 -54.97847,127.8973 z"
       id="path28" />
    <path
       style="fill:#00ffff;fill-rule:evenodd;stroke:#000000;stroke-width:3.2;stroke-linecap:round;stroke-miterlimit:4.4"
       d="m 193.87146,629.0695 57.87208,-127.8973 28.93604,0.57872 -50.34871,131.94834 z"
       id="path29" />
    <path
       style="fill:#00ffff;fill-rule:evenodd;stroke:#000000;stroke-width:3.2;stroke-linecap:round;stroke-miterlimit:4.4"
       d="m 280.67958,501.75092 c 0,0 31.25092,0 28.93604,0.57872 -2.31488,0.57872 0,20.25523 0,20.25523 l -42.82534,115.16544 -36.45941,-5.78721 z"
       id="path30" />
    <path
       style="fill:#00ffff;fill-rule:evenodd;stroke:#000000;stroke-width:3.2;stroke-linecap:round;stroke-miterlimit:4.4"
       d="m 309.61562,640.64391 -42.82534,-2.8936 43.40406,-114.008 z"
       id="path31" />
    <path
       style="fill:#00ffff;fill-rule:evenodd;stroke:#000000;stroke-width:3.2;stroke-linecap:round;stroke-miterlimit:4.4"
       d="m 307.30074,641.22263 4.62976,-116.32288 36.45941,118.05904 z"
       id="path32" />
    <path
       style="fill:#00ffff;fill-rule:evenodd;stroke:#000000;stroke-width:3.2;stroke-linecap:round;stroke-miterlimit:4.4"
       d="M 348.96863,641.22263 309.61562,524.32103 V 501.1722 l 27.19988,1.73616 47.4551,141.7866 z"
       id="path33" />
    <path
       style="fill:#00ffff;fill-rule:evenodd;stroke:#000000;stroke-width:3.2;stroke-linecap:round;stroke-miterlimit:4.4"
       d="M 385.42804,642.95879 336.8155,504.06581 h 32.98708 l 39.93174,138.31426 z"
       id="path34" />
    <path
       style="fill:#00ffff;fill-rule:evenodd;stroke:#000000;stroke-width:3.2;stroke-linecap:round;stroke-miterlimit:4.4"
       d="m 34.144526,476.28721 c -0.420426,-2.64794 4.172356,-111.65267 7.52337,-110.53567 l 19.676507,-0.57872 c -11.902859,46.5936 -10.397887,79.21657 -10.416974,114.00799 z"
       id="path35"
       sodipodi:nodetypes="ccccc" />
    <path
       style="fill:#00ffff;fill-rule:evenodd;stroke:#000000;stroke-width:3.2;stroke-linecap:round;stroke-miterlimit:4.4"
       d="M 49.769988,479.18081 C 49.396216,437.52255 52.844472,398.9219 60.186962,363.43665 l 23.727552,1.15745 C 71.73733,439.8526 71.401974,470.10035 70.025215,484.3893 Z"
       id="path36"
       sodipodi:nodetypes="ccccc" />
    <path
       style="fill:#00ffff;fill-rule:evenodd;stroke:#000000;stroke-width:3.2;stroke-linecap:round;stroke-miterlimit:4.4"
       d="M 67.710332,481.4957 C 69.625394,446.39874 76.48678,401.29619 82.757073,362.27921 L 108.22079,361.70049 92.016605,487.86162 Z"
       id="path37"
       sodipodi:nodetypes="ccccc" />
    <path
       style="fill:#00ffff;fill-rule:evenodd;stroke:#000000;stroke-width:3.2;stroke-linecap:round;stroke-miterlimit:4.4"
       d="m 94.331488,486.12546 14.468022,-124.42497 23.14883,-3.47232 -16.7829,131.36962 z"
       id="path38" />
    <path
       style="fill:#00ffff;fill-rule:evenodd;stroke:#000000;stroke-width:3.2;stroke-linecap:round;stroke-miterlimit:4.4"
       d="m 115.74416,490.75523 16.7829,-132.52706 28.93604,-1.15744 -22.57011,135.99938 z"
       id="path39" />
    <path
       style="fill:#00ffff;fill-rule:evenodd;stroke:#000000;stroke-width:3.2;stroke-linecap:round;stroke-miterlimit:4.4"
       d="m 139.47171,493.07011 20.25523,-135.99938 32.40836,-1.73617 -26.62115,139.47171 z"
       id="path40" />
    <path
       style="fill:#00ffff;fill-rule:evenodd;stroke:#000000;stroke-width:3.2;stroke-linecap:round;stroke-miterlimit:4.4"
       d="m 166.67159,494.22755 26.62115,-139.47171 30.09348,-0.57872 -31.82964,143.52276 z"
       id="path41" />
    <path
       style="fill:#00ffff;fill-rule:evenodd;stroke:#000000;stroke-width:3.2;stroke-linecap:round;stroke-miterlimit:4.4"
       d="m 192.1353,497.69988 31.25092,-144.6802 26.62116,1.15744 -29.51476,144.10148 z"
       id="path42" />
    <path
       style="fill:#00ffff;fill-rule:evenodd;stroke:#000000;stroke-width:3.2;stroke-linecap:round;stroke-miterlimit:4.4"
       d="m 221.65006,498.2786 28.35732,-145.83764 27.7786,1.15744 -27.7786,148.15252 z"
       id="path43" />
    <path
       style="fill:#00ffff;fill-rule:evenodd;stroke:#000000;stroke-width:3.2;stroke-linecap:round;stroke-miterlimit:4.4"
       d="m 250.00738,500.59348 27.19988,-148.73124 24.88499,1.73616 0.57872,28.93604 -21.99139,119.7952 z"
       id="path44" />
    <path
       style="fill:#00ffff;fill-rule:evenodd;stroke:#000000;stroke-width:3.2;stroke-linecap:round;stroke-miterlimit:4.4"
       d="m 280.10086,502.90836 23.14883,-120.95264 6.94465,120.37392 z"
       id="path45" />
    <path
       style="fill:#00ffff;fill-rule:evenodd;stroke:#000000;stroke-width:3.2;stroke-linecap:round;stroke-miterlimit:4.4"
       d="m 310.19434,500.59348 -6.94465,-119.7952 34.72325,122.11008 z"
       id="path46" />
    <path
       style="fill:#00ffff;fill-rule:evenodd;stroke:#000000;stroke-width:3.2;stroke-linecap:round;stroke-miterlimit:4.4"
       d="m 338.55166,503.48709 -35.30197,-121.53137 -1.73616,-29.51476 24.30627,1.15744 43.40406,149.88869 z"
       id="path47" />
    <path
       style="fill:#00ffff;fill-rule:evenodd;stroke:#000000;stroke-width:3.2;stroke-linecap:round;stroke-miterlimit:4.4"
       d="m 41.667897,365.17282 c 6.536447,-36.46687 9.743021,-74.04371 24.884994,-107.64207 l 19.097786,-5.20849 C 71.281128,289.5533 65.470312,326.78434 60.186962,364.01538 Z"
       id="path48"
       sodipodi:nodetypes="ccccc" />
    <path
       style="fill:#00ffff;fill-rule:evenodd;stroke:#000000;stroke-width:3.2;stroke-linecap:round;stroke-miterlimit:4.4"
       d="M 60.186962,362.85793 C 65.016095,325.43399 71.983565,288.01004 84.493235,250.5861 l 22.570115,-5.78721 c -7.678231,45.8747 -20.042949,82.12828 -24.306277,117.48032 z"
       id="path49"
       sodipodi:nodetypes="ccccc" />
    <path
       style="fill:#00ffff;fill-rule:evenodd;stroke:#000000;stroke-width:3.2;stroke-linecap:round;stroke-miterlimit:4.4"
       d="m 82.178352,361.70049 c 4.316089,-35.7583 9.589974,-72.05601 26.042438,-116.9016 l 23.14883,-6.94465 -24.30627,122.68881 z"
       id="path50"
       sodipodi:nodetypes="ccccc" />
    <path
       style="fill:#00ffff;fill-rule:evenodd;stroke:#000000;stroke-width:3.2;stroke-linecap:round;stroke-miterlimit:4.4"
       d="M 107.06335,360.54305 130.7909,239.01169 155.09717,233.8032 132.52706,359.38561 Z"
       id="path51" />
    <path
       style="fill:#00ffff;fill-rule:evenodd;stroke:#000000;stroke-width:3.2;stroke-linecap:round;stroke-miterlimit:4.4"
       d="m 132.52706,357.64945 22.57011,-123.84625 27.19988,-4.62977 -22.57011,127.31858 z"
       id="path52" />
    <path
       style="fill:#00ffff;fill-rule:evenodd;stroke:#000000;stroke-width:3.2;stroke-linecap:round;stroke-miterlimit:4.4"
       d="m 159.72694,356.49201 21.99139,-128.47602 29.51476,-2.8936 -20.25523,129.63345 z"
       id="path53" />
    <path
       style="fill:#00ffff;fill-rule:evenodd;stroke:#000000;stroke-width:3.2;stroke-linecap:round;stroke-miterlimit:4.4"
       d="m 191.55658,355.91328 18.51907,-130.21217 27.77859,-2.31489 -15.62546,129.63346 z"
       id="path54" />
    <path
       style="fill:#00ffff;fill-rule:evenodd;stroke:#000000;stroke-width:3.2;stroke-linecap:round;stroke-miterlimit:4.4"
       d="m 223.38622,354.17712 13.8893,-131.36962 h 26.62116 L 250.5861,353.01968 Z"
       id="path55" />
    <path
       style="fill:#00ffff;fill-rule:evenodd;stroke:#000000;stroke-width:3.2;stroke-linecap:round;stroke-miterlimit:4.4"
       d="m 251.16482,353.01968 12.15314,-131.94834 26.04243,1.73616 1.15745,15.04674 -11.57442,115.74416 z"
       id="path56" />
    <path
       style="fill:#00ffff;fill-rule:evenodd;stroke:#000000;stroke-width:3.2;stroke-linecap:round;stroke-miterlimit:4.4"
       d="m 278.3647,352.44096 12.73186,-118.05904 10.41697,118.63776 z"
       id="path57" />
    <path
       style="fill:#00ffff;fill-rule:evenodd;stroke:#000000;stroke-width:3.2;stroke-linecap:round;stroke-miterlimit:4.4"
       d="m 300.93481,352.44096 -10.41697,-120.95264 36.4594,121.53136 z"
       id="path58" />
    <path
       style="fill:#00ffff;fill-rule:evenodd;stroke:#000000;stroke-width:3.2;stroke-linecap:round;stroke-miterlimit:4.4"
       d="M 65.395449,256.37331 C 96.599556,151.34683 146.87139,64.730569 222.8075,2.8936039 169.38621,65.947003 119.5586,138.58356 84.493235,250.5861 Z"
       id="path59"
       sodipodi:nodetypes="cccc" />
    <path
       style="fill:#00ffff;fill-rule:evenodd;stroke:#000000;stroke-width:3.2;stroke-linecap:round;stroke-miterlimit:4.4"
       d="M 85.071956,250.5861 C 118.92917,145.28071 165.41594,62.8664 223.96494,2.3148832 177.11125,71.561653 132.29903,143.66648 108.22079,244.79889 Z"
       id="path60"
       sodipodi:nodetypes="cccc" />
    <path
       style="fill:#00ffff;fill-rule:evenodd;stroke:#000000;stroke-width:3.2;stroke-linecap:round;stroke-miterlimit:4.4"
       d="M 109.37823,244.22017 C 133.42442,154.30512 168.17558,72.036466 224.54367,5.2084871 186.10122,71.829602 151.99439,144.59284 131.94834,237.27552 Z"
       id="path61"
       sodipodi:nodetypes="cccc" />
    <path
       style="fill:#00ffff;fill-rule:evenodd;stroke:#000000;stroke-width:3.2;stroke-linecap:round;stroke-miterlimit:4.4"
       d="M 130.7909,236.6968 C 153.51033,155.05396 177.8089,74.154253 226.27983,4.6297663 193.4366,74.834213 170.98464,151.65129 155.09717,232.64576 Z"
       id="path62"
       sodipodi:nodetypes="cccc" />
    <path
       style="fill:#00ffff;fill-rule:evenodd;stroke:#000000;stroke-width:3.2;stroke-linecap:round;stroke-miterlimit:4.4"
       d="M 155.09717,232.64576 C 173.32002,154.41888 190.96712,75.930299 225.70111,5.2084871 L 182.29705,229.17343 Z"
       id="path63"
       sodipodi:nodetypes="cccc" />
    <path
       style="fill:#00ffff;fill-rule:evenodd;stroke:#000000;stroke-width:3.2;stroke-linecap:round;stroke-miterlimit:4.4"
       d="M 181.13961,226.85855 226.27983,2.8936039 210.07565,224.54367 Z"
       id="path64" />
    <path
       style="fill:#00ffff;fill-rule:evenodd;stroke:#000000;stroke-width:3.2;stroke-linecap:round;stroke-miterlimit:4.4"
       d="M 210.07565,224.54367 225.70111,6.3659287 238.43296,223.96494 Z"
       id="path65" />
    <path
       style="fill:#00ffff;fill-rule:evenodd;stroke:#000000;stroke-width:3.2;stroke-linecap:round;stroke-miterlimit:4.4"
       d="M 236.11808,222.8075 225.12239,4.0510455 263.89668,220.49262 Z"
       id="path66" />
    <path
       style="fill:#00ffff;fill-rule:evenodd;stroke:#000000;stroke-width:3.2;stroke-linecap:round;stroke-miterlimit:4.4"
       d="M 262.16052,219.9139 226.85855,6.3659287 289.93911,221.65006 Z"
       id="path67" />
    <path
       style="fill:#00ffff;fill-rule:evenodd;stroke:#000000;stroke-width:3.2;stroke-linecap:round;stroke-miterlimit:4.4"
       d="M 289.93911,221.07134 226.85855,5.2084871 315.40283,222.8075 Z"
       id="path68" />
    <path
       style="fill:#00ffff;fill-rule:evenodd;stroke:#000000;stroke-width:3.2;stroke-linecap:round;stroke-miterlimit:4.4"
       d="M 314.82411,222.22878 229.75215,7.5233702 339.13038,225.12239 Z"
       id="path69" />
    <path
       style="fill:#00ffff;fill-rule:evenodd;stroke:#000000;stroke-width:3.2;stroke-linecap:round;stroke-miterlimit:4.4"
       d="M 337.39422,225.12239 234.38192,10.416974 362.27921,228.01599 Z"
       id="path70" />
    <path
       style="fill:#00ffff;fill-rule:evenodd;stroke:#000000;stroke-width:3.2;stroke-linecap:round;stroke-miterlimit:4.4"
       d="M 362.27921,228.01599 239.01169,15.625461 383.69188,233.8032 Z"
       id="path71" />
    <path
       style="fill:#00ffff;fill-rule:evenodd;stroke:#000000;stroke-width:3.2;stroke-linecap:round;stroke-miterlimit:4.4"
       d="M 383.11316,233.22448 245.37761,22.570111 C 298.55303,94.398382 355.47685,162.47826 401.63223,241.32657 Z"
       id="path72"
       sodipodi:nodetypes="cccc" />
    <path
       style="fill:#00ffff;fill-rule:evenodd;stroke:#000000;stroke-width:3.2;stroke-linecap:round;stroke-miterlimit:4.4"
       d="M 402.78967,243.06273 C 357.29848,166.07196 301.43334,95.305557 248.84994,22.570111 308.77703,94.887208 370.55675,164.02839 420.15129,254.05843 Z"
       id="path73"
       sodipodi:nodetypes="cccc" />
    <path
       style="fill:#00ffff;fill-rule:evenodd;stroke:#000000;stroke-width:3.2;stroke-linecap:round;stroke-miterlimit:4.4"
       d="M 418.41513,252.90098 C 370.20888,162.58981 306.68528,93.617799 246.63435,21.073662 286.3027,59.425168 378.3252,138.30453 429.41082,259.84563 Z"
       id="path74"
       sodipodi:nodetypes="cccc" />
    <path
       style="fill:#00ffff;fill-rule:evenodd;stroke:#000000;stroke-width:3.2;stroke-linecap:round;stroke-miterlimit:4.4"
       d="m 327.55597,352.44096 -37.61686,-117.48032 -0.57872,-15.62546 25.46372,2.8936 41.08917,132.52706 z"
       id="path75" />
    <path
       style="fill:#00ffff;fill-rule:evenodd;stroke:#000000;stroke-width:3.2;stroke-linecap:round;stroke-miterlimit:4.4"
       d="m 354.75584,352.44096 -40.51045,-131.94834 26.04243,4.62977 45.71895,131.94834 z"
       id="path76" />
    <path
       style="fill:#00ffff;fill-rule:evenodd;stroke:#000000;stroke-width:3.2;stroke-linecap:round;stroke-miterlimit:4.4"
       d="m 385.42804,356.49201 -47.4551,-133.10579 22.57011,4.62977 49.19127,132.52706 z"
       id="path77" />
    <path
       style="fill:#00ffff;fill-rule:evenodd;stroke:#000000;stroke-width:3.2;stroke-linecap:round;stroke-miterlimit:4.4"
       d="m 409.1556,359.38561 -48.61255,-131.36962 24.30627,6.36593 47.45511,131.36962 z"
       id="path78" />
    <path
       style="fill:#00ffff;fill-rule:evenodd;stroke:#000000;stroke-width:3.2;stroke-linecap:round;stroke-miterlimit:4.4"
       d="m 431.72571,364.5941 -48.03383,-130.21218 18.51907,9.83825 47.4551,126.16113 z"
       id="path79" />
    <path
       style="fill:#00ffff;fill-rule:evenodd;stroke:#000000;stroke-width:3.2;stroke-linecap:round;stroke-miterlimit:4.4"
       d="m 450.24477,371.53875 -48.03382,-129.05474 17.36162,10.99569 c 18.3839,40.76898 33.88258,82.115 44.5615,124.42497 z"
       id="path80"
       sodipodi:nodetypes="ccccc" />
    <path
       style="fill:#00ffff;fill-rule:evenodd;stroke:#000000;stroke-width:3.2;stroke-linecap:round;stroke-miterlimit:4.4"
       d="M 464.71279,379.06212 C 452.90733,338.18918 438.49675,296.27418 418.99385,252.32226 l 10.41697,4.62977 c 27.63277,58.46142 34.00666,90.34924 43.98278,126.73985 z"
       id="path81"
       sodipodi:nodetypes="ccccc" />
    <path
       style="fill:#00ffff;fill-rule:evenodd;stroke:#000000;stroke-width:3.2;stroke-linecap:round;stroke-miterlimit:4.4"
       d="m 368.64514,501.75092 -42.82534,-149.88868 30.09348,2.8936 41.6679,147.5738 z"
       id="path82" />
    <path
       style="fill:#00ffff;fill-rule:evenodd;stroke:#000000;stroke-width:3.2;stroke-linecap:round;stroke-miterlimit:4.4"
       d="m 397.58118,502.32964 -41.6679,-149.88868 28.93604,5.78721 38.7743,144.10147 z"
       id="path83" />
    <path
       style="fill:#00ffff;fill-rule:evenodd;stroke:#000000;stroke-width:3.2;stroke-linecap:round;stroke-miterlimit:4.4"
       d="m 423.62362,501.75092 -39.93174,-145.25891 26.04244,4.05104 36.45941,140.62915 z"
       id="path84" />
    <path
       style="fill:#00ffff;fill-rule:evenodd;stroke:#000000;stroke-width:3.2;stroke-linecap:round;stroke-miterlimit:4.4"
       d="m 445.03629,500.01476 -35.30197,-140.62915 23.72755,5.78721 31.82964,135.99938 z"
       id="path85" />
    <path
       style="fill:#00ffff;fill-rule:evenodd;stroke:#000000;stroke-width:3.2;stroke-linecap:round;stroke-miterlimit:4.4"
       d="m 465.29151,501.1722 -32.98708,-137.15682 17.36162,7.52337 c 13.16676,43.52962 23.47365,86.48726 28.93604,128.47601 z"
       id="path86"
       sodipodi:nodetypes="ccccc" />
    <path
       style="fill:#00ffff;fill-rule:evenodd;stroke:#000000;stroke-width:3.2;stroke-linecap:round;stroke-miterlimit:4.4"
       d="m 477.44465,498.85732 c -4.2158,-38.16742 -14.31945,-82.22269 -27.7786,-129.63346 l 16.20418,8.68081 c 11.73323,45.42196 20.08099,86.8942 22.57011,121.53137 z"
       id="path87"
       sodipodi:nodetypes="ccccc" />
    <path
       style="fill:#00ffff;fill-rule:evenodd;stroke:#000000;stroke-width:3.2;stroke-linecap:round;stroke-miterlimit:4.4"
       d="m 489.01907,498.85732 c -1.63347,-37.84842 -12.59419,-79.69424 -24.885,-122.11009 l 10.41698,9.25954 c 19.07544,64.3387 19.85161,84.75918 24.30626,114.00799 z"
       id="path88"
       sodipodi:nodetypes="ccccc" />
    <path
       style="fill:#00ffff;fill-rule:evenodd;stroke:#000000;stroke-width:3.2;stroke-linecap:round;stroke-miterlimit:4.4"
       d="m 409.73432,640.64391 -40.51046,-138.31427 28.35732,-0.57872 35.30197,137.73555 z"
       id="path89" />
    <path
       style="fill:#00ffff;fill-rule:evenodd;stroke:#000000;stroke-width:3.2;stroke-linecap:round;stroke-miterlimit:4.4"
       d="m 433.46187,638.90775 -35.30197,-137.15683 24.885,0.57872 28.35731,133.10578 z"
       id="path90" />
    <path
       style="fill:#00ffff;fill-rule:evenodd;stroke:#000000;stroke-width:3.2;stroke-linecap:round;stroke-miterlimit:4.4"
       d="m 450.82349,635.43542 -27.19987,-133.10578 22.57011,-1.15744 21.99139,129.63346 z"
       id="path91" />
    <path
       style="fill:#00ffff;fill-rule:evenodd;stroke:#000000;stroke-width:3.2;stroke-linecap:round;stroke-miterlimit:4.4"
       d="m 468.76384,630.80566 -21.99139,-130.7909 18.51906,1.73616 15.62546,126.16113 z"
       id="path92" />
    <path
       style="fill:#00ffff;fill-rule:evenodd;stroke:#000000;stroke-width:3.2;stroke-linecap:round;stroke-miterlimit:4.4"
       d="m 480.33825,626.75461 -15.62546,-125.58241 15.04674,-1.15744 c 8.41388,54.75629 11.57943,89.14334 13.8893,124.42497 z"
       id="path93"
       sodipodi:nodetypes="ccccc" />
    <path
       style="fill:#00ffff;fill-rule:evenodd;stroke:#000000;stroke-width:3.2;stroke-linecap:round;stroke-miterlimit:4.4"
       d="m 493.07011,623.86101 c -1.72929,-35.48887 -5.07491,-71.40176 -14.46802,-125.00369 l 10.9957,1.15744 c 9.90811,43.14963 10.69494,81.73861 11.57441,120.37392 z"
       id="path94"
       sodipodi:nodetypes="ccccc" />
    <path
       style="fill:#00ffff;fill-rule:evenodd;stroke:#000000;stroke-width:3.2;stroke-linecap:round;stroke-miterlimit:4.4"
       d="m 501.1722,618.0738 c 0.12452,-42.97266 -4.17598,-82.99529 -13.31058,-119.7952 l 10.9957,2.31488 c 11.58132,57.24747 10.13449,79.75321 13.31057,114.58672 z"
       id="path95"
       sodipodi:nodetypes="ccccc" />
    <path
       style="fill:#00ffff;fill-rule:evenodd;stroke:#000000;stroke-width:3.2;stroke-linecap:round;stroke-miterlimit:4.4"
       d="m 499.43604,853.03444 c -38.46648,36.25881 -117.48162,24.91702 -189.82042,21.41267 l 0.57872,-22.57011 c 63.08057,13.17833 126.16113,27.07175 189.2417,1.15744 z"
       id="path96"
       sodipodi:nodetypes="cccc" />
    <path
       style="fill:#00ffff;fill-rule:evenodd;stroke:#000000;stroke-width:3.2;stroke-linecap:round;stroke-miterlimit:4.4"
       d="M 495.96371,854.19188 C 450.08012,871.48357 389.80748,873.13499 308.45818,851.877 v -24.88499 c 62.50184,22.34815 125.00369,35.59595 187.50553,27.19987 z"
       id="path97"
       sodipodi:nodetypes="cccc" />
    <path
       style="fill:#00ffff;fill-rule:evenodd;stroke:#000000;stroke-width:3.2;stroke-linecap:round;stroke-miterlimit:4.4"
       d="m 497.12116,854.19188 c -52.39908,1.63988 -98.40199,9.92192 -189.2417,-28.35732 l 2.31488,-27.19987 c 71.75721,37.4156 128.5553,44.91296 186.92682,55.55719 z"
       id="path98"
       sodipodi:nodetypes="cccc" />
    <path
       style="fill:#00ffff;fill-rule:evenodd;stroke:#000000;stroke-width:3.2;stroke-linecap:round;stroke-miterlimit:4.4"
       d="M 498.2786,854.7706 C 436.58905,844.13046 374.47521,831.7932 306.72202,796.89852 l 2.31488,-32.98708 c 67.19749,43.66639 128.03012,66.64699 189.2417,90.85916 z"
       id="path99"
       sodipodi:nodetypes="cccc" />
    <path
       style="fill:#00ffff;fill-rule:evenodd;stroke:#000000;stroke-width:3.2;stroke-linecap:round;stroke-miterlimit:4.4"
       d="M 496.54244,854.19188 C 435.20566,828.75614 374.78566,806.68189 309.0369,765.06888 l 0.57872,-38.77429 z"
       id="path100"
       sodipodi:nodetypes="cccc" />
    <path
       style="fill:#00ffff;fill-rule:evenodd;stroke:#000000;stroke-width:3.2;stroke-linecap:round;stroke-miterlimit:4.4"
       d="m 498.2786,855.34932 -191.55658,-129.63345 3.47232,-38.7743 z"
       id="path101" />
    <path
       style="fill:#00ffff;fill-rule:evenodd;stroke:#000000;stroke-width:3.2;stroke-linecap:round;stroke-miterlimit:4.4"
       d="M 499.43604,855.34932 308.45818,686.94157 309.61562,652.21833 Z"
       id="path102" />
    <path
       style="fill:#00ffff;fill-rule:evenodd;stroke:#000000;stroke-width:3.2;stroke-linecap:round;stroke-miterlimit:4.4"
       d="M 498.85732,854.19188 309.0369,654.53321 l -1.15744,-15.04674 41.6679,4.05105 z"
       id="path103" />
    <path
       style="fill:#00ffff;fill-rule:evenodd;stroke:#000000;stroke-width:3.2;stroke-linecap:round;stroke-miterlimit:4.4"
       d="m 498.85732,854.19188 -151.04613,-213.54797 37.61685,4.62977 z"
       id="path104" />
    <path
       style="fill:#00ffff;fill-rule:evenodd;stroke:#000000;stroke-width:3.2;stroke-linecap:round;stroke-miterlimit:4.4"
       d="M 500.59348,855.92804 384.2706,644.11624 412.62792,642.38007 Z"
       id="path105" />
    <path
       style="fill:#00ffff;fill-rule:evenodd;stroke:#000000;stroke-width:3.2;stroke-linecap:round;stroke-miterlimit:4.4"
       d="m 500.59348,858.24293 c 0,-2.31489 -89.70172,-219.33518 -89.70172,-219.33518 h 22.57011 z"
       id="path106" />
    <path
       style="fill:#00ffff;fill-rule:evenodd;stroke:#000000;stroke-width:3.2;stroke-linecap:round;stroke-miterlimit:4.4"
       d="m 499.43604,850.71956 -67.13161,-212.96925 18.51906,-1.73616 z"
       id="path107" />
    <path
       style="fill:#00ffff;fill-rule:evenodd;stroke:#000000;stroke-width:3.2;stroke-linecap:round;stroke-miterlimit:4.4"
       d="m 500.01476,848.9834 c 0,-5.78721 -50.34871,-214.70542 -50.34871,-214.70542 l 18.51907,-2.8936 z"
       id="path108" />
    <path
       style="fill:#00ffff;fill-rule:evenodd;stroke:#000000;stroke-width:3.2;stroke-linecap:round;stroke-miterlimit:4.4"
       d="M 500.01476,841.46003 468.18512,629.64822 h 12.15313 z"
       id="path109" />
    <path
       style="fill:#00ffff;fill-rule:evenodd;stroke:#000000;stroke-width:3.2;stroke-linecap:round;stroke-miterlimit:4.4"
       d="m 500.01476,834.51538 -19.09779,-208.91821 12.73186,-2.31488 z"
       id="path110" />
    <path
       style="fill:#00ffff;fill-rule:evenodd;stroke:#000000;stroke-width:3.2;stroke-linecap:round;stroke-miterlimit:4.4"
       d="m 501.1722,833.93665 c 2.31489,-4.05104 -8.10209,-213.54797 -8.10209,-213.54797 l 9.83825,-1.73616 c 9.21867,84.00811 0.0979,145.0919 -1.73616,215.28413 z"
       id="path111"
       sodipodi:nodetypes="cccc" />
    <path
       style="fill:#00ffff;fill-rule:evenodd;stroke:#000000;stroke-width:3.2;stroke-linecap:round;stroke-miterlimit:4.4"
       d="m 501.75093,839.14514 c 0.54178,-66.93598 9.47948,-140.32687 1.73616,-221.07134 l 9.83825,-2.31488 c 5.68872,183.10968 -7.55004,170.79759 -11.57441,223.38622 z"
       id="path112"
       sodipodi:nodetypes="cccc" />
  </g>
</svg>
