<?xml version="1.0" encoding="UTF-8" standalone="no"?>
<!-- Created with Inkscape (http://www.inkscape.org/) -->

<svg
   version="1.1"
   id="svg1"
   width="587"
   height="941"
   viewBox="0 0 587 941"
   sodipodi:docname="AR-15 203m2.svg"
   inkscape:version="1.3 (0e150ed6c4, 2023-07-21)"
   xmlns:inkscape="http://www.inkscape.org/namespaces/inkscape"
   xmlns:sodipodi="http://sodipodi.sourceforge.net/DTD/sodipodi-0.dtd"
   xmlns="http://www.w3.org/2000/svg"
   xmlns:svg="http://www.w3.org/2000/svg">
  <defs
     id="defs1" />
  <sodipodi:namedview
     id="namedview1"
     pagecolor="#ffffff"
     bordercolor="#000000"
     borderopacity="0.25"
     inkscape:showpageshadow="2"
     inkscape:pageopacity="0.0"
     inkscape:pagecheckerboard="0"
     inkscape:deskcolor="#d1d1d1"
     showgrid="false"
     inkscape:zoom="1.2218444"
     inkscape:cx="145.68139"
     inkscape:cy="475.91983"
     inkscape:window-width="1920"
     inkscape:window-height="1009"
     inkscape:window-x="-8"
     inkscape:window-y="-8"
     inkscape:window-maximized="1"
     inkscape:current-layer="g1" />
  <g
     inkscape:groupmode="layer"
     inkscape:label="Image"
     id="g1">
    <path
       style="fill:#ff0000;fill-rule:evenodd;stroke:#000000;stroke-width:3.2;stroke-linecap:round;stroke-miterlimit:4.4"
       d="M 67.131611,778.95818 C 53.970706,709.8397 37.484729,651.11207 32.408364,556.7294 l 23.148832,10.41697 z"
       id="path1"
       sodipodi:nodetypes="cccc" />
    <path
       style="fill:#ff0000;fill-rule:evenodd;stroke:#000000;stroke-width:3.2;stroke-linecap:round;stroke-miterlimit:4.4"
       d="m 66.293218,776.69461 c 0,0 -16.777913,-212.79304 -13.094957,-211.56539 3.682957,1.22765 18.824,7.77513 18.824,7.77513 z"
       id="path2" />
    <path
       style="fill:#ff0000;fill-rule:evenodd;stroke:#000000;stroke-width:3.2;stroke-linecap:round;stroke-miterlimit:4.4"
       d="m 66.293218,776.2854 4.501391,-205.01792 21.688522,5.72904 z"
       id="path3" />
    <path
       style="fill:#ff0000;fill-rule:evenodd;stroke:#000000;stroke-width:3.2;stroke-linecap:round;stroke-miterlimit:4.4"
       d="m 65.065566,774.64853 26.59913,-198.06122 22.506954,6.13826 z"
       id="path4" />
    <path
       style="fill:#ff0000;fill-rule:evenodd;stroke:#000000;stroke-width:3.2;stroke-linecap:round;stroke-miterlimit:4.4"
       d="M 64.247131,775.05774 113.35322,581.90713 c 0,0 26.18991,8.59357 24.55304,7.77513 -1.63687,-0.81843 -73.659129,185.37548 -73.659129,185.37548 z"
       id="path5" />
    <path
       style="fill:#ff0000;fill-rule:evenodd;stroke:#000000;stroke-width:3.2;stroke-linecap:round;stroke-miterlimit:4.4"
       d="M 66.702435,777.10383 136.26939,587.63618 166.55148,592.956 Z"
       id="path6" />
    <path
       style="fill:#ff0000;fill-rule:evenodd;stroke:#000000;stroke-width:3.2;stroke-linecap:round;stroke-miterlimit:4.4"
       d="m 66.293218,777.51305 100.258262,-184.14783 29.05443,4.91061 z"
       id="path7" />
    <path
       style="fill:#ff0000;fill-rule:evenodd;stroke:#000000;stroke-width:3.2;stroke-linecap:round;stroke-miterlimit:4.4"
       d="M 67.930087,777.92226 271.72035,604.00487 230.38939,600.32192 67.930087,777.92226 196.01513,598.68505 c 0,0 37.23878,3.27374 33.96505,3.27374 -3.27374,0 -164.505397,176.78191 -164.505397,176.78191 v 0 l 205.427127,-173.50818 41.33096,0.40922 2.04609,9.00278 L 65.474783,778.7407"
       id="path8" />
    <path
       style="fill:#ff0000;fill-rule:evenodd;stroke:#000000;stroke-width:3.2;stroke-linecap:round;stroke-miterlimit:4.4"
       d="M 68.339305,779.55913 313.46052,615.05374 313.05131,649.83722 Z"
       id="path9" />
    <path
       style="fill:#ff0000;fill-rule:evenodd;stroke:#000000;stroke-width:3.2;stroke-linecap:round;stroke-miterlimit:4.4"
       d="m 67.930087,781.196 244.712003,-130.94956 0.40922,36.01113 C 231.34424,720.38092 149.63716,760.16917 67.930087,781.196 Z"
       id="path10"
       sodipodi:nodetypes="cccc" />
    <path
       style="fill:#ff0000;fill-rule:evenodd;stroke:#000000;stroke-width:3.2;stroke-linecap:round;stroke-miterlimit:4.4"
       d="M 72.022261,781.196 C 154.97501,757.37906 233.51453,720.32244 313.46052,687.48522 V 722.2687 C 232.19727,746.22221 149.24705,779.45403 72.022261,781.196 Z"
       id="path11"
       sodipodi:nodetypes="cccc" />
    <path
       style="fill:#ff0000;fill-rule:evenodd;stroke:#000000;stroke-width:3.2;stroke-linecap:round;stroke-miterlimit:4.4"
       d="m 72.840696,781.60522 c 79.556524,-7.4273 159.981584,-31.3566 240.619824,-59.33652 l 0.81844,35.60191 C 232.85374,773.3485 152.09124,783.5247 72.840696,781.60522 Z"
       id="path12"
       sodipodi:nodetypes="cccc" />
    <path
       style="fill:#ff0000;fill-rule:evenodd;stroke:#000000;stroke-width:3.2;stroke-linecap:round;stroke-miterlimit:4.4"
       d="m 74.477566,782.01444 c 80.775494,2.09575 159.970034,-8.45607 238.573744,-23.73461 l 2.04608,31.91896 c -89.04293,11.07863 -169.0363,8.01734 -240.619824,-8.18435 z"
       id="path13"
       sodipodi:nodetypes="cccc" />
    <path
       style="fill:#ff0000;fill-rule:evenodd;stroke:#000000;stroke-width:3.2;stroke-linecap:round;stroke-miterlimit:4.4"
       d="M 76.114435,784.46974 C 157.47161,800.3245 236.16309,798.408 314.27896,792.65409 v 28.64522 c -81.74095,2.78123 -161.85898,-4.82419 -238.164525,-36.82957 z"
       id="path14"
       sodipodi:nodetypes="cccc" />
    <path
       style="fill:#ff0000;fill-rule:evenodd;stroke:#000000;stroke-width:3.2;stroke-linecap:round;stroke-miterlimit:4.4"
       d="M 75.705218,783.65131 C 146.2867,813.1224 225.82859,825.79274 313.86974,822.52696 l -0.40922,30.28209 C 216.79284,844.9954 137.45306,822.01982 75.705218,783.65131 Z"
       id="path15"
       sodipodi:nodetypes="cccc" />
    <path
       style="fill:#ff0000;fill-rule:evenodd;stroke:#000000;stroke-width:3.2;stroke-linecap:round;stroke-miterlimit:4.4"
       d="m 77.751305,786.10661 c 73.920595,42.7404 154.770595,57.76319 237.346085,65.884 l -0.40921,26.59913 C 224.05271,864.27542 142.26075,837.4328 77.751305,786.10661 Z"
       id="path16"
       sodipodi:nodetypes="cccc" />
    <path
       style="fill:#ff0000;fill-rule:evenodd;stroke:#000000;stroke-width:3.2;stroke-linecap:round;stroke-miterlimit:4.4"
       d="m 32.328174,554.89879 c -1.002463,-41.03186 -3.06216,-81.91268 3.273739,-123.99287 l 24.143826,2.4553 c -10.877579,43.92267 -8.392329,87.84533 -9.002782,131.768 z"
       id="path17"
       sodipodi:nodetypes="ccccc" />
    <path
       style="fill:#ff0000;fill-rule:evenodd;stroke:#000000;stroke-width:3.2;stroke-linecap:round;stroke-miterlimit:4.4"
       d="M 50.742957,564.31079 C 50.153311,520.52453 47.471701,476.73826 57.290435,432.952 l 29.87287,0.40922 C 72.835481,478.71571 72.960155,525.27458 71.203826,571.6767 Z"
       id="path18"
       sodipodi:nodetypes="ccccc" />
    <path
       style="fill:#ff0000;fill-rule:evenodd;stroke:#000000;stroke-width:3.2;stroke-linecap:round;stroke-miterlimit:4.4"
       d="M 70.794609,569.63061 C 73.093957,524.77817 75.364877,479.93386 85.117218,432.952 l 28.236002,-0.40922 c -11.14164,53.05642 -15.686768,98.4169 -20.460872,144.04453 l -24.553043,-6.54748"
       id="path19"
       sodipodi:nodetypes="ccccc" />
    <path
       style="fill:#ff0000;fill-rule:evenodd;stroke:#000000;stroke-width:3.2;stroke-linecap:round;stroke-miterlimit:4.4"
       d="M 93.301566,576.99652 C 96.283133,529.43264 101.14225,481.60053 111.71635,432.952 l 29.87287,-0.81843 -29.05444,148.95513 z"
       id="path20"
       sodipodi:nodetypes="ccccc" />
    <path
       style="fill:#ff0000;fill-rule:evenodd;stroke:#000000;stroke-width:3.2;stroke-linecap:round;stroke-miterlimit:4.4"
       d="m 113.35322,580.67948 28.64522,-148.54591 30.6913,-0.81844 -34.78348,155.50261 z"
       id="path21" />
    <path
       style="fill:#ff0000;fill-rule:evenodd;stroke:#000000;stroke-width:3.2;stroke-linecap:round;stroke-miterlimit:4.4"
       d="m 137.08783,586.81774 35.60191,-155.50261 33.14661,-0.40921 -38.87565,160.41321 z"
       id="path22" />
    <path
       style="fill:#ff0000;fill-rule:evenodd;stroke:#000000;stroke-width:3.2;stroke-linecap:round;stroke-miterlimit:4.4"
       d="m 165.73304,591.72835 40.51253,-161.64087 h 31.91895 l -42.14939,167.36991 z"
       id="path23" />
    <path
       style="fill:#ff0000;fill-rule:evenodd;stroke:#000000;stroke-width:3.2;stroke-linecap:round;stroke-miterlimit:4.4"
       d="m 197.24278,596.22974 41.33096,-166.96069 h 35.60191 l -44.60469,171.46208 z"
       id="path24" />
    <path
       style="fill:#ff0000;fill-rule:evenodd;stroke:#000000;stroke-width:3.2;stroke-linecap:round;stroke-miterlimit:4.4"
       d="m 231.20783,599.9127 42.55861,-170.23444 31.91895,-0.81843 2.04609,27.82678 -37.648,147.72748 z"
       id="path25" />
    <path
       style="fill:#ff0000;fill-rule:evenodd;stroke:#000000;stroke-width:3.2;stroke-linecap:round;stroke-miterlimit:4.4"
       d="m 268.85583,604.00487 41.33095,-148.13669 1.63687,147.31826 z"
       id="path26" />
    <path
       style="fill:#ff0000;fill-rule:evenodd;stroke:#000000;stroke-width:3.2;stroke-linecap:round;stroke-miterlimit:4.4"
       d="m 35.192696,429.67826 c 5.330191,-50.19085 8.866295,-101.50301 22.506956,-146.49982 l 24.962261,-7.36592 C 66.597343,332.38295 62.022822,382.33731 57.699652,432.54278 Z"
       id="path27"
       sodipodi:nodetypes="ccccc" />
    <path
       style="fill:#ff0000;fill-rule:evenodd;stroke:#000000;stroke-width:3.2;stroke-linecap:round;stroke-miterlimit:4.4"
       d="m 58.10887,431.31513 c 4.0484,-50.98899 8.580824,-102.1232 23.325391,-156.32104 L 108.44261,270.4927 C 93.809574,324.76411 85.567226,378.54394 85.117218,431.72435 Z"
       id="path28"
       sodipodi:nodetypes="ccccc" />
    <path
       style="fill:#ff0000;fill-rule:evenodd;stroke:#000000;stroke-width:3.2;stroke-linecap:round;stroke-miterlimit:4.4"
       d="m 85.117218,432.13357 c 1.609568,-57.48369 8.228285,-112.88022 22.916172,-164.91461 l 27.41757,-3.27374 C 123.99765,319.97173 112.52051,375.87214 111.71635,432.952 Z"
       id="path29"
       sodipodi:nodetypes="ccccc" />
    <path
       style="fill:#ff0000;fill-rule:evenodd;stroke:#000000;stroke-width:3.2;stroke-linecap:round;stroke-miterlimit:4.4"
       d="m 112.12557,432.54278 c 1.84336,-58.13097 11.3268,-113.71525 22.91617,-168.59756 l 28.236,-5.72904 -22.91617,174.3266 z"
       id="path30"
       sodipodi:nodetypes="ccccc" />
    <path
       style="fill:#ff0000;fill-rule:evenodd;stroke:#000000;stroke-width:3.2;stroke-linecap:round;stroke-miterlimit:4.4"
       d="m 140.36157,431.72435 22.91617,-174.32661 30.6913,-3.68296 -20.87008,177.19114 z"
       id="path31" />
    <path
       style="fill:#ff0000;fill-rule:evenodd;stroke:#000000;stroke-width:3.2;stroke-linecap:round;stroke-miterlimit:4.4"
       d="m 173.09896,430.4967 21.2793,-176.78192 30.28209,-2.86452 -20.05165,180.05566 z"
       id="path32" />
    <path
       style="fill:#ff0000;fill-rule:evenodd;stroke:#000000;stroke-width:3.2;stroke-linecap:round;stroke-miterlimit:4.4"
       d="m 205.42713,429.67826 c 0,0 14.73183,-178.828 17.59635,-178.828 2.86452,0 31.91896,-0.40922 31.91896,-0.40922 l -15.55026,178.82801 z"
       id="path33" />
    <path
       style="fill:#ff0000;fill-rule:evenodd;stroke:#000000;stroke-width:3.2;stroke-linecap:round;stroke-miterlimit:4.4"
       d="m 237.75531,429.67826 17.18713,-179.64643 29.46365,-0.81844 c 0,0 5.72904,17.18713 4.09217,17.59635 -1.63687,0.40922 -13.91339,161.64087 -13.91339,161.64087 z"
       id="path34" />
    <path
       style="fill:#ff0000;fill-rule:evenodd;stroke:#000000;stroke-width:3.2;stroke-linecap:round;stroke-miterlimit:4.4"
       d="m 272.53878,429.26905 c 0,0 15.55026,-167.77914 15.95948,-163.68696 0.40922,4.09217 19.23322,163.27774 19.23322,163.27774 z"
       id="path35" />
    <path
       style="fill:#ff0000;fill-rule:evenodd;stroke:#000000;stroke-width:3.2;stroke-linecap:round;stroke-miterlimit:4.4"
       d="M 58.208162,281.97561 C 83.464784,177.17341 121.12793,72.551647 206.65478,5.3198261 149.09361,80.915261 103.48769,167.01682 81.843479,274.17565 Z"
       id="path36"
       sodipodi:nodetypes="cccc" />
    <path
       style="fill:#ff0000;fill-rule:evenodd;stroke:#000000;stroke-width:3.2;stroke-linecap:round;stroke-miterlimit:4.4"
       d="M 81.843479,275.81252 C 108.48275,151.84691 155.13853,74.006302 206.65478,7.3659131 167.15304,82.810949 126.14315,155.8142 108.85183,267.21896 Z"
       id="path37"
       sodipodi:nodetypes="cccc" />
    <path
       style="fill:#ff0000;fill-rule:evenodd;stroke:#000000;stroke-width:3.2;stroke-linecap:round;stroke-miterlimit:4.4"
       d="M 106.80574,266.80974 C 127.53717,163.8563 164.97436,82.884115 206.24557,6.9566957 178.20167,87.178297 147.19947,163.88691 135.86017,263.94522 Z"
       id="path38"
       sodipodi:nodetypes="cccc" />
    <path
       style="fill:#ff0000;fill-rule:evenodd;stroke:#000000;stroke-width:3.2;stroke-linecap:round;stroke-miterlimit:4.4"
       d="M 135.86017,263.536 C 145.60166,162.21916 177.75543,85.804837 206.24557,5.3198261 189.84631,87.830052 169.44519,168.33934 165.32383,256.98852 Z"
       id="path39"
       sodipodi:nodetypes="cccc" />
    <path
       style="fill:#ff0000;fill-rule:evenodd;stroke:#000000;stroke-width:3.2;stroke-linecap:round;stroke-miterlimit:4.4"
       d="m 163.68696,256.57931 c 4.833,-91.43382 24.85589,-170.209411 42.14939,-251.2594839 L 192.74139,252.07791 Z"
       id="path40"
       sodipodi:nodetypes="cccc" />
    <path
       style="fill:#ff0000;fill-rule:evenodd;stroke:#000000;stroke-width:3.2;stroke-linecap:round;stroke-miterlimit:4.4"
       d="M 192.33217,253.71478 207.064,6.5474783 224.25113,250.44104 Z"
       id="path41" />
    <path
       style="fill:#ff0000;fill-rule:evenodd;stroke:#000000;stroke-width:3.2;stroke-linecap:round;stroke-miterlimit:4.4"
       d="M 222.61426,249.21339 208.29165,4.5013913 254.53322,249.21339 Z"
       id="path42" />
    <path
       style="fill:#ff0000;fill-rule:evenodd;stroke:#000000;stroke-width:3.2;stroke-linecap:round;stroke-miterlimit:4.4"
       d="M 255.35165,249.21339 208.70087,5.7290435 285.63374,248.39496 Z"
       id="path43" />
    <path
       style="fill:#ff0000;fill-rule:evenodd;stroke:#000000;stroke-width:3.2;stroke-linecap:round;stroke-miterlimit:4.4"
       d="M 286.45218,249.62261 210.74696,7.3659131 C 247.53006,88.148623 291.71544,167.69762 316.73426,250.44104 Z"
       id="path44"
       sodipodi:nodetypes="cccc" />
    <path
       style="fill:#ff0000;fill-rule:evenodd;stroke:#000000;stroke-width:3.2;stroke-linecap:round;stroke-miterlimit:4.4"
       d="M 315.91583,250.03183 C 295.00738,167.51399 250.02672,89.8106 214.42991,10.230435 262.08094,89.517361 321.5867,165.03232 347.42557,251.25948 Z"
       id="path45"
       sodipodi:nodetypes="cccc" />
    <path
       style="fill:#ff0000;fill-rule:evenodd;stroke:#000000;stroke-width:3.2;stroke-linecap:round;stroke-miterlimit:4.4"
       d="M 348.65322,251.25948 C 320.83648,163.07513 263.00627,91.564932 217.70365,13.094957 275.2974,92.846804 348.46504,166.15428 377.29844,257.80696 Z"
       id="path46"
       sodipodi:nodetypes="cccc" />
    <path
       style="fill:#ff0000;fill-rule:evenodd;stroke:#000000;stroke-width:3.2;stroke-linecap:round;stroke-miterlimit:4.4"
       d="M 378.11687,258.62539 C 348.0852,168.32093 280.90788,98.818023 225.888,22.506957 293.50101,101.20596 372.31953,175.6205 405.12522,267.62818 Z"
       id="path47"
       sodipodi:nodetypes="cccc" />
    <path
       style="fill:#ff0000;fill-rule:evenodd;stroke:#000000;stroke-width:3.2;stroke-linecap:round;stroke-miterlimit:4.4"
       d="M 404.716,267.21896 C 366.84275,166.30543 294.07641,100.51346 230.79861,24.962261 c 82.76594,75.481749 167.83,149.836119 194.37826,252.896349 z"
       id="path48"
       sodipodi:nodetypes="cccc" />
    <path
       style="fill:#ff0000;fill-rule:evenodd;stroke:#000000;stroke-width:3.2;stroke-linecap:round;stroke-miterlimit:4.4"
       d="M 425.58609,277.44939 C 394.03527,178.50752 314.85958,103.37809 236.52765,27.826783 323.82978,97.815305 403.6931,174.45128 440.31792,289.72591 Z"
       id="path49"
       sodipodi:nodetypes="cccc" />
    <path
       style="fill:#ff0000;fill-rule:evenodd;stroke:#000000;stroke-width:3.2;stroke-linecap:round;stroke-miterlimit:4.4"
       d="M 306.91305,428.45061 289.3167,264.76365 340.46887,428.45061 Z"
       id="path50" />
    <path
       style="fill:#ff0000;fill-rule:evenodd;stroke:#000000;stroke-width:3.2;stroke-linecap:round;stroke-miterlimit:4.4"
       d="m 341.28731,428.85983 c 0,-1.63687 -51.5614,-161.64087 -51.5614,-161.64087 l -3.68295,-18.824 31.10052,1.63687 62.61026,178.41878 z"
       id="path51" />
    <path
       style="fill:#ff0000;fill-rule:evenodd;stroke:#000000;stroke-width:3.2;stroke-linecap:round;stroke-miterlimit:4.4"
       d="m 381.39061,428.04139 -63.01948,-178.41878 29.87287,3.68296 65.47478,175.55426 z"
       id="path52" />
    <path
       style="fill:#ff0000;fill-rule:evenodd;stroke:#000000;stroke-width:3.2;stroke-linecap:round;stroke-miterlimit:4.4"
       d="M 413.71878,429.26905 348.244,251.25948 l 29.46365,7.36591 62.61027,171.46209 z"
       id="path53" />
    <path
       style="fill:#ff0000;fill-rule:evenodd;stroke:#000000;stroke-width:3.2;stroke-linecap:round;stroke-miterlimit:4.4"
       d="m 441.13635,430.08748 -63.83791,-172.68974 26.59913,10.23044 c 21.83175,55.65584 44.54203,111.60452 56.88121,164.09617 z"
       id="path54"
       sodipodi:nodetypes="ccccc" />
    <path
       style="fill:#ff0000;fill-rule:evenodd;stroke:#000000;stroke-width:3.2;stroke-linecap:round;stroke-miterlimit:4.4"
       d="M 460.36957,431.72435 C 449.57414,378.57678 425.85199,322.84386 404.716,267.62818 l 21.27931,11.04886 c 21.20528,53.49187 39.72125,106.0873 51.15217,156.32105 z"
       id="path55"
       sodipodi:nodetypes="ccccc" />
    <path
       style="fill:#ff0000;fill-rule:evenodd;stroke:#000000;stroke-width:3.2;stroke-linecap:round;stroke-miterlimit:4.4"
       d="M 477.14748,435.40731 C 464.86049,386.47611 445.86405,333.07196 427.22296,279.9047 l 13.91339,9.412 c 19.75215,52.23007 38.83675,103.92177 49.92452,151.81965 z"
       id="path56"
       sodipodi:nodetypes="ccccc" />
    <path
       style="fill:#ff0000;fill-rule:evenodd;stroke:#000000;stroke-width:3.2;stroke-linecap:round;stroke-miterlimit:4.4"
       d="m 313.46052,606.05096 -3.27374,-144.04452 39.69409,143.6353 z"
       id="path57" />
    <path
       style="fill:#ff0000;fill-rule:evenodd;stroke:#000000;stroke-width:3.2;stroke-linecap:round;stroke-miterlimit:4.4"
       d="m 349.88087,606.05096 -40.92174,-146.49983 -3.27374,-32.32817 35.1927,1.63687 45.83235,175.96348 z"
       id="path58" />
    <path
       style="fill:#ff0000;fill-rule:evenodd;stroke:#000000;stroke-width:3.2;stroke-linecap:round;stroke-miterlimit:4.4"
       d="M 385.892,605.23252 339.65044,428.45061 c 0,0 42.14939,0 40.1033,0.40922 -2.04609,0.40922 40.92174,173.91739 40.92174,173.91739 z"
       id="path59" />
    <path
       style="fill:#ff0000;fill-rule:evenodd;stroke:#000000;stroke-width:3.2;stroke-linecap:round;stroke-miterlimit:4.4"
       d="m 420.26626,603.18644 -40.92174,-174.73583 33.55583,1.63687 c 18.44729,62.36996 27.13011,114.97544 36.01113,167.77913 z"
       id="path60"
       sodipodi:nodetypes="ccccc" />
    <path
       style="fill:#ff0000;fill-rule:evenodd;stroke:#000000;stroke-width:3.2;stroke-linecap:round;stroke-miterlimit:4.4"
       d="M 448.09305,597.04818 C 439.14374,541.94324 429.98157,486.75847 412.49113,428.45061 l 29.46365,1.63687 c 14.95556,57.64208 23.06481,111.48065 28.236,163.68696 z"
       id="path61"
       sodipodi:nodetypes="ccccc" />
    <path
       style="fill:#ff0000;fill-rule:evenodd;stroke:#000000;stroke-width:3.2;stroke-linecap:round;stroke-miterlimit:4.4"
       d="M 470.19078,593.36522 C 464.79298,540.7418 456.46979,486.65568 442.364,429.67826 l 19.23322,2.86452 c 13.4865,56.59073 20.67005,106.87852 26.59913,155.91183 z"
       id="path62"
       sodipodi:nodetypes="ccccc" />
    <path
       style="fill:#ff0000;fill-rule:evenodd;stroke:#000000;stroke-width:3.2;stroke-linecap:round;stroke-miterlimit:4.4"
       d="M 488.60557,589.27305 C 482.54802,537.9659 474.58485,486.02355 462.00644,432.54278 l 16.36869,2.86453 c 11.45064,55.7788 17.09386,102.84646 22.09774,148.95513 z"
       id="path63"
       sodipodi:nodetypes="ccccc" />
    <path
       style="fill:#ff0000;fill-rule:evenodd;stroke:#000000;stroke-width:3.2;stroke-linecap:round;stroke-miterlimit:4.4"
       d="m 499.65444,584.36244 c -4.27109,-46.42655 -9.47305,-93.91695 -21.27931,-148.95513 l 12.68574,5.31982 c 10.23435,56.20897 14.62402,97.80625 18.41479,137.90627 z"
       id="path64"
       sodipodi:nodetypes="ccccc" />
    <path
       style="fill:#ff0000;fill-rule:evenodd;stroke:#000000;stroke-width:3.2;stroke-linecap:round;stroke-miterlimit:4.4"
       d="m 508.248,846.67079 c -64.95444,55.49308 -160.78533,38.2816 -192.33217,32.32817 l -1.22765,-28.236 c 88.28766,25.11997 142.89465,12.71006 193.55982,-4.09217 z"
       id="path65"
       sodipodi:nodetypes="cccc" />
    <path
       style="fill:#ff0000;fill-rule:evenodd;stroke:#000000;stroke-width:3.2;stroke-linecap:round;stroke-miterlimit:4.4"
       d="m 509.06644,847.08 c -62.14505,18.48593 -125.49731,29.55618 -195.1967,1.63687 l 1.22765,-28.236 c 70.58208,29.93564 133.10683,31.22299 193.96905,26.59913 z"
       id="path66"
       sodipodi:nodetypes="cccc" />
    <path
       style="fill:#ff0000;fill-rule:evenodd;stroke:#000000;stroke-width:3.2;stroke-linecap:round;stroke-miterlimit:4.4"
       d="M 508.65722,847.48922 C 446.00038,850.7114 382.953,851.78557 313.86974,819.66244 l 1.63687,-30.28209 c 78.2475,40.53042 134.99297,48.24193 193.15061,58.10887 z"
       id="path67"
       sodipodi:nodetypes="cccc" />
    <path
       style="fill:#ff0000;fill-rule:evenodd;stroke:#000000;stroke-width:3.2;stroke-linecap:round;stroke-miterlimit:4.4"
       d="M 507.83879,847.89844 C 444.84932,839.62131 380.39485,822.55422 313.05131,788.1527 l 0.81843,-32.73739 c 62.14025,38.18919 126.95094,66.58677 192.33218,92.89235 -66.06694,-25.32256 -131.01521,-54.28078 -192.7414,-93.71079 l -0.40921,-34.78348 z"
       id="path68"
       sodipodi:nodetypes="ccccccc" />
    <path
       style="fill:#ff0000;fill-rule:evenodd;stroke:#000000;stroke-width:3.2;stroke-linecap:round;stroke-miterlimit:4.4"
       d="M 507.02035,845.85235 C 442.73213,803.92154 375.56112,767.75631 314.27896,719.81339 l 0.40922,-33.96504 z"
       id="path69"
       sodipodi:nodetypes="cccc" />
    <path
       style="fill:#ff0000;fill-rule:evenodd;stroke:#000000;stroke-width:3.2;stroke-linecap:round;stroke-miterlimit:4.4"
       d="M 508.248,844.21548 C 443.18244,790.76348 378.11687,743.74609 313.05131,683.39305 l 1.22765,-35.1927 z"
       id="path70"
       sodipodi:nodetypes="cccc" />
    <path
       style="fill:#ff0000;fill-rule:evenodd;stroke:#000000;stroke-width:3.2;stroke-linecap:round;stroke-miterlimit:4.4"
       d="M 507.83879,844.6247 313.05131,647.38192 314.68818,615.05374 Z"
       id="path71" />
    <path
       style="fill:#ff0000;fill-rule:evenodd;stroke:#000000;stroke-width:3.2;stroke-linecap:round;stroke-miterlimit:4.4"
       d="M 507.02035,844.6247 313.05131,617.09983 v -13.50417 l 36.82956,3.27373 z"
       id="path72" />
    <path
       style="fill:#ff0000;fill-rule:evenodd;stroke:#000000;stroke-width:3.2;stroke-linecap:round;stroke-miterlimit:4.4"
       d="M 505.7927,843.39705 C 454.02695,764.71323 400.35013,689.2145 351.51774,605.64174 l 35.1927,-1.63687 z"
       id="path73"
       sodipodi:nodetypes="cccc" />
    <path
       style="fill:#ff0000;fill-rule:evenodd;stroke:#000000;stroke-width:3.2;stroke-linecap:round;stroke-miterlimit:4.4"
       d="M 506.61113,840.12331 387.11965,606.46018 421.90313,604.00487 Z"
       id="path74" />
    <path
       style="fill:#ff0000;fill-rule:evenodd;stroke:#000000;stroke-width:3.2;stroke-linecap:round;stroke-miterlimit:4.4"
       d="m 505.7927,840.12331 -84.708,-236.93687 27.00835,-5.31983 z"
       id="path75" />
    <path
       style="fill:#ff0000;fill-rule:evenodd;stroke:#000000;stroke-width:3.2;stroke-linecap:round;stroke-miterlimit:4.4"
       d="M 508.65722,838.89566 C 488.09791,759.91906 466.41934,683.55405 448.91148,597.45739 l 22.91617,-3.27373 z"
       id="path76"
       sodipodi:nodetypes="cccc" />
    <path
       style="fill:#ff0000;fill-rule:evenodd;stroke:#000000;stroke-width:3.2;stroke-linecap:round;stroke-miterlimit:4.4"
       d="m 509.06644,831.52974 -39.28487,-237.34608 18.41478,-4.5014 c 15.10099,100.5241 14.47389,162.60175 20.87009,241.84748 z"
       id="path77"
       sodipodi:nodetypes="cccc" />
    <path
       style="fill:#ff0000;fill-rule:evenodd;stroke:#000000;stroke-width:3.2;stroke-linecap:round;stroke-miterlimit:4.4"
       d="M 509.06644,822.93618 C 503.52663,746.87312 500.59946,675.5999 489.01479,588.45461 l 11.8673,-4.09217 c 14.21941,92.65748 8.03125,161.99204 8.18435,238.57374 z"
       id="path78"
       sodipodi:nodetypes="cccc" />
    <path
       style="fill:#ff0000;fill-rule:evenodd;stroke:#000000;stroke-width:3.2;stroke-linecap:round;stroke-miterlimit:4.4"
       d="m 509.88487,812.70574 c -0.29116,-67.5796 -3.25543,-143.71314 -9.00278,-228.75252 l 8.59356,-5.31983 c 6.47743,84.85291 8.08574,164.46216 0.40922,234.07235 z"
       id="path79"
       sodipodi:nodetypes="cccc" />
  </g>
</svg>
