<?xml version="1.0" encoding="UTF-8" standalone="no"?>
<!-- Created with Inkscape (http://www.inkscape.org/) -->

<svg
   version="1.1"
   id="svg1"
   width="587"
   height="941"
   viewBox="0 0 587 941"
   sodipodi:docname="AR-13 165m2.svg"
   inkscape:version="1.3 (0e150ed6c4, 2023-07-21)"
   xmlns:inkscape="http://www.inkscape.org/namespaces/inkscape"
   xmlns:sodipodi="http://sodipodi.sourceforge.net/DTD/sodipodi-0.dtd"
   xmlns="http://www.w3.org/2000/svg"
   xmlns:svg="http://www.w3.org/2000/svg">
  <defs
     id="defs1" />
  <sodipodi:namedview
     id="namedview1"
     pagecolor="#ffffff"
     bordercolor="#000000"
     borderopacity="0.25"
     inkscape:showpageshadow="2"
     inkscape:pageopacity="0.0"
     inkscape:pagecheckerboard="0"
     inkscape:deskcolor="#d1d1d1"
     showgrid="false"
     inkscape:zoom="0.8639745"
     inkscape:cx="538.21033"
     inkscape:cy="472.81488"
     inkscape:window-width="1920"
     inkscape:window-height="1009"
     inkscape:window-x="-8"
     inkscape:window-y="-8"
     inkscape:window-maximized="1"
     inkscape:current-layer="g1" />
  <g
     inkscape:groupmode="layer"
     inkscape:label="Image"
     id="g1">
    <path
       style="fill:#ff0000;fill-rule:evenodd;stroke:#000000;stroke-width:3.2;stroke-linecap:round;stroke-miterlimit:4.4"
       d="M 67.809624,763.77704 C 56.294952,693.45917 37.94813,640.26616 34.243819,543.58832 l 21.313377,8.51131 c -7.287705,50.43971 6.889051,138.85501 12.252428,211.67741 z"
       id="path1"
       sodipodi:nodetypes="cccc" />
    <path
       style="fill:#ff0000;fill-rule:evenodd;stroke:#000000;stroke-width:3.2;stroke-linecap:round;stroke-miterlimit:4.4"
       d="M 67.930087,762.78122 C 62.33847,692.53223 50.458337,622.28325 53.607479,552.03426 l 19.642434,6.54748 z"
       id="path2"
       sodipodi:nodetypes="cccc" />
    <path
       style="fill:#ff0000;fill-rule:evenodd;stroke:#000000;stroke-width:3.2;stroke-linecap:round;stroke-miterlimit:4.4"
       d="M 68.339305,762.78122 72.022261,557.35409 90.437044,564.72 Z"
       id="path3" />
    <path
       style="fill:#ff0000;fill-rule:evenodd;stroke:#000000;stroke-width:3.2;stroke-linecap:round;stroke-miterlimit:4.4"
       d="M 67.111653,764.41809 92.073914,563.49235 113.35322,571.6767 Z"
       id="path4" />
    <path
       style="fill:#ff0000;fill-rule:evenodd;stroke:#000000;stroke-width:3.2;stroke-linecap:round;stroke-miterlimit:4.4"
       d="m 67.111653,764.00887 46.241567,-193.96904 24.55304,4.91061 z"
       id="path5" />
    <path
       style="fill:#ff0000;fill-rule:evenodd;stroke:#000000;stroke-width:3.2;stroke-linecap:round;stroke-miterlimit:4.4"
       d="m 67.52087,765.23653 70.38539,-189.87687 28.64522,7.36591 z"
       id="path6" />
    <path
       style="fill:#ff0000;fill-rule:evenodd;stroke:#000000;stroke-width:3.2;stroke-linecap:round;stroke-miterlimit:4.4"
       d="m 66.702435,764.41809 99.439825,-182.51096 29.87287,4.50139 z"
       id="path7" />
    <path
       style="fill:#ff0000;fill-rule:evenodd;stroke:#000000;stroke-width:3.2;stroke-linecap:round;stroke-miterlimit:4.4"
       d="M 66.293218,764.00887 196.01513,587.63618 229.16174,592.956 Z"
       id="path8" />
    <path
       style="fill:#ff0000;fill-rule:evenodd;stroke:#000000;stroke-width:3.2;stroke-linecap:round;stroke-miterlimit:4.4"
       d="m 64.247131,763.59966 164.096179,-171.87131 40.92173,3.27374 z"
       id="path9" />
    <path
       style="fill:#ff0000;fill-rule:evenodd;stroke:#000000;stroke-width:3.2;stroke-linecap:round;stroke-miterlimit:4.4"
       d="m 64.656348,763.59966 203.790262,-168.18835 41.33096,3.68295 0.81843,12.27653 z"
       id="path10" />
    <path
       style="fill:#ff0000;fill-rule:evenodd;stroke:#000000;stroke-width:3.2;stroke-linecap:round;stroke-miterlimit:4.4"
       d="M 63.837913,763.59966 309.77757,613.82609 v 40.92174 z"
       id="path11" />
    <path
       style="fill:#ff0000;fill-rule:evenodd;stroke:#000000;stroke-width:3.2;stroke-linecap:round;stroke-miterlimit:4.4"
       d="m 66.702435,763.19044 c 0,0 246.348875,-108.44261 243.893565,-108.03339 -2.4553,0.40921 2.45531,41.33095 2.45531,41.33095 -82.11629,36.94096 -164.23258,50.8592 -246.348875,66.70244 z"
       id="path12"
       sodipodi:nodetypes="cscc" />
    <path
       style="fill:#ff0000;fill-rule:evenodd;stroke:#000000;stroke-width:3.2;stroke-linecap:round;stroke-miterlimit:4.4"
       d="M 66.702435,764.00887 C 149.0504,746.50022 232.39023,733.45495 310.596,697.30644 l 1.22765,40.51252 c -90.13723,26.99531 -167.79723,26.95662 -245.121215,26.18991 z"
       id="path13"
       sodipodi:nodetypes="cccc" />
    <path
       style="fill:#ff0000;fill-rule:evenodd;stroke:#000000;stroke-width:3.2;stroke-linecap:round;stroke-miterlimit:4.4"
       d="m 65.884,764.00887 c 81.0727,1.93106 162.69694,-2.20474 245.93965,-24.14382 l 0.40922,35.19269 C 211.81942,795.55317 136.02853,783.51165 65.884,764.00887 Z"
       id="path14"
       sodipodi:nodetypes="cccc" />
    <path
       style="fill:#ff0000;fill-rule:evenodd;stroke:#000000;stroke-width:3.2;stroke-linecap:round;stroke-miterlimit:4.4"
       d="m 70.794609,765.23653 c 73.240991,19.19709 152.270201,26.43187 241.847481,11.8673 l -0.81844,33.14661 c -80.34301,2.93629 -160.68603,-6.63457 -241.029041,-45.01391 z"
       id="path15"
       sodipodi:nodetypes="cccc" />
    <path
       style="fill:#ff0000;fill-rule:evenodd;stroke:#000000;stroke-width:3.2;stroke-linecap:round;stroke-miterlimit:4.4"
       d="m 70.794609,766.05496 c 72.583321,24.20777 143.246271,50.64316 242.256701,44.19548 l 0.81843,32.73739 C 201.62857,838.15429 134.85643,803.00806 70.794609,766.05496 Z"
       id="path16"
       sodipodi:nodetypes="cccc" />
    <path
       style="fill:#ff0000;fill-rule:evenodd;stroke:#000000;stroke-width:3.2;stroke-linecap:round;stroke-miterlimit:4.4"
       d="m 76.93287,769.3287 c 72.45383,40.76169 150.17198,67.92389 235.70922,74.88678 l 1.22765,27.41757 C 202.96751,854.99905 130.13722,817.53324 76.93287,769.3287 Z"
       id="path17"
       sodipodi:nodetypes="cccc" />
    <path
       style="fill:#ff0000;fill-rule:evenodd;stroke:#000000;stroke-width:3.2;stroke-linecap:round;stroke-miterlimit:4.4"
       d="m 33.965044,542.21305 c -2.834103,-44.5193 -2.459371,-83.15661 2.864521,-123.99287 l 22.916174,0.81843 c -6.952147,42.60484 -6.220649,86.49028 -6.956695,130.13113 z"
       id="path18"
       sodipodi:nodetypes="ccccc" />
    <path
       style="fill:#ff0000;fill-rule:evenodd;stroke:#000000;stroke-width:3.2;stroke-linecap:round;stroke-miterlimit:4.4"
       d="M 54.425913,549.98818 C 54.122685,509.3199 53.081415,469.60053 60.154957,419.44783 L 84.708,421.0847 c -9.589668,52.11933 -12.154183,96.33537 -13.094956,138.72469 z"
       id="path19"
       sodipodi:nodetypes="ccccc" />
    <path
       style="fill:#ff0000;fill-rule:evenodd;stroke:#000000;stroke-width:3.2;stroke-linecap:round;stroke-miterlimit:4.4"
       d="M 72.431479,558.58174 C 72.721543,512.74939 75.717259,466.91705 84.708,421.0847 l 26.59913,-1.22765 -19.642434,142.81687 z"
       id="path20"
       sodipodi:nodetypes="ccccc" />
    <path
       style="fill:#ff0000;fill-rule:evenodd;stroke:#000000;stroke-width:3.2;stroke-linecap:round;stroke-miterlimit:4.4"
       d="m 92.483131,563.90157 18.414779,-142.81687 29.87287,0.40922 -28.236,147.72747 z"
       id="path21" />
    <path
       style="fill:#ff0000;fill-rule:evenodd;stroke:#000000;stroke-width:3.2;stroke-linecap:round;stroke-miterlimit:4.4"
       d="m 113.35322,569.22139 27.41756,-147.31826 31.91896,-0.40921 -35.1927,153.45652 z"
       id="path22" />
    <path
       style="fill:#ff0000;fill-rule:evenodd;stroke:#000000;stroke-width:3.2;stroke-linecap:round;stroke-miterlimit:4.4"
       d="m 136.67861,574.95044 36.01113,-154.27496 29.46365,1.63687 -35.60191,158.77635 z"
       id="path23" />
    <path
       style="fill:#ff0000;fill-rule:evenodd;stroke:#000000;stroke-width:3.2;stroke-linecap:round;stroke-miterlimit:4.4"
       d="m 164.50539,581.0887 38.05722,-158.36713 33.96504,-0.40922 -40.92174,164.50539 z"
       id="path24" />
    <path
       style="fill:#ff0000;fill-rule:evenodd;stroke:#000000;stroke-width:3.2;stroke-linecap:round;stroke-miterlimit:4.4"
       d="m 196.42435,585.99931 40.92174,-163.68696 33.55582,0.40922 -41.74017,169.416 z"
       id="path25" />
    <path
       style="fill:#ff0000;fill-rule:evenodd;stroke:#000000;stroke-width:3.2;stroke-linecap:round;stroke-miterlimit:4.4"
       d="m 227.52487,590.90992 42.96783,-166.9607 h 33.14661 l 2.4553,27.82678 -36.82957,142.81687 z"
       id="path26" />
    <path
       style="fill:#ff0000;fill-rule:evenodd;stroke:#000000;stroke-width:3.2;stroke-linecap:round;stroke-miterlimit:4.4"
       d="m 268.85583,594.59287 38.05722,-141.18 2.04608,144.86296 z"
       id="path27" />
    <path
       style="fill:#ff0000;fill-rule:evenodd;stroke:#000000;stroke-width:3.2;stroke-linecap:round;stroke-miterlimit:4.4"
       d="m 36.420348,418.6294 c 6.733674,-48.1534 3.176925,-85.96644 22.506956,-150.592 l 24.143827,-3.27375 C 64.27862,319.65574 62.215998,368.57287 58.10887,418.22018 Z"
       id="path28"
       sodipodi:nodetypes="ccccc" />
    <path
       style="fill:#ff0000;fill-rule:evenodd;stroke:#000000;stroke-width:3.2;stroke-linecap:round;stroke-miterlimit:4.4"
       d="m 59.336522,419.03861 c 4.213485,-53.81497 5.236034,-109.34814 22.916174,-155.91183 l 26.189914,-4.09217 C 92.317911,321.65404 88.29391,367.76407 83.889566,420.67548 Z"
       id="path29"
       sodipodi:nodetypes="ccccc" />
    <path
       style="fill:#ff0000;fill-rule:evenodd;stroke:#000000;stroke-width:3.2;stroke-linecap:round;stroke-miterlimit:4.4"
       d="m 83.889566,419.85705 c 5.385175,-53.50079 5.978332,-97.15654 24.553044,-161.23166 l 28.236,-4.91061 c -13.02661,45.24808 -20.34707,103.5388 -25.7807,166.14227 z"
       id="path30"
       sodipodi:nodetypes="ccccc" />
    <path
       style="fill:#ff0000;fill-rule:evenodd;stroke:#000000;stroke-width:3.2;stroke-linecap:round;stroke-miterlimit:4.4"
       d="m 111.30713,420.26626 c 6.36547,-59.31403 10.72476,-122.13885 25.37148,-166.96069 l 28.236,-3.27374 -25.37148,172.28052 z"
       id="path31"
       sodipodi:nodetypes="ccccc" />
    <path
       style="fill:#ff0000;fill-rule:evenodd;stroke:#000000;stroke-width:3.2;stroke-linecap:round;stroke-miterlimit:4.4"
       d="M 140.36157,421.49392 165.32383,251.25948 195.1967,247.16731 171.46209,421.0847 Z"
       id="path32" />
    <path
       style="fill:#ff0000;fill-rule:evenodd;stroke:#000000;stroke-width:3.2;stroke-linecap:round;stroke-miterlimit:4.4"
       d="m 171.46209,420.67548 22.50695,-174.32661 30.28209,-0.40922 -21.2793,175.96348 z"
       id="path33" />
    <path
       style="fill:#ff0000;fill-rule:evenodd;stroke:#000000;stroke-width:3.2;stroke-linecap:round;stroke-miterlimit:4.4"
       d="m 202.56261,422.72157 21.68852,-176.78192 31.50974,-0.81843 -18.824,178.828 z"
       id="path34" />
    <path
       style="fill:#ff0000;fill-rule:evenodd;stroke:#000000;stroke-width:3.2;stroke-linecap:round;stroke-miterlimit:4.4"
       d="m 238.57374,422.72157 18.00557,-177.60035 29.87287,1.22765 2.4553,18.00557 -17.59635,158.77634 z"
       id="path35" />
    <path
       style="fill:#ff0000;fill-rule:evenodd;stroke:#000000;stroke-width:3.2;stroke-linecap:round;stroke-miterlimit:4.4"
       d="M 270.08348,422.31235 289.3167,262.71757 303.63931,422.31235 Z"
       id="path36" />
    <path
       style="fill:#ff0000;fill-rule:evenodd;stroke:#000000;stroke-width:3.2;stroke-linecap:round;stroke-miterlimit:4.4"
       d="M 58.518087,269.26504 C 85.229856,162.94187 136.17794,71.825797 218.52209,0.40921739 174.64122,69.233304 135.13036,84.160684 82.252696,263.94522 Z"
       id="path37"
       sodipodi:nodetypes="cccc" />
    <path
       style="fill:#ff0000;fill-rule:evenodd;stroke:#000000;stroke-width:3.2;stroke-linecap:round;stroke-miterlimit:4.4"
       d="M 81.434261,263.536 C 111.65242,137.88284 164.36594,68.468087 218.11287,1.6368696 179.37039,81.106818 135.13695,145.01905 108.44261,258.62539 Z"
       id="path38"
       sodipodi:nodetypes="cccc" />
    <path
       style="fill:#ff0000;fill-rule:evenodd;stroke:#000000;stroke-width:3.2;stroke-linecap:round;stroke-miterlimit:4.4"
       d="M 107.62417,257.80696 C 131.58254,138.7354 178.90475,79.53369 218.93131,1.6368696 186.37364,80.79555 151.25347,157.39173 135.45096,253.30557 Z"
       id="path39"
       sodipodi:nodetypes="cccc" />
    <path
       style="fill:#ff0000;fill-rule:evenodd;stroke:#000000;stroke-width:3.2;stroke-linecap:round;stroke-miterlimit:4.4"
       d="M 135.45096,253.30557 C 150.98369,174.38819 175.81403,90.605951 218.52209,0.81843479 196.46418,83.529137 174.58337,166.2546 165.32383,250.03183 Z"
       id="path40"
       sodipodi:nodetypes="cccc" />
    <path
       style="fill:#ff0000;fill-rule:evenodd;stroke:#000000;stroke-width:3.2;stroke-linecap:round;stroke-miterlimit:4.4"
       d="M 164.91461,249.62261 C 175.83323,152.3776 197.81776,77.264395 219.34052,1.2276522 L 193.55983,246.75809 Z"
       id="path41"
       sodipodi:nodetypes="cccc" />
    <path
       style="fill:#ff0000;fill-rule:evenodd;stroke:#000000;stroke-width:3.2;stroke-linecap:round;stroke-miterlimit:4.4"
       d="M 193.15061,246.34887 219.34052,0.81843479 225.06957,246.34887 Z"
       id="path42" />
    <path
       style="fill:#ff0000;fill-rule:evenodd;stroke:#000000;stroke-width:3.2;stroke-linecap:round;stroke-miterlimit:4.4"
       d="M 224.66035,246.75809 220.15896,0.81843479 255.76087,245.12122 Z"
       id="path43" />
    <path
       style="fill:#ff0000;fill-rule:evenodd;stroke:#000000;stroke-width:3.2;stroke-linecap:round;stroke-miterlimit:4.4"
       d="M 255.35165,244.712 220.97739,2.4553044 286.86139,245.12122 Z"
       id="path44" />
    <path
       style="fill:#ff0000;fill-rule:evenodd;stroke:#000000;stroke-width:3.2;stroke-linecap:round;stroke-miterlimit:4.4"
       d="M 286.86139,245.12122 220.97739,0.81843479 315.91583,247.98574 Z"
       id="path45" />
    <path
       style="fill:#ff0000;fill-rule:evenodd;stroke:#000000;stroke-width:3.2;stroke-linecap:round;stroke-miterlimit:4.4"
       d="M 317.5527,249.21339 221.79583,1.2276522 349.47165,253.30557 Z"
       id="path46" />
    <path
       style="fill:#ff0000;fill-rule:evenodd;stroke:#000000;stroke-width:3.2;stroke-linecap:round;stroke-miterlimit:4.4"
       d="M 349.06244,253.71478 223.02348,1.2276522 376.88922,259.03461 Z"
       id="path47" />
    <path
       style="fill:#ff0000;fill-rule:evenodd;stroke:#000000;stroke-width:3.2;stroke-linecap:round;stroke-miterlimit:4.4"
       d="M 377.70765,260.67148 C 374.84313,256.17009 225.23333,3.955965 227.93409,4.9106087 234.58511,7.2615575 417.49755,262.32162 402.66992,269.26504 Z"
       id="path48"
       sodipodi:nodetypes="cscc" />
    <path
       style="fill:#ff0000;fill-rule:evenodd;stroke:#000000;stroke-width:3.2;stroke-linecap:round;stroke-miterlimit:4.4"
       d="M 403.48835,269.26504 C 362.80117,176.77609 292.30432,96.371249 232.43548,8.5935653 308.49667,92.093606 385.70735,174.92311 423.54,280.72313 Z"
       id="path49"
       sodipodi:nodetypes="cccc" />
    <path
       style="fill:#ff0000;fill-rule:evenodd;stroke:#000000;stroke-width:3.2;stroke-linecap:round;stroke-miterlimit:4.4"
       d="M 424.76765,280.31391 C 383.4542,173.05974 310.25398,94.393709 238.16452,14.731826 303.57087,77.756934 376.45175,128.55801 439.9087,294.63652 Z"
       id="path50"
       sodipodi:nodetypes="cccc" />
    <path
       style="fill:#ff0000;fill-rule:evenodd;stroke:#000000;stroke-width:3.2;stroke-linecap:round;stroke-miterlimit:4.4"
       d="m 304.45774,423.13078 -14.32261,-160.004 46.65078,161.23166 z"
       id="path51" />
    <path
       style="fill:#ff0000;fill-rule:evenodd;stroke:#000000;stroke-width:3.2;stroke-linecap:round;stroke-miterlimit:4.4"
       d="m 336.3767,423.54 -46.24157,-158.77635 -3.68295,-19.23321 32.32817,3.68295 57.29043,177.19113 z"
       id="path52" />
    <path
       style="fill:#ff0000;fill-rule:evenodd;stroke:#000000;stroke-width:3.2;stroke-linecap:round;stroke-miterlimit:4.4"
       d="m 375.66157,425.99531 -58.10887,-178.00957 31.91895,4.50139 60.15496,175.96348 z"
       id="path53" />
    <path
       style="fill:#ff0000;fill-rule:evenodd;stroke:#000000;stroke-width:3.2;stroke-linecap:round;stroke-miterlimit:4.4"
       d="m 409.62661,427.63218 -60.56417,-174.73583 28.64521,7.36591 c 22.97801,59.24134 44.43249,117.46699 57.69966,170.23444 z"
       id="path54"
       sodipodi:nodetypes="ccccc" />
    <path
       style="fill:#ff0000;fill-rule:evenodd;stroke:#000000;stroke-width:3.2;stroke-linecap:round;stroke-miterlimit:4.4"
       d="M 435.81652,430.08748 C 425.66426,382.96924 401.64733,321.98634 376.48,259.85304 l 28.236,11.45809 c 23.44208,62.3128 40.39581,116.51517 50.74296,162.45931 z"
       id="path55"
       sodipodi:nodetypes="ccccc" />
    <path
       style="fill:#ff0000;fill-rule:evenodd;stroke:#000000;stroke-width:3.2;stroke-linecap:round;stroke-miterlimit:4.4"
       d="m 455.86818,433.77044 c -9.91211,-52.51622 -31.06644,-108.40511 -51.5614,-164.09618 l 20.87009,11.04887 c 20.87173,52.24342 37.89723,104.48684 47.87844,156.73026 z"
       id="path56"
       sodipodi:nodetypes="ccccc" />
    <path
       style="fill:#ff0000;fill-rule:evenodd;stroke:#000000;stroke-width:3.2;stroke-linecap:round;stroke-miterlimit:4.4"
       d="M 473.05531,435.81652 C 463.21244,384.39154 446.3193,332.96655 425.58609,281.54157 l 13.50417,13.09495 c 25.05991,50.40123 32.92183,98.15661 44.6047,146.49983 z"
       id="path57"
       sodipodi:nodetypes="ccccc" />
    <path
       style="fill:#ff0000;fill-rule:evenodd;stroke:#000000;stroke-width:3.2;stroke-linecap:round;stroke-miterlimit:4.4"
       d="M 309.77757,597.45739 306.91305,456.68661 346.19791,599.9127 Z"
       id="path58" />
    <path
       style="fill:#ff0000;fill-rule:evenodd;stroke:#000000;stroke-width:3.2;stroke-linecap:round;stroke-miterlimit:4.4"
       d="m 345.7887,598.27583 -39.28487,-141.99844 -3.27374,-33.55582 33.96504,1.63687 46.65078,175.96348 z"
       id="path59" />
    <path
       style="fill:#ff0000;fill-rule:evenodd;stroke:#000000;stroke-width:3.2;stroke-linecap:round;stroke-miterlimit:4.4"
       d="M 383.02748,599.9127 336.3767,422.31235 376.48,426.40452 415.76487,598.68505 Z"
       id="path60" />
    <path
       style="fill:#ff0000;fill-rule:evenodd;stroke:#000000;stroke-width:3.2;stroke-linecap:round;stroke-miterlimit:4.4"
       d="m 414.94644,598.27583 -38.87566,-172.28052 34.78348,3.68295 34.37426,166.55148 z"
       id="path61" />
    <path
       style="fill:#ff0000;fill-rule:evenodd;stroke:#000000;stroke-width:3.2;stroke-linecap:round;stroke-miterlimit:4.4"
       d="m 444.81931,597.04818 -35.1927,-170.23444 26.18991,3.27374 c 12.82839,73.41371 25.1284,118.41577 30.28209,162.05009 z"
       id="path62"
       sodipodi:nodetypes="ccccc" />
    <path
       style="fill:#ff0000;fill-rule:evenodd;stroke:#000000;stroke-width:3.2;stroke-linecap:round;stroke-miterlimit:4.4"
       d="M 465.68939,591.72835 C 459.45354,544.51688 445.95647,493.0232 436.22574,429.67826 l 20.46087,4.50139 c 13.65703,53.47765 23.82178,105.5584 26.59913,154.68418 z"
       id="path63"
       sodipodi:nodetypes="ccccc" />
    <path
       style="fill:#ff0000;fill-rule:evenodd;stroke:#000000;stroke-width:3.2;stroke-linecap:round;stroke-miterlimit:4.4"
       d="M 482.05809,588.45461 C 479.69013,544.2821 470.77527,492.25332 457.50505,434.99809 l 15.55026,4.09217 c 15.98111,63.01767 16.94562,101.46273 21.68852,146.09061 z"
       id="path64"
       sodipodi:nodetypes="ccccc" />
    <path
       style="fill:#ff0000;fill-rule:evenodd;stroke:#000000;stroke-width:3.2;stroke-linecap:round;stroke-miterlimit:4.4"
       d="m 494.33461,584.77166 c -3.87678,-48.03398 -12.09948,-97.5166 -22.50696,-147.72748 l 12.68574,5.31982 c 14.48916,81.64875 14.87982,101.26407 19.23322,138.31548 z"
       id="path65"
       sodipodi:nodetypes="ccccc" />
    <path
       style="fill:#ff0000;fill-rule:evenodd;stroke:#000000;stroke-width:3.2;stroke-linecap:round;stroke-miterlimit:4.4"
       d="m 507.83879,836.03113 c 0.7273,-82.93501 7.89968,-156.20242 -3.27374,-256.98852 l -10.23044,5.72905 c 12.17032,91.42209 10.19288,168.69641 13.50418,251.25947 z"
       id="path66"
       sodipodi:nodetypes="cccc" />
    <path
       style="fill:#ff0000;fill-rule:evenodd;stroke:#000000;stroke-width:3.2;stroke-linecap:round;stroke-miterlimit:4.4"
       d="m 508.248,837.668 c -3.13967,-82.63987 -0.28667,-158.19749 -14.32261,-253.71478 l -13.50417,4.91061 c 16.92719,99.77403 19.74343,167.4822 27.82678,248.80417 z"
       id="path67"
       sodipodi:nodetypes="cccc" />
    <path
       style="fill:#ff0000;fill-rule:evenodd;stroke:#000000;stroke-width:3.2;stroke-linecap:round;stroke-miterlimit:4.4"
       d="M 507.83879,837.668 C 499.69464,756.03415 497.3566,682.7869 480.42122,588.45461 l -15.55026,3.27374 z"
       id="path68"
       sodipodi:nodetypes="cccc" />
    <path
       style="fill:#ff0000;fill-rule:evenodd;stroke:#000000;stroke-width:3.2;stroke-linecap:round;stroke-miterlimit:4.4"
       d="m 507.02035,838.48644 -43.37704,-247.16731 -20.87009,6.9567 z"
       id="path69" />
    <path
       style="fill:#ff0000;fill-rule:evenodd;stroke:#000000;stroke-width:3.2;stroke-linecap:round;stroke-miterlimit:4.4"
       d="m 507.02035,839.71409 -64.24713,-243.07513 -28.236,1.63687 z"
       id="path70" />
    <path
       style="fill:#ff0000;fill-rule:evenodd;stroke:#000000;stroke-width:3.2;stroke-linecap:round;stroke-miterlimit:4.4"
       d="M 506.61113,840.12331 414.128,598.68505 l -32.32817,1.63687 z"
       id="path71" />
    <path
       style="fill:#ff0000;fill-rule:evenodd;stroke:#000000;stroke-width:3.2;stroke-linecap:round;stroke-miterlimit:4.4"
       d="M 505.7927,838.89566 381.39061,601.14035 345.37948,599.09426 Z"
       id="path72" />
    <path
       style="fill:#ff0000;fill-rule:evenodd;stroke:#000000;stroke-width:3.2;stroke-linecap:round;stroke-miterlimit:4.4"
       d="M 503.74661,838.89566 347.01635,599.9127 l -37.23878,-3.27374 1.22765,13.09496 z"
       id="path73" />
    <path
       style="fill:#ff0000;fill-rule:evenodd;stroke:#000000;stroke-width:3.2;stroke-linecap:round;stroke-miterlimit:4.4"
       d="m 504.15583,839.30487 -193.15061,-228.3433 -1.63687,44.60469 c 61.31773,63.8258 125.83563,125.36576 194.78748,183.73861 z"
       id="path74"
       sodipodi:nodetypes="cccc" />
    <path
       style="fill:#ff0000;fill-rule:evenodd;stroke:#000000;stroke-width:3.2;stroke-linecap:round;stroke-miterlimit:4.4"
       d="m 504.15583,841.35096 -194.78748,-184.14783 2.04609,38.05722 c 60.24371,57.37096 126.02992,102.73315 192.74139,146.09061 z"
       id="path75"
       sodipodi:nodetypes="cccc" />
    <path
       style="fill:#ff0000;fill-rule:evenodd;stroke:#000000;stroke-width:3.2;stroke-linecap:round;stroke-miterlimit:4.4"
       d="M 504.15583,840.94174 C 438.60919,797.55535 373.71517,751.77604 311.41444,696.488 l 1.63687,44.19548 c 60.19528,44.81465 127.01927,68.08599 191.10452,100.25826 z"
       id="path76"
       sodipodi:nodetypes="cccc" />
    <path
       style="fill:#ff0000;fill-rule:evenodd;stroke:#000000;stroke-width:3.2;stroke-linecap:round;stroke-miterlimit:4.4"
       d="M 505.38348,842.1694 C 439.4326,808.69159 370.19667,779.04635 310.18678,738.6374 l 1.63687,38.87565 c 63.21681,27.74199 126.11585,56.99339 193.55983,64.65635 z"
       id="path77"
       sodipodi:nodetypes="cccc" />
    <path
       style="fill:#ff0000;fill-rule:evenodd;stroke:#000000;stroke-width:3.2;stroke-linecap:round;stroke-miterlimit:4.4"
       d="m 506.20192,841.76018 c -63.51199,-4.4097 -129.14419,-34.26185 -194.78748,-64.24713 l 0.40921,33.55582 c 66.24478,20.39463 133.36056,46.88623 194.37827,30.69131 z"
       id="path78"
       sodipodi:nodetypes="cccc" />
    <path
       style="fill:#ff0000;fill-rule:evenodd;stroke:#000000;stroke-width:3.2;stroke-linecap:round;stroke-miterlimit:4.4"
       d="m 506.20192,842.57861 c -42.68394,10.21112 -111.82002,-3.88513 -194.78748,-30.6913 l 2.86452,32.32817 c 66.63209,19.38768 131.79186,27.73289 191.92296,-1.63687 z"
       id="path79"
       sodipodi:nodetypes="cccc" />
    <path
       style="fill:#ff0000;fill-rule:evenodd;stroke:#000000;stroke-width:3.2;stroke-linecap:round;stroke-miterlimit:4.4"
       d="m 506.20192,842.57861 c -39.72122,15.8875 -83.72085,29.09301 -195.1967,0 l 3.27374,29.46366 c 60.38393,5.0134 156.78017,20.21291 191.92296,-29.46366 z"
       id="path80"
       sodipodi:nodetypes="cccc" />
  </g>
</svg>
