<?xml version="1.0" encoding="UTF-8" standalone="no"?>
<!-- Created with Inkscape (http://www.inkscape.org/) -->

<svg
   version="1.1"
   id="svg1"
   width="587"
   height="941"
   viewBox="0 0 587 941"
   sodipodi:docname="AR-14 183m2.svg"
   inkscape:version="1.3 (0e150ed6c4, 2023-07-21)"
   xmlns:inkscape="http://www.inkscape.org/namespaces/inkscape"
   xmlns:sodipodi="http://sodipodi.sourceforge.net/DTD/sodipodi-0.dtd"
   xmlns="http://www.w3.org/2000/svg"
   xmlns:svg="http://www.w3.org/2000/svg">
  <defs
     id="defs1" />
  <sodipodi:namedview
     id="namedview1"
     pagecolor="#ffffff"
     bordercolor="#000000"
     borderopacity="0.25"
     inkscape:showpageshadow="2"
     inkscape:pageopacity="0.0"
     inkscape:pagecheckerboard="0"
     inkscape:deskcolor="#d1d1d1"
     showgrid="false"
     inkscape:zoom="1.2218444"
     inkscape:cx="368.29565"
     inkscape:cy="253.30557"
     inkscape:window-width="1920"
     inkscape:window-height="1009"
     inkscape:window-x="-8"
     inkscape:window-y="-8"
     inkscape:window-maximized="1"
     inkscape:current-layer="g1" />
  <g
     inkscape:groupmode="layer"
     inkscape:label="Image"
     id="g1">
    <path
       style="fill:#ff0000;fill-rule:evenodd;stroke:#000000;stroke-width:3.2;stroke-linecap:round;stroke-miterlimit:4.4"
       d="M 71.613044,764.41809 C 57.337271,692.2696 37.218276,621.46955 36.011131,546.30522 l 18.005565,6.54748 c -3.615681,62.76451 10.443815,139.99052 17.596348,211.56539 z"
       id="path1"
       sodipodi:nodetypes="cccc" />
    <path
       style="fill:#ff0000;fill-rule:evenodd;stroke:#000000;stroke-width:3.2;stroke-linecap:round;stroke-miterlimit:4.4"
       d="M 72.840696,764.82731 C 65.034295,693.0505 52.696458,617.30868 52.789044,552.44348 l 20.870087,8.18435 z"
       id="path2"
       sodipodi:nodetypes="cccc" />
    <path
       style="fill:#ff0000;fill-rule:evenodd;stroke:#000000;stroke-width:3.2;stroke-linecap:round;stroke-miterlimit:4.4"
       d="m 71.613044,763.19044 c -6.956696,-30.69131 1.227652,-204.19948 1.227652,-204.19948 l 18.414783,7.36591 z"
       id="path3" />
    <path
       style="fill:#ff0000;fill-rule:evenodd;stroke:#000000;stroke-width:3.2;stroke-linecap:round;stroke-miterlimit:4.4"
       d="M 70.794609,765.23653 92.073914,566.35687 114.17165,571.6767 Z"
       id="path4" />
    <path
       style="fill:#ff0000;fill-rule:evenodd;stroke:#000000;stroke-width:3.2;stroke-linecap:round;stroke-miterlimit:4.4"
       d="m 72.022261,764.82731 42.149389,-192.74139 25.37148,6.13826 z"
       id="path5" />
    <path
       style="fill:#ff0000;fill-rule:evenodd;stroke:#000000;stroke-width:3.2;stroke-linecap:round;stroke-miterlimit:4.4"
       d="m 71.203826,765.23653 c 0,0 68.339304,-184.96627 69.157744,-187.01235 0.81843,-2.04609 28.64521,6.95669 28.64521,6.95669 z"
       id="path6" />
    <path
       style="fill:#ff0000;fill-rule:evenodd;stroke:#000000;stroke-width:3.2;stroke-linecap:round;stroke-miterlimit:4.4"
       d="m 70.385392,766.46418 96.575308,-182.51096 29.87287,5.72904 z"
       id="path7" />
    <path
       style="fill:#ff0000;fill-rule:evenodd;stroke:#000000;stroke-width:3.2;stroke-linecap:round;stroke-miterlimit:4.4"
       d="m 72.840696,764.82731 123.992874,-176.78192 34.37426,6.54748 z"
       id="path8" />
    <path
       style="fill:#ff0000;fill-rule:evenodd;stroke:#000000;stroke-width:3.2;stroke-linecap:round;stroke-miterlimit:4.4"
       d="M 74.068348,763.19044 231.20783,594.18366 c 0,0 39.69408,3.27373 37.648,3.27373 -2.04609,0 -194.787482,165.73305 -194.787482,165.73305 z"
       id="path9" />
    <path
       style="fill:#ff0000;fill-rule:evenodd;stroke:#000000;stroke-width:3.2;stroke-linecap:round;stroke-miterlimit:4.4"
       d="m 71.613044,765.64574 196.833566,-167.77913 44.19548,2.45531 c 0,0 -0.0663,5.97748 -0.40922,7.77513 -0.97696,5.12079 -240.200086,161.32635 -240.619826,157.54869 z"
       id="path10"
       sodipodi:nodetypes="cccsc" />
    <path
       style="fill:#ff0000;fill-rule:evenodd;stroke:#000000;stroke-width:3.2;stroke-linecap:round;stroke-miterlimit:4.4"
       d="m 70.794609,766.46418 242.256701,-157.5487 -1.22766,34.78348 C 230.75202,689.72102 150.80842,727.84683 70.794609,766.46418 Z"
       id="path11"
       sodipodi:nodetypes="cccc" />
    <path
       style="fill:#ff0000;fill-rule:evenodd;stroke:#000000;stroke-width:3.2;stroke-linecap:round;stroke-miterlimit:4.4"
       d="m 69.976174,767.28261 242.665916,-122.76522 2.4553,34.37427 c -81.70707,35.40398 -163.41414,61.39959 -245.121216,88.39095 z"
       id="path12"
       sodipodi:nodetypes="cccc" />
    <path
       style="fill:#ff0000;fill-rule:evenodd;stroke:#000000;stroke-width:3.2;stroke-linecap:round;stroke-miterlimit:4.4"
       d="M 74.886783,767.69183 315.09739,680.52853 314.68817,715.312 C 232.51863,740.74233 153.85026,754.01707 74.886783,767.69183 Z"
       id="path13"
       sodipodi:nodetypes="cccc" />
    <path
       style="fill:#ff0000;fill-rule:evenodd;stroke:#000000;stroke-width:3.2;stroke-linecap:round;stroke-miterlimit:4.4"
       d="m 75.705218,768.51026 238.982962,-51.56139 0.40921,34.78348 C 211.69105,767.6539 145.39042,767.34171 75.705218,768.51026 Z"
       id="path14"
       sodipodi:nodetypes="cccc" />
    <path
       style="fill:#ff0000;fill-rule:evenodd;stroke:#000000;stroke-width:3.2;stroke-linecap:round;stroke-miterlimit:4.4"
       d="m 76.114435,768.51026 c 76.140285,-0.0886 154.669355,-4.15841 237.346085,-15.14104 l 1.63688,32.32817 C 197.39876,817.65072 134.96561,781.859 76.114435,768.51026 Z"
       id="path15"
       sodipodi:nodetypes="cccc" />
    <path
       style="fill:#ff0000;fill-rule:evenodd;stroke:#000000;stroke-width:3.2;stroke-linecap:round;stroke-miterlimit:4.4"
       d="m 82.252696,768.51026 c -4.439712,11.34593 228.299914,28.43785 232.026264,15.14105 0.4553,-1.62466 3.27374,31.50974 3.27374,31.50974 -85.70006,0.70332 -164.87003,-14.63249 -235.300004,-46.65079 z"
       id="path16"
       sodipodi:nodetypes="cscc" />
    <path
       style="fill:#ff0000;fill-rule:evenodd;stroke:#000000;stroke-width:3.2;stroke-linecap:round;stroke-miterlimit:4.4"
       d="M 82.252696,770.55635 C 150.634,799.25609 228.17776,816.04464 318.37113,816.3887 l -2.04608,29.46365 c -88.18982,-9.85011 -167.68672,-32.73961 -234.072354,-75.296 z"
       id="path17"
       sodipodi:nodetypes="cccc" />
    <path
       style="fill:#ff0000;fill-rule:evenodd;stroke:#000000;stroke-width:3.2;stroke-linecap:round;stroke-miterlimit:4.4"
       d="m 82.252696,771.37479 c 67.992514,43.16549 149.139384,63.31085 234.481564,76.11443 l 1.22765,23.73461 C 220.77415,851.65936 138.06045,821.42979 82.252696,771.37479 Z"
       id="path18"
       sodipodi:nodetypes="cccc" />
    <path
       style="fill:#ff0000;fill-rule:evenodd;stroke:#000000;stroke-width:3.2;stroke-linecap:round;stroke-miterlimit:4.4"
       d="M 34.783478,544.66835 C 33.548725,498.41258 32.476628,452.48213 37.648,419.03861 l 23.734609,0.40922 c -6.491223,35.99527 -9.331512,79.81398 -8.184348,132.17722 z"
       id="path19"
       sodipodi:nodetypes="ccccc" />
    <path
       style="fill:#ff0000;fill-rule:evenodd;stroke:#000000;stroke-width:3.2;stroke-linecap:round;stroke-miterlimit:4.4"
       d="M 53.198261,550.39739 C 52.80922,504.0396 52.805654,458.06728 60.973392,420.26626 H 86.34487 c -7.878454,48.18448 -11.877356,93.78756 -14.322609,138.7247 z"
       id="path20"
       sodipodi:nodetypes="ccccc" />
    <path
       style="fill:#ff0000;fill-rule:evenodd;stroke:#000000;stroke-width:3.2;stroke-linecap:round;stroke-miterlimit:4.4"
       d="M 71.613044,557.35409 C 73.77513,517.53777 76.662263,477.17586 86.34487,420.26626 l 28.64522,1.63687 -23.734611,144.04453 z"
       id="path21"
       sodipodi:nodetypes="ccccc" />
    <path
       style="fill:#ff0000;fill-rule:evenodd;stroke:#000000;stroke-width:3.2;stroke-linecap:round;stroke-miterlimit:4.4"
       d="m 92.073914,564.72 21.279306,-143.22608 29.05443,0.40921 -27.82678,150.592 z"
       id="path22" />
    <path
       style="fill:#ff0000;fill-rule:evenodd;stroke:#000000;stroke-width:3.2;stroke-linecap:round;stroke-miterlimit:4.4"
       d="M 114.17165,571.6767 141.18,421.90313 173.91739,423.54 139.95235,576.99652 Z"
       id="path23" />
    <path
       style="fill:#ff0000;fill-rule:evenodd;stroke:#000000;stroke-width:3.2;stroke-linecap:round;stroke-miterlimit:4.4"
       d="M 140.77078,576.99652 172.28052,423.13078 205.42713,423.54 166.55148,582.31635 Z"
       id="path24" />
    <path
       style="fill:#ff0000;fill-rule:evenodd;stroke:#000000;stroke-width:3.2;stroke-linecap:round;stroke-miterlimit:4.4"
       d="M 166.14226,583.13479 205.83635,423.13078 238.98296,423.54 196.01513,589.68226 Z"
       id="path25" />
    <path
       style="fill:#ff0000;fill-rule:evenodd;stroke:#000000;stroke-width:3.2;stroke-linecap:round;stroke-miterlimit:4.4"
       d="m 194.78748,587.22696 44.6047,-163.27774 35.60191,1.22765 -44.19548,168.59757 -38.87565,-6.9567"
       id="path26" />
    <path
       style="fill:#ff0000;fill-rule:evenodd;stroke:#000000;stroke-width:3.2;stroke-linecap:round;stroke-miterlimit:4.4"
       d="m 229.57096,591.31913 45.01391,-166.96069 c 0,0 34.78348,-0.40922 33.14661,0 -1.63687,0.40921 2.04609,27.41756 2.04609,27.41756 l -38.46644,144.45374 z"
       id="path27" />
    <path
       style="fill:#ff0000;fill-rule:evenodd;stroke:#000000;stroke-width:3.2;stroke-linecap:round;stroke-miterlimit:4.4"
       d="m 271.72035,597.45739 c 0,0 40.1033,-143.6353 38.46643,-143.6353 -1.63687,0 3.27374,146.49983 3.27374,146.49983 z"
       id="path28" />
    <path
       style="fill:#ff0000;fill-rule:evenodd;stroke:#000000;stroke-width:3.2;stroke-linecap:round;stroke-miterlimit:4.4"
       d="m 37.238783,417.81096 c 7.024165,-48.9925 9.394408,-98.5021 25.371478,-146.49983 l 25.780696,-5.31982 C 72.29398,317.14348 66.370457,368.29566 60.973392,419.44783 Z"
       id="path29"
       sodipodi:nodetypes="ccccc" />
    <path
       style="fill:#ff0000;fill-rule:evenodd;stroke:#000000;stroke-width:3.2;stroke-linecap:round;stroke-miterlimit:4.4"
       d="M 62.201044,419.03861 C 67.071658,364.87115 72.415883,311.03523 87.98174,264.35444 l 26.59913,-5.31983 C 100.88549,312.23287 92.004558,365.43113 85.935653,418.62939 Z"
       id="path30"
       sodipodi:nodetypes="ccccc" />
    <path
       style="fill:#ff0000;fill-rule:evenodd;stroke:#000000;stroke-width:3.2;stroke-linecap:round;stroke-miterlimit:4.4"
       d="m 86.34487,419.44783 c 5.835185,-52.16806 10.924128,-102.92564 29.46365,-159.18557 l 26.59913,-5.72904 c -16.98652,54.40505 -23.56277,109.85113 -29.87287,165.32383 z"
       id="path31"
       sodipodi:nodetypes="ccccc" />
    <path
       style="fill:#ff0000;fill-rule:evenodd;stroke:#000000;stroke-width:3.2;stroke-linecap:round;stroke-miterlimit:4.4"
       d="m 111.71635,421.49392 c 8.41766,-55.92638 14.0987,-111.85276 30.6913,-167.77914 l 27.82679,-2.86452 -28.236,170.23444 z"
       id="path32"
       sodipodi:nodetypes="ccccc" />
    <path
       style="fill:#ff0000;fill-rule:evenodd;stroke:#000000;stroke-width:3.2;stroke-linecap:round;stroke-miterlimit:4.4"
       d="m 142.40765,421.90313 28.64522,-171.05287 27.82678,-3.27374 -26.59913,174.73583 z"
       id="path33" />
    <path
       style="fill:#ff0000;fill-rule:evenodd;stroke:#000000;stroke-width:3.2;stroke-linecap:round;stroke-miterlimit:4.4"
       d="m 171.46209,423.13078 27.41756,-176.37269 29.46365,-0.40922 -23.7346,175.55426 z"
       id="path34"
       sodipodi:nodetypes="ccccc" />
    <path
       style="fill:#ff0000;fill-rule:evenodd;stroke:#000000;stroke-width:3.2;stroke-linecap:round;stroke-miterlimit:4.4"
       d="m 203.79026,422.72157 25.37148,-175.96348 c 0,0 33.14661,1.22765 31.50974,1.22765 -1.63687,0 -21.2793,175.96348 -21.2793,175.96348 z"
       id="path35" />
    <path
       style="fill:#ff0000;fill-rule:evenodd;stroke:#000000;stroke-width:3.2;stroke-linecap:round;stroke-miterlimit:4.4"
       d="m 238.98296,423.94922 21.68852,-177.19113 31.10052,1.22765 c 0,0 5.31983,21.27931 3.27374,21.27931 -2.04609,0 -20.87009,155.09339 -20.87009,155.09339 z"
       id="path36"
       sodipodi:nodetypes="cccscc" />
    <path
       style="fill:#ff0000;fill-rule:evenodd;stroke:#000000;stroke-width:3.2;stroke-linecap:round;stroke-miterlimit:4.4"
       d="m 273.35722,424.35844 20.87009,-164.09618 12.68574,165.32383 z"
       id="path37" />
    <path
       style="fill:#ff0000;fill-rule:evenodd;stroke:#000000;stroke-width:3.2;stroke-linecap:round;stroke-miterlimit:4.4"
       d="M 61.791826,270.4927 C 95.170003,173.19483 131.82774,77.111611 223.02348,1.2276522 174.9873,63.097539 115.26085,141.91977 88.800174,265.17287 Z"
       id="path38"
       sodipodi:nodetypes="cccc" />
    <path
       style="fill:#ff0000;fill-rule:evenodd;stroke:#000000;stroke-width:3.2;stroke-linecap:round;stroke-miterlimit:4.4"
       d="M 86.754087,264.76365 C 110.87932,153.87174 164.3047,75.11549 221.79583,0.81843479 184.05754,81.035835 138.61697,141.2273 115.80852,260.26226 Z"
       id="path39"
       sodipodi:nodetypes="cccc" />
    <path
       style="fill:#ff0000;fill-rule:evenodd;stroke:#000000;stroke-width:3.2;stroke-linecap:round;stroke-miterlimit:4.4"
       d="M 116.62696,259.44383 C 139.14247,139.59969 183.80724,77.89736 222.61426,0.81843479 192.29148,82.362928 156.26241,158.96197 141.18,253.71478 Z"
       id="path40"
       sodipodi:nodetypes="cccc" />
    <path
       style="fill:#ff0000;fill-rule:evenodd;stroke:#000000;stroke-width:3.2;stroke-linecap:round;stroke-miterlimit:4.4"
       d="M 142.40765,253.71478 C 158.45351,159.18783 190.56597,79.579863 221.38661,-1.2276522 203.91057,81.126859 184.48671,161.65358 171.05287,251.25948 Z"
       id="path41"
       sodipodi:nodetypes="cccc" />
    <path
       style="fill:#ff0000;fill-rule:evenodd;stroke:#000000;stroke-width:3.2;stroke-linecap:round;stroke-miterlimit:4.4"
       d="M 171.46209,250.44104 C 183.84965,162.43393 203.57708,81.766696 223.4327,1.2276522 L 200.10731,246.34887 Z"
       id="path42"
       sodipodi:nodetypes="cccc" />
    <path
       style="fill:#ff0000;fill-rule:evenodd;stroke:#000000;stroke-width:3.2;stroke-linecap:round;stroke-miterlimit:4.4"
       d="M 200.10731,246.75809 223.02348,0.81843479 228.34331,245.53044 Z"
       id="path43" />
    <path
       style="fill:#ff0000;fill-rule:evenodd;stroke:#000000;stroke-width:3.2;stroke-linecap:round;stroke-miterlimit:4.4"
       d="M 227.11565,245.93965 225.06957,-0.40921739 261.0807,247.16731 Z"
       id="path44" />
    <path
       style="fill:#ff0000;fill-rule:evenodd;stroke:#000000;stroke-width:3.2;stroke-linecap:round;stroke-miterlimit:4.4"
       d="M 261.89913,245.93965 C 258.8563,244.80116 225.02011,2.4800365 226.70644,1.6368696 252.90982,83.889566 280.12742,166.14226 292.59044,248.39496 Z"
       id="path45"
       sodipodi:nodetypes="cccc" />
    <path
       style="fill:#ff0000;fill-rule:evenodd;stroke:#000000;stroke-width:3.2;stroke-linecap:round;stroke-miterlimit:4.4"
       d="M 293.40887,247.57652 229.57096,4.9106087 c 32.6819,81.8704523 66.4745,164.1111413 92.89235,243.8935713 z"
       id="path46"
       sodipodi:nodetypes="cccc" />
    <path
       style="fill:#ff0000;fill-rule:evenodd;stroke:#000000;stroke-width:3.2;stroke-linecap:round;stroke-miterlimit:4.4"
       d="M 323.28174,248.80418 232.02626,8.1843479 C 274.82864,85.91165 318.16181,162.65317 353.56383,254.124 Z"
       id="path47"
       sodipodi:nodetypes="cccc" />
    <path
       style="fill:#ff0000;fill-rule:evenodd;stroke:#000000;stroke-width:3.2;stroke-linecap:round;stroke-miterlimit:4.4"
       d="M 352.74539,253.71478 C 320.66487,166.91963 276.63403,89.419186 235.3,9.8212174 289.13496,90.393904 346.92498,169.09314 380.98139,259.03461 Z"
       id="path48"
       sodipodi:nodetypes="cccc" />
    <path
       style="fill:#ff0000;fill-rule:evenodd;stroke:#000000;stroke-width:3.2;stroke-linecap:round;stroke-miterlimit:4.4"
       d="M 383.4367,260.67148 C 346.94222,173.26502 291.46264,93.452594 239.39218,12.276522 300.97571,92.500568 372.07709,162.27515 407.17131,268.85583 Z"
       id="path49"
       sodipodi:nodetypes="cccc" />
    <path
       style="fill:#ff0000;fill-rule:evenodd;stroke:#000000;stroke-width:3.2;stroke-linecap:round;stroke-miterlimit:4.4"
       d="M 409.21739,270.90191 C 371.19078,177.00688 304.68783,102.48551 247.57652,20.46087 321.47322,99.639894 397.14086,177.7291 429.67826,282.36 Z"
       id="path50"
       sodipodi:nodetypes="cccc" />
    <path
       style="fill:#ff0000;fill-rule:evenodd;stroke:#000000;stroke-width:3.2;stroke-linecap:round;stroke-miterlimit:4.4"
       d="M 429.26905,282.36 C 402.6477,200.37545 338.45838,114.84674 254.124,27.417565 407.82586,165.19035 413.63603,226.79732 446.04697,295.45495 Z"
       id="path51"
       sodipodi:nodetypes="cccc" />
    <path
       style="fill:#ff0000;fill-rule:evenodd;stroke:#000000;stroke-width:3.2;stroke-linecap:round;stroke-miterlimit:4.4"
       d="m 306.09461,424.76765 -12.27652,-160.004 46.65078,160.82244 z"
       id="path52" />
    <path
       style="fill:#ff0000;fill-rule:evenodd;stroke:#000000;stroke-width:3.2;stroke-linecap:round;stroke-miterlimit:4.4"
       d="m 340.46887,425.17687 -44.60469,-155.09339 -4.91061,-23.73461 31.91895,3.27374 c 0,0 56.88122,179.23722 55.65357,177.60035 -1.22765,-1.63687 -38.05722,-2.04609 -38.05722,-2.04609 z"
       id="path53" />
    <path
       style="fill:#ff0000;fill-rule:evenodd;stroke:#000000;stroke-width:3.2;stroke-linecap:round;stroke-miterlimit:4.4"
       d="m 378.11687,427.63218 -55.24435,-180.05566 30.28209,4.91061 58.51809,175.55426 z"
       id="path54" />
    <path
       style="fill:#ff0000;fill-rule:evenodd;stroke:#000000;stroke-width:3.2;stroke-linecap:round;stroke-miterlimit:4.4"
       d="m 412.49113,428.45061 -58.9273,-175.14504 28.236,6.54747 c 24.49328,60.13691 43.43291,117.18846 58.10887,171.87131 z"
       id="path55"
       sodipodi:nodetypes="ccccc" />
    <path
       style="fill:#ff0000;fill-rule:evenodd;stroke:#000000;stroke-width:3.2;stroke-linecap:round;stroke-miterlimit:4.4"
       d="M 440.31792,431.72435 C 427.49904,378.47348 406.70191,320.43567 383.02748,260.67148 l 24.55304,8.18435 c 23.48646,58.46222 42.37083,114.62339 52.78905,166.55148 z"
       id="path56"
       sodipodi:nodetypes="ccccc" />
    <path
       style="fill:#ff0000;fill-rule:evenodd;stroke:#000000;stroke-width:3.2;stroke-linecap:round;stroke-miterlimit:4.4"
       d="M 461.59722,434.99809 C 448.25339,382.60125 431.54159,328.33331 408.39896,270.4927 l 21.68852,13.91339 c 22.07906,51.8342 35.81819,103.66841 47.06,155.50261 z"
       id="path57"
       sodipodi:nodetypes="ccccc" />
    <path
       style="fill:#ff0000;fill-rule:evenodd;stroke:#000000;stroke-width:3.2;stroke-linecap:round;stroke-miterlimit:4.4"
       d="M 477.14748,439.9087 C 463.69543,388.97373 451.2886,338.48671 430.4967,284.40609 l 15.14104,11.04887 c 25.40484,60.13703 30.88827,100.46466 42.14939,148.95513 z"
       id="path58"
       sodipodi:nodetypes="ccccc" />
    <path
       style="fill:#ff0000;fill-rule:evenodd;stroke:#000000;stroke-width:3.2;stroke-linecap:round;stroke-miterlimit:4.4"
       d="m 314.27896,600.73113 -3.27374,-142.40765 37.648,143.63531 z"
       id="path59" />
    <path
       style="fill:#ff0000;fill-rule:evenodd;stroke:#000000;stroke-width:3.2;stroke-linecap:round;stroke-miterlimit:4.4"
       d="m 349.88087,601.95879 -40.1033,-144.04453 c 0,0 -4.50139,-32.73739 -2.45531,-32.73739 2.04609,0 35.1927,0.40922 35.1927,0.40922 L 385.892,601.54957 Z"
       id="path60" />
    <path
       style="fill:#ff0000;fill-rule:evenodd;stroke:#000000;stroke-width:3.2;stroke-linecap:round;stroke-miterlimit:4.4"
       d="m 385.07357,601.54957 -44.6047,-176.78192 c 0,0 40.10331,1.63687 38.05722,1.63687 -2.04609,0 41.74017,175.14505 41.74017,175.14505 z"
       id="path61" />
    <path
       style="fill:#ff0000;fill-rule:evenodd;stroke:#000000;stroke-width:3.2;stroke-linecap:round;stroke-miterlimit:4.4"
       d="m 420.26626,601.14035 -42.14939,-173.91739 35.1927,1.63687 34.37426,169.82522 z"
       id="path62" />
    <path
       style="fill:#ff0000;fill-rule:evenodd;stroke:#000000;stroke-width:3.2;stroke-linecap:round;stroke-miterlimit:4.4"
       d="m 447.27461,597.86661 -33.55583,-169.416 27.82679,3.68296 c 17.24488,64.68263 22.73537,112.90912 29.46365,162.86852 z"
       id="path63"
       sodipodi:nodetypes="ccccc" />
    <path
       style="fill:#ff0000;fill-rule:evenodd;stroke:#000000;stroke-width:3.2;stroke-linecap:round;stroke-miterlimit:4.4"
       d="m 469.37235,592.956 c 2.39706,2.38118 -20.83643,-152.22323 -28.236,-161.64087 l 21.2793,4.50139 c 13.61718,55.75661 20.3078,106.1259 24.14383,154.27496 z"
       id="path64"
       sodipodi:nodetypes="ccccc" />
    <path
       style="fill:#ff0000;fill-rule:evenodd;stroke:#000000;stroke-width:3.2;stroke-linecap:round;stroke-miterlimit:4.4"
       d="M 486.55948,590.90992 C 483.22054,541.84655 476.2302,490.59235 462.00644,434.99809 l 14.32261,4.91061 c 15.61508,59.41754 19.35336,103.98909 22.09774,147.31826 z"
       id="path65"
       sodipodi:nodetypes="ccccc" />
    <path
       style="fill:#ff0000;fill-rule:evenodd;stroke:#000000;stroke-width:3.2;stroke-linecap:round;stroke-miterlimit:4.4"
       d="m 498.836,586.40852 c -3.08038,-48.31463 -9.88251,-97.09448 -21.68852,-146.49982 l 11.04887,4.91061 c 20.68453,82.74532 17.36291,97.97338 22.09774,135.86017 z"
       id="path66"
       sodipodi:nodetypes="ccccc" />
    <path
       style="fill:#ff0000;fill-rule:evenodd;stroke:#000000;stroke-width:3.2;stroke-linecap:round;stroke-miterlimit:4.4"
       d="m 510.29408,852.39983 c -62.0079,49.47162 -170.81097,21.13616 -189.46764,18.82399 l -3.27374,-27.41755 c 35.23087,13.27065 87.09046,23.49093 192.74138,8.59356 z"
       id="path67"
       sodipodi:nodetypes="cccc" />
    <path
       style="fill:#ff0000;fill-rule:evenodd;stroke:#000000;stroke-width:3.2;stroke-linecap:round;stroke-miterlimit:4.4"
       d="m 511.93096,851.99061 c -60.69761,5.06245 -118.86462,20.87061 -194.78748,-6.54748 l 0.81843,-30.6913 c 106.88694,41.74281 140.54977,32.82245 193.96905,37.23878 z"
       id="path68"
       sodipodi:nodetypes="cccc" />
    <path
       style="fill:#ff0000;fill-rule:evenodd;stroke:#000000;stroke-width:3.2;stroke-linecap:round;stroke-miterlimit:4.4"
       d="m 509.47565,848.71687 c -8.73777,15.2911 -199.82669,-17.88282 -191.51374,-34.78347 0.7447,-1.51401 -2.04608,-28.64522 -2.04608,-28.64522 52.93714,29.60054 123.56255,45.55699 193.55982,63.42869 z"
       id="path69"
       sodipodi:nodetypes="cscc" />
    <path
       style="fill:#ff0000;fill-rule:evenodd;stroke:#000000;stroke-width:3.2;stroke-linecap:round;stroke-miterlimit:4.4"
       d="M 510.70331,849.12609 C 445.72631,830.1443 381.67202,819.46701 314.68818,782.42366 l -0.81844,-32.32818 c 71.35793,45.32464 132.50805,68.77542 196.83357,99.03061 z"
       id="path70"
       sodipodi:nodetypes="cccc" />
    <path
       style="fill:#ff0000;fill-rule:evenodd;stroke:#000000;stroke-width:3.2;stroke-linecap:round;stroke-miterlimit:4.4"
       d="M 509.47565,848.30766 C 444.42227,817.14993 380.49032,793.2815 313.46052,749.27705 l 1.22766,-35.60192 z"
       id="path71"
       sodipodi:nodetypes="cccc" />
    <path
       style="fill:#ff0000;fill-rule:evenodd;stroke:#000000;stroke-width:3.2;stroke-linecap:round;stroke-miterlimit:4.4"
       d="M 508.248,847.89844 313.46052,712.8567 l 0.40922,-33.96505 z"
       id="path72"
       sodipodi:nodetypes="cccc" />
    <path
       style="fill:#ff0000;fill-rule:evenodd;stroke:#000000;stroke-width:3.2;stroke-linecap:round;stroke-miterlimit:4.4"
       d="M 509.47565,847.08 C 444.57423,790.534 383.69681,743.04201 314.68818,677.25479 l -1.63687,-35.1927 z"
       id="path73"
       sodipodi:nodetypes="cccc" />
    <path
       style="fill:#ff0000;fill-rule:evenodd;stroke:#000000;stroke-width:3.2;stroke-linecap:round;stroke-miterlimit:4.4"
       d="M 504.97426,848.30766 313.05131,642.47131 312.64209,609.3247 Z"
       id="path74" />
    <path
       style="fill:#ff0000;fill-rule:evenodd;stroke:#000000;stroke-width:3.2;stroke-linecap:round;stroke-miterlimit:4.4"
       d="M 508.24801,845.85236 C 443.36014,768.52152 381.03063,698.22616 312.23287,610.14313 l 0.81844,-11.45808 c 0,0 38.46643,3.68295 36.82956,3.68295 -1.63687,0 158.36714,243.48436 158.36714,243.48436 z"
       id="path75"
       sodipodi:nodetypes="cccsc" />
    <path
       style="fill:#ff0000;fill-rule:evenodd;stroke:#000000;stroke-width:3.2;stroke-linecap:round;stroke-miterlimit:4.4"
       d="M 510.70331,847.48922 C 456.94607,765.76784 401.13029,688.84973 350.29009,600.32192 l 36.42035,2.04608 z"
       id="path76"
       sodipodi:nodetypes="cccc" />
    <path
       style="fill:#ff0000;fill-rule:evenodd;stroke:#000000;stroke-width:3.2;stroke-linecap:round;stroke-miterlimit:4.4"
       d="M 510.70331,847.48922 385.892,601.14035 h 34.37426 z"
       id="path77" />
    <path
       style="fill:#ff0000;fill-rule:evenodd;stroke:#000000;stroke-width:3.2;stroke-linecap:round;stroke-miterlimit:4.4"
       d="m 511.11252,847.48922 -91.66469,-247.1673 29.05443,-2.45531 z"
       id="path78"
       sodipodi:nodetypes="cccc" />
    <path
       style="fill:#ff0000;fill-rule:evenodd;stroke:#000000;stroke-width:3.2;stroke-linecap:round;stroke-miterlimit:4.4"
       d="m 509.88487,849.53531 -61.79182,-250.44105 20.87008,-5.31982 z"
       id="path79"
       sodipodi:nodetypes="cccc" />
    <path
       style="fill:#ff0000;fill-rule:evenodd;stroke:#000000;stroke-width:3.2;stroke-linecap:round;stroke-miterlimit:4.4"
       d="M 510.70331,850.35374 468.55392,592.956 l 18.00556,-2.4553 z"
       id="path80" />
    <path
       style="fill:#ff0000;fill-rule:evenodd;stroke:#000000;stroke-width:3.2;stroke-linecap:round;stroke-miterlimit:4.4"
       d="m 511.93096,852.39983 -26.18991,-263.536 12.27652,-3.27374 c 12.59589,99.54737 10.04806,178.90311 13.91339,266.80974 z"
       id="path81"
       sodipodi:nodetypes="cccc" />
    <path
       style="fill:#ff0000;fill-rule:evenodd;stroke:#000000;stroke-width:3.2;stroke-linecap:round;stroke-miterlimit:4.4"
       d="m 511.52174,852.39983 c 1.20535,-2.60658 -6.86289,-263.20065 -13.50417,-267.62817 0,0 11.32147,-6.04458 11.8673,-4.5014 5.74111,16.23156 4.79666,279.08111 1.63687,272.12957 z"
       id="path82"
       sodipodi:nodetypes="ccsc" />
  </g>
</svg>
