<?xml version="1.0" encoding="UTF-8" standalone="no"?>
<!-- Created with Inkscape (http://www.inkscape.org/) -->

<svg
   version="1.1"
   id="svg1"
   width="587"
   height="941"
   viewBox="0 0 587 941"
   sodipodi:docname="AR-4 57m2.svg"
   inkscape:version="1.3 (0e150ed6c4, 2023-07-21)"
   xmlns:inkscape="http://www.inkscape.org/namespaces/inkscape"
   xmlns:sodipodi="http://sodipodi.sourceforge.net/DTD/sodipodi-0.dtd"
   xmlns="http://www.w3.org/2000/svg"
   xmlns:svg="http://www.w3.org/2000/svg">
  <defs
     id="defs1" />
  <sodipodi:namedview
     id="namedview1"
     pagecolor="#ffffff"
     bordercolor="#000000"
     borderopacity="0.25"
     inkscape:showpageshadow="2"
     inkscape:pageopacity="0.0"
     inkscape:pagecheckerboard="0"
     inkscape:deskcolor="#d1d1d1"
     showgrid="false"
     inkscape:zoom="1.727949"
     inkscape:cx="424.78106"
     inkscape:cy="164.06734"
     inkscape:window-width="1920"
     inkscape:window-height="1009"
     inkscape:window-x="-8"
     inkscape:window-y="-8"
     inkscape:window-maximized="1"
     inkscape:current-layer="g1" />
  <g
     inkscape:groupmode="layer"
     inkscape:label="Image"
     id="g1">
    <path
       style="fill:#ff0000;fill-rule:evenodd;stroke:#000000;stroke-width:3.2;stroke-linecap:round;stroke-miterlimit:4.4"
       d="M 83.335793,761.01784 C 74.117253,771.42206 43.973887,599.67754 52.084871,503.48708 l 25.463715,4.62977 z"
       id="path2"
       sodipodi:nodetypes="cccc" />
    <path
       style="fill:#ff0000;fill-rule:evenodd;stroke:#000000;stroke-width:3.2;stroke-linecap:round;stroke-miterlimit:4.4"
       d="m 82.178352,759.86039 -3.472325,-252.90098 26.042433,7.52337 z"
       id="path3" />
    <path
       style="fill:#ff0000;fill-rule:evenodd;stroke:#000000;stroke-width:3.2;stroke-linecap:round;stroke-miterlimit:4.4"
       d="m 82.178352,758.70295 22.570108,-245.95633 32.40837,9.25953 z"
       id="path4" />
    <path
       style="fill:#ff0000;fill-rule:evenodd;stroke:#000000;stroke-width:3.2;stroke-linecap:round;stroke-miterlimit:4.4"
       d="m 83.914514,758.12423 54.399756,-239.01168 37.03813,6.36593 z"
       id="path5" />
    <path
       style="fill:#ff0000;fill-rule:evenodd;stroke:#000000;stroke-width:3.2;stroke-linecap:round;stroke-miterlimit:4.4"
       d="m 82.178352,759.28167 93.752768,-233.80319 46.87638,6.94464 z"
       id="path6" />
    <path
       style="fill:#ff0000;fill-rule:evenodd;stroke:#000000;stroke-width:3.2;stroke-linecap:round;stroke-miterlimit:4.4"
       d="M 85.071956,759.28167 222.22878,531.26568 275.4711,534.44865 Z"
       id="path7"
       sodipodi:nodetypes="cccc" />
    <path
       style="fill:#ff0000;fill-rule:evenodd;stroke:#000000;stroke-width:3.2;stroke-linecap:round;stroke-miterlimit:4.4"
       d="m 83.914514,759.28167 192.714026,-224.54366 50.92743,0.28935 0.28936,24.88501 C 250.88966,629.85248 165.22479,692.82524 83.914514,759.28167 Z"
       id="path8"
       sodipodi:nodetypes="ccccc" />
    <path
       style="fill:#ff0000;fill-rule:evenodd;stroke:#000000;stroke-width:3.2;stroke-linecap:round;stroke-miterlimit:4.4"
       d="m 83.335793,759.86039 247.692497,-201.97355 2.8936,76.39114 z"
       id="path9"
       sodipodi:nodetypes="cccc" />
    <path
       style="fill:#ff0000;fill-rule:evenodd;stroke:#000000;stroke-width:3.2;stroke-linecap:round;stroke-miterlimit:4.4"
       d="M 83.914514,761.01784 332.18573,631.9631 l -1.15744,57.29336 z"
       id="path10" />
    <path
       style="fill:#ff0000;fill-rule:evenodd;stroke:#000000;stroke-width:3.2;stroke-linecap:round;stroke-miterlimit:4.4"
       d="m 83.914514,760.43911 246.535056,-71.18265 0.57872,57.58271 z"
       id="path11"
       sodipodi:nodetypes="cccc" />
    <path
       style="fill:#ff0000;fill-rule:evenodd;stroke:#000000;stroke-width:3.2;stroke-linecap:round;stroke-miterlimit:4.4"
       d="m 82.757073,760.43911 248.849937,-13.88929 -0.57872,48.03382 c -86.20763,3.5709 -166.34804,-19.14945 -248.271217,-34.14453 z"
       id="path12"
       sodipodi:nodetypes="cccc" />
    <path
       style="fill:#ff0000;fill-rule:evenodd;stroke:#000000;stroke-width:3.2;stroke-linecap:round;stroke-miterlimit:4.4"
       d="m 83.335793,762.17528 c 81.731657,13.06174 160.360467,33.10489 247.692497,33.5658 l 0.57872,41.6679 C 235.58889,822.27687 161.86461,790.42437 83.335793,762.17528 Z"
       id="path13"
       sodipodi:nodetypes="cccc" />
    <path
       style="fill:#ff0000;fill-rule:evenodd;stroke:#000000;stroke-width:3.2;stroke-linecap:round;stroke-miterlimit:4.4"
       d="m 82.178352,762.754 c 79.316128,29.97288 158.322898,59.4214 251.164818,74.36562 l -0.57872,40.79982 C 175.82258,856.11812 126.28466,791.44136 82.178352,762.754 Z"
       id="path14"
       sodipodi:nodetypes="cccc" />
    <path
       style="fill:#ff0000;fill-rule:evenodd;stroke:#000000;stroke-width:3.2;stroke-linecap:round;stroke-miterlimit:4.4"
       d="m 518.53383,848.40467 c -28.79607,38.11784 -102.27707,39.03499 -186.05874,29.80412 l -0.57872,-40.51045 z"
       id="path15"
       sodipodi:nodetypes="cccc" />
    <path
       style="fill:#ff0000;fill-rule:evenodd;stroke:#000000;stroke-width:3.2;stroke-linecap:round;stroke-miterlimit:4.4"
       d="m 519.69127,848.9834 c -62.50185,-3.01279 -125.00369,4.25154 -187.50554,-12.73187 l -0.28936,-41.66789 c 62.69475,28.89298 125.10015,36.45154 187.7949,54.39976 z"
       id="path16"
       sodipodi:nodetypes="cccc" />
    <path
       style="fill:#ff0000;fill-rule:evenodd;stroke:#000000;stroke-width:3.2;stroke-linecap:round;stroke-miterlimit:4.4"
       d="M 518.53383,849.56212 C 455.78235,832.29123 391.83733,825.03906 331.89637,793.71556 l 0.28936,-50.63807 c 62.11603,46.8269 124.23207,74.05335 186.3481,106.48463 z"
       id="path17"
       sodipodi:nodetypes="cccc" />
    <path
       style="fill:#ff0000;fill-rule:evenodd;stroke:#000000;stroke-width:3.2;stroke-linecap:round;stroke-miterlimit:4.4"
       d="M 520.26999,848.9834 C 457.01384,817.15609 393.3997,792.73905 331.60701,744.81365 v -56.13591 z"
       id="path18"
       sodipodi:nodetypes="cccc" />
    <path
       style="fill:#ff0000;fill-rule:evenodd;stroke:#000000;stroke-width:3.2;stroke-linecap:round;stroke-miterlimit:4.4"
       d="M 520.84871,850.14084 331.60701,689.25645 332.18573,631.9631 Z"
       id="path19"
       sodipodi:nodetypes="cccc" />
    <path
       style="fill:#ff0000;fill-rule:evenodd;stroke:#000000;stroke-width:3.2;stroke-linecap:round;stroke-miterlimit:4.4"
       d="M 517.9551,844.93235 C 515.0615,837.9877 331.31765,631.9631 331.31765,631.9631 l -2.60424,-74.07626 z"
       id="path20"
       sodipodi:nodetypes="cccc" />
    <path
       style="fill:#ff0000;fill-rule:evenodd;stroke:#000000;stroke-width:3.2;stroke-linecap:round;stroke-miterlimit:4.4"
       d="m 517.9551,846.08979 -188.66297,-285.88807 -0.57872,-24.30627 48.90191,2.02553 z"
       id="path21"
       sodipodi:nodetypes="ccccc" />
    <path
       style="fill:#ff0000;fill-rule:evenodd;stroke:#000000;stroke-width:3.2;stroke-linecap:round;stroke-miterlimit:4.4"
       d="M 517.37638,846.66851 376.16852,538.49969 439.53844,537.63161 Z"
       id="path22"
       sodipodi:nodetypes="cccc" />
    <path
       style="fill:#ff0000;fill-rule:evenodd;stroke:#000000;stroke-width:3.2;stroke-linecap:round;stroke-miterlimit:4.4"
       d="m 517.9551,848.40467 -78.1273,-309.61562 39.93173,-1.15744 c 40.12871,112.7233 25.50203,207.19481 38.19557,310.77306 z"
       id="path23"
       sodipodi:nodetypes="cccc" />
    <path
       style="fill:#ff0000;fill-rule:evenodd;stroke:#000000;stroke-width:3.2;stroke-linecap:round;stroke-miterlimit:4.4"
       d="m 519.69127,850.71956 -40.51046,-313.66667 25.75308,-3.47232 c 19.68634,112.37321 11.76575,213.11314 14.75738,317.13899 z"
       id="path24"
       sodipodi:nodetypes="cccc" />
    <path
       style="fill:#ff0000;fill-rule:evenodd;stroke:#000000;stroke-width:3.2;stroke-linecap:round;stroke-miterlimit:4.4"
       d="m 520.26999,850.71956 c 4.57969,-1.55161 -3.74352,-314.38704 -16.7829,-316.56027 l 14.46801,-1.15744 c 15.12852,144.19095 3.9539,218.24018 2.31489,317.71771 z"
       id="path25"
       sodipodi:nodetypes="cccc" />
    <path
       style="fill:#ff0000;fill-rule:evenodd;stroke:#000000;stroke-width:3.2;stroke-linecap:round;stroke-miterlimit:4.4"
       d="M 50.927429,502.90837 C 48.592531,442.76104 55.679708,372.375 76.391144,315.40283 l 34.144526,-4.3404 -31.829643,197.63314 z"
       id="path26"
       sodipodi:nodetypes="ccccc" />
    <path
       style="fill:#ff0000;fill-rule:evenodd;stroke:#000000;stroke-width:3.2;stroke-linecap:round;stroke-miterlimit:4.4"
       d="M 78.127306,506.38069 109.37823,311.35178 145.83764,306.1433 105.9059,512.1679 Z"
       id="path27" />
    <path
       style="fill:#ff0000;fill-rule:evenodd;stroke:#000000;stroke-width:3.2;stroke-linecap:round;stroke-miterlimit:4.4"
       d="m 135.99939,519.11255 -30.09349,-8.68082 40.51046,-207.76076 38.77429,-2.31488 z"
       id="path28" />
    <path
       style="fill:#ff0000;fill-rule:evenodd;stroke:#000000;stroke-width:3.2;stroke-linecap:round;stroke-miterlimit:4.4"
       d="m 135.42066,518.53383 51.50615,-218.17774 39.35302,-1.73616 -50.34871,226.85855 z"
       id="path29" />
    <path
       style="fill:#ff0000;fill-rule:evenodd;stroke:#000000;stroke-width:3.2;stroke-linecap:round;stroke-miterlimit:4.4"
       d="m 177.08856,524.89975 50.92743,-226.85854 42.82534,-2.31489 -48.61255,235.53936 z"
       id="path30" />
    <path
       style="fill:#ff0000;fill-rule:evenodd;stroke:#000000;stroke-width:3.2;stroke-linecap:round;stroke-miterlimit:4.4"
       d="m 224.54367,530.68696 46.87638,-235.53936 44.5615,1.15744 4.34041,29.2254 -44.56151,208.9182 z"
       id="path31"
       sodipodi:nodetypes="cccccc" />
    <path
       style="fill:#ff0000;fill-rule:evenodd;stroke:#000000;stroke-width:3.2;stroke-linecap:round;stroke-miterlimit:4.4"
       d="m 274.89237,534.15929 45.14023,-203.70972 7.52337,206.0246 z"
       id="path32"
       sodipodi:nodetypes="cccc" />
    <path
       style="fill:#ff0000;fill-rule:evenodd;stroke:#000000;stroke-width:3.2;stroke-linecap:round;stroke-miterlimit:4.4"
       d="m 328.71341,535.89545 -6.07657,-208.05012 54.68911,210.94372 z"
       id="path33"
       sodipodi:nodetypes="cccc" />
    <path
       style="fill:#ff0000;fill-rule:evenodd;stroke:#000000;stroke-width:3.2;stroke-linecap:round;stroke-miterlimit:4.4"
       d="m 376.16851,538.21033 -56.13591,-212.10116 -4.05105,-32.11901 55.5572,5.20849 c 40.70364,117.7575 53.9125,176.61281 67.42097,239.01168 z"
       id="path34"
       sodipodi:nodetypes="cccccc" />
    <path
       style="fill:#ff0000;fill-rule:evenodd;stroke:#000000;stroke-width:3.2;stroke-linecap:round;stroke-miterlimit:4.4"
       d="M 440.40652,538.49969 C 424.44706,468.04307 401.7378,380.94595 373.27491,298.61993 l 47.4551,9.25953 c 28.12085,70.96693 49.70012,148.28169 59.31888,230.04151 z"
       id="path35"
       sodipodi:nodetypes="ccccc" />
    <path
       style="fill:#ff0000;fill-rule:evenodd;stroke:#000000;stroke-width:3.2;stroke-linecap:round;stroke-miterlimit:4.4"
       d="M 480.33825,536.76353 C 470.83581,455.76762 445.31709,380.17561 420.73001,306.72202 l 38.19557,17.94034 c 21.01103,67.57159 38.78065,138.74593 47.45511,210.94373 z"
       id="path36"
       sodipodi:nodetypes="ccccc" />
    <path
       style="fill:#ff0000;fill-rule:evenodd;stroke:#000000;stroke-width:3.2;stroke-linecap:round;stroke-miterlimit:4.4"
       d="m 504.64452,534.73801 c -9.43734,-66.46159 -25.4812,-137.4424 -45.71894,-210.07565 l 16.78291,12.15314 c 21.24157,63.65656 33.44043,131.30089 42.53597,196.4757 z"
       id="path37"
       sodipodi:nodetypes="ccccc" />
    <path
       style="fill:#ff0000;fill-rule:evenodd;stroke:#000000;stroke-width:3.2;stroke-linecap:round;stroke-miterlimit:4.4"
       d="M 500.59348,532.42312 Z"
       id="path38" />
    <path
       style="fill:#ff0000;fill-rule:evenodd;stroke:#000000;stroke-width:3.2;stroke-linecap:round;stroke-miterlimit:4.4"
       d="M 76.680505,315.40283 C 114.66678,186.58575 156.36343,67.480423 235.53936,5.7872079 183.22983,98.753686 138.59965,198.3756 109.37823,311.35178 Z"
       id="path39"
       sodipodi:nodetypes="cccc" />
    <path
       style="fill:#ff0000;fill-rule:evenodd;stroke:#000000;stroke-width:3.2;stroke-linecap:round;stroke-miterlimit:4.4"
       d="M 109.37823,311.35178 C 146.07931,165.79936 192.15325,87.419064 237.85424,6.3659287 204.09047,100.97729 167.84799,189.74745 145.54828,305.85393 Z"
       id="path40"
       sodipodi:nodetypes="cccc" />
    <path
       style="fill:#ff0000;fill-rule:evenodd;stroke:#000000;stroke-width:3.2;stroke-linecap:round;stroke-miterlimit:4.4"
       d="M 145.25892,304.98585 C 165.21623,191.22176 203.16361,101.64837 236.11808,8.102091 L 184.03321,299.19865 Z"
       id="path41"
       sodipodi:nodetypes="cccc" />
    <path
       style="fill:#ff0000;fill-rule:evenodd;stroke:#000000;stroke-width:3.2;stroke-linecap:round;stroke-miterlimit:4.4"
       d="M 184.61193,300.35609 237.85424,11.574416 225.12239,298.04121 Z"
       id="path42" />
    <path
       style="fill:#ff0000;fill-rule:evenodd;stroke:#000000;stroke-width:3.2;stroke-linecap:round;stroke-miterlimit:4.4"
       d="M 224.54367,298.04121 237.85424,8.6808118 270.26261,296.30504 Z"
       id="path43" />
    <path
       style="fill:#ff0000;fill-rule:evenodd;stroke:#000000;stroke-width:3.2;stroke-linecap:round;stroke-miterlimit:4.4"
       d="M 270.26261,295.1476 237.27552,10.416974 314.82411,295.1476 l -43.69342,0.86809"
       id="path44"
       sodipodi:nodetypes="cccc" />
    <path
       style="fill:#ff0000;fill-rule:evenodd;stroke:#000000;stroke-width:3.2;stroke-linecap:round;stroke-miterlimit:4.4"
       d="M 317.42835,295.1476 236.6968,9.2595326 C 284.26473,103.51543 343.73784,194.49928 372.98554,298.61992 Z"
       id="path45"
       sodipodi:nodetypes="cccc" />
    <path
       style="fill:#ff0000;fill-rule:evenodd;stroke:#000000;stroke-width:3.2;stroke-linecap:round;stroke-miterlimit:4.4"
       d="M 372.11747,298.04121 C 354.22942,227.48957 289.01896,109.61552 238.43296,6.3659287 301.9199,102.88228 370.18478,194.08982 420.73001,304.98586 Z"
       id="path46"
       sodipodi:nodetypes="cccc" />
    <path
       style="fill:#ff0000;fill-rule:evenodd;stroke:#000000;stroke-width:3.2;stroke-linecap:round;stroke-miterlimit:4.4"
       d="M 420.44065,307.30073 C 374.34854,200.00136 302.52268,106.36855 241.32657,8.6808118 316.61659,79.297146 417.42576,179.50156 459.50431,324.373 Z"
       id="path47"
       sodipodi:nodetypes="cccc" />
    <path
       style="fill:#ff0000;fill-rule:evenodd;stroke:#000000;stroke-width:3.2;stroke-linecap:round;stroke-miterlimit:4.4"
       d="M 457.18942,322.34748 C 435.42182,240.96065 238.29363,-15.965882 236.69681,6.3659287 310.84852,71.000793 383.25597,107.43495 473.68297,333.34318 Z"
       id="path48"
       sodipodi:nodetypes="cccc" />
  </g>
</svg>
