<?xml version="1.0" encoding="UTF-8" standalone="no"?>
<!-- Created with Inkscape (http://www.inkscape.org/) -->

<svg
   version="1.1"
   id="svg1"
   width="587"
   height="941"
   viewBox="0 0 587 941"
   sodipodi:docname="Asym 1 36m2 line2.svg"
   inkscape:version="1.3 (0e150ed6c4, 2023-07-21)"
   xmlns:inkscape="http://www.inkscape.org/namespaces/inkscape"
   xmlns:sodipodi="http://sodipodi.sourceforge.net/DTD/sodipodi-0.dtd"
   xmlns="http://www.w3.org/2000/svg"
   xmlns:svg="http://www.w3.org/2000/svg">
  <defs
     id="defs1" />
  <sodipodi:namedview
     id="namedview1"
     pagecolor="#ffffff"
     bordercolor="#cccccc"
     borderopacity="1"
     inkscape:showpageshadow="0"
     inkscape:pageopacity="1"
     inkscape:pagecheckerboard="0"
     inkscape:deskcolor="#d1d1d1"
     showgrid="false"
     inkscape:zoom="1.2218444"
     inkscape:cx="370.75096"
     inkscape:cy="20.051652"
     inkscape:window-width="1920"
     inkscape:window-height="1009"
     inkscape:window-x="-8"
     inkscape:window-y="-8"
     inkscape:window-maximized="1"
     inkscape:current-layer="g1" />
  <g
     inkscape:groupmode="layer"
     inkscape:label="Image"
     id="g1">
    <path
       style="opacity:1;fill:#ffccaa;fill-opacity:0.994302;fill-rule:evenodd;stroke:#000000;stroke-width:3.2;stroke-linecap:round;stroke-miterlimit:4.4;stroke-dasharray:none;stroke-opacity:1"
       d="M 89.123001,740.76261 C 82.198964,675.43583 70.767217,628.48448 67.20833,592.95249 57.084203,491.87302 59.128812,493.30982 59.128812,493.30982 c 32.408364,6.50791 32.09844,3.43257 32.09844,3.0922 -6.944649,278.04501 -2.104251,235.10106 -2.104251,235.10106"
       id="path1" />
    <path
       style="opacity:1;fill:#ff8080;fill-opacity:0.994302;fill-rule:evenodd;stroke:#000000;stroke-width:3.2;stroke-linecap:round;stroke-miterlimit:4.4;stroke-dasharray:none;stroke-opacity:1"
       d="M 91.255479,744.36644 C 92.892348,741.91113 276.63096,530.75496 276.63096,530.75496 l 58.10887,4.50139 0.40922,13.50417 z"
       id="path17" />
    <path
       style="opacity:1;fill:#d40000;fill-opacity:0.994302;fill-rule:evenodd;stroke:#000000;stroke-width:3.2;stroke-linecap:round;stroke-miterlimit:4.4;stroke-dasharray:none;stroke-opacity:1"
       d="M 91.255479,741.0927 214.0207,522.97983 l 61.38261,9.00278 z"
       id="path16" />
    <path
       style="opacity:1;fill:#ffeeaa;fill-opacity:0.994302;fill-rule:evenodd;stroke:#000000;stroke-width:3.2;stroke-linecap:round;stroke-miterlimit:4.4;stroke-dasharray:none;stroke-opacity:1"
       d="m 90.437044,739.45583 75.296006,-221.38661 46.65078,6.13826 z"
       id="path15" />
    <path
       style="opacity:1;fill:#ffcc00;fill-opacity:0.994302;fill-rule:evenodd;stroke:#000000;stroke-width:3.2;stroke-linecap:round;stroke-miterlimit:4.4;stroke-dasharray:none;stroke-opacity:1"
       d="m 90.437044,740.27426 35.192696,-233.25391 39.28487,9.82122 z"
       id="path14" />
    <path
       style="opacity:1;fill:#aa8800;fill-opacity:0.994302;fill-rule:evenodd;stroke:#000000;stroke-width:3.2;stroke-linecap:round;stroke-miterlimit:4.4;stroke-dasharray:none;stroke-opacity:1"
       d="m 90.027827,739.45583 c 2.455304,-240.21061 2.455304,-241.43826 2.455304,-241.43826 l 33.146609,9.82122 z"
       id="path13" />
    <path
       style="opacity:1;fill:#d45500;fill-opacity:0.994302;fill-rule:evenodd;stroke:#000000;stroke-width:3.2;stroke-linecap:round;stroke-miterlimit:4.4;stroke-dasharray:none;stroke-opacity:1"
       d="M 57.872079,492.49139 C 51.557972,413.55614 68.069766,344.90557 77.530151,309.32626 l 46.316099,-6.07657 C 103.00437,368.19635 93.789282,435.70659 91.437884,497.5715 Z"
       id="path2" />
    <path
       style="opacity:1;fill:#e9afaf;fill-opacity:0.994302;fill-rule:evenodd;stroke:#000000;stroke-width:3.2;stroke-linecap:round;stroke-miterlimit:4.4;stroke-dasharray:none;stroke-opacity:1"
       d="M 77.618796,309.24754 C 114.51752,178.42629 169.91829,78.000653 240.74785,5.7872079 200.91315,95.432953 154.4778,176.8179 123.84625,303.05111 Z"
       id="path3" />
    <path
       style="opacity:1;fill:#ff6600;fill-opacity:0.994302;fill-rule:evenodd;stroke:#000000;stroke-width:3.2;stroke-linecap:round;stroke-miterlimit:4.4;stroke-dasharray:none;stroke-opacity:1"
       d="M 449.3207,317.5527 C 403.34586,200.21988 319.86514,104.14039 242.66591,4.5013913 332.31319,100.49005 429.32356,185.82175 471.82765,335.96748 Z"
       id="path35" />
    <path
       style="opacity:1;fill:#ffb380;fill-opacity:0.994302;fill-rule:evenodd;stroke:#000000;stroke-width:3.2;stroke-linecap:round;stroke-miterlimit:4.4;stroke-dasharray:none;stroke-opacity:1"
       d="M 414.94644,304.45774 C 370.21777,194.91394 303.7091,102.79414 243.89357,5.3198261 316.49245,103.67254 397.21855,191.18896 448.50226,317.96191 Z"
       id="path34" />
    <path
       style="opacity:1;fill:#c87137;fill-opacity:0.994302;fill-rule:evenodd;stroke:#000000;stroke-width:3.2;stroke-linecap:round;stroke-miterlimit:4.4;stroke-dasharray:none;stroke-opacity:1"
       d="M 370.34174,296.27339 C 342.83322,193.41808 288.53411,103.1701 244.30278,8.1843479 304.36452,104.97751 371.27904,198.14271 414.128,304.04852 Z"
       id="path33" />
    <path
       style="opacity:1;fill:#e9c6af;fill-opacity:0.994302;fill-rule:evenodd;stroke:#000000;stroke-width:3.2;stroke-linecap:round;stroke-miterlimit:4.4;stroke-dasharray:none;stroke-opacity:1"
       d="M 322.46331,292.99965 242.66591,6.5474783 C 287.38298,102.31142 341.96661,195.17343 369.93252,295.86418 Z"
       id="path32" />
    <path
       style="opacity:1;fill:#2b2200;fill-opacity:0.994302;fill-rule:evenodd;stroke:#000000;stroke-width:3.2;stroke-linecap:round;stroke-miterlimit:4.4;stroke-dasharray:none;stroke-opacity:1"
       d="M 270.90191,291.36278 243.07513,7.3659131 321.64487,292.59044 Z"
       id="path31" />
    <path
       style="opacity:1;fill:#786721;fill-opacity:0.994302;fill-rule:evenodd;stroke:#000000;stroke-width:3.2;stroke-linecap:round;stroke-miterlimit:4.4;stroke-dasharray:none;stroke-opacity:1"
       d="M 221.38661,292.18122 240.61983,5.7290435 271.31113,290.95357 Z"
       id="path30" />
    <path
       style="opacity:1;fill:#a0892c;fill-opacity:0.994302;fill-rule:evenodd;stroke:#000000;stroke-width:3.2;stroke-linecap:round;stroke-miterlimit:4.4;stroke-dasharray:none;stroke-opacity:1"
       d="M 171.05287,295.04574 238.16452,8.1843479 220.56818,292.59044 Z"
       id="path29" />
    <path
       style="opacity:1;fill:#fff6d5;fill-opacity:0.994302;fill-rule:evenodd;stroke:#000000;stroke-width:3.2;stroke-linecap:round;stroke-miterlimit:4.4;stroke-dasharray:none;stroke-opacity:1"
       d="M 124.40209,301.184 C 155.72911,175.48259 200.51652,105.30528 238.57374,7.3659131 L 171.87131,294.63652 Z"
       id="path28" />
    <path
       style="opacity:1;fill:#ffeeaa;fill-opacity:0.994302;fill-rule:evenodd;stroke:#000000;stroke-width:3.2;stroke-linecap:round;stroke-miterlimit:4.4;stroke-dasharray:none;stroke-opacity:1"
       d="M 504.97426,538.93931 C 492.03829,462.80731 474.12392,390.5474 451.36678,322.05409 l 21.68853,18.824 c 26.46923,63.42241 36.74134,131.1225 45.01391,197.652 z"
       id="path27" />
    <path
       style="opacity:1;fill:#ffcc00;fill-opacity:0.994302;fill-rule:evenodd;stroke:#000000;stroke-width:3.2;stroke-linecap:round;stroke-miterlimit:4.4;stroke-dasharray:none;stroke-opacity:1"
       d="M 479.60279,539.34852 C 461.04746,461.44192 441.06965,383.73853 414.94644,306.91305 l 36.01113,15.55026 c 21.07011,67.81774 40.71193,139.57267 53.19826,216.06678 z"
       id="path26" />
    <path
       style="opacity:1;fill:#917c6f;fill-opacity:0.994302;fill-rule:evenodd;stroke:#000000;stroke-width:3.2;stroke-linecap:round;stroke-miterlimit:4.4;stroke-dasharray:none;stroke-opacity:1"
       d="M 432.13357,538.53009 C 406.14727,361.621 370.75556,297.91843 370.75096,297.91026 l 44.60469,9.82122 c 26.614,78.41814 45.84839,155.91383 63.83792,233.25391 z"
       id="path25" />
    <path
       style="opacity:1;fill:#ffccaa;fill-opacity:0.994302;fill-rule:evenodd;stroke:#000000;stroke-width:3.2;stroke-linecap:round;stroke-miterlimit:4.4;stroke-dasharray:none;stroke-opacity:1"
       d="M 385.07357,538.53009 C 384.25513,515.61392 322.46331,319.59878 322.46331,319.59878 l -0.81844,-24.14382 48.69687,4.50139 c 31.85487,76.72972 50.63725,159.50071 62.20104,239.39217 z"
       id="path24" />
    <path
       style="opacity:1;fill:#ffb380;fill-opacity:0.994302;fill-rule:evenodd;stroke:#000000;stroke-width:3.2;stroke-linecap:round;stroke-miterlimit:4.4;stroke-dasharray:none;stroke-opacity:1"
       d="m 335.55826,535.25635 c -0.29509,-71.34023 -4.75335,-142.68047 -12.68574,-214.0207 23.00476,65.93465 42.59837,139.37383 60.15496,217.29444 z"
       id="path23" />
    <path
       style="opacity:1;fill:#ac9393;fill-opacity:0.994302;fill-rule:evenodd;stroke:#000000;stroke-width:3.2;stroke-linecap:round;stroke-miterlimit:4.4;stroke-dasharray:none;stroke-opacity:1"
       d="m 276.63096,529.52731 44.60469,-206.65479 c 9.99149,61.13453 10.21737,137.61501 13.09496,209.92853 z"
       id="path22" />
    <path
       style="opacity:1;fill:#de8787;fill-opacity:0.994302;fill-rule:evenodd;stroke:#000000;stroke-width:3.2;stroke-linecap:round;stroke-miterlimit:4.4;stroke-dasharray:none;stroke-opacity:1"
       d="m 215.65757,521.75218 c 0.81843,-3.68296 56.06278,-229.16174 56.06278,-229.16174 l 47.87843,2.4553 2.86453,24.14383 -46.65079,211.56539 z"
       id="path21" />
    <path
       style="opacity:1;fill:#ff5555;fill-opacity:0.994302;fill-rule:evenodd;stroke:#000000;stroke-width:3.2;stroke-linecap:round;stroke-miterlimit:4.4;stroke-dasharray:none;stroke-opacity:1"
       d="m 165.32383,515.61392 c 47.9694,-224.16588 56.86295,-222.62112 56.88121,-222.61427 h 47.87844 c -21.05834,77.36801 -38.93804,153.1467 -55.65357,228.34331 z"
       id="path20" />
    <path
       style="opacity:1;fill:#c8beb7;fill-opacity:0.994302;fill-rule:evenodd;stroke:#000000;stroke-width:3.2;stroke-linecap:round;stroke-miterlimit:4.4;stroke-dasharray:none;stroke-opacity:1"
       d="m 126.44817,505.7927 c 38.08847,-218.00977 43.91372,-210.33103 44.19548,-209.92852 l 49.51531,-0.40922 c -26.64819,79.7246 -41.91834,149.9675 -55.65357,218.9313 z"
       id="path19" />
    <path
       style="opacity:1;fill:#ffdd55;fill-opacity:0.994302;fill-rule:evenodd;stroke:#000000;stroke-width:3.2;stroke-linecap:round;stroke-miterlimit:4.4;stroke-dasharray:none;stroke-opacity:1"
       d="M 92.892348,495.97148 C 89.927475,437.28354 121.80114,301.27186 125.22052,302.41165 l 43.78626,-6.13826 c -17.84256,65.80747 -35.16817,132.1893 -43.37704,208.70087 z"
       id="path10" />
    <path
       style="opacity:1;fill:#ffcc00;fill-opacity:0.994302;fill-rule:evenodd;stroke:#000000;stroke-width:3.2;stroke-linecap:round;stroke-miterlimit:4.4;stroke-dasharray:none;stroke-opacity:1"
       d="m 524.20748,830.71131 c 2.84349,-97.25733 -9.67253,-194.51467 -18.00556,-291.772 l 13.50417,-0.81844 c 6.44315,98.83085 17.71697,198.93294 4.50139,292.59044 z"
       id="path43" />
    <path
       style="opacity:1;fill:#ff5555;fill-opacity:0.994302;fill-rule:evenodd;stroke:#000000;stroke-width:3.2;stroke-linecap:round;stroke-miterlimit:4.4;stroke-dasharray:none;stroke-opacity:1"
       d="M 525.43513,829.89287 C 516.46122,729.96887 497.74,635.61476 481.64887,539.75774 l 23.32539,0.81844 c 9.01411,96.21952 21.63695,192.07816 20.46087,289.31669 z"
       id="path42" />
    <path
       style="opacity:1;fill:#ffd5d5;fill-opacity:0.994302;fill-rule:evenodd;stroke:#000000;stroke-width:3.2;stroke-linecap:round;stroke-miterlimit:4.4;stroke-dasharray:none;stroke-opacity:1"
       d="M 524.6167,837.25879 C 503.02923,736.53573 467.12582,638.41558 434.17965,539.75774 l 46.24157,2.04609 c 16.91969,99.03195 35.59189,198.50203 44.19548,295.45496 z"
       id="path41" />
    <path
       style="opacity:1;fill:#ac9393;fill-opacity:0.994302;fill-rule:evenodd;stroke:#000000;stroke-width:3.2;stroke-linecap:round;stroke-miterlimit:4.4;stroke-dasharray:none;stroke-opacity:1"
       d="m 525.02592,848.71687 -0.81844,-6.54747 C 490.33664,738.58563 434.93684,639.03855 384.66435,538.53009 l 48.69687,1.63687 c 34.64186,101.14707 69.75638,202.0972 91.6647,308.54991 z"
       id="path40" />
    <path
       style="opacity:1;fill:#ff7f2a;fill-opacity:0.994302;fill-rule:evenodd;stroke:#000000;stroke-width:3.2;stroke-linecap:round;stroke-miterlimit:4.4;stroke-dasharray:none;stroke-opacity:1"
       d="M 525.43513,850.35374 C 478.30292,741.20022 401.95532,645.19362 334.73983,545.07757 l 0.81843,-10.23044 48.69687,4.09218 c 51.45925,102.25213 107.30158,202.9573 141.18,311.41443 z"
       id="path39" />
    <path
       style="opacity:1;fill:#deaa87;fill-opacity:0.994302;fill-rule:evenodd;stroke:#000000;stroke-width:3.2;stroke-linecap:round;stroke-miterlimit:4.4;stroke-dasharray:none;stroke-opacity:1"
       d="M 521.34296,849.94453 C 469.80271,771.88455 399.30451,695.4044 335.96748,618.32748 c 0,-1.63687 0.40922,-68.74852 0.40922,-68.74852 63.20785,99.88302 146.90632,196.61364 184.96626,300.36557 z"
       id="path38" />
    <path
       style="opacity:1;fill:#de8787;fill-opacity:0.994302;fill-rule:evenodd;stroke:#000000;stroke-width:3.2;stroke-linecap:round;stroke-miterlimit:4.4;stroke-dasharray:none;stroke-opacity:1"
       d="M 522.29551,851.29828 C 456.00773,796.21861 393.59122,733.49195 334.78997,673.92036 l 1.15745,-55.26783 c 61.69786,76.53053 135.24097,152.58497 186.34809,232.64575 z M 90.280443,745.9711 332.76445,675.94588 l 1.15744,56.71464 z"
       id="path37"
       sodipodi:nodetypes="cccccccc" />
    <path
       style="opacity:1;fill:#ffdd55;fill-opacity:0.994302;fill-rule:evenodd;stroke:#000000;stroke-width:3.2;stroke-linecap:round;stroke-miterlimit:4.4;stroke-dasharray:none;stroke-opacity:1"
       d="M 521.42743,854.19188 C 519.11255,850.71956 336.23678,732.0818 336.23678,732.0818 l -1.73616,-57.87208 z"
       id="path44" />
    <path
       style="opacity:1;fill:#ffd5d5;fill-opacity:0.994302;fill-rule:evenodd;stroke:#000000;stroke-width:3.2;stroke-linecap:round;stroke-miterlimit:4.4;stroke-dasharray:none;stroke-opacity:1"
       d="m 520.8487,853.61316 c -60.36206,2.70371 -121.49306,-3.05094 -184.03321,-24.30627 l -1.73616,-44.56151 z"
       id="path46"
       sodipodi:nodetypes="cccc" />
    <path
       style="opacity:1;fill:#ff5555;fill-opacity:0.994302;fill-rule:evenodd;stroke:#000000;stroke-width:3.2;stroke-linecap:round;stroke-miterlimit:4.4;stroke-dasharray:none;stroke-opacity:1"
       d="m 513.90406,850.71956 c -177.66728,-67.13162 -178.246,-67.13162 -178.246,-67.13162 l -0.57872,-50.92742 z"
       id="path47" />
    <path
       style="opacity:1;fill:#ff5555;fill-opacity:0.994302;fill-rule:evenodd;stroke:#000000;stroke-width:3.2;stroke-linecap:round;stroke-miterlimit:4.4;stroke-dasharray:none;stroke-opacity:1"
       d="m 522.58487,857.08547 c -61.73022,9.69186 -123.46043,18.60247 -185.19065,13.31058 v -39.93173 c 63.80401,20.25541 122.66511,20.73916 182.29705,24.30627 z"
       id="path45"
       sodipodi:nodetypes="ccccc" />
    <path
       style="opacity:1;fill:#ff5555;fill-opacity:0.994302;fill-rule:evenodd;stroke:#000000;stroke-width:3.2;stroke-linecap:round;stroke-miterlimit:4.4;stroke-dasharray:none;stroke-opacity:1"
       d="M 89.123001,743.65621 335.65806,547.46986 335.07934,617.49508 Z"
       id="path48" />
    <path
       style="opacity:1;fill:#ffd42a;fill-opacity:0.994302;fill-rule:evenodd;stroke:#000000;stroke-width:3.2;stroke-linecap:round;stroke-miterlimit:4.4;stroke-dasharray:none;stroke-opacity:1"
       d="M 92.595326,744.81365 333.92189,618.65252 v 55.5572 z"
       id="path49" />
    <path
       style="opacity:1;fill:#784421;fill-opacity:0.994302;fill-rule:evenodd;stroke:#000000;stroke-width:3.2;stroke-linecap:round;stroke-miterlimit:4.4;stroke-dasharray:none;stroke-opacity:1"
       d="m 89.701722,747.12854 244.220168,-13.31058 1.73617,50.34871 C 251.32374,777.69281 171.21278,760.66056 89.701722,747.12854 Z"
       id="path50"
       sodipodi:nodetypes="cccc" />
    <path
       style="opacity:1;fill:#ffb380;fill-opacity:0.994302;fill-rule:evenodd;stroke:#000000;stroke-width:3.2;stroke-linecap:round;stroke-miterlimit:4.4;stroke-dasharray:none;stroke-opacity:1"
       d="M 90.859164,750.02214 336.8155,830.46433 v 39.35301 C 267.74897,861.38512 179.31681,861.13355 90.859164,750.02214 Z"
       id="path52"
       sodipodi:nodetypes="cccc" />
    <path
       style="opacity:1;fill:#ffd42a;fill-opacity:0.994302;fill-rule:evenodd;stroke:#000000;stroke-width:3.2;stroke-linecap:round;stroke-miterlimit:4.4;stroke-dasharray:none;stroke-opacity:1"
       d="m 90.280443,748.8647 c 80.984527,13.33594 161.248457,30.99548 243.641447,35.88069 l 3.47233,45.14022 C 251.93264,810.91348 168.08696,787.73999 90.280443,748.8647 Z"
       id="path51" />
  </g>
</svg>
